M48
;Layer_Color=9474304
;FILE_FORMAT=4:4
METRIC,LZ
;TYPE=PLATED
T1F00S00C0.3500
T2F00S00C0.3500
T3F00S00C0.8000
T4F00S00C1.0000
T5F00S00C1.3000
T6F00S00C1.3970
T7F00S00C1.4986
T8F00S00C1.5000
T9F00S00C3.0000
%
T01
X0052782Y0038002
Y0038762
X0053542
Y0038002
T02
X0001258Y00095
X00232291Y00070992
X00262Y00069776
X0026708Y0005225
X0025692
X00262Y00034724
X0025311Y0013607
Y0017036
X002874
Y0013607
X0032169
Y0017036
X00353791Y00063304
Y00048787
X003937Y000677
X004017
X004097
Y000827
Y000977
X004017
X003937
Y000827
X00436209Y0005075
X0050275Y001126
X004845Y00147483
X00489291Y00152515
Y00167033
X00530013Y00156959
X0054453
X00544508Y00140209
X00529991
X00558459Y00115283
Y00100765
X00585041Y00100515
Y00115033
X00596492Y00136959
X00611009
X0061125Y00153709
X00596733
X0057225Y0018825
X0055925
X0055838Y00217409
X006475Y002155
X00657Y0018825
X0066975
X00657291Y00114508
Y00099991
X00630959
Y00114508
X005815Y000569
X00461768Y00217409
X00714149Y00195179
Y00180662
X00738971
Y00195179
X00749621Y00120249
Y00105732
X00722259
Y00120249
X0076642Y0012887
X0079563Y0012887
X00837176Y00126678
Y00119678
Y00112678
Y00105678
Y00133678
X0083698Y00147486
X00836979Y00154487
X00836979Y00161486
Y00168486
X00836979Y00175487
X00836984Y00191486
X00836984Y00198486
X00836984Y00205486
Y00212486
X00836984Y00219486
X00985566Y00222563
Y00229563
Y00236563
Y00215563
X00698Y000545
X0070796Y-0003
X00853979Y00354686
X00853979Y00361686
X00853979Y00368686
Y00375686
X00853979Y00382686
X00854729Y00401237
X00854729Y00408237
X00854729Y00415237
Y00422237
X00854729Y00429237
X00985566Y00429764
Y00422763
Y00415764
Y00408764
Y00401763
Y00383214
Y00376213
Y00369214
Y00362214
Y00355214
Y00336664
Y00329664
Y00322664
Y00315664
Y00308664
Y00290114
Y00283114
Y00276114
Y00269114
Y00262113
X00985566Y00243563
X0064349Y0025372
Y0026047
Y0026722
X00588041Y00299008
X00556959
X0054684Y00360314
X00549945Y00380017
X0055027Y00387292
X0056683Y0039584
X00579323
X00591816
X00604173
X00616923
X00629423
X00641786
X00654279
X00666772
X00679265
X00507818Y00390087
Y00377009
X0048491Y00380387
X0048498Y00386883
X00486582Y00403935
X00465117Y00413034
X0045482
X00425098Y00406132
X00431848Y00398132
X00434395Y00367406
X00434996Y00354997
X00454996Y00354731
X0046559
X00486582Y003625
X00406056Y00362139
Y00373139
Y00384139
X00395056
Y00373139
X00384056
Y00384139
Y00362139
X00395056
X00395496Y00334132
X00384729Y00337189
X00362477
X00360068Y00347132
X00360318Y00356632
Y00370631
Y00380882
Y00390882
X0036495Y00415279
X00392598Y00418882
Y00409882
X00408818Y00416381
X00399598Y00465732
X00417404Y00342658
X00418493Y00335437
X004265Y00250209
X0040975
X00581138Y00493577
X00285Y0045
X0027Y00435
X0024
X00255Y0045
Y00415
X0024Y004
X0027
X00285Y00415
X00258041Y0032525
X00265935Y00306
X00148791Y00321
X0015235Y0035375
X00148791Y0037475
Y0039225
Y0044925
Y0026625
Y002475
T03
X00005Y000595
X00025
X00045
X00075Y0005975
X00095
Y0007975
Y0009975
X00075
Y0007975
X0012925Y0010025
X0014925
X0016925
X00173709Y0022375
X00153709
X00133709
T04
X0001125Y0023365
X0008825
Y0025905
Y0028445
Y0030985
Y0036665
Y0041745
Y0044285
X0001125
Y0036665
Y0030985
T05
X001315Y-00013
X00195
X003685Y-000175
X00432
X00846641Y-00023423
X00910141
X00958849Y0008927
Y0015277
X00898587Y00493924
X00835087
X00760338
X00696838
X00293Y005075
X002295
X001535
X0009
T06
X00052196Y00130696
X0010325
X00137946Y0013325
X00189
X00137946Y00184304
X00052196Y0018175
X00492446Y00063304
Y0001225
X005435
X00620473
X00671527
X00620473Y00063304
X00735723
Y0001225
X00786777
X00477527Y00486973
X00426473
Y00538027
X00477527
T07
X00077723Y00156223
X00163473Y00158777
X00517973Y00037777
X00646
X0076125
X00452Y005125
T08
X0010325Y0018175
X00189Y00184304
X005435Y00063304
X00671527
X00786777
T09
X0Y0
X0099
Y0052
X0
M30
