%TF.GenerationSoftware,Altium Limited,Altium Designer,22.0.2 (36)*%
G04 Layer_Color=32896*
%FSLAX45Y45*%
%MOMM*%
%TF.SameCoordinates,A85A4143-1F01-4578-B965-72C63468A48A*%
%TF.FilePolarity,Positive*%
%TF.FileFunction,Legend,Bot*%
%TF.Part,Single*%
G01*
G75*
%TA.AperFunction,NonConductor*%
%ADD59C,0.25400*%
D59*
X9071466Y4574600D02*
Y4473033D01*
Y4523816D01*
X9223816D01*
Y4346074D02*
Y4396857D01*
X9198425Y4422249D01*
X9147641D01*
X9122249Y4396857D01*
Y4346074D01*
X9147641Y4320682D01*
X9173033D01*
Y4422249D01*
X9122249Y4244507D02*
Y4193723D01*
X9147641Y4168331D01*
X9223816D01*
Y4244507D01*
X9198425Y4269898D01*
X9173033Y4244507D01*
Y4168331D01*
X9223816Y4117548D02*
X9122249D01*
Y4092156D01*
X9147641Y4066764D01*
X9223816D01*
X9147641D01*
X9122249Y4041372D01*
X9147641Y4015981D01*
X9223816D01*
Y3711279D02*
Y3812846D01*
X9122249Y3711279D01*
X9096858D01*
X9071466Y3736671D01*
Y3787454D01*
X9096858Y3812846D01*
X9223816Y3558928D02*
Y3660496D01*
X9122249Y3558928D01*
X9096858D01*
X9071466Y3584320D01*
Y3635104D01*
X9096858Y3660496D01*
Y3508145D02*
X9071466Y3482753D01*
Y3431970D01*
X9096858Y3406578D01*
X9198425D01*
X9223816Y3431970D01*
Y3482753D01*
X9198425Y3508145D01*
X9096858D01*
X9071466Y3254227D02*
X9096858Y3305011D01*
X9147641Y3355794D01*
X9198425D01*
X9223816Y3330402D01*
Y3279619D01*
X9198425Y3254227D01*
X9173033D01*
X9147641Y3279619D01*
Y3355794D01*
Y3051093D02*
Y2949525D01*
X9096858Y2644824D02*
X9071466Y2670216D01*
Y2720999D01*
X9096858Y2746391D01*
X9198425D01*
X9223816Y2720999D01*
Y2670216D01*
X9198425Y2644824D01*
X9147641D01*
Y2695608D01*
X9122249Y2568649D02*
Y2517865D01*
X9147641Y2492473D01*
X9223816D01*
Y2568649D01*
X9198425Y2594041D01*
X9173033Y2568649D01*
Y2492473D01*
X9223816Y2441690D02*
X9071466D01*
X9223816Y2340123D01*
X9071466D01*
Y2060813D02*
Y2111596D01*
X9096858Y2136988D01*
X9198425D01*
X9223816Y2111596D01*
Y2060813D01*
X9198425Y2035421D01*
X9096858D01*
X9071466Y2060813D01*
X9274600Y1984638D02*
X9122249D01*
Y1908462D01*
X9147641Y1883070D01*
X9198425D01*
X9223816Y1908462D01*
Y1984638D01*
X9096858Y1806895D02*
X9122249D01*
Y1832287D01*
Y1781503D01*
Y1806895D01*
X9198425D01*
X9223816Y1781503D01*
Y1705328D02*
Y1654545D01*
Y1679936D01*
X9122249D01*
Y1705328D01*
Y1476802D02*
Y1552977D01*
X9147641Y1578369D01*
X9198425D01*
X9223816Y1552977D01*
Y1476802D01*
X9122249Y1400627D02*
Y1349843D01*
X9147641Y1324451D01*
X9223816D01*
Y1400627D01*
X9198425Y1426018D01*
X9173033Y1400627D01*
Y1324451D01*
X9223816Y1273668D02*
Y1222884D01*
Y1248276D01*
X9071466D01*
Y1273668D01*
X9096858Y892791D02*
X9071466Y918183D01*
Y968966D01*
X9096858Y994358D01*
X9122249D01*
X9147641Y968966D01*
Y918183D01*
X9173033Y892791D01*
X9198425D01*
X9223816Y918183D01*
Y968966D01*
X9198425Y994358D01*
X9122249Y842007D02*
X9198425D01*
X9223816Y816616D01*
X9198425Y791224D01*
X9223816Y765832D01*
X9198425Y740440D01*
X9122249D01*
X9096858Y664265D02*
X9122249D01*
Y689657D01*
Y638873D01*
Y664265D01*
X9198425D01*
X9223816Y638873D01*
Y562698D02*
Y511914D01*
Y537306D01*
X9122249D01*
Y562698D01*
Y334172D02*
Y410347D01*
X9147641Y435739D01*
X9198425D01*
X9223816Y410347D01*
Y334172D01*
X9071466Y283388D02*
X9223816D01*
X9147641D01*
X9122249Y257996D01*
Y207213D01*
X9147641Y181821D01*
X9223816D01*
%TF.MD5,15495682eeb73a534cea238290c36d8a*%
M02*
