%TF.GenerationSoftware,Altium Limited,Altium Designer,22.0.2 (36)*%
G04 Layer_Color=8388736*
%FSLAX45Y45*%
%MOMM*%
%TF.SameCoordinates,A85A4143-1F01-4578-B965-72C63468A48A*%
%TF.FilePolarity,Negative*%
%TF.FileFunction,Soldermask,Top*%
%TF.Part,Single*%
G01*
G75*
%TA.AperFunction,SMDPad,CuDef*%
%ADD10R,1.01600X3.50520*%
%ADD11R,10.49000X8.38000*%
%ADD12R,0.95822X1.00650*%
%ADD13R,1.00650X0.95822*%
%ADD14R,0.57247X0.66535*%
%ADD15R,1.80315X3.60415*%
%ADD17R,1.60000X3.00000*%
%ADD18R,5.80000X6.20000*%
%ADD32R,0.66535X0.57247*%
%ADD34R,1.95506X0.62213*%
G04:AMPARAMS|DCode=35|XSize=1.95506mm|YSize=0.62213mm|CornerRadius=0.31107mm|HoleSize=0mm|Usage=FLASHONLY|Rotation=0.000|XOffset=0mm|YOffset=0mm|HoleType=Round|Shape=RoundedRectangle|*
%AMROUNDEDRECTD35*
21,1,1.95506,0.00000,0,0,0.0*
21,1,1.33293,0.62213,0,0,0.0*
1,1,0.62213,0.66646,0.00000*
1,1,0.62213,-0.66646,0.00000*
1,1,0.62213,-0.66646,0.00000*
1,1,0.62213,0.66646,0.00000*
%
%ADD35ROUNDEDRECTD35*%
%ADD36R,0.71120X0.39370*%
%TA.AperFunction,ComponentPad*%
%ADD46C,1.90500*%
%ADD48R,1.30000X1.30000*%
%ADD49C,1.30000*%
%ADD55C,1.55000*%
%ADD56R,1.55000X1.55000*%
%ADD57R,1.30000X1.30000*%
%ADD60C,2.20980*%
%ADD61R,2.00320X2.00320*%
%ADD62C,2.00320*%
%ADD63R,2.00320X2.00320*%
%TA.AperFunction,ViaPad*%
%ADD64C,4.20320*%
%TA.AperFunction,SMDPad,CuDef*%
%ADD71O,1.00320X0.40320*%
G04:AMPARAMS|DCode=72|XSize=1.0632mm|YSize=0.4632mm|CornerRadius=0.1341mm|HoleSize=0mm|Usage=FLASHONLY|Rotation=270.000|XOffset=0mm|YOffset=0mm|HoleType=Round|Shape=RoundedRectangle|*
%AMROUNDEDRECTD72*
21,1,1.06320,0.19500,0,0,270.0*
21,1,0.79500,0.46320,0,0,270.0*
1,1,0.26820,-0.09750,-0.39750*
1,1,0.26820,-0.09750,0.39750*
1,1,0.26820,0.09750,0.39750*
1,1,0.26820,0.09750,-0.39750*
%
%ADD72ROUNDEDRECTD72*%
%ADD73R,0.85320X0.85320*%
G04:AMPARAMS|DCode=74|XSize=1.0632mm|YSize=0.4632mm|CornerRadius=0.1341mm|HoleSize=0mm|Usage=FLASHONLY|Rotation=0.000|XOffset=0mm|YOffset=0mm|HoleType=Round|Shape=RoundedRectangle|*
%AMROUNDEDRECTD74*
21,1,1.06320,0.19500,0,0,0.0*
21,1,0.79500,0.46320,0,0,0.0*
1,1,0.26820,0.39750,-0.09750*
1,1,0.26820,-0.39750,-0.09750*
1,1,0.26820,-0.39750,0.09750*
1,1,0.26820,0.39750,0.09750*
%
%ADD74ROUNDEDRECTD74*%
%ADD75O,0.40320X1.00320*%
%ADD76R,1.85320X1.55320*%
%ADD77R,3.40320X7.20320*%
G04:AMPARAMS|DCode=78|XSize=1.2032mm|YSize=1.6232mm|CornerRadius=0.2266mm|HoleSize=0mm|Usage=FLASHONLY|Rotation=90.000|XOffset=0mm|YOffset=0mm|HoleType=Round|Shape=RoundedRectangle|*
%AMROUNDEDRECTD78*
21,1,1.20320,1.17000,0,0,90.0*
21,1,0.75000,1.62320,0,0,90.0*
1,1,0.45320,0.58500,0.37500*
1,1,0.45320,0.58500,-0.37500*
1,1,0.45320,-0.58500,-0.37500*
1,1,0.45320,-0.58500,0.37500*
%
%ADD78ROUNDEDRECTD78*%
%ADD79R,0.85320X0.85320*%
G04:AMPARAMS|DCode=80|XSize=1.4132mm|YSize=0.7932mm|CornerRadius=0.2491mm|HoleSize=0mm|Usage=FLASHONLY|Rotation=90.000|XOffset=0mm|YOffset=0mm|HoleType=Round|Shape=RoundedRectangle|*
%AMROUNDEDRECTD80*
21,1,1.41320,0.29500,0,0,90.0*
21,1,0.91500,0.79320,0,0,90.0*
1,1,0.49820,0.14750,0.45750*
1,1,0.49820,0.14750,-0.45750*
1,1,0.49820,-0.14750,-0.45750*
1,1,0.49820,-0.14750,0.45750*
%
%ADD80ROUNDEDRECTD80*%
%ADD81R,2.90320X1.20320*%
G04:AMPARAMS|DCode=82|XSize=1.2032mm|YSize=1.6232mm|CornerRadius=0.2266mm|HoleSize=0mm|Usage=FLASHONLY|Rotation=0.000|XOffset=0mm|YOffset=0mm|HoleType=Round|Shape=RoundedRectangle|*
%AMROUNDEDRECTD82*
21,1,1.20320,1.17000,0,0,0.0*
21,1,0.75000,1.62320,0,0,0.0*
1,1,0.45320,0.37500,-0.58500*
1,1,0.45320,-0.37500,-0.58500*
1,1,0.45320,-0.37500,0.58500*
1,1,0.45320,0.37500,0.58500*
%
%ADD82ROUNDEDRECTD82*%
%ADD83R,3.50320X3.50320*%
%ADD84R,1.88320X1.88320*%
%ADD85C,1.21920*%
%TA.AperFunction,ComponentPad*%
%ADD86C,0.85320*%
%TA.AperFunction,ViaPad*%
%ADD87C,0.85320*%
D10*
X3128000Y522500D02*
D03*
X2620000D02*
D03*
D11*
X2874000Y1449600D02*
D03*
D12*
X4265000Y2552417D02*
D03*
Y2697588D02*
D03*
X4097502Y2552417D02*
D03*
Y2697588D02*
D03*
X2275001Y855087D02*
D03*
Y709916D02*
D03*
X4335978Y3391146D02*
D03*
Y3536317D02*
D03*
X5632500Y1152826D02*
D03*
Y1007655D02*
D03*
X5802502Y1150327D02*
D03*
Y1005155D02*
D03*
X7189398Y1951788D02*
D03*
Y1806617D02*
D03*
X7341798Y1951788D02*
D03*
Y1806617D02*
D03*
X7448301Y1057317D02*
D03*
Y1202488D02*
D03*
X7270501Y1057317D02*
D03*
Y1202488D02*
D03*
X6525000Y999913D02*
D03*
Y1145084D02*
D03*
X6357503Y999913D02*
D03*
Y1145084D02*
D03*
X4844999Y1525154D02*
D03*
Y1670326D02*
D03*
X3490000Y487869D02*
D03*
Y633040D02*
D03*
X5832500Y2990084D02*
D03*
Y2844913D02*
D03*
X5617499Y2990084D02*
D03*
Y2844913D02*
D03*
D13*
X4865817Y3916741D02*
D03*
X5010988D02*
D03*
X2709677Y3060000D02*
D03*
X2854848D02*
D03*
X2384912Y3252502D02*
D03*
X2530083D02*
D03*
X6110086Y1417499D02*
D03*
X5964915D02*
D03*
X6112499Y1585002D02*
D03*
X5967328D02*
D03*
X5445302Y1617499D02*
D03*
X5300131D02*
D03*
X5445084Y1450001D02*
D03*
X5299913D02*
D03*
X4412416Y507498D02*
D03*
X4557588D02*
D03*
X1437584Y2474998D02*
D03*
X1292412D02*
D03*
X1437584Y2662500D02*
D03*
X1292412D02*
D03*
Y3210002D02*
D03*
X1437584D02*
D03*
Y3747502D02*
D03*
X1292412D02*
D03*
X1437584Y3922498D02*
D03*
X1292412D02*
D03*
X1437584Y4492499D02*
D03*
X1292412D02*
D03*
X3651796Y3323984D02*
D03*
X3796967D02*
D03*
X4865817Y4087258D02*
D03*
X5010988D02*
D03*
Y3577088D02*
D03*
X4865817D02*
D03*
Y3749590D02*
D03*
X5010988D02*
D03*
D14*
X4545908Y3583348D02*
D03*
Y3664059D02*
D03*
X4657033Y3995438D02*
D03*
Y4076149D02*
D03*
Y3583348D02*
D03*
Y3664059D02*
D03*
X4545908Y3871095D02*
D03*
Y3790379D02*
D03*
X4657033Y3871095D02*
D03*
Y3790379D02*
D03*
X4545908Y4076149D02*
D03*
Y3995438D02*
D03*
D15*
X8459952Y1617501D02*
D03*
X8459999Y2057500D02*
D03*
X8870099D02*
D03*
X9355405Y3689500D02*
D03*
X9765505D02*
D03*
X8870055Y1199418D02*
D03*
X8459952D02*
D03*
X9355404Y2292998D02*
D03*
X9765503D02*
D03*
X9355405Y2758500D02*
D03*
X9765505D02*
D03*
X9355405Y3224000D02*
D03*
X9765505D02*
D03*
X9047552Y3689497D02*
D03*
X8637454D02*
D03*
X9047552Y4155002D02*
D03*
X8637449D02*
D03*
X9355405Y4155000D02*
D03*
X9765505D02*
D03*
X8870050Y1617501D02*
D03*
D17*
X2852501Y3537500D02*
D03*
X2396500D02*
D03*
X4473000Y827000D02*
D03*
X4016999D02*
D03*
D18*
X2624500Y4255502D02*
D03*
X4245000Y1545002D02*
D03*
D32*
X5406852Y4287501D02*
D03*
X5487563D02*
D03*
X5413639Y3390002D02*
D03*
X5494350D02*
D03*
D34*
X4617684Y2586199D02*
D03*
D35*
Y2459199D02*
D03*
Y2332199D02*
D03*
Y2205199D02*
D03*
X5583798D02*
D03*
Y2332199D02*
D03*
Y2459199D02*
D03*
Y2586199D02*
D03*
D36*
X5992500Y2657425D02*
D03*
Y2587575D02*
D03*
D46*
X1032500Y1817500D02*
D03*
Y1306960D02*
D03*
X521960D02*
D03*
Y1817500D02*
D03*
X6715270Y633040D02*
D03*
Y122500D02*
D03*
X6204730D02*
D03*
Y633040D02*
D03*
X7867770D02*
D03*
Y122500D02*
D03*
X7357230D02*
D03*
Y633040D02*
D03*
X1890000Y1843040D02*
D03*
Y1332500D02*
D03*
X1379460D02*
D03*
Y1843040D02*
D03*
X5435000Y633040D02*
D03*
Y122500D02*
D03*
X4924460D02*
D03*
Y633040D02*
D03*
X4775271Y4869730D02*
D03*
X4264731D02*
D03*
Y5380270D02*
D03*
X4775271D02*
D03*
D48*
X1737090Y2237503D02*
D03*
X1692498Y1002499D02*
D03*
X450001Y595001D02*
D03*
D49*
X1537091Y2237503D02*
D03*
X1337091D02*
D03*
X950000Y997500D02*
D03*
Y797500D02*
D03*
X750001Y597501D02*
D03*
Y797500D02*
D03*
X1492498Y1002499D02*
D03*
X1292499D02*
D03*
X50002Y595001D02*
D03*
X250002D02*
D03*
D55*
X112501Y3098502D02*
D03*
Y2336502D02*
D03*
X882502Y3098502D02*
D03*
Y2844502D02*
D03*
Y2590502D02*
D03*
X112501Y3666501D02*
D03*
Y4428501D02*
D03*
X882502D02*
D03*
Y4174501D02*
D03*
D56*
Y2336502D02*
D03*
Y3666501D02*
D03*
D57*
X950000Y597501D02*
D03*
X750001Y997500D02*
D03*
D60*
X777230Y1562230D02*
D03*
X6460000Y377770D02*
D03*
X7612500D02*
D03*
X1634730Y1587770D02*
D03*
X5179730Y377770D02*
D03*
X4520001Y5125000D02*
D03*
D61*
X8985873Y4939243D02*
D03*
X7603376D02*
D03*
X8466406Y-234231D02*
D03*
X3685001Y-175000D02*
D03*
X1314998Y-130001D02*
D03*
X1534998Y5075003D02*
D03*
X2930001D02*
D03*
D62*
X8350873Y4939243D02*
D03*
X6968376D02*
D03*
X9588487Y1527703D02*
D03*
X9101406Y-234231D02*
D03*
X4320001Y-175000D02*
D03*
X1949998Y-130001D02*
D03*
X899998Y5075003D02*
D03*
X2295001D02*
D03*
D63*
X9588487Y892703D02*
D03*
D64*
X9900000Y5200000D02*
D03*
Y0D02*
D03*
X0D02*
D03*
Y5200000D02*
D03*
D71*
X4205561Y3806391D02*
D03*
Y3856389D02*
D03*
X3695560Y3556389D02*
D03*
Y3906391D02*
D03*
Y3856389D02*
D03*
Y3806391D02*
D03*
Y3756389D02*
D03*
Y3706391D02*
D03*
Y3656389D02*
D03*
Y3606392D02*
D03*
X4205561Y3556389D02*
D03*
Y3606392D02*
D03*
Y3656389D02*
D03*
Y3706391D02*
D03*
Y3756389D02*
D03*
Y3906391D02*
D03*
D72*
X5291206Y3694665D02*
D03*
X5391205D02*
D03*
X5341203D02*
D03*
X5241203D02*
D03*
X5291206Y3981670D02*
D03*
X5341203D02*
D03*
X5391205D02*
D03*
X5241203D02*
D03*
D73*
X4975905Y3435168D02*
D03*
X5267106Y3558668D02*
D03*
X5075905Y4230000D02*
D03*
X4975905D02*
D03*
X5482203Y4174999D02*
D03*
X5582203D02*
D03*
X5289707Y4285002D02*
D03*
X5189707D02*
D03*
X5367106Y3558668D02*
D03*
X5075905Y3435168D02*
D03*
X5287208Y3392501D02*
D03*
X5187203D02*
D03*
X5482203Y3499999D02*
D03*
X5582203D02*
D03*
X6100201Y2982398D02*
D03*
X6200200D02*
D03*
X6100201Y1830904D02*
D03*
X6200200D02*
D03*
X5884600Y2260200D02*
D03*
X5784601D02*
D03*
X5884600Y2361800D02*
D03*
X5784601D02*
D03*
X6200200Y2214734D02*
D03*
X6100201D02*
D03*
X6200200Y2342679D02*
D03*
X6100201D02*
D03*
X6200200Y2598569D02*
D03*
X6100201D02*
D03*
X6200200Y2470624D02*
D03*
X6100201D02*
D03*
X6200200Y2854458D02*
D03*
X6100201D02*
D03*
X6200200Y2726513D02*
D03*
X6100201D02*
D03*
X6200200Y2086789D02*
D03*
X6100201D02*
D03*
X6200200Y1958849D02*
D03*
X6100201D02*
D03*
X5884600Y2476100D02*
D03*
X5784601D02*
D03*
X5885398Y2145900D02*
D03*
X5785398D02*
D03*
X5885398Y2590400D02*
D03*
X5785398D02*
D03*
X5366207Y4130168D02*
D03*
X5266207D02*
D03*
D74*
X5172704Y3813166D02*
D03*
X5459704Y3913166D02*
D03*
Y3863169D02*
D03*
Y3813166D02*
D03*
Y3763169D02*
D03*
X5172704D02*
D03*
Y3913166D02*
D03*
Y3863169D02*
D03*
D75*
X3775560Y3476389D02*
D03*
X3825562D02*
D03*
X3875559D02*
D03*
X4125561Y3986391D02*
D03*
X4075559D02*
D03*
X4025562D02*
D03*
X3975559D02*
D03*
X3925562D02*
D03*
X3875559D02*
D03*
X3825562D02*
D03*
X3775560D02*
D03*
X3925562Y3476389D02*
D03*
X3975559D02*
D03*
X4025562D02*
D03*
X4075559D02*
D03*
X4125561D02*
D03*
D76*
X7312400Y3004699D02*
D03*
Y2404701D02*
D03*
X6517401D02*
D03*
Y3004699D02*
D03*
X7312400Y2804700D02*
D03*
Y2604700D02*
D03*
X6517401Y2804700D02*
D03*
Y2604700D02*
D03*
X8650000Y3255001D02*
D03*
Y2655002D02*
D03*
X7855000D02*
D03*
Y3255001D02*
D03*
X8650000Y3055002D02*
D03*
Y2855002D02*
D03*
X7855000Y3055002D02*
D03*
Y2855002D02*
D03*
D77*
X6823903Y2704700D02*
D03*
X8161502Y2955002D02*
D03*
D78*
X5027498Y1076001D02*
D03*
Y889001D02*
D03*
X5302498D02*
D03*
Y1076001D02*
D03*
X5814999Y805999D02*
D03*
Y618999D02*
D03*
X6070000Y1101000D02*
D03*
Y914000D02*
D03*
X6980001Y595001D02*
D03*
Y782001D02*
D03*
Y978999D02*
D03*
Y1165998D02*
D03*
X7619999Y2674002D02*
D03*
Y2861001D02*
D03*
X3995976Y4420319D02*
D03*
Y4607319D02*
D03*
D79*
X6314998Y1850000D02*
D03*
Y1750000D02*
D03*
X6442501Y1850000D02*
D03*
Y1750000D02*
D03*
X6569999D02*
D03*
Y1850000D02*
D03*
X6697502Y1750000D02*
D03*
Y1850000D02*
D03*
X7956301Y2108598D02*
D03*
Y2208602D02*
D03*
Y1867298D02*
D03*
Y1967302D02*
D03*
X7664201Y1867298D02*
D03*
Y1967302D02*
D03*
Y1625998D02*
D03*
Y1726002D02*
D03*
X7956301Y1625998D02*
D03*
Y1726002D02*
D03*
Y1321198D02*
D03*
Y1421202D02*
D03*
X7664201D02*
D03*
Y1321203D02*
D03*
X5982502Y1750000D02*
D03*
Y1850000D02*
D03*
X5852500D02*
D03*
Y1750000D02*
D03*
X5722503D02*
D03*
Y1850000D02*
D03*
X5592500Y1750000D02*
D03*
Y1850000D02*
D03*
X6542130Y3887502D02*
D03*
Y3787502D02*
D03*
X6042426Y3887502D02*
D03*
Y3787502D02*
D03*
X5792576Y3887502D02*
D03*
Y3787502D02*
D03*
X6292281Y3887502D02*
D03*
Y3787502D02*
D03*
X6417208Y3887502D02*
D03*
Y3787502D02*
D03*
X6667058Y3887502D02*
D03*
Y3787502D02*
D03*
X6791985D02*
D03*
Y3887502D02*
D03*
X5667649D02*
D03*
Y3787502D02*
D03*
X6167353D02*
D03*
Y3887502D02*
D03*
X5917498Y3787502D02*
D03*
Y3887502D02*
D03*
X7664201Y2108598D02*
D03*
Y2208602D02*
D03*
D80*
X7264399Y1372699D02*
D03*
X7359401D02*
D03*
X7454402D02*
D03*
Y1623701D02*
D03*
X7264399D02*
D03*
X6262502Y1615502D02*
D03*
X6452499D02*
D03*
Y1364499D02*
D03*
X6357503D02*
D03*
X6262502D02*
D03*
X5627502Y1615502D02*
D03*
X5817499D02*
D03*
Y1364499D02*
D03*
X5722503D02*
D03*
X5627502D02*
D03*
D81*
X1369588Y3044999D02*
D03*
Y2824999D02*
D03*
Y4292500D02*
D03*
Y4072500D02*
D03*
D82*
X1286499Y3537500D02*
D03*
X1473499D02*
D03*
X3547478Y4436316D02*
D03*
X3734478D02*
D03*
D83*
X3950561Y3731390D02*
D03*
D84*
X5316204Y3838165D02*
D03*
D85*
X5815000Y5045000D02*
D03*
X6382501Y2157498D02*
D03*
X6357823Y2406651D02*
D03*
X2719999Y-110001D02*
D03*
X3600002Y1552500D02*
D03*
X6214998Y3424998D02*
D03*
X7004598Y-299998D02*
D03*
X50800Y947500D02*
D03*
X3039998Y3160000D02*
D03*
D86*
X3216900Y1703600D02*
D03*
X2874000D02*
D03*
X2531100D02*
D03*
X3216900Y1360700D02*
D03*
X2874000D02*
D03*
X2531100D02*
D03*
D87*
X4016999Y677000D02*
D03*
X8371759Y1196782D02*
D03*
Y1266782D02*
D03*
Y1336782D02*
D03*
X4849104Y3803871D02*
D03*
X5078184Y3900873D02*
D03*
Y3770094D02*
D03*
X3954962Y3341317D02*
D03*
X4174043Y3426584D02*
D03*
X4343951Y3674059D02*
D03*
X4349965Y3549974D02*
D03*
X4549965Y3547314D02*
D03*
X4548204Y4130344D02*
D03*
X4651175D02*
D03*
X4655896Y3547314D02*
D03*
X4849797Y3868829D02*
D03*
X4617684Y2174092D02*
D03*
X4097502Y2502092D02*
D03*
X4265000D02*
D03*
X7141487Y1951788D02*
D03*
X7389709D02*
D03*
X7141487Y1806617D02*
D03*
X7389709D02*
D03*
X3995976Y4657319D02*
D03*
X2400000Y4000000D02*
D03*
X2700000D02*
D03*
X2550000Y4150000D02*
D03*
X2850000D02*
D03*
X2400000Y4350000D02*
D03*
X2700000D02*
D03*
X2850000Y4500000D02*
D03*
X2550000D02*
D03*
X5880411Y2990084D02*
D03*
X5569588D02*
D03*
X5027498Y1126001D02*
D03*
X5814999Y568999D02*
D03*
X6980001Y545001D02*
D03*
X8369842Y1984864D02*
D03*
X8369842Y1914864D02*
D03*
X8369841Y2054864D02*
D03*
Y2124864D02*
D03*
X8369841Y2194864D02*
D03*
X8369794Y1544865D02*
D03*
X8369795Y1474865D02*
D03*
X8369794Y1614865D02*
D03*
Y1684865D02*
D03*
X8369793Y1754865D02*
D03*
X8539794Y3616861D02*
D03*
X8539794Y3546862D02*
D03*
X8539793Y3686861D02*
D03*
Y3756861D02*
D03*
X8539793Y3826862D02*
D03*
X8547292Y4082366D02*
D03*
X8547292Y4012367D02*
D03*
X8547291Y4152366D02*
D03*
Y4222366D02*
D03*
X8547291Y4292367D02*
D03*
X1487909Y2474998D02*
D03*
Y2662500D02*
D03*
Y3210002D02*
D03*
Y4492499D02*
D03*
X1523499Y3537500D02*
D03*
X1487909Y3747502D02*
D03*
Y3922498D02*
D03*
X2322912Y709916D02*
D03*
X2670799Y522500D02*
D03*
X2569199D02*
D03*
X2619999Y697760D02*
D03*
Y347240D02*
D03*
X3537911Y633040D02*
D03*
Y487869D02*
D03*
X4016999Y977000D02*
D03*
X3936999D02*
D03*
X4096999D02*
D03*
Y827000D02*
D03*
X3936999D02*
D03*
Y677000D02*
D03*
X4096999D02*
D03*
X4362091Y507498D02*
D03*
X4844999Y1474829D02*
D03*
X4892910Y1525154D02*
D03*
Y1670326D02*
D03*
X5445302Y1569588D02*
D03*
X5300131D02*
D03*
X5299913Y1402090D02*
D03*
X5445084D02*
D03*
X6112499Y1537091D02*
D03*
X5967328D02*
D03*
X6110086Y1369588D02*
D03*
X5964915D02*
D03*
X5850413Y1150327D02*
D03*
X5584589Y1152826D02*
D03*
Y1007655D02*
D03*
X5850413Y1005155D02*
D03*
X7956301Y1288697D02*
D03*
X7664201Y1288703D02*
D03*
X7496212Y1057317D02*
D03*
Y1202488D02*
D03*
X7222590D02*
D03*
Y1057317D02*
D03*
X6309592Y1145084D02*
D03*
Y999913D02*
D03*
X6572911D02*
D03*
Y1145084D02*
D03*
X5592500Y1882500D02*
D03*
X5722503D02*
D03*
X6569999D02*
D03*
X6697502D02*
D03*
X6434901Y2604700D02*
D03*
Y2672200D02*
D03*
Y2537200D02*
D03*
X5583798Y2174092D02*
D03*
X2659351Y3060000D02*
D03*
X2580409Y3252502D02*
D03*
X5502704Y3872919D02*
D03*
X5499454Y3800166D02*
D03*
X4865817Y4039347D02*
D03*
Y3624999D02*
D03*
X4184931Y3354368D02*
D03*
X3847292Y3371895D02*
D03*
X3603185Y3566317D02*
D03*
X3624765Y3371895D02*
D03*
X8371759Y1126782D02*
D03*
Y1056782D02*
D03*
X9855661Y2365633D02*
D03*
Y2435633D02*
D03*
Y2295633D02*
D03*
Y2225633D02*
D03*
Y2155633D02*
D03*
X9855663Y2831136D02*
D03*
Y2901136D02*
D03*
Y2761136D02*
D03*
Y2691136D02*
D03*
Y2621135D02*
D03*
Y3296636D02*
D03*
Y3366636D02*
D03*
Y3226636D02*
D03*
Y3156636D02*
D03*
Y3086635D02*
D03*
Y3762135D02*
D03*
Y3832136D02*
D03*
Y3692136D02*
D03*
Y3622136D02*
D03*
Y3552135D02*
D03*
Y4017635D02*
D03*
Y4087635D02*
D03*
Y4157636D02*
D03*
X4060563Y3841387D02*
D03*
Y3731390D02*
D03*
Y3621388D02*
D03*
X3950561Y3841387D02*
D03*
Y3731390D02*
D03*
Y3621388D02*
D03*
X3840563Y3841387D02*
D03*
Y3731390D02*
D03*
Y3621388D02*
D03*
X9855663Y4297636D02*
D03*
Y4227635D02*
D03*
X5811378Y4935765D02*
D03*
X6475003Y2154998D02*
D03*
X7079599Y-299998D02*
D03*
X4250977Y4061316D02*
D03*
X4318480Y3981316D02*
D03*
X4088183Y4163815D02*
D03*
X3649505Y4152791D02*
D03*
X125796Y949999D02*
D03*
X5468401Y3603139D02*
D03*
X3600681Y3471319D02*
D03*
X3603185Y3808819D02*
D03*
Y3908819D02*
D03*
Y3706315D02*
D03*
X3925978Y4188819D02*
D03*
Y4098816D02*
D03*
X6169228Y3958398D02*
D03*
X6041725D02*
D03*
X5918159D02*
D03*
X6294226D02*
D03*
X5668304D02*
D03*
X5793231D02*
D03*
X6542791D02*
D03*
X6417863D02*
D03*
X6667718D02*
D03*
X6792645D02*
D03*
%TF.MD5,93a5d976146cc01958acd2e5bf17db47*%
M02*
