%TF.GenerationSoftware,Altium Limited,Altium Designer,22.0.2 (36)*%
G04 Layer_Physical_Order=4*
G04 Layer_Color=16711680*
%FSLAX45Y45*%
%MOMM*%
%TF.SameCoordinates,A85A4143-1F01-4578-B965-72C63468A48A*%
%TF.FilePolarity,Positive*%
%TF.FileFunction,Copper,L4,Bot,Signal*%
%TF.Part,Single*%
G01*
G75*
%TA.AperFunction,ComponentPad*%
%ADD45C,0.65000*%
%ADD46C,1.90500*%
%ADD47C,2.00660*%
%ADD48R,1.30000X1.30000*%
%ADD49C,1.30000*%
%ADD50R,1.80000X1.80000*%
%ADD51C,1.80000*%
%ADD52R,1.80000X1.80000*%
%ADD53C,0.70000*%
%TA.AperFunction,ViaPad*%
%ADD54C,4.00000*%
%TA.AperFunction,ComponentPad*%
%ADD55C,1.55000*%
%ADD56R,1.55000X1.55000*%
%ADD57R,1.30000X1.30000*%
%TA.AperFunction,ViaPad*%
%ADD58C,0.65000*%
G36*
X9353300Y5600300D02*
X9480300Y5473300D01*
Y1618637D01*
X9475819Y1614156D01*
X9457282Y1582050D01*
X9447687Y1546240D01*
Y1509166D01*
X9457282Y1473356D01*
X9475819Y1441250D01*
X9480300Y1436769D01*
Y1033503D01*
X9447687D01*
Y751903D01*
X9480300D01*
Y-165000D01*
X9239192Y-383298D01*
X9167504Y-448204D01*
X2400705Y-448206D01*
X2090798Y-138298D01*
Y-111464D01*
X2081203Y-75654D01*
X2062666Y-43548D01*
X2050800Y-31682D01*
Y5536800D01*
X2088900Y5613000D01*
X9353300D01*
Y5600300D01*
D02*
G37*
%LPC*%
G36*
X4794498Y5526320D02*
X4756043D01*
X4718897Y5516367D01*
X4685594Y5497139D01*
X4658401Y5469947D01*
X4639174Y5436643D01*
X4629221Y5399498D01*
Y5361042D01*
X4639174Y5323897D01*
X4658401Y5290593D01*
X4685594Y5263401D01*
X4718897Y5244173D01*
X4756043Y5234220D01*
X4794498D01*
X4831644Y5244173D01*
X4864947Y5263401D01*
X4892140Y5290593D01*
X4911368Y5323897D01*
X4921321Y5361042D01*
Y5399498D01*
X4911368Y5436643D01*
X4892140Y5469947D01*
X4864947Y5497139D01*
X4831644Y5516367D01*
X4794498Y5526320D01*
D02*
G37*
G36*
X4283958D02*
X4245503D01*
X4208357Y5516367D01*
X4175054Y5497139D01*
X4147861Y5469947D01*
X4128634Y5436643D01*
X4118681Y5399498D01*
Y5361042D01*
X4128634Y5323897D01*
X4147861Y5290593D01*
X4175054Y5263401D01*
X4208357Y5244173D01*
X4245503Y5234220D01*
X4283958D01*
X4321104Y5244173D01*
X4354407Y5263401D01*
X4381600Y5290593D01*
X4400828Y5323897D01*
X4410781Y5361042D01*
Y5399498D01*
X4400828Y5436643D01*
X4381600Y5469947D01*
X4354407Y5497139D01*
X4321104Y5516367D01*
X4283958Y5526320D01*
D02*
G37*
G36*
X4534886Y5276130D02*
X4505116D01*
X4475918Y5270322D01*
X4448414Y5258930D01*
X4423661Y5242390D01*
X4402610Y5221340D01*
X4386071Y5196587D01*
X4374678Y5169083D01*
X4368871Y5139885D01*
Y5110115D01*
X4374678Y5080917D01*
X4386071Y5053413D01*
X4402610Y5028660D01*
X4423661Y5007609D01*
X4448414Y4991070D01*
X4475918Y4979678D01*
X4505116Y4973870D01*
X4534886D01*
X4564084Y4979678D01*
X4591587Y4991070D01*
X4616340Y5007609D01*
X4637391Y5028660D01*
X4653930Y5053413D01*
X4665323Y5080917D01*
X4671131Y5110115D01*
Y5139885D01*
X4665323Y5169083D01*
X4653930Y5196587D01*
X4637391Y5221340D01*
X4616340Y5242390D01*
X4591587Y5258930D01*
X4564084Y5270322D01*
X4534886Y5276130D01*
D02*
G37*
G36*
X3070801Y5215802D02*
X2789201D01*
Y4934203D01*
X3070801D01*
Y5215802D01*
D02*
G37*
G36*
X2313538D02*
X2276465D01*
X2240655Y5206207D01*
X2208548Y5187670D01*
X2182333Y5161456D01*
X2163797Y5129349D01*
X2154201Y5093539D01*
Y5056466D01*
X2163797Y5020656D01*
X2182333Y4988550D01*
X2208548Y4962335D01*
X2240655Y4943798D01*
X2276465Y4934203D01*
X2313538D01*
X2349348Y4943798D01*
X2381454Y4962335D01*
X2407669Y4988550D01*
X2426206Y5020656D01*
X2435801Y5056466D01*
Y5093539D01*
X2426206Y5129349D01*
X2407669Y5161456D01*
X2381454Y5187670D01*
X2349348Y5206207D01*
X2313538Y5215802D01*
D02*
G37*
G36*
X5822345Y5019065D02*
X5800411D01*
X5779225Y5013388D01*
X5760231Y5002422D01*
X5744721Y4986912D01*
X5733755Y4967917D01*
X5728078Y4946732D01*
Y4924798D01*
X5733755Y4903612D01*
X5744721Y4884617D01*
X5760231Y4869108D01*
X5779225Y4858141D01*
X5800411Y4852465D01*
X5822345D01*
X5843531Y4858141D01*
X5862525Y4869108D01*
X5878035Y4884617D01*
X5889001Y4903612D01*
X5894678Y4924798D01*
Y4946732D01*
X5889001Y4967917D01*
X5878035Y4986912D01*
X5862525Y5002422D01*
X5843531Y5013388D01*
X5822345Y5019065D01*
D02*
G37*
G36*
X9126673Y5080043D02*
X8845073D01*
Y4798444D01*
X9126673D01*
Y5080043D01*
D02*
G37*
G36*
X8369410D02*
X8332336D01*
X8296526Y5070448D01*
X8264420Y5051911D01*
X8238205Y5025696D01*
X8219669Y4993590D01*
X8210073Y4957780D01*
Y4920707D01*
X8219669Y4884897D01*
X8238205Y4852790D01*
X8264420Y4826576D01*
X8296526Y4808039D01*
X8332336Y4798444D01*
X8369410D01*
X8405220Y4808039D01*
X8437326Y4826576D01*
X8463541Y4852790D01*
X8482078Y4884897D01*
X8491673Y4920707D01*
Y4957780D01*
X8482078Y4993590D01*
X8463541Y5025696D01*
X8437326Y5051911D01*
X8405220Y5070448D01*
X8369410Y5080043D01*
D02*
G37*
G36*
X7744176D02*
X7462577D01*
Y4798444D01*
X7744176D01*
Y5080043D01*
D02*
G37*
G36*
X6986913D02*
X6949840D01*
X6914030Y5070448D01*
X6881923Y5051911D01*
X6855709Y5025696D01*
X6837172Y4993590D01*
X6827577Y4957780D01*
Y4920707D01*
X6837172Y4884897D01*
X6855709Y4852790D01*
X6881923Y4826576D01*
X6914030Y4808039D01*
X6949840Y4798444D01*
X6986913D01*
X7022723Y4808039D01*
X7054829Y4826576D01*
X7081044Y4852790D01*
X7099581Y4884897D01*
X7109176Y4920707D01*
Y4957780D01*
X7099581Y4993590D01*
X7081044Y5025696D01*
X7054829Y5051911D01*
X7022723Y5070448D01*
X6986913Y5080043D01*
D02*
G37*
G36*
X4794498Y5015780D02*
X4756043D01*
X4718897Y5005827D01*
X4685594Y4986599D01*
X4658401Y4959407D01*
X4639174Y4926103D01*
X4629221Y4888958D01*
Y4850502D01*
X4639174Y4813357D01*
X4658401Y4780053D01*
X4685594Y4752861D01*
X4718897Y4733633D01*
X4756043Y4723680D01*
X4794498D01*
X4831644Y4733633D01*
X4864947Y4752861D01*
X4892140Y4780053D01*
X4911368Y4813357D01*
X4921321Y4850502D01*
Y4888958D01*
X4911368Y4926103D01*
X4892140Y4959407D01*
X4864947Y4986599D01*
X4831644Y5005827D01*
X4794498Y5015780D01*
D02*
G37*
G36*
X4283958D02*
X4245503D01*
X4208357Y5005827D01*
X4175054Y4986599D01*
X4147861Y4959407D01*
X4128634Y4926103D01*
X4118681Y4888958D01*
Y4850502D01*
X4128634Y4813357D01*
X4147861Y4780053D01*
X4175054Y4752861D01*
X4208357Y4733633D01*
X4245503Y4723680D01*
X4283958D01*
X4321104Y4733633D01*
X4354407Y4752861D01*
X4381600Y4780053D01*
X4400828Y4813357D01*
X4410781Y4850502D01*
Y4888958D01*
X4400828Y4926103D01*
X4381600Y4959407D01*
X4354407Y4986599D01*
X4321104Y5005827D01*
X4283958Y5015780D01*
D02*
G37*
G36*
X4006942Y4740619D02*
X3985009D01*
X3963823Y4734943D01*
X3944828Y4723976D01*
X3929319Y4708467D01*
X3918352Y4689472D01*
X3912676Y4668286D01*
Y4646353D01*
X3918352Y4625167D01*
X3929319Y4606172D01*
X3944828Y4590663D01*
X3963823Y4579696D01*
X3985009Y4574019D01*
X4006942D01*
X4028128Y4579696D01*
X4047123Y4590663D01*
X4062632Y4606172D01*
X4073599Y4625167D01*
X4079276Y4646353D01*
Y4668286D01*
X4073599Y4689472D01*
X4062632Y4708467D01*
X4047123Y4723976D01*
X4028128Y4734943D01*
X4006942Y4740619D01*
D02*
G37*
G36*
X2860967Y4583300D02*
X2839033D01*
X2817848Y4577623D01*
X2798853Y4566657D01*
X2783343Y4551147D01*
X2772377Y4532152D01*
X2766700Y4510967D01*
Y4489033D01*
X2772377Y4467847D01*
X2783343Y4448852D01*
X2798853Y4433343D01*
X2817848Y4422376D01*
X2839033Y4416700D01*
X2860967D01*
X2882153Y4422376D01*
X2901148Y4433343D01*
X2916657Y4448852D01*
X2927624Y4467847D01*
X2933300Y4489033D01*
Y4510967D01*
X2927624Y4532152D01*
X2916657Y4551147D01*
X2901148Y4566657D01*
X2882153Y4577623D01*
X2860967Y4583300D01*
D02*
G37*
G36*
X2560967D02*
X2539033D01*
X2517847Y4577623D01*
X2498853Y4566657D01*
X2483343Y4551147D01*
X2472377Y4532152D01*
X2466700Y4510967D01*
Y4489033D01*
X2472377Y4467847D01*
X2483343Y4448852D01*
X2498853Y4433343D01*
X2517847Y4422376D01*
X2539033Y4416700D01*
X2560967D01*
X2582153Y4422376D01*
X2601147Y4433343D01*
X2616657Y4448852D01*
X2627623Y4467847D01*
X2633300Y4489033D01*
Y4510967D01*
X2627623Y4532152D01*
X2616657Y4551147D01*
X2601147Y4566657D01*
X2582153Y4577623D01*
X2560967Y4583300D01*
D02*
G37*
G36*
X2710967Y4433300D02*
X2689033D01*
X2667848Y4427623D01*
X2648853Y4416657D01*
X2633343Y4401147D01*
X2622377Y4382153D01*
X2616700Y4360967D01*
Y4339033D01*
X2622377Y4317847D01*
X2633343Y4298852D01*
X2648853Y4283343D01*
X2667848Y4272377D01*
X2689033Y4266700D01*
X2710967D01*
X2732153Y4272377D01*
X2751148Y4283343D01*
X2766657Y4298852D01*
X2777624Y4317847D01*
X2783300Y4339033D01*
Y4360967D01*
X2777624Y4382153D01*
X2766657Y4401147D01*
X2751148Y4416657D01*
X2732153Y4427623D01*
X2710967Y4433300D01*
D02*
G37*
G36*
X2410967D02*
X2389033D01*
X2367847Y4427623D01*
X2348853Y4416657D01*
X2333343Y4401147D01*
X2322377Y4382153D01*
X2316700Y4360967D01*
Y4339033D01*
X2322377Y4317847D01*
X2333343Y4298852D01*
X2348853Y4283343D01*
X2367847Y4272377D01*
X2389033Y4266700D01*
X2410967D01*
X2432153Y4272377D01*
X2451147Y4283343D01*
X2466657Y4298852D01*
X2477623Y4317847D01*
X2483300Y4339033D01*
Y4360967D01*
X2477623Y4382153D01*
X2466657Y4401147D01*
X2451147Y4416657D01*
X2432153Y4427623D01*
X2410967Y4433300D01*
D02*
G37*
G36*
X4662142Y4213644D02*
X4640209D01*
X4619023Y4207967D01*
X4600028Y4197001D01*
X4599690Y4196662D01*
X4599351Y4197001D01*
X4580356Y4207967D01*
X4559170Y4213644D01*
X4537237D01*
X4516051Y4207967D01*
X4497056Y4197001D01*
X4481547Y4181492D01*
X4470580Y4162497D01*
X4464904Y4141311D01*
Y4119377D01*
X4470580Y4098191D01*
X4481547Y4079197D01*
X4497056Y4063687D01*
X4516051Y4052721D01*
X4537237Y4047044D01*
X4559170D01*
X4580356Y4052721D01*
X4599351Y4063687D01*
X4599690Y4064026D01*
X4600028Y4063687D01*
X4619023Y4052721D01*
X4640209Y4047044D01*
X4662142D01*
X4683328Y4052721D01*
X4702323Y4063687D01*
X4717832Y4079197D01*
X4728799Y4098191D01*
X4734475Y4119377D01*
Y4141311D01*
X4728799Y4162497D01*
X4717832Y4181492D01*
X4702323Y4197001D01*
X4683328Y4207967D01*
X4662142Y4213644D01*
D02*
G37*
G36*
X3936945Y4272119D02*
X3915012D01*
X3893826Y4266442D01*
X3874831Y4255475D01*
X3859322Y4239966D01*
X3848355Y4220971D01*
X3842678Y4199785D01*
Y4177852D01*
X3848355Y4156666D01*
X3855773Y4143817D01*
X3848355Y4130969D01*
X3842678Y4109783D01*
Y4087850D01*
X3848355Y4066664D01*
X3859322Y4047669D01*
X3874831Y4032160D01*
X3893826Y4021193D01*
X3915012Y4015516D01*
X3936945D01*
X3958131Y4021193D01*
X3977126Y4032160D01*
X3992635Y4047669D01*
X4003602Y4066664D01*
X4009278Y4087850D01*
Y4108481D01*
X4010121Y4109246D01*
X4021526Y4112667D01*
X4037035Y4097158D01*
X4056030Y4086191D01*
X4077216Y4080515D01*
X4099150D01*
X4120335Y4086191D01*
X4139330Y4097158D01*
X4154840Y4112667D01*
X4165806Y4131662D01*
X4171483Y4152848D01*
Y4174782D01*
X4165806Y4195967D01*
X4154840Y4214962D01*
X4139330Y4230472D01*
X4120335Y4241438D01*
X4099150Y4247115D01*
X4077216D01*
X4056030Y4241438D01*
X4037035Y4230472D01*
X4021526Y4214962D01*
X4019364Y4211217D01*
X4005735Y4213011D01*
X4003602Y4220971D01*
X3992635Y4239966D01*
X3977126Y4255475D01*
X3958131Y4266442D01*
X3936945Y4272119D01*
D02*
G37*
G36*
X3660471Y4236091D02*
X3638538D01*
X3617352Y4230415D01*
X3598357Y4219448D01*
X3582848Y4203939D01*
X3571881Y4184944D01*
X3566204Y4163758D01*
Y4141825D01*
X3571881Y4120639D01*
X3582848Y4101644D01*
X3598357Y4086135D01*
X3617352Y4075168D01*
X3638538Y4069491D01*
X3660471D01*
X3681657Y4075168D01*
X3700652Y4086135D01*
X3716161Y4101644D01*
X3727128Y4120639D01*
X3732805Y4141825D01*
Y4163758D01*
X3727128Y4184944D01*
X3716161Y4203939D01*
X3700652Y4219448D01*
X3681657Y4230415D01*
X3660471Y4236091D01*
D02*
G37*
G36*
X2860967Y4233300D02*
X2839033D01*
X2817848Y4227623D01*
X2798853Y4216657D01*
X2783343Y4201147D01*
X2772377Y4182152D01*
X2766700Y4160967D01*
Y4139033D01*
X2772377Y4117847D01*
X2783343Y4098852D01*
X2798853Y4083343D01*
X2817848Y4072376D01*
X2839033Y4066700D01*
X2860967D01*
X2882153Y4072376D01*
X2901148Y4083343D01*
X2916657Y4098852D01*
X2927624Y4117847D01*
X2933300Y4139033D01*
Y4160967D01*
X2927624Y4182152D01*
X2916657Y4201147D01*
X2901148Y4216657D01*
X2882153Y4227623D01*
X2860967Y4233300D01*
D02*
G37*
G36*
X2560967D02*
X2539033D01*
X2517847Y4227623D01*
X2498853Y4216657D01*
X2483343Y4201147D01*
X2472377Y4182152D01*
X2466700Y4160967D01*
Y4139033D01*
X2472377Y4117847D01*
X2483343Y4098852D01*
X2498853Y4083343D01*
X2517847Y4072376D01*
X2539033Y4066700D01*
X2560967D01*
X2582153Y4072376D01*
X2601147Y4083343D01*
X2616657Y4098852D01*
X2627623Y4117847D01*
X2633300Y4139033D01*
Y4160967D01*
X2627623Y4182152D01*
X2616657Y4201147D01*
X2601147Y4216657D01*
X2582153Y4227623D01*
X2560967Y4233300D01*
D02*
G37*
G36*
X6803612Y4041698D02*
X6781679D01*
X6760493Y4036022D01*
X6741498Y4025055D01*
X6730182Y4013739D01*
X6718865Y4025055D01*
X6699871Y4036022D01*
X6678685Y4041698D01*
X6656751D01*
X6635565Y4036022D01*
X6616570Y4025055D01*
X6605254Y4013739D01*
X6593938Y4025055D01*
X6574943Y4036022D01*
X6553757Y4041698D01*
X6531824D01*
X6510638Y4036022D01*
X6491643Y4025055D01*
X6480327Y4013739D01*
X6469011Y4025055D01*
X6450016Y4036022D01*
X6428830Y4041698D01*
X6406897D01*
X6385711Y4036022D01*
X6366716Y4025055D01*
X6356045Y4014384D01*
X6345374Y4025055D01*
X6326379Y4036022D01*
X6305193Y4041698D01*
X6283259D01*
X6262074Y4036022D01*
X6243079Y4025055D01*
X6231727Y4013703D01*
X6220375Y4025055D01*
X6201380Y4036022D01*
X6180194Y4041698D01*
X6158261D01*
X6137075Y4036022D01*
X6118080Y4025055D01*
X6105476Y4012451D01*
X6092872Y4025055D01*
X6073877Y4036022D01*
X6052691Y4041698D01*
X6030758D01*
X6009572Y4036022D01*
X5990577Y4025055D01*
X5979942Y4014419D01*
X5969306Y4025055D01*
X5950311Y4036022D01*
X5929126Y4041698D01*
X5907192D01*
X5886006Y4036022D01*
X5867011Y4025055D01*
X5855695Y4013739D01*
X5844379Y4025055D01*
X5825384Y4036022D01*
X5804198Y4041698D01*
X5782265D01*
X5761079Y4036022D01*
X5742084Y4025055D01*
X5730768Y4013739D01*
X5719452Y4025055D01*
X5700457Y4036022D01*
X5679271Y4041698D01*
X5657337D01*
X5636152Y4036022D01*
X5617157Y4025055D01*
X5601647Y4009546D01*
X5590681Y3990551D01*
X5585004Y3969365D01*
Y3947432D01*
X5590681Y3926246D01*
X5601647Y3907251D01*
X5617157Y3891742D01*
X5636152Y3880775D01*
X5657337Y3875098D01*
X5679271D01*
X5700457Y3880775D01*
X5719452Y3891742D01*
X5730768Y3903058D01*
X5742084Y3891742D01*
X5761079Y3880775D01*
X5782265Y3875098D01*
X5804198D01*
X5825384Y3880775D01*
X5844379Y3891742D01*
X5855695Y3903058D01*
X5867011Y3891742D01*
X5886006Y3880775D01*
X5907192Y3875098D01*
X5929126D01*
X5950311Y3880775D01*
X5969306Y3891742D01*
X5979942Y3902377D01*
X5990577Y3891742D01*
X6009572Y3880775D01*
X6030758Y3875098D01*
X6052691D01*
X6073877Y3880775D01*
X6092872Y3891742D01*
X6105476Y3904346D01*
X6118080Y3891742D01*
X6137075Y3880775D01*
X6158261Y3875098D01*
X6180194D01*
X6201380Y3880775D01*
X6220375Y3891742D01*
X6231727Y3903093D01*
X6243079Y3891742D01*
X6262074Y3880775D01*
X6283259Y3875098D01*
X6305193D01*
X6326379Y3880775D01*
X6345374Y3891742D01*
X6356045Y3902413D01*
X6366716Y3891742D01*
X6385711Y3880775D01*
X6406897Y3875098D01*
X6428830D01*
X6450016Y3880775D01*
X6469011Y3891742D01*
X6480327Y3903058D01*
X6491643Y3891742D01*
X6510638Y3880775D01*
X6531824Y3875098D01*
X6553757D01*
X6574943Y3880775D01*
X6593938Y3891742D01*
X6605254Y3903058D01*
X6616570Y3891742D01*
X6635565Y3880775D01*
X6656751Y3875098D01*
X6678685D01*
X6699871Y3880775D01*
X6718865Y3891742D01*
X6730182Y3903058D01*
X6741498Y3891742D01*
X6760493Y3880775D01*
X6781679Y3875098D01*
X6803612D01*
X6824798Y3880775D01*
X6843793Y3891742D01*
X6859302Y3907251D01*
X6870269Y3926246D01*
X6875945Y3947432D01*
Y3969365D01*
X6870269Y3990551D01*
X6859302Y4009546D01*
X6843793Y4025055D01*
X6824798Y4036022D01*
X6803612Y4041698D01*
D02*
G37*
G36*
X8558257Y4375667D02*
X8536324D01*
X8515138Y4369990D01*
X8496143Y4359023D01*
X8480634Y4343514D01*
X8469667Y4324519D01*
X8463991Y4303333D01*
Y4281400D01*
X8469667Y4260214D01*
X8471311Y4257366D01*
X8469668Y4254519D01*
X8463991Y4233333D01*
Y4211400D01*
X8469668Y4190214D01*
X8471312Y4187367D01*
X8469668Y4184519D01*
X8463991Y4163333D01*
Y4141400D01*
X8469668Y4120214D01*
X8471312Y4117366D01*
X8469668Y4114519D01*
X8463992Y4093333D01*
Y4071400D01*
X8469668Y4050214D01*
X8471312Y4047366D01*
X8469669Y4044519D01*
X8463992Y4023334D01*
Y4001400D01*
X8469669Y3980214D01*
X8480635Y3961219D01*
X8496145Y3945710D01*
X8515139Y3934743D01*
X8536325Y3929067D01*
X8558259D01*
X8579445Y3934743D01*
X8598439Y3945710D01*
X8613949Y3961219D01*
X8624915Y3980214D01*
X8630592Y4001400D01*
Y4023334D01*
X8624915Y4044519D01*
X8623272Y4047367D01*
X8624915Y4050214D01*
X8630592Y4071400D01*
Y4093333D01*
X8624915Y4114519D01*
X8623271Y4117367D01*
X8624915Y4120214D01*
X8630591Y4141400D01*
Y4163333D01*
X8624915Y4184519D01*
X8623271Y4187367D01*
X8624915Y4190214D01*
X8630591Y4211400D01*
Y4233333D01*
X8624915Y4254519D01*
X8623271Y4257367D01*
X8624914Y4260214D01*
X8630591Y4281400D01*
Y4303333D01*
X8624914Y4324519D01*
X8613947Y4343514D01*
X8598438Y4359023D01*
X8579443Y4369990D01*
X8558257Y4375667D01*
D02*
G37*
G36*
X2710967Y4083300D02*
X2689033D01*
X2667848Y4077623D01*
X2648853Y4066657D01*
X2633343Y4051147D01*
X2622377Y4032152D01*
X2616700Y4010967D01*
Y3989033D01*
X2622377Y3967847D01*
X2633343Y3948852D01*
X2648853Y3933343D01*
X2667848Y3922376D01*
X2689033Y3916700D01*
X2710967D01*
X2732153Y3922376D01*
X2751148Y3933343D01*
X2766657Y3948852D01*
X2777624Y3967847D01*
X2783300Y3989033D01*
Y4010967D01*
X2777624Y4032152D01*
X2766657Y4051147D01*
X2751148Y4066657D01*
X2732153Y4077623D01*
X2710967Y4083300D01*
D02*
G37*
G36*
X2410967D02*
X2389033D01*
X2367847Y4077623D01*
X2348853Y4066657D01*
X2333343Y4051147D01*
X2322377Y4032152D01*
X2316700Y4010967D01*
Y3989033D01*
X2322377Y3967847D01*
X2333343Y3948852D01*
X2348853Y3933343D01*
X2367847Y3922376D01*
X2389033Y3916700D01*
X2410967D01*
X2432153Y3922376D01*
X2451147Y3933343D01*
X2466657Y3948852D01*
X2477623Y3967847D01*
X2483300Y3989033D01*
Y4010967D01*
X2477623Y4032152D01*
X2466657Y4051147D01*
X2451147Y4066657D01*
X2432153Y4077623D01*
X2410967Y4083300D01*
D02*
G37*
G36*
X4071530Y3924687D02*
X4049596D01*
X4028410Y3919011D01*
X4009415Y3908044D01*
X4005562Y3904190D01*
X4001708Y3908044D01*
X3982713Y3919011D01*
X3961527Y3924687D01*
X3939594D01*
X3918408Y3919011D01*
X3899413Y3908044D01*
X3895562Y3904193D01*
X3891711Y3908044D01*
X3872716Y3919011D01*
X3851530Y3924687D01*
X3829597D01*
X3808411Y3919011D01*
X3789416Y3908044D01*
X3773907Y3892535D01*
X3762940Y3873540D01*
X3757263Y3852354D01*
Y3830421D01*
X3762940Y3809235D01*
X3773907Y3790240D01*
X3777758Y3786389D01*
X3773907Y3782538D01*
X3762940Y3763543D01*
X3757263Y3742357D01*
Y3720423D01*
X3762940Y3699237D01*
X3773907Y3680243D01*
X3777760Y3676389D01*
X3773907Y3672535D01*
X3762940Y3653540D01*
X3757263Y3632354D01*
Y3610421D01*
X3762940Y3589235D01*
X3773907Y3570240D01*
X3789416Y3554731D01*
X3808411Y3543764D01*
X3829597Y3538088D01*
X3851530D01*
X3872716Y3543764D01*
X3891711Y3554731D01*
X3895562Y3558582D01*
X3899413Y3554731D01*
X3918408Y3543764D01*
X3939594Y3538088D01*
X3961527D01*
X3982713Y3543764D01*
X4001708Y3554731D01*
X4005562Y3558585D01*
X4009415Y3554731D01*
X4028410Y3543764D01*
X4049596Y3538088D01*
X4071530D01*
X4092715Y3543764D01*
X4111710Y3554731D01*
X4127220Y3570240D01*
X4138186Y3589235D01*
X4143863Y3610421D01*
Y3632354D01*
X4138186Y3653540D01*
X4127220Y3672535D01*
X4123366Y3676389D01*
X4127220Y3680243D01*
X4138186Y3699237D01*
X4143863Y3720423D01*
Y3742357D01*
X4138186Y3763543D01*
X4127220Y3782538D01*
X4123368Y3786389D01*
X4127220Y3790240D01*
X4138186Y3809235D01*
X4143863Y3830421D01*
Y3852354D01*
X4138186Y3873540D01*
X4127220Y3892535D01*
X4111710Y3908044D01*
X4092715Y3919011D01*
X4071530Y3924687D01*
D02*
G37*
G36*
X4261943Y4144616D02*
X4240010D01*
X4218824Y4138939D01*
X4199829Y4127972D01*
X4184320Y4112463D01*
X4173353Y4093468D01*
X4167676Y4072282D01*
Y4050349D01*
X4173353Y4029163D01*
X4184320Y4010168D01*
X4199829Y3994659D01*
X4218824Y3983692D01*
X4235179Y3979310D01*
Y3970349D01*
X4240856Y3949163D01*
X4251823Y3930168D01*
X4267332Y3914659D01*
X4286327Y3903692D01*
X4307513Y3898016D01*
X4329446D01*
X4350632Y3903692D01*
X4369627Y3914659D01*
X4385136Y3930168D01*
X4396103Y3949163D01*
X4401780Y3970349D01*
Y3992283D01*
X4396103Y4013468D01*
X4385136Y4032463D01*
X4369627Y4047973D01*
X4350632Y4058939D01*
X4334277Y4063322D01*
Y4072282D01*
X4328600Y4093468D01*
X4317633Y4112463D01*
X4302124Y4127972D01*
X4283129Y4138939D01*
X4261943Y4144616D01*
D02*
G37*
G36*
X5396451Y4075000D02*
X5232500Y4075000D01*
X5200000Y4042500D01*
Y3960020D01*
X5220340Y3939680D01*
X5209543Y3928882D01*
X5198247Y3909318D01*
X5192400Y3887496D01*
Y3864904D01*
X5198247Y3843082D01*
X5201066Y3838200D01*
X5198247Y3833317D01*
X5192400Y3811496D01*
Y3788904D01*
X5198247Y3767082D01*
X5209543Y3747518D01*
X5220373Y3736687D01*
X5200000Y3716314D01*
Y3633834D01*
X5232500Y3601334D01*
X5385101Y3601334D01*
Y3592172D01*
X5390778Y3570986D01*
X5401744Y3551991D01*
X5417254Y3536482D01*
X5436248Y3525515D01*
X5457434Y3519839D01*
X5479368D01*
X5500554Y3525515D01*
X5519549Y3536482D01*
X5535058Y3551991D01*
X5546024Y3570986D01*
X5551701Y3592172D01*
Y3614105D01*
X5546024Y3635291D01*
X5535058Y3654286D01*
X5519549Y3669795D01*
X5500554Y3680762D01*
X5479368Y3686439D01*
X5457434D01*
X5447968Y3683902D01*
X5437892Y3691634D01*
Y3712376D01*
X5416654Y3733614D01*
X5422494Y3745735D01*
X5426401Y3746980D01*
X5436342Y3745474D01*
X5448307Y3733509D01*
X5467302Y3722543D01*
X5488488Y3716866D01*
X5510421D01*
X5531607Y3722543D01*
X5550602Y3733509D01*
X5566111Y3749019D01*
X5577078Y3768014D01*
X5582754Y3789199D01*
Y3811133D01*
X5577078Y3832319D01*
X5576264Y3833728D01*
X5580328Y3840766D01*
X5586004Y3861952D01*
Y3883885D01*
X5580328Y3905071D01*
X5569361Y3924066D01*
X5553852Y3939575D01*
X5534857Y3950542D01*
X5513671Y3956219D01*
X5491738D01*
X5470552Y3950542D01*
X5451557Y3939575D01*
X5438745Y3926764D01*
X5424304Y3926376D01*
X5422857Y3928882D01*
X5412837Y3938903D01*
X5437892Y3963958D01*
Y4033566D01*
X5396451Y4075000D01*
D02*
G37*
G36*
X5089151Y3984173D02*
X5067217D01*
X5046031Y3978497D01*
X5027036Y3967530D01*
X5011527Y3952021D01*
X5000560Y3933026D01*
X4994884Y3911840D01*
Y3889907D01*
X5000560Y3868721D01*
X5011527Y3849726D01*
X5025769Y3835484D01*
X5011527Y3821241D01*
X5000560Y3802246D01*
X4994884Y3781061D01*
Y3759127D01*
X5000560Y3737941D01*
X5011527Y3718946D01*
X5027036Y3703437D01*
X5046031Y3692470D01*
X5067217Y3686794D01*
X5089151D01*
X5110336Y3692470D01*
X5129331Y3703437D01*
X5144841Y3718946D01*
X5155807Y3737941D01*
X5161484Y3759127D01*
Y3781061D01*
X5155807Y3802246D01*
X5144841Y3821241D01*
X5130598Y3835484D01*
X5144841Y3849726D01*
X5155807Y3868721D01*
X5161484Y3889907D01*
Y3911840D01*
X5155807Y3933026D01*
X5144841Y3952021D01*
X5129331Y3967530D01*
X5110336Y3978497D01*
X5089151Y3984173D01*
D02*
G37*
G36*
X4666862Y3630615D02*
X4644929D01*
X4623743Y3624938D01*
X4604748Y3613971D01*
X4602930Y3612153D01*
X4601112Y3613971D01*
X4582118Y3624938D01*
X4560932Y3630615D01*
X4538998D01*
X4517812Y3624938D01*
X4498818Y3613971D01*
X4483308Y3598462D01*
X4472342Y3579467D01*
X4466665Y3558281D01*
Y3536348D01*
X4472342Y3515162D01*
X4483308Y3496167D01*
X4498818Y3480658D01*
X4517812Y3469691D01*
X4538998Y3464014D01*
X4560932D01*
X4582118Y3469691D01*
X4601112Y3480658D01*
X4602930Y3482476D01*
X4604748Y3480658D01*
X4623743Y3469691D01*
X4644929Y3464014D01*
X4666862D01*
X4688048Y3469691D01*
X4707043Y3480658D01*
X4722552Y3496167D01*
X4733519Y3515162D01*
X4739196Y3536348D01*
Y3558281D01*
X4733519Y3579467D01*
X4722552Y3598462D01*
X4707043Y3613971D01*
X4688048Y3624938D01*
X4666862Y3630615D01*
D02*
G37*
G36*
X4354918Y3757359D02*
X4332984D01*
X4311798Y3751682D01*
X4292803Y3740715D01*
X4277294Y3725206D01*
X4266328Y3706211D01*
X4260651Y3685025D01*
Y3663092D01*
X4266328Y3641906D01*
X4277294Y3622911D01*
X4292803Y3607402D01*
X4311798Y3596435D01*
X4332984Y3590759D01*
X4354918D01*
X4376104Y3596435D01*
X4395098Y3607402D01*
X4410608Y3622911D01*
X4421574Y3641906D01*
X4427251Y3663092D01*
Y3685025D01*
X4421574Y3706211D01*
X4410608Y3725206D01*
X4395098Y3740715D01*
X4376104Y3751682D01*
X4354918Y3757359D01*
D02*
G37*
G36*
X4876783Y4122647D02*
X4854850D01*
X4833664Y4116970D01*
X4814669Y4106003D01*
X4799160Y4090494D01*
X4788193Y4071499D01*
X4782516Y4050313D01*
Y4028380D01*
X4788193Y4007194D01*
X4799160Y3988199D01*
X4814669Y3972690D01*
X4831097Y3963205D01*
X4831386Y3954320D01*
X4829982Y3949758D01*
X4817645Y3946453D01*
X4798650Y3935486D01*
X4783141Y3919977D01*
X4772174Y3900982D01*
X4766497Y3879796D01*
Y3857862D01*
X4772074Y3837050D01*
X4771481Y3836023D01*
X4765804Y3814837D01*
Y3792904D01*
X4771481Y3771718D01*
X4782448Y3752723D01*
X4797957Y3737214D01*
X4816952Y3726247D01*
X4838138Y3720571D01*
X4847756D01*
X4853814Y3720570D01*
X4854849Y3708300D01*
X4848745Y3706664D01*
X4833664Y3702623D01*
X4814669Y3691656D01*
X4799160Y3676147D01*
X4788193Y3657152D01*
X4782516Y3635966D01*
Y3614033D01*
X4788193Y3592847D01*
X4799160Y3573852D01*
X4814669Y3558343D01*
X4833664Y3547376D01*
X4854850Y3541699D01*
X4876783D01*
X4897969Y3547376D01*
X4916964Y3558343D01*
X4932473Y3573852D01*
X4943440Y3592847D01*
X4949117Y3614033D01*
Y3635966D01*
X4943440Y3657152D01*
X4932473Y3676147D01*
X4916964Y3691656D01*
X4897969Y3702623D01*
X4876783Y3708299D01*
X4867165D01*
X4861107Y3708300D01*
X4860072Y3720570D01*
X4866176Y3722206D01*
X4881257Y3726247D01*
X4900252Y3737214D01*
X4915761Y3752723D01*
X4926728Y3771718D01*
X4932404Y3792904D01*
Y3814837D01*
X4926828Y3835650D01*
X4927421Y3836677D01*
X4933097Y3857862D01*
Y3879796D01*
X4927421Y3900982D01*
X4916454Y3919977D01*
X4900945Y3935486D01*
X4884517Y3944971D01*
X4884228Y3953856D01*
X4885631Y3958417D01*
X4897969Y3961723D01*
X4916964Y3972690D01*
X4932473Y3988199D01*
X4943440Y4007194D01*
X4949117Y4028380D01*
Y4050313D01*
X4943440Y4071499D01*
X4932473Y4090494D01*
X4916964Y4106003D01*
X4897969Y4116970D01*
X4876783Y4122647D01*
D02*
G37*
G36*
X8550759Y3910162D02*
X8528826D01*
X8507640Y3904485D01*
X8488645Y3893518D01*
X8473136Y3878009D01*
X8462169Y3859014D01*
X8456493Y3837828D01*
Y3815895D01*
X8462169Y3794709D01*
X8463813Y3791861D01*
X8462170Y3789014D01*
X8456493Y3767828D01*
Y3745895D01*
X8462170Y3724709D01*
X8463814Y3721861D01*
X8462170Y3719014D01*
X8456493Y3697828D01*
Y3675895D01*
X8462170Y3654709D01*
X8463814Y3651861D01*
X8462170Y3649014D01*
X8456494Y3627828D01*
Y3605894D01*
X8462170Y3584709D01*
X8463814Y3581861D01*
X8462171Y3579014D01*
X8456494Y3557829D01*
Y3535895D01*
X8462171Y3514709D01*
X8473137Y3495714D01*
X8488646Y3480205D01*
X8507641Y3469238D01*
X8528827Y3463562D01*
X8550761D01*
X8571947Y3469238D01*
X8590941Y3480205D01*
X8606451Y3495714D01*
X8617417Y3514709D01*
X8623094Y3535895D01*
Y3557829D01*
X8617417Y3579014D01*
X8615773Y3581862D01*
X8617417Y3584709D01*
X8623094Y3605894D01*
Y3627828D01*
X8617417Y3649014D01*
X8615773Y3651862D01*
X8617417Y3654709D01*
X8623093Y3675895D01*
Y3697828D01*
X8617417Y3719014D01*
X8615773Y3721861D01*
X8617417Y3724709D01*
X8623093Y3745895D01*
Y3767828D01*
X8617417Y3789014D01*
X8615772Y3791862D01*
X8617416Y3794709D01*
X8623093Y3815895D01*
Y3837828D01*
X8617416Y3859014D01*
X8606449Y3878009D01*
X8590940Y3893518D01*
X8571945Y3904485D01*
X8550759Y3910162D01*
D02*
G37*
G36*
X3614152Y3992119D02*
X3592218D01*
X3571032Y3986443D01*
X3552038Y3975476D01*
X3536528Y3959967D01*
X3525562Y3940972D01*
X3519885Y3919786D01*
Y3897853D01*
X3525562Y3876667D01*
X3535866Y3858819D01*
X3525562Y3840972D01*
X3519885Y3819786D01*
Y3797853D01*
X3525562Y3776667D01*
X3536528Y3757672D01*
X3536633Y3757567D01*
X3536528Y3757463D01*
X3525562Y3738468D01*
X3519885Y3717282D01*
Y3695348D01*
X3525562Y3674163D01*
X3536528Y3655168D01*
X3546978Y3644718D01*
X3550598Y3636316D01*
X3546978Y3627915D01*
X3536528Y3617464D01*
X3525562Y3598470D01*
X3519885Y3577284D01*
Y3555350D01*
X3525562Y3534164D01*
X3533169Y3520987D01*
X3523057Y3503472D01*
X3517381Y3482286D01*
Y3460353D01*
X3523057Y3439167D01*
X3534024Y3420172D01*
X3548242Y3405954D01*
X3547141Y3404048D01*
X3541465Y3382862D01*
Y3360929D01*
X3547141Y3339743D01*
X3558108Y3320748D01*
X3573617Y3305239D01*
X3592612Y3294272D01*
X3613798Y3288595D01*
X3635732D01*
X3656918Y3294272D01*
X3675912Y3305239D01*
X3691422Y3320748D01*
X3702388Y3339743D01*
X3708065Y3360929D01*
Y3382862D01*
X3702388Y3404048D01*
X3691422Y3423043D01*
X3677203Y3437261D01*
X3678304Y3439167D01*
X3683981Y3460353D01*
Y3482286D01*
X3678304Y3503472D01*
X3670696Y3516649D01*
X3680808Y3534164D01*
X3686485Y3555350D01*
Y3577284D01*
X3680808Y3598470D01*
X3669842Y3617464D01*
X3659392Y3627915D01*
X3655772Y3636316D01*
X3659392Y3644718D01*
X3669842Y3655168D01*
X3680808Y3674163D01*
X3686485Y3695348D01*
Y3717282D01*
X3680808Y3738468D01*
X3669842Y3757463D01*
X3669737Y3757567D01*
X3669842Y3757672D01*
X3680808Y3776667D01*
X3686485Y3797853D01*
Y3819786D01*
X3680808Y3840972D01*
X3670504Y3858819D01*
X3680808Y3876667D01*
X3686485Y3897853D01*
Y3919786D01*
X3680808Y3940972D01*
X3669842Y3959967D01*
X3654333Y3975476D01*
X3635338Y3986443D01*
X3614152Y3992119D01*
D02*
G37*
G36*
X4185010Y3509884D02*
X4163077D01*
X4141891Y3504208D01*
X4122896Y3493241D01*
X4107387Y3477732D01*
X4096420Y3458737D01*
X4090743Y3437551D01*
Y3415618D01*
X4096420Y3394432D01*
X4105304Y3379044D01*
X4101631Y3365335D01*
Y3343401D01*
X4107308Y3322215D01*
X4118274Y3303220D01*
X4133783Y3287711D01*
X4152778Y3276745D01*
X4173964Y3271068D01*
X4195898D01*
X4217084Y3276745D01*
X4236078Y3287711D01*
X4251588Y3303220D01*
X4262554Y3322215D01*
X4268231Y3343401D01*
Y3365335D01*
X4262554Y3386521D01*
X4253670Y3401908D01*
X4257344Y3415618D01*
Y3437551D01*
X4251667Y3458737D01*
X4240700Y3477732D01*
X4225191Y3493241D01*
X4206196Y3504208D01*
X4185010Y3509884D01*
D02*
G37*
G36*
X3858259Y3455195D02*
X3836325D01*
X3815139Y3449519D01*
X3796145Y3438552D01*
X3780635Y3423043D01*
X3769669Y3404048D01*
X3763992Y3382862D01*
Y3360929D01*
X3769669Y3339743D01*
X3780635Y3320748D01*
X3796145Y3305239D01*
X3815139Y3294272D01*
X3836325Y3288595D01*
X3858259D01*
X3879445Y3294272D01*
X3884314Y3297083D01*
X3888305Y3290169D01*
X3903814Y3274660D01*
X3922809Y3263693D01*
X3943995Y3258017D01*
X3965928D01*
X3987114Y3263693D01*
X4006109Y3274660D01*
X4021618Y3290169D01*
X4032585Y3309164D01*
X4038262Y3330350D01*
Y3352284D01*
X4032585Y3373470D01*
X4021618Y3392464D01*
X4006109Y3407974D01*
X3987114Y3418940D01*
X3965928Y3424617D01*
X3943995D01*
X3922809Y3418940D01*
X3917940Y3416129D01*
X3913949Y3423043D01*
X3898439Y3438552D01*
X3879445Y3449519D01*
X3858259Y3455195D01*
D02*
G37*
G36*
X2591375Y3335802D02*
X2569442D01*
X2548256Y3330125D01*
X2529261Y3319158D01*
X2513752Y3303649D01*
X2502785Y3284654D01*
X2497109Y3263468D01*
Y3241535D01*
X2502785Y3220349D01*
X2513752Y3201354D01*
X2529261Y3185845D01*
X2548256Y3174878D01*
X2569442Y3169202D01*
X2591375D01*
X2612561Y3174878D01*
X2631556Y3185845D01*
X2647065Y3201354D01*
X2658032Y3220349D01*
X2663709Y3241535D01*
Y3263468D01*
X2658032Y3284654D01*
X2647065Y3303649D01*
X2631556Y3319158D01*
X2612561Y3330125D01*
X2591375Y3335802D01*
D02*
G37*
G36*
X2670318Y3143300D02*
X2648385D01*
X2627199Y3137624D01*
X2608204Y3126657D01*
X2592695Y3111148D01*
X2581728Y3092153D01*
X2576051Y3070967D01*
Y3049034D01*
X2581728Y3027848D01*
X2592695Y3008853D01*
X2608204Y2993344D01*
X2627199Y2982377D01*
X2648385Y2976700D01*
X2670318D01*
X2691504Y2982377D01*
X2710499Y2993344D01*
X2726008Y3008853D01*
X2736975Y3027848D01*
X2742651Y3049034D01*
Y3070967D01*
X2736975Y3092153D01*
X2726008Y3111148D01*
X2710499Y3126657D01*
X2691504Y3137624D01*
X2670318Y3143300D01*
D02*
G37*
G36*
X5891378Y3073384D02*
X5869444D01*
X5848258Y3067708D01*
X5829263Y3056741D01*
X5813754Y3041232D01*
X5802787Y3022237D01*
X5797111Y3001051D01*
Y2979117D01*
X5802787Y2957932D01*
X5813754Y2938937D01*
X5829263Y2923427D01*
X5848258Y2912461D01*
X5869444Y2906784D01*
X5891378D01*
X5912563Y2912461D01*
X5931558Y2923427D01*
X5947068Y2938937D01*
X5958034Y2957932D01*
X5963711Y2979117D01*
Y3001051D01*
X5958034Y3022237D01*
X5947068Y3041232D01*
X5931558Y3056741D01*
X5912563Y3067708D01*
X5891378Y3073384D01*
D02*
G37*
G36*
X5580555D02*
X5558621D01*
X5537435Y3067708D01*
X5518441Y3056741D01*
X5502931Y3041232D01*
X5491965Y3022237D01*
X5486288Y3001051D01*
Y2979117D01*
X5491965Y2957932D01*
X5502931Y2938937D01*
X5518441Y2923427D01*
X5537435Y2912461D01*
X5558621Y2906784D01*
X5580555D01*
X5601741Y2912461D01*
X5620736Y2923427D01*
X5636245Y2938937D01*
X5647211Y2957932D01*
X5652888Y2979117D01*
Y3001051D01*
X5647211Y3022237D01*
X5636245Y3041232D01*
X5620736Y3056741D01*
X5601741Y3067708D01*
X5580555Y3073384D01*
D02*
G37*
G36*
X4275967Y2585392D02*
X4254033D01*
X4232847Y2579715D01*
X4213852Y2568748D01*
X4198343Y2553239D01*
X4187989Y2535306D01*
X4181640Y2534244D01*
X4180862D01*
X4174513Y2535306D01*
X4164159Y2553239D01*
X4148650Y2568748D01*
X4129655Y2579715D01*
X4108469Y2585392D01*
X4086535D01*
X4065350Y2579715D01*
X4046355Y2568748D01*
X4030845Y2553239D01*
X4019879Y2534244D01*
X4014202Y2513058D01*
Y2491125D01*
X4019879Y2469939D01*
X4030845Y2450944D01*
X4046355Y2435435D01*
X4065350Y2424468D01*
X4086535Y2418791D01*
X4108469D01*
X4129655Y2424468D01*
X4148650Y2435435D01*
X4164159Y2450944D01*
X4174513Y2468877D01*
X4180862Y2469939D01*
X4181640D01*
X4187989Y2468877D01*
X4198343Y2450944D01*
X4213852Y2435435D01*
X4232847Y2424468D01*
X4254033Y2418791D01*
X4275967D01*
X4297152Y2424468D01*
X4316147Y2435435D01*
X4331657Y2450944D01*
X4342623Y2469939D01*
X4348300Y2491125D01*
Y2513058D01*
X4342623Y2534244D01*
X4331657Y2553239D01*
X4316147Y2568748D01*
X4297152Y2579715D01*
X4275967Y2585392D01*
D02*
G37*
G36*
X6445867Y2755500D02*
X6423934D01*
X6402748Y2749824D01*
X6383753Y2738857D01*
X6368244Y2723348D01*
X6357277Y2704353D01*
X6351601Y2683167D01*
Y2661233D01*
X6357277Y2640048D01*
X6358200Y2638450D01*
X6357277Y2636853D01*
X6351601Y2615667D01*
Y2593733D01*
X6357277Y2572548D01*
X6358200Y2570950D01*
X6357277Y2569353D01*
X6351601Y2548167D01*
Y2526233D01*
X6357277Y2505048D01*
X6368244Y2486053D01*
X6383753Y2470543D01*
X6402748Y2459577D01*
X6423934Y2453900D01*
X6445867D01*
X6467053Y2459577D01*
X6486048Y2470543D01*
X6501557Y2486053D01*
X6512524Y2505048D01*
X6518201Y2526233D01*
Y2548167D01*
X6512524Y2569353D01*
X6511602Y2570950D01*
X6512524Y2572548D01*
X6518201Y2593733D01*
Y2615667D01*
X6512524Y2636853D01*
X6511602Y2638450D01*
X6512524Y2640048D01*
X6518201Y2661233D01*
Y2683167D01*
X6512524Y2704353D01*
X6501557Y2723348D01*
X6486048Y2738857D01*
X6467053Y2749824D01*
X6445867Y2755500D01*
D02*
G37*
G36*
X5594765Y2257392D02*
X5572832D01*
X5551646Y2251716D01*
X5532651Y2240749D01*
X5517142Y2225240D01*
X5506175Y2206245D01*
X5500498Y2185059D01*
Y2163125D01*
X5506175Y2141940D01*
X5517142Y2122945D01*
X5532651Y2107435D01*
X5551646Y2096469D01*
X5572832Y2090792D01*
X5594765D01*
X5615951Y2096469D01*
X5634946Y2107435D01*
X5650455Y2122945D01*
X5661422Y2141940D01*
X5667098Y2163125D01*
Y2185059D01*
X5661422Y2206245D01*
X5650455Y2225240D01*
X5634946Y2240749D01*
X5615951Y2251716D01*
X5594765Y2257392D01*
D02*
G37*
G36*
X4628651D02*
X4606717D01*
X4585531Y2251716D01*
X4566536Y2240749D01*
X4551027Y2225240D01*
X4540061Y2206245D01*
X4534384Y2185059D01*
Y2163125D01*
X4540061Y2141940D01*
X4551027Y2122945D01*
X4566536Y2107435D01*
X4585531Y2096469D01*
X4606717Y2090792D01*
X4628651D01*
X4649837Y2096469D01*
X4668831Y2107435D01*
X4684341Y2122945D01*
X4695307Y2141940D01*
X4700984Y2163125D01*
Y2185059D01*
X4695307Y2206245D01*
X4684341Y2225240D01*
X4668831Y2240749D01*
X4649837Y2251716D01*
X4628651Y2257392D01*
D02*
G37*
G36*
X6485970Y2238298D02*
X6464036D01*
X6442850Y2232622D01*
X6423856Y2221655D01*
X6408346Y2206146D01*
X6397380Y2187151D01*
X6391703Y2165965D01*
Y2144032D01*
X6397380Y2122846D01*
X6408346Y2103851D01*
X6423856Y2088342D01*
X6442850Y2077375D01*
X6464036Y2071698D01*
X6485970D01*
X6507156Y2077375D01*
X6526151Y2088342D01*
X6541660Y2103851D01*
X6552626Y2122846D01*
X6558303Y2144032D01*
Y2165965D01*
X6552626Y2187151D01*
X6541660Y2206146D01*
X6526151Y2221655D01*
X6507156Y2232622D01*
X6485970Y2238298D01*
D02*
G37*
G36*
X6708469Y1965800D02*
X6686535D01*
X6665349Y1960124D01*
X6646354Y1949157D01*
X6633751Y1936553D01*
X6621147Y1949157D01*
X6602152Y1960124D01*
X6580966Y1965800D01*
X6559032D01*
X6537846Y1960124D01*
X6518852Y1949157D01*
X6503342Y1933648D01*
X6492376Y1914653D01*
X6486699Y1893467D01*
Y1871533D01*
X6492376Y1850348D01*
X6503342Y1831353D01*
X6518852Y1815843D01*
X6537846Y1804877D01*
X6559032Y1799200D01*
X6580966D01*
X6602152Y1804877D01*
X6621147Y1815843D01*
X6633751Y1828447D01*
X6646354Y1815843D01*
X6665349Y1804877D01*
X6686535Y1799200D01*
X6708469D01*
X6729655Y1804877D01*
X6748649Y1815843D01*
X6764159Y1831353D01*
X6775125Y1850348D01*
X6780802Y1871533D01*
Y1893467D01*
X6775125Y1914653D01*
X6764159Y1933648D01*
X6748649Y1949157D01*
X6729655Y1960124D01*
X6708469Y1965800D01*
D02*
G37*
G36*
X5733469D02*
X5711536D01*
X5690350Y1960124D01*
X5671355Y1949157D01*
X5657502Y1935303D01*
X5643648Y1949157D01*
X5624653Y1960124D01*
X5603467Y1965800D01*
X5581534D01*
X5560348Y1960124D01*
X5541353Y1949157D01*
X5525844Y1933648D01*
X5514877Y1914653D01*
X5509200Y1893467D01*
Y1871533D01*
X5514877Y1850348D01*
X5525844Y1831353D01*
X5541353Y1815843D01*
X5560348Y1804877D01*
X5581534Y1799200D01*
X5603467D01*
X5624653Y1804877D01*
X5643648Y1815843D01*
X5657502Y1829697D01*
X5671355Y1815843D01*
X5690350Y1804877D01*
X5711536Y1799200D01*
X5733469D01*
X5754655Y1804877D01*
X5773650Y1815843D01*
X5789159Y1831353D01*
X5800126Y1850348D01*
X5805803Y1871533D01*
Y1893467D01*
X5800126Y1914653D01*
X5789159Y1933648D01*
X5773650Y1949157D01*
X5754655Y1960124D01*
X5733469Y1965800D01*
D02*
G37*
G36*
X7400676Y2035088D02*
X7378743D01*
X7357557Y2029411D01*
X7338562Y2018445D01*
X7323053Y2002936D01*
X7312086Y1983941D01*
X7306409Y1962755D01*
Y1940821D01*
X7312086Y1919635D01*
X7323053Y1900641D01*
X7336782Y1886911D01*
X7337788Y1879202D01*
X7336782Y1871494D01*
X7323053Y1857764D01*
X7312086Y1838769D01*
X7306409Y1817584D01*
Y1795650D01*
X7312086Y1774464D01*
X7323053Y1755469D01*
X7338562Y1739960D01*
X7357557Y1728993D01*
X7378743Y1723317D01*
X7400676D01*
X7421862Y1728993D01*
X7440857Y1739960D01*
X7456366Y1755469D01*
X7467333Y1774464D01*
X7473009Y1795650D01*
Y1817584D01*
X7467333Y1838769D01*
X7456366Y1857764D01*
X7442636Y1871494D01*
X7441631Y1879202D01*
X7442636Y1886911D01*
X7456366Y1900641D01*
X7467333Y1919635D01*
X7473009Y1940821D01*
Y1962755D01*
X7467333Y1983941D01*
X7456366Y2002936D01*
X7440857Y2018445D01*
X7421862Y2029411D01*
X7400676Y2035088D01*
D02*
G37*
G36*
X7152454D02*
X7130521D01*
X7109335Y2029411D01*
X7090340Y2018445D01*
X7074831Y2002936D01*
X7063864Y1983941D01*
X7058187Y1962755D01*
Y1940821D01*
X7063864Y1919635D01*
X7074831Y1900641D01*
X7088560Y1886911D01*
X7089566Y1879202D01*
X7088560Y1871494D01*
X7074831Y1857764D01*
X7063864Y1838769D01*
X7058187Y1817584D01*
Y1795650D01*
X7063864Y1774464D01*
X7074831Y1755469D01*
X7090340Y1739960D01*
X7109335Y1728993D01*
X7130521Y1723317D01*
X7152454D01*
X7173640Y1728993D01*
X7192635Y1739960D01*
X7208144Y1755469D01*
X7219111Y1774464D01*
X7224787Y1795650D01*
Y1817584D01*
X7219111Y1838769D01*
X7208144Y1857764D01*
X7194414Y1871494D01*
X7193409Y1879202D01*
X7194414Y1886911D01*
X7208144Y1900641D01*
X7219111Y1919635D01*
X7224787Y1940821D01*
Y1962755D01*
X7219111Y1983941D01*
X7208144Y2002936D01*
X7192635Y2018445D01*
X7173640Y2029411D01*
X7152454Y2035088D01*
D02*
G37*
G36*
X5456269Y1652888D02*
X5434336D01*
X5413150Y1647211D01*
X5394155Y1636244D01*
X5380425Y1622515D01*
X5372717Y1621509D01*
X5365008Y1622515D01*
X5351279Y1636244D01*
X5332284Y1647211D01*
X5311098Y1652888D01*
X5289164D01*
X5267979Y1647211D01*
X5248984Y1636244D01*
X5233474Y1620735D01*
X5222508Y1601740D01*
X5216831Y1580554D01*
Y1558621D01*
X5222508Y1537435D01*
X5233474Y1518440D01*
X5248984Y1502931D01*
X5266848Y1492617D01*
X5267876Y1486221D01*
X5267862Y1485445D01*
X5266768Y1479141D01*
X5248765Y1468747D01*
X5233256Y1453237D01*
X5222289Y1434242D01*
X5216613Y1413057D01*
Y1391123D01*
X5222289Y1369937D01*
X5233256Y1350942D01*
X5248765Y1335433D01*
X5267760Y1324466D01*
X5288946Y1318790D01*
X5310879D01*
X5332065Y1324466D01*
X5351060Y1335433D01*
X5364790Y1349163D01*
X5372498Y1350169D01*
X5380207Y1349163D01*
X5393936Y1335433D01*
X5412931Y1324466D01*
X5434117Y1318790D01*
X5456051D01*
X5477236Y1324466D01*
X5496231Y1335433D01*
X5511741Y1350942D01*
X5522707Y1369937D01*
X5528384Y1391123D01*
Y1413057D01*
X5522707Y1434242D01*
X5511741Y1453237D01*
X5496231Y1468747D01*
X5478367Y1479061D01*
X5477339Y1485457D01*
X5477353Y1486232D01*
X5478447Y1492537D01*
X5496450Y1502931D01*
X5511959Y1518440D01*
X5522926Y1537435D01*
X5528602Y1558621D01*
Y1580554D01*
X5522926Y1601740D01*
X5511959Y1620735D01*
X5496450Y1636244D01*
X5477455Y1647211D01*
X5456269Y1652888D01*
D02*
G37*
G36*
X3227867Y1786900D02*
X3205933D01*
X3184748Y1781223D01*
X3165753Y1770257D01*
X3150243Y1754747D01*
X3139277Y1735752D01*
X3133600Y1714567D01*
Y1692633D01*
X3139277Y1671447D01*
X3150243Y1652452D01*
X3165753Y1636943D01*
X3184748Y1625976D01*
X3205933Y1620300D01*
X3227867D01*
X3249053Y1625976D01*
X3268048Y1636943D01*
X3283557Y1652452D01*
X3294524Y1671447D01*
X3300200Y1692633D01*
Y1714567D01*
X3294524Y1735752D01*
X3283557Y1754747D01*
X3268048Y1770257D01*
X3249053Y1781223D01*
X3227867Y1786900D01*
D02*
G37*
G36*
X2884967D02*
X2863033D01*
X2841848Y1781223D01*
X2822853Y1770257D01*
X2807343Y1754747D01*
X2796377Y1735752D01*
X2790700Y1714567D01*
Y1692633D01*
X2796377Y1671447D01*
X2807343Y1652452D01*
X2822853Y1636943D01*
X2841848Y1625976D01*
X2863033Y1620300D01*
X2884967D01*
X2906153Y1625976D01*
X2925148Y1636943D01*
X2940657Y1652452D01*
X2951624Y1671447D01*
X2957300Y1692633D01*
Y1714567D01*
X2951624Y1735752D01*
X2940657Y1754747D01*
X2925148Y1770257D01*
X2906153Y1781223D01*
X2884967Y1786900D01*
D02*
G37*
G36*
X2542067D02*
X2520133D01*
X2498948Y1781223D01*
X2479953Y1770257D01*
X2464443Y1754747D01*
X2453477Y1735752D01*
X2447800Y1714567D01*
Y1692633D01*
X2453477Y1671447D01*
X2464443Y1652452D01*
X2479953Y1636943D01*
X2498948Y1625976D01*
X2520133Y1620300D01*
X2542067D01*
X2563253Y1625976D01*
X2582248Y1636943D01*
X2597757Y1652452D01*
X2608724Y1671447D01*
X2614400Y1692633D01*
Y1714567D01*
X2608724Y1735752D01*
X2597757Y1754747D01*
X2582248Y1770257D01*
X2563253Y1781223D01*
X2542067Y1786900D01*
D02*
G37*
G36*
X6123466Y1620391D02*
X6101533D01*
X6080347Y1614714D01*
X6061352Y1603748D01*
X6047622Y1590018D01*
X6039914Y1589012D01*
X6032205Y1590018D01*
X6018476Y1603748D01*
X5999481Y1614714D01*
X5978295Y1620391D01*
X5956361D01*
X5935176Y1614714D01*
X5916181Y1603748D01*
X5900671Y1588238D01*
X5889705Y1569243D01*
X5884028Y1548058D01*
Y1526124D01*
X5889705Y1504938D01*
X5900671Y1485943D01*
X5916181Y1470434D01*
X5933355Y1460518D01*
X5934030Y1453647D01*
X5933908Y1453033D01*
X5932472Y1447044D01*
X5913768Y1436245D01*
X5898258Y1420736D01*
X5887292Y1401741D01*
X5881615Y1380555D01*
Y1358621D01*
X5887292Y1337435D01*
X5898258Y1318441D01*
X5913768Y1302931D01*
X5932763Y1291965D01*
X5953948Y1286288D01*
X5975882D01*
X5997068Y1291965D01*
X6016063Y1302931D01*
X6029792Y1316661D01*
X6037501Y1317667D01*
X6045209Y1316661D01*
X6058939Y1302931D01*
X6077934Y1291965D01*
X6099120Y1286288D01*
X6121053D01*
X6142239Y1291965D01*
X6161234Y1302931D01*
X6176743Y1318441D01*
X6187710Y1337435D01*
X6193386Y1358621D01*
Y1380555D01*
X6187710Y1401741D01*
X6176743Y1420736D01*
X6161234Y1436245D01*
X6144059Y1446161D01*
X6143385Y1453032D01*
X6143506Y1453646D01*
X6144942Y1459635D01*
X6163647Y1470434D01*
X6179156Y1485943D01*
X6190123Y1504938D01*
X6195799Y1526124D01*
Y1548058D01*
X6190123Y1569243D01*
X6179156Y1588238D01*
X6163647Y1603748D01*
X6144652Y1614714D01*
X6123466Y1620391D01*
D02*
G37*
G36*
X4903876Y1753626D02*
X4881943D01*
X4860757Y1747949D01*
X4841762Y1736982D01*
X4826253Y1721473D01*
X4815286Y1702478D01*
X4809610Y1681292D01*
Y1659359D01*
X4815286Y1638173D01*
X4826253Y1619178D01*
X4839983Y1605448D01*
X4840989Y1597740D01*
X4839983Y1590032D01*
X4826253Y1576302D01*
X4815286Y1557307D01*
X4814074Y1552782D01*
X4812846Y1552453D01*
X4793851Y1541486D01*
X4778342Y1525977D01*
X4767375Y1506982D01*
X4761699Y1485796D01*
Y1463862D01*
X4767375Y1442677D01*
X4778342Y1423682D01*
X4793851Y1408172D01*
X4812846Y1397206D01*
X4834032Y1391529D01*
X4855965D01*
X4877151Y1397206D01*
X4896146Y1408172D01*
X4911655Y1423682D01*
X4922622Y1442677D01*
X4923835Y1447202D01*
X4925062Y1447531D01*
X4944057Y1458498D01*
X4959566Y1474007D01*
X4970533Y1493002D01*
X4976210Y1514188D01*
Y1536121D01*
X4970533Y1557307D01*
X4959566Y1576302D01*
X4945837Y1590032D01*
X4944831Y1597740D01*
X4945837Y1605448D01*
X4959566Y1619178D01*
X4970533Y1638173D01*
X4976210Y1659359D01*
Y1681292D01*
X4970533Y1702478D01*
X4959566Y1721473D01*
X4944057Y1736982D01*
X4925062Y1747949D01*
X4903876Y1753626D01*
D02*
G37*
G36*
X3227867Y1444000D02*
X3205933D01*
X3184748Y1438323D01*
X3165753Y1427357D01*
X3150243Y1411847D01*
X3139277Y1392852D01*
X3133600Y1371667D01*
Y1349733D01*
X3139277Y1328547D01*
X3150243Y1309552D01*
X3165753Y1294043D01*
X3184748Y1283076D01*
X3205933Y1277400D01*
X3227867D01*
X3249053Y1283076D01*
X3268048Y1294043D01*
X3283557Y1309552D01*
X3294524Y1328547D01*
X3300200Y1349733D01*
Y1371667D01*
X3294524Y1392852D01*
X3283557Y1411847D01*
X3268048Y1427357D01*
X3249053Y1438323D01*
X3227867Y1444000D01*
D02*
G37*
G36*
X2884967D02*
X2863033D01*
X2841848Y1438323D01*
X2822853Y1427357D01*
X2807343Y1411847D01*
X2796377Y1392852D01*
X2790700Y1371667D01*
Y1349733D01*
X2796377Y1328547D01*
X2807343Y1309552D01*
X2822853Y1294043D01*
X2841848Y1283076D01*
X2863033Y1277400D01*
X2884967D01*
X2906153Y1283076D01*
X2925148Y1294043D01*
X2940657Y1309552D01*
X2951624Y1328547D01*
X2957300Y1349733D01*
Y1371667D01*
X2951624Y1392852D01*
X2940657Y1411847D01*
X2925148Y1427357D01*
X2906153Y1438323D01*
X2884967Y1444000D01*
D02*
G37*
G36*
X2542067D02*
X2520133D01*
X2498948Y1438323D01*
X2479953Y1427357D01*
X2464443Y1411847D01*
X2453477Y1392852D01*
X2447800Y1371667D01*
Y1349733D01*
X2453477Y1328547D01*
X2464443Y1309552D01*
X2479953Y1294043D01*
X2498948Y1283076D01*
X2520133Y1277400D01*
X2542067D01*
X2563253Y1283076D01*
X2582248Y1294043D01*
X2597757Y1309552D01*
X2608724Y1328547D01*
X2614400Y1349733D01*
Y1371667D01*
X2608724Y1392852D01*
X2597757Y1411847D01*
X2582248Y1427357D01*
X2563253Y1438323D01*
X2542067Y1444000D01*
D02*
G37*
G36*
X7675167Y1372003D02*
X7653234D01*
X7632048Y1366326D01*
X7613053Y1355359D01*
X7597544Y1339850D01*
X7586577Y1320855D01*
X7580901Y1299669D01*
Y1277736D01*
X7586577Y1256550D01*
X7597544Y1237555D01*
X7613053Y1222046D01*
X7632048Y1211079D01*
X7653234Y1205402D01*
X7675167D01*
X7696353Y1211079D01*
X7715348Y1222046D01*
X7730857Y1237555D01*
X7741824Y1256550D01*
X7747501Y1277736D01*
Y1299669D01*
X7741824Y1320855D01*
X7730857Y1339850D01*
X7715348Y1355359D01*
X7696353Y1366326D01*
X7675167Y1372003D01*
D02*
G37*
G36*
X7967267Y1371998D02*
X7945334D01*
X7924148Y1366321D01*
X7905153Y1355354D01*
X7889644Y1339845D01*
X7878677Y1320850D01*
X7873001Y1299664D01*
Y1277731D01*
X7878677Y1256545D01*
X7889644Y1237550D01*
X7905153Y1222041D01*
X7924148Y1211074D01*
X7945334Y1205397D01*
X7967267D01*
X7988453Y1211074D01*
X8007448Y1222041D01*
X8022957Y1237550D01*
X8033924Y1256545D01*
X8039601Y1277731D01*
Y1299664D01*
X8033924Y1320850D01*
X8022957Y1339845D01*
X8007448Y1355354D01*
X7988453Y1366321D01*
X7967267Y1371998D01*
D02*
G37*
G36*
X4107966Y1060300D02*
X4086033D01*
X4064847Y1054623D01*
X4056999Y1050092D01*
X4049152Y1054623D01*
X4027966Y1060300D01*
X4006033D01*
X3984847Y1054623D01*
X3976999Y1050092D01*
X3969152Y1054623D01*
X3947966Y1060300D01*
X3926033D01*
X3904847Y1054623D01*
X3885852Y1043657D01*
X3870343Y1028147D01*
X3859376Y1009152D01*
X3853699Y987967D01*
Y966033D01*
X3859376Y944847D01*
X3870343Y925852D01*
X3885852Y910343D01*
X3889304Y908350D01*
Y895650D01*
X3885852Y893657D01*
X3870343Y878147D01*
X3859376Y859152D01*
X3853699Y837967D01*
Y816033D01*
X3859376Y794847D01*
X3870343Y775852D01*
X3885852Y760343D01*
X3889304Y758350D01*
Y745650D01*
X3885852Y743657D01*
X3870343Y728147D01*
X3859376Y709153D01*
X3853699Y687967D01*
Y666033D01*
X3859376Y644847D01*
X3870343Y625852D01*
X3885852Y610343D01*
X3904847Y599376D01*
X3926033Y593700D01*
X3947966D01*
X3969152Y599376D01*
X3976999Y603907D01*
X3984847Y599376D01*
X4006033Y593700D01*
X4027966D01*
X4049152Y599376D01*
X4056999Y603907D01*
X4064847Y599376D01*
X4086033Y593700D01*
X4107966D01*
X4129152Y599376D01*
X4148147Y610343D01*
X4163656Y625852D01*
X4174623Y644847D01*
X4180299Y666033D01*
Y687967D01*
X4174623Y709153D01*
X4163656Y728147D01*
X4148147Y743657D01*
X4144695Y745650D01*
Y758350D01*
X4148147Y760343D01*
X4163656Y775852D01*
X4174623Y794847D01*
X4180299Y816033D01*
Y837967D01*
X4174623Y859152D01*
X4163656Y878147D01*
X4148147Y893657D01*
X4144695Y895650D01*
Y908350D01*
X4148147Y910343D01*
X4163656Y925852D01*
X4174623Y944847D01*
X4180299Y966033D01*
Y987967D01*
X4174623Y1009152D01*
X4163656Y1028147D01*
X4148147Y1043657D01*
X4129152Y1054623D01*
X4107966Y1060300D01*
D02*
G37*
G36*
X5038464Y1209301D02*
X5016531D01*
X4995345Y1203625D01*
X4976350Y1192658D01*
X4960841Y1177149D01*
X4949874Y1158154D01*
X4944198Y1136968D01*
Y1115035D01*
X4949874Y1093849D01*
X4960841Y1074854D01*
X4976350Y1059345D01*
X4995345Y1048378D01*
X5016531Y1042701D01*
X5038464D01*
X5059650Y1048378D01*
X5078645Y1059345D01*
X5094154Y1074854D01*
X5105121Y1093849D01*
X5110798Y1115035D01*
Y1136968D01*
X5105121Y1158154D01*
X5094154Y1177149D01*
X5078645Y1192658D01*
X5059650Y1203625D01*
X5038464Y1209301D01*
D02*
G37*
G36*
X7507178Y1140617D02*
X7485245D01*
X7464059Y1134940D01*
X7445064Y1123974D01*
X7429555Y1108464D01*
X7418588Y1089470D01*
X7412912Y1068284D01*
Y1046350D01*
X7418588Y1025164D01*
X7429555Y1006169D01*
X7445064Y990660D01*
X7464059Y979693D01*
X7485245Y974017D01*
X7507178D01*
X7528364Y979693D01*
X7547359Y990660D01*
X7562868Y1006169D01*
X7573835Y1025164D01*
X7579512Y1046350D01*
Y1068284D01*
X7573835Y1089470D01*
X7562868Y1108464D01*
X7547359Y1123974D01*
X7528364Y1134940D01*
X7507178Y1140617D01*
D02*
G37*
G36*
X7233556D02*
X7211623D01*
X7190437Y1134940D01*
X7171442Y1123974D01*
X7155933Y1108464D01*
X7144966Y1089470D01*
X7139290Y1068284D01*
Y1046350D01*
X7144966Y1025164D01*
X7155933Y1006169D01*
X7171442Y990660D01*
X7190437Y979693D01*
X7211623Y974017D01*
X7233556D01*
X7254742Y979693D01*
X7273737Y990660D01*
X7289246Y1006169D01*
X7300213Y1025164D01*
X7305890Y1046350D01*
Y1068284D01*
X7300213Y1089470D01*
X7289246Y1108464D01*
X7273737Y1123974D01*
X7254742Y1134940D01*
X7233556Y1140617D01*
D02*
G37*
G36*
X8380807Y2278164D02*
X8358874D01*
X8337688Y2272487D01*
X8318693Y2261521D01*
X8303184Y2246012D01*
X8292217Y2227017D01*
X8286540Y2205831D01*
Y2183897D01*
X8292217Y2162711D01*
X8293861Y2159864D01*
X8292218Y2157017D01*
X8286541Y2135831D01*
Y2113897D01*
X8292218Y2092711D01*
X8293861Y2089864D01*
X8292218Y2087016D01*
X8286541Y2065831D01*
Y2043897D01*
X8292218Y2022711D01*
X8293862Y2019863D01*
X8292218Y2017016D01*
X8286541Y1995830D01*
Y1973897D01*
X8292218Y1952711D01*
X8293862Y1949864D01*
X8292218Y1947017D01*
X8286542Y1925831D01*
Y1903898D01*
X8292218Y1882712D01*
X8303185Y1863717D01*
X8318694Y1848208D01*
X8329080Y1842211D01*
Y1827546D01*
X8318646Y1821522D01*
X8303137Y1806013D01*
X8292170Y1787018D01*
X8286493Y1765832D01*
Y1743898D01*
X8292170Y1722713D01*
X8293814Y1719865D01*
X8292170Y1717018D01*
X8286494Y1695832D01*
Y1673898D01*
X8292170Y1652712D01*
X8293814Y1649865D01*
X8292170Y1647018D01*
X8286494Y1625832D01*
Y1603898D01*
X8292170Y1582712D01*
X8293815Y1579865D01*
X8292171Y1577017D01*
X8286494Y1555832D01*
Y1533898D01*
X8292171Y1512712D01*
X8293815Y1509865D01*
X8292171Y1507018D01*
X8286494Y1485832D01*
Y1463899D01*
X8292171Y1442713D01*
X8303138Y1423718D01*
X8313461Y1413394D01*
X8318102Y1406934D01*
X8313619Y1396447D01*
X8305103Y1387930D01*
X8294136Y1368935D01*
X8288459Y1347749D01*
Y1325816D01*
X8294136Y1304630D01*
X8295780Y1301782D01*
X8294136Y1298935D01*
X8288459Y1277749D01*
Y1255816D01*
X8294136Y1234630D01*
X8295780Y1231782D01*
X8294136Y1228935D01*
X8288459Y1207749D01*
Y1185816D01*
X8294136Y1164630D01*
X8295780Y1161782D01*
X8294136Y1158935D01*
X8288459Y1137749D01*
Y1115816D01*
X8294136Y1094630D01*
X8295780Y1091782D01*
X8294136Y1088935D01*
X8288459Y1067749D01*
Y1045816D01*
X8294136Y1024630D01*
X8305103Y1005635D01*
X8320612Y990126D01*
X8339607Y979159D01*
X8360793Y973482D01*
X8382726D01*
X8403912Y979159D01*
X8422907Y990126D01*
X8438416Y1005635D01*
X8449383Y1024630D01*
X8455060Y1045816D01*
Y1067749D01*
X8449383Y1088935D01*
X8447739Y1091782D01*
X8449383Y1094630D01*
X8455060Y1115816D01*
Y1137749D01*
X8449383Y1158935D01*
X8447739Y1161782D01*
X8449383Y1164630D01*
X8455060Y1185816D01*
Y1207749D01*
X8449383Y1228935D01*
X8447739Y1231782D01*
X8449383Y1234630D01*
X8455060Y1255816D01*
Y1277749D01*
X8449383Y1298935D01*
X8447739Y1301782D01*
X8449383Y1304630D01*
X8455060Y1325816D01*
Y1347749D01*
X8449383Y1368935D01*
X8438416Y1387930D01*
X8428093Y1398253D01*
X8423452Y1404714D01*
X8427935Y1415201D01*
X8436451Y1423718D01*
X8447418Y1442713D01*
X8453095Y1463899D01*
Y1485832D01*
X8447418Y1507018D01*
X8445774Y1509865D01*
X8447418Y1512712D01*
X8453094Y1533898D01*
Y1555832D01*
X8447418Y1577017D01*
X8445774Y1579865D01*
X8447417Y1582712D01*
X8453094Y1603898D01*
Y1625832D01*
X8447417Y1647018D01*
X8445773Y1649865D01*
X8447417Y1652712D01*
X8453094Y1673898D01*
Y1695832D01*
X8447417Y1717018D01*
X8445773Y1719865D01*
X8447417Y1722713D01*
X8453093Y1743898D01*
Y1765832D01*
X8447417Y1787018D01*
X8436450Y1806013D01*
X8420941Y1821522D01*
X8410555Y1827518D01*
Y1842183D01*
X8420989Y1848208D01*
X8436498Y1863717D01*
X8447465Y1882712D01*
X8453142Y1903898D01*
Y1925831D01*
X8447465Y1947017D01*
X8445821Y1949864D01*
X8447465Y1952711D01*
X8453142Y1973897D01*
Y1995830D01*
X8447465Y2017016D01*
X8445821Y2019864D01*
X8447464Y2022711D01*
X8453141Y2043897D01*
Y2065831D01*
X8447464Y2087016D01*
X8445821Y2089864D01*
X8447464Y2092711D01*
X8453141Y2113897D01*
Y2135831D01*
X8447464Y2157017D01*
X8445820Y2159864D01*
X8447464Y2162711D01*
X8453141Y2183897D01*
Y2205831D01*
X8447464Y2227017D01*
X8436497Y2246012D01*
X8420988Y2261521D01*
X8401993Y2272487D01*
X8380807Y2278164D01*
D02*
G37*
G36*
X5595556Y1090955D02*
X5573623D01*
X5552437Y1085278D01*
X5533442Y1074312D01*
X5517933Y1058802D01*
X5506966Y1039807D01*
X5501289Y1018622D01*
Y996688D01*
X5506966Y975502D01*
X5517933Y956507D01*
X5533442Y940998D01*
X5552437Y930031D01*
X5573623Y924355D01*
X5595556D01*
X5616742Y930031D01*
X5635737Y940998D01*
X5651246Y956507D01*
X5662213Y975502D01*
X5667889Y996688D01*
Y1018622D01*
X5662213Y1039807D01*
X5651246Y1058802D01*
X5635737Y1074312D01*
X5616742Y1085278D01*
X5595556Y1090955D01*
D02*
G37*
G36*
X5861380Y1088456D02*
X5839447D01*
X5818261Y1082779D01*
X5799266Y1071812D01*
X5783757Y1056303D01*
X5772790Y1037308D01*
X5767113Y1016122D01*
Y994189D01*
X5772790Y973003D01*
X5783757Y954008D01*
X5799266Y938499D01*
X5818261Y927532D01*
X5839447Y921855D01*
X5861380D01*
X5882566Y927532D01*
X5901561Y938499D01*
X5917070Y954008D01*
X5928037Y973003D01*
X5933714Y994189D01*
Y1016122D01*
X5928037Y1037308D01*
X5917070Y1056303D01*
X5901561Y1071812D01*
X5882566Y1082779D01*
X5861380Y1088456D01*
D02*
G37*
G36*
X6583878Y1083213D02*
X6561945D01*
X6540759Y1077536D01*
X6521764Y1066570D01*
X6506255Y1051060D01*
X6495288Y1032066D01*
X6489611Y1010880D01*
Y988946D01*
X6495288Y967760D01*
X6506255Y948765D01*
X6521764Y933256D01*
X6540759Y922289D01*
X6561945Y916613D01*
X6583878D01*
X6605064Y922289D01*
X6624059Y933256D01*
X6639568Y948765D01*
X6650535Y967760D01*
X6656211Y988946D01*
Y1010880D01*
X6650535Y1032066D01*
X6639568Y1051060D01*
X6624059Y1066570D01*
X6605064Y1077536D01*
X6583878Y1083213D01*
D02*
G37*
G36*
X6320558D02*
X6298625D01*
X6277439Y1077536D01*
X6258444Y1066570D01*
X6242935Y1051060D01*
X6231968Y1032066D01*
X6226292Y1010880D01*
Y988946D01*
X6231968Y967760D01*
X6242935Y948765D01*
X6258444Y933256D01*
X6277439Y922289D01*
X6298625Y916613D01*
X6320558D01*
X6341744Y922289D01*
X6360739Y933256D01*
X6376248Y948765D01*
X6387215Y967760D01*
X6392892Y988946D01*
Y1010880D01*
X6387215Y1032066D01*
X6376248Y1051060D01*
X6360739Y1066570D01*
X6341744Y1077536D01*
X6320558Y1083213D01*
D02*
G37*
G36*
X2333879Y793216D02*
X2311946D01*
X2290760Y787539D01*
X2271765Y776573D01*
X2256256Y761064D01*
X2245289Y742069D01*
X2239612Y720883D01*
Y698949D01*
X2245289Y677763D01*
X2256256Y658769D01*
X2271765Y643259D01*
X2290760Y632293D01*
X2311946Y626616D01*
X2333879D01*
X2355065Y632293D01*
X2374060Y643259D01*
X2389569Y658769D01*
X2400536Y677763D01*
X2406212Y698949D01*
Y720883D01*
X2400536Y742069D01*
X2389569Y761064D01*
X2374060Y776573D01*
X2355065Y787539D01*
X2333879Y793216D01*
D02*
G37*
G36*
X2630966Y781060D02*
X2609033D01*
X2587847Y775383D01*
X2568852Y764416D01*
X2553343Y748907D01*
X2542376Y729912D01*
X2536699Y708726D01*
Y686793D01*
X2542376Y665607D01*
X2553343Y646612D01*
X2568852Y631103D01*
X2587847Y620136D01*
X2609033Y614460D01*
X2630966D01*
X2652152Y620136D01*
X2671147Y631103D01*
X2686656Y646612D01*
X2697623Y665607D01*
X2703299Y686793D01*
Y708726D01*
X2697623Y729912D01*
X2686656Y748907D01*
X2671147Y764416D01*
X2652152Y775383D01*
X2630966Y781060D01*
D02*
G37*
G36*
X2681766Y605800D02*
X2659833D01*
X2638647Y600123D01*
X2619999Y589357D01*
X2601352Y600123D01*
X2580166Y605800D01*
X2558233D01*
X2537047Y600123D01*
X2518052Y589156D01*
X2502543Y573647D01*
X2491576Y554652D01*
X2485899Y533466D01*
Y511533D01*
X2491576Y490347D01*
X2502543Y471352D01*
X2518052Y455843D01*
X2537047Y444876D01*
X2558233Y439200D01*
X2580166D01*
X2601352Y444876D01*
X2619999Y455642D01*
X2638647Y444876D01*
X2659833Y439200D01*
X2681766D01*
X2702952Y444876D01*
X2721947Y455843D01*
X2737456Y471352D01*
X2748423Y490347D01*
X2754099Y511533D01*
Y533466D01*
X2748423Y554652D01*
X2737456Y573647D01*
X2721947Y589156D01*
X2702952Y600123D01*
X2681766Y605800D01*
D02*
G37*
G36*
X3548878Y716340D02*
X3526944D01*
X3505759Y710664D01*
X3486764Y699697D01*
X3471254Y684188D01*
X3460288Y665193D01*
X3454611Y644007D01*
Y622074D01*
X3460288Y600888D01*
X3471254Y581893D01*
X3486764Y566384D01*
X3505759Y555417D01*
X3526944Y549740D01*
X3548878D01*
X3570064Y555417D01*
X3589059Y566384D01*
X3604568Y581893D01*
X3615535Y600888D01*
X3621211Y622074D01*
Y644007D01*
X3615535Y665193D01*
X3604568Y684188D01*
X3589059Y699697D01*
X3570064Y710664D01*
X3548878Y716340D01*
D02*
G37*
G36*
X7886998Y779090D02*
X7848542D01*
X7811397Y769137D01*
X7778093Y749909D01*
X7750901Y722717D01*
X7731673Y689413D01*
X7721720Y652268D01*
Y613812D01*
X7731673Y576667D01*
X7750901Y543363D01*
X7778093Y516171D01*
X7811397Y496943D01*
X7848542Y486990D01*
X7886998D01*
X7924143Y496943D01*
X7957447Y516171D01*
X7984639Y543363D01*
X8003867Y576667D01*
X8013820Y613812D01*
Y652268D01*
X8003867Y689413D01*
X7984639Y722717D01*
X7957447Y749909D01*
X7924143Y769137D01*
X7886998Y779090D01*
D02*
G37*
G36*
X7376458D02*
X7338002D01*
X7300857Y769137D01*
X7267553Y749909D01*
X7240361Y722717D01*
X7221133Y689413D01*
X7211180Y652268D01*
Y613812D01*
X7221133Y576667D01*
X7240361Y543363D01*
X7267553Y516171D01*
X7300857Y496943D01*
X7338002Y486990D01*
X7376458D01*
X7413603Y496943D01*
X7446907Y516171D01*
X7474099Y543363D01*
X7493327Y576667D01*
X7503280Y613812D01*
Y652268D01*
X7493327Y689413D01*
X7474099Y722717D01*
X7446907Y749909D01*
X7413603Y769137D01*
X7376458Y779090D01*
D02*
G37*
G36*
X6734498D02*
X6696042D01*
X6658897Y769137D01*
X6625593Y749909D01*
X6598401Y722717D01*
X6579173Y689413D01*
X6569220Y652268D01*
Y613812D01*
X6579173Y576667D01*
X6598401Y543363D01*
X6625593Y516171D01*
X6658897Y496943D01*
X6696042Y486990D01*
X6734498D01*
X6771643Y496943D01*
X6804947Y516171D01*
X6832139Y543363D01*
X6851367Y576667D01*
X6861320Y613812D01*
Y652268D01*
X6851367Y689413D01*
X6832139Y722717D01*
X6804947Y749909D01*
X6771643Y769137D01*
X6734498Y779090D01*
D02*
G37*
G36*
X6223958D02*
X6185502D01*
X6148357Y769137D01*
X6115053Y749909D01*
X6087861Y722717D01*
X6068633Y689413D01*
X6058680Y652268D01*
Y613812D01*
X6068633Y576667D01*
X6087861Y543363D01*
X6115053Y516171D01*
X6148357Y496943D01*
X6185502Y486990D01*
X6223958D01*
X6261103Y496943D01*
X6294407Y516171D01*
X6321599Y543363D01*
X6340827Y576667D01*
X6350780Y613812D01*
Y652268D01*
X6340827Y689413D01*
X6321599Y722717D01*
X6294407Y749909D01*
X6261103Y769137D01*
X6223958Y779090D01*
D02*
G37*
G36*
X5454228D02*
X5415772D01*
X5378627Y769137D01*
X5345323Y749909D01*
X5318131Y722717D01*
X5298903Y689413D01*
X5288950Y652268D01*
Y613812D01*
X5298903Y576667D01*
X5318131Y543363D01*
X5345323Y516171D01*
X5378627Y496943D01*
X5415772Y486990D01*
X5454228D01*
X5491373Y496943D01*
X5524677Y516171D01*
X5551869Y543363D01*
X5571097Y576667D01*
X5581050Y613812D01*
Y652268D01*
X5571097Y689413D01*
X5551869Y722717D01*
X5524677Y749909D01*
X5491373Y769137D01*
X5454228Y779090D01*
D02*
G37*
G36*
X4943688D02*
X4905232D01*
X4868087Y769137D01*
X4834783Y749909D01*
X4807591Y722717D01*
X4788363Y689413D01*
X4778410Y652268D01*
Y613812D01*
X4788363Y576667D01*
X4807591Y543363D01*
X4834783Y516171D01*
X4868087Y496943D01*
X4905232Y486990D01*
X4943688D01*
X4980833Y496943D01*
X5014137Y516171D01*
X5041329Y543363D01*
X5060557Y576667D01*
X5070510Y613812D01*
Y652268D01*
X5060557Y689413D01*
X5041329Y722717D01*
X5014137Y749909D01*
X4980833Y769137D01*
X4943688Y779090D01*
D02*
G37*
G36*
X5825966Y652299D02*
X5804033D01*
X5782847Y646623D01*
X5763852Y635656D01*
X5748343Y620147D01*
X5737376Y601152D01*
X5731699Y579966D01*
Y558032D01*
X5737376Y536847D01*
X5748343Y517852D01*
X5763852Y502342D01*
X5782847Y491376D01*
X5804033Y485699D01*
X5825966D01*
X5847152Y491376D01*
X5866147Y502342D01*
X5881656Y517852D01*
X5892623Y536847D01*
X5898299Y558032D01*
Y579966D01*
X5892623Y601152D01*
X5881656Y620147D01*
X5866147Y635656D01*
X5847152Y646623D01*
X5825966Y652299D01*
D02*
G37*
G36*
X6990967Y628301D02*
X6969034D01*
X6947848Y622625D01*
X6928853Y611658D01*
X6913344Y596149D01*
X6902377Y577154D01*
X6896701Y555968D01*
Y534034D01*
X6902377Y512849D01*
X6913344Y493854D01*
X6928853Y478344D01*
X6947848Y467378D01*
X6969034Y461701D01*
X6990967D01*
X7012153Y467378D01*
X7031148Y478344D01*
X7046657Y493854D01*
X7057624Y512849D01*
X7063301Y534034D01*
Y555968D01*
X7057624Y577154D01*
X7046657Y596149D01*
X7031148Y611658D01*
X7012153Y622625D01*
X6990967Y628301D01*
D02*
G37*
G36*
X4373058Y590798D02*
X4351124D01*
X4329939Y585122D01*
X4310944Y574155D01*
X4295434Y558646D01*
X4284468Y539651D01*
X4278791Y518465D01*
Y496532D01*
X4284468Y475346D01*
X4295434Y456351D01*
X4310944Y440842D01*
X4329939Y429875D01*
X4351124Y424198D01*
X4373058D01*
X4394244Y429875D01*
X4413239Y440842D01*
X4428748Y456351D01*
X4439715Y475346D01*
X4445391Y496532D01*
Y518465D01*
X4439715Y539651D01*
X4428748Y558646D01*
X4413239Y574155D01*
X4394244Y585122D01*
X4373058Y590798D01*
D02*
G37*
G36*
X2630966Y430540D02*
X2609033D01*
X2587847Y424863D01*
X2568852Y413896D01*
X2553343Y398387D01*
X2542376Y379392D01*
X2536699Y358206D01*
Y336273D01*
X2542376Y315087D01*
X2553343Y296092D01*
X2568852Y280583D01*
X2587847Y269616D01*
X2609033Y263940D01*
X2630966D01*
X2652152Y269616D01*
X2671147Y280583D01*
X2686656Y296092D01*
X2697623Y315087D01*
X2703299Y336273D01*
Y358206D01*
X2697623Y379392D01*
X2686656Y398387D01*
X2671147Y413896D01*
X2652152Y424863D01*
X2630966Y430540D01*
D02*
G37*
G36*
X7627385Y528900D02*
X7597615D01*
X7568417Y523092D01*
X7540913Y511700D01*
X7516160Y495160D01*
X7495110Y474110D01*
X7478571Y449357D01*
X7467178Y421853D01*
X7461370Y392655D01*
Y362885D01*
X7467178Y333687D01*
X7478571Y306183D01*
X7495110Y281430D01*
X7516160Y260379D01*
X7540913Y243840D01*
X7568417Y232448D01*
X7597615Y226640D01*
X7627385D01*
X7656583Y232448D01*
X7684087Y243840D01*
X7708840Y260379D01*
X7729891Y281430D01*
X7746430Y306183D01*
X7757822Y333687D01*
X7763630Y362885D01*
Y392655D01*
X7757822Y421853D01*
X7746430Y449357D01*
X7729891Y474110D01*
X7708840Y495160D01*
X7684087Y511700D01*
X7656583Y523092D01*
X7627385Y528900D01*
D02*
G37*
G36*
X6474885D02*
X6445115D01*
X6415917Y523092D01*
X6388413Y511700D01*
X6363660Y495160D01*
X6342610Y474110D01*
X6326070Y449357D01*
X6314678Y421853D01*
X6308870Y392655D01*
Y362885D01*
X6314678Y333687D01*
X6326070Y306183D01*
X6342610Y281430D01*
X6363660Y260379D01*
X6388413Y243840D01*
X6415917Y232448D01*
X6445115Y226640D01*
X6474885D01*
X6504083Y232448D01*
X6531587Y243840D01*
X6556340Y260379D01*
X6577390Y281430D01*
X6593930Y306183D01*
X6605322Y333687D01*
X6611130Y362885D01*
Y392655D01*
X6605322Y421853D01*
X6593930Y449357D01*
X6577390Y474110D01*
X6556340Y495160D01*
X6531587Y511700D01*
X6504083Y523092D01*
X6474885Y528900D01*
D02*
G37*
G36*
X5194615D02*
X5164845D01*
X5135647Y523092D01*
X5108143Y511700D01*
X5083390Y495160D01*
X5062340Y474110D01*
X5045800Y449357D01*
X5034408Y421853D01*
X5028600Y392655D01*
Y362885D01*
X5034408Y333687D01*
X5045800Y306183D01*
X5062340Y281430D01*
X5083390Y260379D01*
X5108143Y243840D01*
X5135647Y232448D01*
X5164845Y226640D01*
X5194615D01*
X5223813Y232448D01*
X5251317Y243840D01*
X5276070Y260379D01*
X5297120Y281430D01*
X5313660Y306183D01*
X5325052Y333687D01*
X5330860Y362885D01*
Y392655D01*
X5325052Y421853D01*
X5313660Y449357D01*
X5297120Y474110D01*
X5276070Y495160D01*
X5251317Y511700D01*
X5223813Y523092D01*
X5194615Y528900D01*
D02*
G37*
G36*
X7886998Y268550D02*
X7848542D01*
X7811397Y258597D01*
X7778093Y239369D01*
X7750901Y212177D01*
X7731673Y178873D01*
X7721720Y141728D01*
Y103272D01*
X7731673Y66127D01*
X7750901Y32823D01*
X7778093Y5631D01*
X7811397Y-13597D01*
X7848542Y-23550D01*
X7886998D01*
X7924143Y-13597D01*
X7957447Y5631D01*
X7984639Y32823D01*
X8003867Y66127D01*
X8013820Y103272D01*
Y141728D01*
X8003867Y178873D01*
X7984639Y212177D01*
X7957447Y239369D01*
X7924143Y258597D01*
X7886998Y268550D01*
D02*
G37*
G36*
X7376458D02*
X7338002D01*
X7300857Y258597D01*
X7267553Y239369D01*
X7240361Y212177D01*
X7221133Y178873D01*
X7211180Y141728D01*
Y103272D01*
X7221133Y66127D01*
X7240361Y32823D01*
X7267553Y5631D01*
X7300857Y-13597D01*
X7338002Y-23550D01*
X7376458D01*
X7413603Y-13597D01*
X7446907Y5631D01*
X7474099Y32823D01*
X7493327Y66127D01*
X7503280Y103272D01*
Y141728D01*
X7493327Y178873D01*
X7474099Y212177D01*
X7446907Y239369D01*
X7413603Y258597D01*
X7376458Y268550D01*
D02*
G37*
G36*
X6734498D02*
X6696042D01*
X6658897Y258597D01*
X6625593Y239369D01*
X6598401Y212177D01*
X6579173Y178873D01*
X6569220Y141728D01*
Y103272D01*
X6579173Y66127D01*
X6598401Y32823D01*
X6625593Y5631D01*
X6658897Y-13597D01*
X6696042Y-23550D01*
X6734498D01*
X6771643Y-13597D01*
X6804947Y5631D01*
X6832139Y32823D01*
X6851367Y66127D01*
X6861320Y103272D01*
Y141728D01*
X6851367Y178873D01*
X6832139Y212177D01*
X6804947Y239369D01*
X6771643Y258597D01*
X6734498Y268550D01*
D02*
G37*
G36*
X6223958D02*
X6185502D01*
X6148357Y258597D01*
X6115053Y239369D01*
X6087861Y212177D01*
X6068633Y178873D01*
X6058680Y141728D01*
Y103272D01*
X6068633Y66127D01*
X6087861Y32823D01*
X6115053Y5631D01*
X6148357Y-13597D01*
X6185502Y-23550D01*
X6223958D01*
X6261103Y-13597D01*
X6294407Y5631D01*
X6321599Y32823D01*
X6340827Y66127D01*
X6350780Y103272D01*
Y141728D01*
X6340827Y178873D01*
X6321599Y212177D01*
X6294407Y239369D01*
X6261103Y258597D01*
X6223958Y268550D01*
D02*
G37*
G36*
X5454228D02*
X5415772D01*
X5378627Y258597D01*
X5345323Y239369D01*
X5318131Y212177D01*
X5298903Y178873D01*
X5288950Y141728D01*
Y103272D01*
X5298903Y66127D01*
X5318131Y32823D01*
X5345323Y5631D01*
X5378627Y-13597D01*
X5415772Y-23550D01*
X5454228D01*
X5491373Y-13597D01*
X5524677Y5631D01*
X5551869Y32823D01*
X5571097Y66127D01*
X5581050Y103272D01*
Y141728D01*
X5571097Y178873D01*
X5551869Y212177D01*
X5524677Y239369D01*
X5491373Y258597D01*
X5454228Y268550D01*
D02*
G37*
G36*
X4943688D02*
X4905232D01*
X4868087Y258597D01*
X4834783Y239369D01*
X4807591Y212177D01*
X4788363Y178873D01*
X4778410Y141728D01*
Y103272D01*
X4788363Y66127D01*
X4807591Y32823D01*
X4834783Y5631D01*
X4868087Y-13597D01*
X4905232Y-23550D01*
X4943688D01*
X4980833Y-13597D01*
X5014137Y5631D01*
X5041329Y32823D01*
X5060557Y66127D01*
X5070510Y103272D01*
Y141728D01*
X5060557Y178873D01*
X5041329Y212177D01*
X5014137Y239369D01*
X4980833Y258597D01*
X4943688Y268550D01*
D02*
G37*
G36*
X4338538Y-34200D02*
X4301464D01*
X4265654Y-43795D01*
X4233548Y-62332D01*
X4207333Y-88547D01*
X4188797Y-120653D01*
X4179201Y-156463D01*
Y-193536D01*
X4188797Y-229346D01*
X4207333Y-261453D01*
X4233548Y-287667D01*
X4265654Y-306204D01*
X4301464Y-315799D01*
X4338538D01*
X4374348Y-306204D01*
X4406454Y-287667D01*
X4432669Y-261453D01*
X4451205Y-229346D01*
X4460801Y-193536D01*
Y-156463D01*
X4451205Y-120653D01*
X4432669Y-88547D01*
X4406454Y-62332D01*
X4374348Y-43795D01*
X4338538Y-34200D01*
D02*
G37*
G36*
X3825801D02*
X3544201D01*
Y-315799D01*
X3825801D01*
Y-34200D01*
D02*
G37*
G36*
X9119942Y-93432D02*
X9082869D01*
X9047059Y-103027D01*
X9014953Y-121564D01*
X8988738Y-147778D01*
X8970201Y-179885D01*
X8960606Y-215695D01*
Y-252768D01*
X8970201Y-288578D01*
X8988738Y-320684D01*
X9014953Y-346899D01*
X9047059Y-365436D01*
X9082869Y-375031D01*
X9119942D01*
X9155752Y-365436D01*
X9187859Y-346899D01*
X9214074Y-320684D01*
X9232610Y-288578D01*
X9242206Y-252768D01*
Y-215695D01*
X9232610Y-179885D01*
X9214074Y-147778D01*
X9187859Y-121564D01*
X9155752Y-103027D01*
X9119942Y-93432D01*
D02*
G37*
G36*
X8607206D02*
X8325606D01*
Y-375031D01*
X8607206D01*
Y-93432D01*
D02*
G37*
G36*
X7090566Y-216698D02*
X7068633D01*
X7047447Y-222375D01*
X7028452Y-233341D01*
X7012943Y-248851D01*
X7001976Y-267846D01*
X6996299Y-289031D01*
Y-310965D01*
X7001976Y-332151D01*
X7012943Y-351146D01*
X7028452Y-366655D01*
X7047447Y-377622D01*
X7068633Y-383298D01*
X7090566D01*
X7111752Y-377622D01*
X7130747Y-366655D01*
X7146256Y-351146D01*
X7157223Y-332151D01*
X7162899Y-310965D01*
Y-289031D01*
X7157223Y-267846D01*
X7146256Y-248851D01*
X7130747Y-233341D01*
X7111752Y-222375D01*
X7090566Y-216698D01*
D02*
G37*
%LPD*%
D45*
X3216900Y1703600D02*
D03*
X2874000D02*
D03*
X2531100D02*
D03*
X3216900Y1360700D02*
D03*
X2874000D02*
D03*
X2531100D02*
D03*
D46*
X1032500Y1817500D02*
D03*
Y1306960D02*
D03*
X521960D02*
D03*
Y1817500D02*
D03*
X6715270Y633040D02*
D03*
Y122500D02*
D03*
X6204730D02*
D03*
Y633040D02*
D03*
X7867770D02*
D03*
Y122500D02*
D03*
X7357230D02*
D03*
Y633040D02*
D03*
X1890000Y1843040D02*
D03*
Y1332500D02*
D03*
X1379460D02*
D03*
Y1843040D02*
D03*
X5435000Y633040D02*
D03*
Y122500D02*
D03*
X4924460D02*
D03*
Y633040D02*
D03*
X4775271Y4869730D02*
D03*
X4264731D02*
D03*
Y5380270D02*
D03*
X4775271D02*
D03*
D47*
X777230Y1562230D02*
D03*
X6460000Y377770D02*
D03*
X7612500D02*
D03*
X1634730Y1587770D02*
D03*
X5179730Y377770D02*
D03*
X4520001Y5125000D02*
D03*
D48*
X1737090Y2237503D02*
D03*
X1692498Y1002499D02*
D03*
X450001Y595001D02*
D03*
D49*
X1537091Y2237503D02*
D03*
X1337091D02*
D03*
X950000Y997500D02*
D03*
Y797500D02*
D03*
X750001Y597501D02*
D03*
Y797500D02*
D03*
X1492498Y1002499D02*
D03*
X1292499D02*
D03*
X50002Y595001D02*
D03*
X250002D02*
D03*
D50*
X8985873Y4939243D02*
D03*
X7603376D02*
D03*
X8466406Y-234231D02*
D03*
X3685001Y-175000D02*
D03*
X1314998Y-130001D02*
D03*
X1534998Y5075003D02*
D03*
X2930001D02*
D03*
D51*
X8350873Y4939243D02*
D03*
X6968376D02*
D03*
X9588487Y1527703D02*
D03*
X9101406Y-234231D02*
D03*
X4320001Y-175000D02*
D03*
X1949998Y-130001D02*
D03*
X899998Y5075003D02*
D03*
X2295001D02*
D03*
D52*
X9588487Y892703D02*
D03*
D53*
X5278200Y3800200D02*
D03*
X5354200Y3876200D02*
D03*
X5278200D02*
D03*
X5354200Y3800200D02*
D03*
D54*
X9900000Y5200000D02*
D03*
Y0D02*
D03*
X0D02*
D03*
Y5200000D02*
D03*
D55*
X112501Y3098502D02*
D03*
Y2336502D02*
D03*
X882502Y3098502D02*
D03*
Y2844502D02*
D03*
Y2590502D02*
D03*
X112501Y3666501D02*
D03*
Y4428501D02*
D03*
X882502D02*
D03*
Y4174501D02*
D03*
D56*
Y2336502D02*
D03*
Y3666501D02*
D03*
D57*
X950000Y597501D02*
D03*
X750001Y997500D02*
D03*
D58*
X4016999Y677000D02*
D03*
X8371759Y1196782D02*
D03*
Y1266782D02*
D03*
Y1336782D02*
D03*
X4849104Y3803871D02*
D03*
X5078184Y3900873D02*
D03*
Y3770094D02*
D03*
X3954962Y3341317D02*
D03*
X4174043Y3426584D02*
D03*
X4343951Y3674059D02*
D03*
X4349965Y3549974D02*
D03*
X4549965Y3547314D02*
D03*
X4548204Y4130344D02*
D03*
X4651175D02*
D03*
X4655896Y3547314D02*
D03*
X4849797Y3868829D02*
D03*
X4617684Y2174092D02*
D03*
X4097502Y2502092D02*
D03*
X4265000D02*
D03*
X7141487Y1951788D02*
D03*
X7389709D02*
D03*
X7141487Y1806617D02*
D03*
X7389709D02*
D03*
X3995976Y4657319D02*
D03*
X2400000Y4000000D02*
D03*
X2700000D02*
D03*
X2550000Y4150000D02*
D03*
X2850000D02*
D03*
X2400000Y4350000D02*
D03*
X2700000D02*
D03*
X2850000Y4500000D02*
D03*
X2550000D02*
D03*
X5880411Y2990084D02*
D03*
X5569588D02*
D03*
X5027498Y1126001D02*
D03*
X5814999Y568999D02*
D03*
X6980001Y545001D02*
D03*
X8369842Y1984864D02*
D03*
X8369842Y1914864D02*
D03*
X8369841Y2054864D02*
D03*
Y2124864D02*
D03*
X8369841Y2194864D02*
D03*
X8369794Y1544865D02*
D03*
X8369795Y1474865D02*
D03*
X8369794Y1614865D02*
D03*
Y1684865D02*
D03*
X8369793Y1754865D02*
D03*
X8539794Y3616861D02*
D03*
X8539794Y3546862D02*
D03*
X8539793Y3686861D02*
D03*
Y3756861D02*
D03*
X8539793Y3826862D02*
D03*
X8547292Y4082366D02*
D03*
X8547292Y4012367D02*
D03*
X8547291Y4152366D02*
D03*
Y4222366D02*
D03*
X8547291Y4292367D02*
D03*
X1487909Y2474998D02*
D03*
Y2662500D02*
D03*
Y3210002D02*
D03*
Y4492499D02*
D03*
X1523499Y3537500D02*
D03*
X1487909Y3747502D02*
D03*
Y3922498D02*
D03*
X2322912Y709916D02*
D03*
X2670799Y522500D02*
D03*
X2569199D02*
D03*
X2619999Y697760D02*
D03*
Y347240D02*
D03*
X3537911Y633040D02*
D03*
Y487869D02*
D03*
X4016999Y977000D02*
D03*
X3936999D02*
D03*
X4096999D02*
D03*
Y827000D02*
D03*
X3936999D02*
D03*
Y677000D02*
D03*
X4096999D02*
D03*
X4362091Y507498D02*
D03*
X4844999Y1474829D02*
D03*
X4892910Y1525154D02*
D03*
Y1670326D02*
D03*
X5445302Y1569588D02*
D03*
X5300131D02*
D03*
X5299913Y1402090D02*
D03*
X5445084D02*
D03*
X6112499Y1537091D02*
D03*
X5967328D02*
D03*
X6110086Y1369588D02*
D03*
X5964915D02*
D03*
X5850413Y1150327D02*
D03*
X5584589Y1152826D02*
D03*
Y1007655D02*
D03*
X5850413Y1005155D02*
D03*
X7956301Y1288697D02*
D03*
X7664201Y1288703D02*
D03*
X7496212Y1057317D02*
D03*
Y1202488D02*
D03*
X7222590D02*
D03*
Y1057317D02*
D03*
X6309592Y1145084D02*
D03*
Y999913D02*
D03*
X6572911D02*
D03*
Y1145084D02*
D03*
X5592500Y1882500D02*
D03*
X5722503D02*
D03*
X6569999D02*
D03*
X6697502D02*
D03*
X6434901Y2604700D02*
D03*
Y2672200D02*
D03*
Y2537200D02*
D03*
X5583798Y2174092D02*
D03*
X2659351Y3060000D02*
D03*
X2580409Y3252502D02*
D03*
X5502704Y3872919D02*
D03*
X5499454Y3800166D02*
D03*
X4865817Y4039347D02*
D03*
Y3624999D02*
D03*
X4184931Y3354368D02*
D03*
X3847292Y3371895D02*
D03*
X3603185Y3566317D02*
D03*
X3624765Y3371895D02*
D03*
X8371759Y1126782D02*
D03*
Y1056782D02*
D03*
X9855661Y2365633D02*
D03*
Y2435633D02*
D03*
Y2295633D02*
D03*
Y2225633D02*
D03*
Y2155633D02*
D03*
X9855663Y2831136D02*
D03*
Y2901136D02*
D03*
Y2761136D02*
D03*
Y2691136D02*
D03*
Y2621135D02*
D03*
Y3296636D02*
D03*
Y3366636D02*
D03*
Y3226636D02*
D03*
Y3156636D02*
D03*
Y3086635D02*
D03*
Y3762135D02*
D03*
Y3832136D02*
D03*
Y3692136D02*
D03*
Y3622136D02*
D03*
Y3552135D02*
D03*
Y4017635D02*
D03*
Y4087635D02*
D03*
Y4157636D02*
D03*
X4060563Y3841387D02*
D03*
Y3731390D02*
D03*
Y3621388D02*
D03*
X3950561Y3841387D02*
D03*
Y3731390D02*
D03*
Y3621388D02*
D03*
X3840563Y3841387D02*
D03*
Y3731390D02*
D03*
Y3621388D02*
D03*
X9855663Y4297636D02*
D03*
Y4227635D02*
D03*
X5811378Y4935765D02*
D03*
X6475003Y2154998D02*
D03*
X7079599Y-299998D02*
D03*
X4250977Y4061316D02*
D03*
X4318480Y3981316D02*
D03*
X4088183Y4163815D02*
D03*
X3649505Y4152791D02*
D03*
X125796Y949999D02*
D03*
X5468401Y3603139D02*
D03*
X3600681Y3471319D02*
D03*
X3603185Y3808819D02*
D03*
Y3908819D02*
D03*
Y3706315D02*
D03*
X3925978Y4188819D02*
D03*
Y4098816D02*
D03*
X6169228Y3958398D02*
D03*
X6041725D02*
D03*
X5918159D02*
D03*
X6294226D02*
D03*
X5668304D02*
D03*
X5793231D02*
D03*
X6542791D02*
D03*
X6417863D02*
D03*
X6667718D02*
D03*
X6792645D02*
D03*
%TF.MD5,d22548032338ba63554a6e2af133bbe2*%
M02*
