%TF.GenerationSoftware,Altium Limited,Altium Designer,22.0.2 (36)*%
G04 Layer_Color=2752767*
%FSLAX45Y45*%
%MOMM*%
%TF.SameCoordinates,A85A4143-1F01-4578-B965-72C63468A48A*%
%TF.FilePolarity,Positive*%
%TF.FileFunction,Drawing*%
%TF.Part,Single*%
G01*
G75*
%TA.AperFunction,NonConductor*%
%ADD70C,0.12700*%
%ADD108C,0.16933*%
D70*
X3166100Y1652800D02*
Y1754400D01*
X3267700D01*
Y1652800D01*
X3166100D01*
X2823200D02*
Y1754400D01*
X2924800D01*
Y1652800D01*
X2823200D01*
X2480300D02*
Y1754400D01*
X2581900D01*
Y1652800D01*
X2480300D01*
X3166100Y1309900D02*
Y1411500D01*
X3267700D01*
Y1309900D01*
X3166100D01*
X2823200D02*
Y1411500D01*
X2924800D01*
Y1309900D01*
X2823200D01*
X2480300D02*
Y1411500D01*
X2581900D01*
Y1309900D01*
X2480300D01*
X1032500Y1256160D02*
X981700Y1357760D01*
X1083300D01*
X1032500Y1256160D01*
X521960D02*
X471160Y1357760D01*
X572760D01*
X521960Y1256160D01*
Y1766700D02*
X471160Y1868300D01*
X572760D01*
X521960Y1766700D01*
X777230Y1511430D02*
X802630Y1536830D01*
X828030D01*
X802630Y1562230D01*
X828030Y1587630D01*
X802630D01*
X777230Y1613030D01*
X751830Y1587630D01*
X726430D01*
X751830Y1562230D01*
X726430Y1536830D01*
X751830D01*
X777230Y1511430D01*
X6715270Y71700D02*
X6664470Y173300D01*
X6766070D01*
X6715270Y71700D01*
X6204730D02*
X6153930Y173300D01*
X6255530D01*
X6204730Y71700D01*
Y582240D02*
X6153930Y683840D01*
X6255530D01*
X6204730Y582240D01*
X6460000Y326970D02*
X6485400Y352370D01*
X6510800D01*
X6485400Y377770D01*
X6510800Y403170D01*
X6485400D01*
X6460000Y428570D01*
X6434600Y403170D01*
X6409200D01*
X6434600Y377770D01*
X6409200Y352370D01*
X6434600D01*
X6460000Y326970D01*
X7867770Y71700D02*
X7816970Y173300D01*
X7918570D01*
X7867770Y71700D01*
X7357230D02*
X7306430Y173300D01*
X7408030D01*
X7357230Y71700D01*
Y582240D02*
X7306430Y683840D01*
X7408030D01*
X7357230Y582240D01*
X7612500Y326970D02*
X7637900Y352370D01*
X7663300D01*
X7637900Y377770D01*
X7663300Y403170D01*
X7637900D01*
X7612500Y428570D01*
X7587100Y403170D01*
X7561700D01*
X7587100Y377770D01*
X7561700Y352370D01*
X7587100D01*
X7612500Y326970D01*
X1890000Y1281700D02*
X1839200Y1383300D01*
X1940800D01*
X1890000Y1281700D01*
X1379460D02*
X1328660Y1383300D01*
X1430260D01*
X1379460Y1281700D01*
Y1792240D02*
X1328660Y1893840D01*
X1430260D01*
X1379460Y1792240D01*
X1634730Y1536970D02*
X1660130Y1562370D01*
X1685530D01*
X1660130Y1587770D01*
X1685530Y1613170D01*
X1660130D01*
X1634730Y1638570D01*
X1609330Y1613170D01*
X1583930D01*
X1609330Y1587770D01*
X1583930Y1562370D01*
X1609330D01*
X1634730Y1536970D01*
X5435000Y71700D02*
X5384200Y173300D01*
X5485800D01*
X5435000Y71700D01*
X4924460D02*
X4873660Y173300D01*
X4975260D01*
X4924460Y71700D01*
Y582240D02*
X4873660Y683840D01*
X4975260D01*
X4924460Y582240D01*
X5179730Y326970D02*
X5205130Y352370D01*
X5230530D01*
X5205130Y377770D01*
X5230530Y403170D01*
X5205130D01*
X5179730Y428570D01*
X5154330Y403170D01*
X5128930D01*
X5154330Y377770D01*
X5128930Y352370D01*
X5154330D01*
X5179730Y326970D01*
X1686290Y2186703D02*
X1711690Y2237503D01*
X1686290Y2288303D01*
X1737090Y2262903D01*
X1787890Y2288303D01*
X1762490Y2237503D01*
X1787890Y2186703D01*
X1737090Y2212103D01*
X1686290Y2186703D01*
X1486291D02*
X1511691Y2237503D01*
X1486291Y2288303D01*
X1537091Y2262903D01*
X1587891Y2288303D01*
X1562491Y2237503D01*
X1587891Y2186703D01*
X1537091Y2212103D01*
X1486291Y2186703D01*
X1286291D02*
X1311691Y2237503D01*
X1286291Y2288303D01*
X1337091Y2262903D01*
X1387891Y2288303D01*
X1362491Y2237503D01*
X1387891Y2186703D01*
X1337091Y2212103D01*
X1286291Y2186703D01*
X8960473Y4913843D02*
Y4888443D01*
X9011273D01*
Y4913843D01*
X9036673D01*
Y4964643D01*
X9011273D01*
Y4990043D01*
X8960473D01*
Y4964643D01*
X8935073D01*
Y4913843D01*
X8960473D01*
X8325473D02*
Y4888443D01*
X8376273D01*
Y4913843D01*
X8401673D01*
Y4964643D01*
X8376273D01*
Y4990043D01*
X8325473D01*
Y4964643D01*
X8300073D01*
Y4913843D01*
X8325473D01*
X7577976D02*
Y4888443D01*
X7628776D01*
Y4913843D01*
X7654176D01*
Y4964643D01*
X7628776D01*
Y4990043D01*
X7577976D01*
Y4964643D01*
X7552576D01*
Y4913843D01*
X7577976D01*
X6942976D02*
Y4888443D01*
X6993776D01*
Y4913843D01*
X7019176D01*
Y4964643D01*
X6993776D01*
Y4990043D01*
X6942976D01*
Y4964643D01*
X6917576D01*
Y4913843D01*
X6942976D01*
X9563087Y867303D02*
Y841903D01*
X9613887D01*
Y867303D01*
X9639287D01*
Y918103D01*
X9613887D01*
Y943503D01*
X9563087D01*
Y918103D01*
X9537687D01*
Y867303D01*
X9563087D01*
Y1502303D02*
Y1476903D01*
X9613887D01*
Y1502303D01*
X9639287D01*
Y1553103D01*
X9613887D01*
Y1578503D01*
X9563087D01*
Y1553103D01*
X9537687D01*
Y1502303D01*
X9563087D01*
X9076006Y-259631D02*
Y-285031D01*
X9126806D01*
Y-259631D01*
X9152206D01*
Y-208831D01*
X9126806D01*
Y-183431D01*
X9076006D01*
Y-208831D01*
X9050606D01*
Y-259631D01*
X9076006D01*
X5227400Y3749400D02*
Y3851000D01*
X5329000D01*
Y3749400D01*
X5227400D01*
X5303400Y3825400D02*
Y3927000D01*
X5405000D01*
Y3825400D01*
X5303400D01*
X8441006Y-259631D02*
Y-285031D01*
X8491806D01*
Y-259631D01*
X8517206D01*
Y-208831D01*
X8491806D01*
Y-183431D01*
X8441006D01*
Y-208831D01*
X8415606D01*
Y-259631D01*
X8441006D01*
X9849200Y5149200D02*
X9874600D01*
X9900000Y5174600D01*
X9925400Y5149200D01*
X9950800D01*
Y5174600D01*
X9925400Y5200000D01*
X9950800Y5225400D01*
Y5250800D01*
X9925400D01*
X9900000Y5225400D01*
X9874600Y5250800D01*
X9849200D01*
Y5225400D01*
X9874600Y5200000D01*
X9849200Y5174600D01*
Y5149200D01*
Y-50800D02*
X9874600D01*
X9900000Y-25400D01*
X9925400Y-50800D01*
X9950800D01*
Y-25400D01*
X9925400Y0D01*
X9950800Y25400D01*
Y50800D01*
X9925400D01*
X9900000Y25400D01*
X9874600Y50800D01*
X9849200D01*
Y25400D01*
X9874600Y0D01*
X9849200Y-25400D01*
Y-50800D01*
X-50800D02*
X-25400D01*
X0Y-25400D01*
X25400Y-50800D01*
X50800D01*
Y-25400D01*
X25400Y0D01*
X50800Y25400D01*
Y50800D01*
X25400D01*
X0Y25400D01*
X-25400Y50800D01*
X-50800D01*
Y25400D01*
X-25400Y0D01*
X-50800Y-25400D01*
Y-50800D01*
Y5149200D02*
X-25400D01*
X0Y5174600D01*
X25400Y5149200D01*
X50800D01*
Y5174600D01*
X25400Y5200000D01*
X50800Y5225400D01*
Y5250800D01*
X25400D01*
X0Y5225400D01*
X-25400Y5250800D01*
X-50800D01*
Y5225400D01*
X-25400Y5200000D01*
X-50800Y5174600D01*
Y5149200D01*
X61701Y3098502D02*
X112501Y3149302D01*
X163301Y3098502D01*
X112501Y3047702D01*
X61701Y3098502D01*
Y2336502D02*
X112501Y2387302D01*
X163301Y2336502D01*
X112501Y2285702D01*
X61701Y2336502D01*
X831702Y3098502D02*
X882502Y3149302D01*
X933302Y3098502D01*
X882502Y3047702D01*
X831702Y3098502D01*
Y2844502D02*
X882502Y2895302D01*
X933302Y2844502D01*
X882502Y2793702D01*
X831702Y2844502D01*
Y2590502D02*
X882502Y2641302D01*
X933302Y2590502D01*
X882502Y2539702D01*
X831702Y2590502D01*
Y2336502D02*
X882502Y2387302D01*
X933302Y2336502D01*
X882502Y2285702D01*
X831702Y2336502D01*
X61701Y3666501D02*
X112501Y3717301D01*
X163301Y3666501D01*
X112501Y3615701D01*
X61701Y3666501D01*
Y4428501D02*
X112501Y4479301D01*
X163301Y4428501D01*
X112501Y4377701D01*
X61701Y4428501D01*
X831702D02*
X882502Y4479301D01*
X933302Y4428501D01*
X882502Y4377701D01*
X831702Y4428501D01*
Y4174501D02*
X882502Y4225301D01*
X933302Y4174501D01*
X882502Y4123701D01*
X831702Y4174501D01*
Y3666501D02*
X882502Y3717301D01*
X933302Y3666501D01*
X882502Y3615701D01*
X831702Y3666501D01*
X4294601Y-200400D02*
Y-225800D01*
X4345401D01*
Y-200400D01*
X4370801D01*
Y-149600D01*
X4345401D01*
Y-124200D01*
X4294601D01*
Y-149600D01*
X4269201D01*
Y-200400D01*
X4294601D01*
X3659601D02*
Y-225800D01*
X3710401D01*
Y-200400D01*
X3735801D01*
Y-149600D01*
X3710401D01*
Y-124200D01*
X3659601D01*
Y-149600D01*
X3634201D01*
Y-200400D01*
X3659601D01*
X1289598Y-155401D02*
Y-180801D01*
X1340398D01*
Y-155401D01*
X1365798D01*
Y-104601D01*
X1340398D01*
Y-79201D01*
X1289598D01*
Y-104601D01*
X1264198D01*
Y-155401D01*
X1289598D01*
X1924598D02*
Y-180801D01*
X1975398D01*
Y-155401D01*
X2000798D01*
Y-104601D01*
X1975398D01*
Y-79201D01*
X1924598D01*
Y-104601D01*
X1899198D01*
Y-155401D01*
X1924598D01*
X899200Y946700D02*
X924600Y997500D01*
X899200Y1048300D01*
X950000Y1022900D01*
X1000800Y1048300D01*
X975400Y997500D01*
X1000800Y946700D01*
X950000Y972100D01*
X899200Y946700D01*
Y746700D02*
X924600Y797500D01*
X899200Y848300D01*
X950000Y822900D01*
X1000800Y848300D01*
X975400Y797500D01*
X1000800Y746700D01*
X950000Y772100D01*
X899200Y746700D01*
Y546701D02*
X924600Y597501D01*
X899200Y648301D01*
X950000Y622901D01*
X1000800Y648301D01*
X975400Y597501D01*
X1000800Y546701D01*
X950000Y572101D01*
X899200Y546701D01*
X699201D02*
X724601Y597501D01*
X699201Y648301D01*
X750001Y622901D01*
X800801Y648301D01*
X775401Y597501D01*
X800801Y546701D01*
X750001Y572101D01*
X699201Y546701D01*
Y746700D02*
X724601Y797500D01*
X699201Y848300D01*
X750001Y822900D01*
X800801Y848300D01*
X775401Y797500D01*
X800801Y746700D01*
X750001Y772100D01*
X699201Y746700D01*
Y946700D02*
X724601Y997500D01*
X699201Y1048300D01*
X750001Y1022900D01*
X800801Y1048300D01*
X775401Y997500D01*
X800801Y946700D01*
X750001Y972100D01*
X699201Y946700D01*
X1641698Y951699D02*
X1667098Y1002499D01*
X1641698Y1053299D01*
X1692498Y1027899D01*
X1743298Y1053299D01*
X1717898Y1002499D01*
X1743298Y951699D01*
X1692498Y977099D01*
X1641698Y951699D01*
X1441698D02*
X1467098Y1002499D01*
X1441698Y1053299D01*
X1492498Y1027899D01*
X1543298Y1053299D01*
X1517898Y1002499D01*
X1543298Y951699D01*
X1492498Y977099D01*
X1441698Y951699D01*
X1241699D02*
X1267099Y1002499D01*
X1241699Y1053299D01*
X1292499Y1027899D01*
X1343299Y1053299D01*
X1317899Y1002499D01*
X1343299Y951699D01*
X1292499Y977099D01*
X1241699Y951699D01*
X874598Y5049603D02*
Y5024203D01*
X925398D01*
Y5049603D01*
X950798D01*
Y5100403D01*
X925398D01*
Y5125803D01*
X874598D01*
Y5100403D01*
X849198D01*
Y5049603D01*
X874598D01*
X1509598D02*
Y5024203D01*
X1560398D01*
Y5049603D01*
X1585798D01*
Y5100403D01*
X1560398D01*
Y5125803D01*
X1509598D01*
Y5100403D01*
X1484198D01*
Y5049603D01*
X1509598D01*
X2269601D02*
Y5024203D01*
X2320401D01*
Y5049603D01*
X2345801D01*
Y5100403D01*
X2320401D01*
Y5125803D01*
X2269601D01*
Y5100403D01*
X2244201D01*
Y5049603D01*
X2269601D01*
X2904601D02*
Y5024203D01*
X2955401D01*
Y5049603D01*
X2980801D01*
Y5100403D01*
X2955401D01*
Y5125803D01*
X2904601D01*
Y5100403D01*
X2879201D01*
Y5049603D01*
X2904601D01*
X4775271Y4818930D02*
X4724471Y4920530D01*
X4826071D01*
X4775271Y4818930D01*
X4264731D02*
X4213931Y4920530D01*
X4315531D01*
X4264731Y4818930D01*
Y5329470D02*
X4213931Y5431070D01*
X4315531D01*
X4264731Y5329470D01*
X4775271D02*
X4724471Y5431070D01*
X4826071D01*
X4775271Y5329470D01*
X4520001Y5074200D02*
X4545401Y5099600D01*
X4570801D01*
X4545401Y5125000D01*
X4570801Y5150400D01*
X4545401D01*
X4520001Y5175800D01*
X4494601Y5150400D01*
X4469201D01*
X4494601Y5125000D01*
X4469201Y5099600D01*
X4494601D01*
X4520001Y5074200D01*
X5227400Y3825400D02*
Y3927000D01*
X5329000D01*
Y3825400D01*
X5227400D01*
X5303400Y3749400D02*
Y3851000D01*
X5405000D01*
Y3749400D01*
X5303400D01*
X-798Y544201D02*
X24602Y595001D01*
X-798Y645801D01*
X50002Y620401D01*
X100802Y645801D01*
X75402Y595001D01*
X100802Y544201D01*
X50002Y569601D01*
X-798Y544201D01*
X199202D02*
X224602Y595001D01*
X199202Y645801D01*
X250002Y620401D01*
X300802Y645801D01*
X275402Y595001D01*
X300802Y544201D01*
X250002Y569601D01*
X199202Y544201D01*
X399201D02*
X424601Y595001D01*
X399201Y645801D01*
X450001Y620401D01*
X500801Y645801D01*
X475401Y595001D01*
X500801Y544201D01*
X450001Y569601D01*
X399201Y544201D01*
X3966199Y626200D02*
Y727800D01*
X4067799D01*
Y626200D01*
X3966199D01*
X8320959Y1145982D02*
Y1247582D01*
X8422559D01*
Y1145982D01*
X8320959D01*
Y1215982D02*
Y1317582D01*
X8422559D01*
Y1215982D01*
X8320959D01*
Y1285982D02*
Y1387582D01*
X8422559D01*
Y1285982D01*
X8320959D01*
X4798304Y3753071D02*
Y3854671D01*
X4899904D01*
Y3753071D01*
X4798304D01*
X5027384Y3850073D02*
Y3951673D01*
X5128984D01*
Y3850073D01*
X5027384D01*
Y3719294D02*
Y3820894D01*
X5128984D01*
Y3719294D01*
X5027384D01*
X3904162Y3290517D02*
Y3392117D01*
X4005762D01*
Y3290517D01*
X3904162D01*
X4123243Y3375784D02*
Y3477384D01*
X4224843D01*
Y3375784D01*
X4123243D01*
X4293151Y3623259D02*
Y3724859D01*
X4394751D01*
Y3623259D01*
X4293151D01*
X4299165Y3499174D02*
Y3600774D01*
X4400765D01*
Y3499174D01*
X4299165D01*
X4499165Y3496514D02*
Y3598114D01*
X4600765D01*
Y3496514D01*
X4499165D01*
X4497404Y4079544D02*
Y4181144D01*
X4599004D01*
Y4079544D01*
X4497404D01*
X4600375D02*
Y4181144D01*
X4701975D01*
Y4079544D01*
X4600375D01*
X4605096Y3496514D02*
Y3598114D01*
X4706696D01*
Y3496514D01*
X4605096D01*
X4798997Y3818029D02*
Y3919629D01*
X4900597D01*
Y3818029D01*
X4798997D01*
X4566884Y2123292D02*
Y2224892D01*
X4668484D01*
Y2123292D01*
X4566884D01*
X4046702Y2451292D02*
Y2552892D01*
X4148302D01*
Y2451292D01*
X4046702D01*
X4214200D02*
Y2552892D01*
X4315800D01*
Y2451292D01*
X4214200D01*
X7090687Y1900988D02*
Y2002588D01*
X7192287D01*
Y1900988D01*
X7090687D01*
X7338909D02*
Y2002588D01*
X7440509D01*
Y1900988D01*
X7338909D01*
X7090687Y1755817D02*
Y1857417D01*
X7192287D01*
Y1755817D01*
X7090687D01*
X7338909D02*
Y1857417D01*
X7440509D01*
Y1755817D01*
X7338909D01*
X3945176Y4606519D02*
Y4708119D01*
X4046776D01*
Y4606519D01*
X3945176D01*
X2349200Y3949200D02*
Y4050800D01*
X2450800D01*
Y3949200D01*
X2349200D01*
X2649200D02*
Y4050800D01*
X2750800D01*
Y3949200D01*
X2649200D01*
X2499200Y4099200D02*
Y4200800D01*
X2600800D01*
Y4099200D01*
X2499200D01*
X2799200D02*
Y4200800D01*
X2900800D01*
Y4099200D01*
X2799200D01*
X2349200Y4299200D02*
Y4400800D01*
X2450800D01*
Y4299200D01*
X2349200D01*
X2649200D02*
Y4400800D01*
X2750800D01*
Y4299200D01*
X2649200D01*
X2799200Y4449200D02*
Y4550800D01*
X2900800D01*
Y4449200D01*
X2799200D01*
X2499200D02*
Y4550800D01*
X2600800D01*
Y4449200D01*
X2499200D01*
X5829611Y2939284D02*
Y3040884D01*
X5931211D01*
Y2939284D01*
X5829611D01*
X5518788D02*
Y3040884D01*
X5620388D01*
Y2939284D01*
X5518788D01*
X4976698Y1075201D02*
Y1176801D01*
X5078298D01*
Y1075201D01*
X4976698D01*
X5764199Y518199D02*
Y619799D01*
X5865799D01*
Y518199D01*
X5764199D01*
X6929201Y494201D02*
Y595801D01*
X7030801D01*
Y494201D01*
X6929201D01*
X8319042Y1934064D02*
Y2035664D01*
X8420642D01*
Y1934064D01*
X8319042D01*
X8319042Y1864064D02*
Y1965664D01*
X8420642D01*
Y1864064D01*
X8319042D01*
X8319041Y2004064D02*
Y2105664D01*
X8420641D01*
Y2004064D01*
X8319041D01*
Y2074064D02*
Y2175664D01*
X8420641D01*
Y2074064D01*
X8319041D01*
X8319041Y2144064D02*
Y2245664D01*
X8420641D01*
Y2144064D01*
X8319041D01*
X8318994Y1494065D02*
Y1595665D01*
X8420594D01*
Y1494065D01*
X8318994D01*
X8318995Y1424065D02*
Y1525665D01*
X8420595D01*
Y1424065D01*
X8318995D01*
X8318994Y1564065D02*
Y1665665D01*
X8420594D01*
Y1564065D01*
X8318994D01*
Y1634065D02*
Y1735665D01*
X8420594D01*
Y1634065D01*
X8318994D01*
X8318993Y1704065D02*
Y1805665D01*
X8420593D01*
Y1704065D01*
X8318993D01*
X8488994Y3566061D02*
Y3667661D01*
X8590594D01*
Y3566061D01*
X8488994D01*
X8488994Y3496062D02*
Y3597662D01*
X8590594D01*
Y3496062D01*
X8488994D01*
X8488993Y3636061D02*
Y3737661D01*
X8590593D01*
Y3636061D01*
X8488993D01*
Y3706061D02*
Y3807661D01*
X8590593D01*
Y3706061D01*
X8488993D01*
X8488993Y3776062D02*
Y3877662D01*
X8590593D01*
Y3776062D01*
X8488993D01*
X8496492Y4031566D02*
Y4133166D01*
X8598092D01*
Y4031566D01*
X8496492D01*
X8496492Y3961567D02*
Y4063167D01*
X8598092D01*
Y3961567D01*
X8496492D01*
X8496491Y4101566D02*
Y4203166D01*
X8598091D01*
Y4101566D01*
X8496491D01*
Y4171566D02*
Y4273166D01*
X8598091D01*
Y4171566D01*
X8496491D01*
X8496491Y4241567D02*
Y4343167D01*
X8598091D01*
Y4241567D01*
X8496491D01*
X1437109Y2424198D02*
Y2525798D01*
X1538709D01*
Y2424198D01*
X1437109D01*
Y2611700D02*
Y2713300D01*
X1538709D01*
Y2611700D01*
X1437109D01*
Y3159202D02*
Y3260802D01*
X1538709D01*
Y3159202D01*
X1437109D01*
Y4441699D02*
Y4543299D01*
X1538709D01*
Y4441699D01*
X1437109D01*
X1472699Y3486700D02*
Y3588300D01*
X1574299D01*
Y3486700D01*
X1472699D01*
X1437109Y3696702D02*
Y3798302D01*
X1538709D01*
Y3696702D01*
X1437109D01*
Y3871698D02*
Y3973298D01*
X1538709D01*
Y3871698D01*
X1437109D01*
X2272112Y659116D02*
Y760716D01*
X2373712D01*
Y659116D01*
X2272112D01*
X2619999Y471700D02*
Y573300D01*
X2721599D01*
Y471700D01*
X2619999D01*
X2518399D02*
Y573300D01*
X2619999D01*
Y471700D01*
X2518399D01*
X2569199Y646960D02*
Y748560D01*
X2670799D01*
Y646960D01*
X2569199D01*
Y296440D02*
Y398040D01*
X2670799D01*
Y296440D01*
X2569199D01*
X3487111Y582240D02*
Y683840D01*
X3588711D01*
Y582240D01*
X3487111D01*
Y437069D02*
Y538669D01*
X3588711D01*
Y437069D01*
X3487111D01*
X3966199Y926200D02*
Y1027800D01*
X4067799D01*
Y926200D01*
X3966199D01*
X3886199D02*
Y1027800D01*
X3987799D01*
Y926200D01*
X3886199D01*
X4046199D02*
Y1027800D01*
X4147799D01*
Y926200D01*
X4046199D01*
Y776200D02*
Y877800D01*
X4147799D01*
Y776200D01*
X4046199D01*
X3886199D02*
Y877800D01*
X3987799D01*
Y776200D01*
X3886199D01*
Y626200D02*
Y727800D01*
X3987799D01*
Y626200D01*
X3886199D01*
X4046199D02*
Y727800D01*
X4147799D01*
Y626200D01*
X4046199D01*
X4311291Y456698D02*
Y558298D01*
X4412891D01*
Y456698D01*
X4311291D01*
X4794199Y1424029D02*
Y1525629D01*
X4895799D01*
Y1424029D01*
X4794199D01*
X4842110Y1474354D02*
Y1575954D01*
X4943710D01*
Y1474354D01*
X4842110D01*
Y1619526D02*
Y1721126D01*
X4943710D01*
Y1619526D01*
X4842110D01*
X5394502Y1518788D02*
Y1620388D01*
X5496102D01*
Y1518788D01*
X5394502D01*
X5249331D02*
Y1620388D01*
X5350931D01*
Y1518788D01*
X5249331D01*
X5249113Y1351290D02*
Y1452890D01*
X5350713D01*
Y1351290D01*
X5249113D01*
X5394284D02*
Y1452890D01*
X5495884D01*
Y1351290D01*
X5394284D01*
X6061699Y1486291D02*
Y1587891D01*
X6163299D01*
Y1486291D01*
X6061699D01*
X5916528D02*
Y1587891D01*
X6018128D01*
Y1486291D01*
X5916528D01*
X6059286Y1318788D02*
Y1420388D01*
X6160886D01*
Y1318788D01*
X6059286D01*
X5914115D02*
Y1420388D01*
X6015715D01*
Y1318788D01*
X5914115D01*
X5799613Y1099527D02*
Y1201127D01*
X5901213D01*
Y1099527D01*
X5799613D01*
X5533789Y1102026D02*
Y1203626D01*
X5635389D01*
Y1102026D01*
X5533789D01*
Y956855D02*
Y1058455D01*
X5635389D01*
Y956855D01*
X5533789D01*
X5799613Y954355D02*
Y1055955D01*
X5901213D01*
Y954355D01*
X5799613D01*
X7905501Y1237897D02*
Y1339497D01*
X8007101D01*
Y1237897D01*
X7905501D01*
X7613401Y1237903D02*
Y1339503D01*
X7715001D01*
Y1237903D01*
X7613401D01*
X7445412Y1006517D02*
Y1108117D01*
X7547012D01*
Y1006517D01*
X7445412D01*
Y1151688D02*
Y1253288D01*
X7547012D01*
Y1151688D01*
X7445412D01*
X7171790D02*
Y1253288D01*
X7273390D01*
Y1151688D01*
X7171790D01*
Y1006517D02*
Y1108117D01*
X7273390D01*
Y1006517D01*
X7171790D01*
X6258792Y1094284D02*
Y1195884D01*
X6360392D01*
Y1094284D01*
X6258792D01*
Y949113D02*
Y1050713D01*
X6360392D01*
Y949113D01*
X6258792D01*
X6522111D02*
Y1050713D01*
X6623711D01*
Y949113D01*
X6522111D01*
Y1094284D02*
Y1195884D01*
X6623711D01*
Y1094284D01*
X6522111D01*
X5541700Y1831700D02*
Y1933300D01*
X5643300D01*
Y1831700D01*
X5541700D01*
X5671703D02*
Y1933300D01*
X5773303D01*
Y1831700D01*
X5671703D01*
X6519199D02*
Y1933300D01*
X6620799D01*
Y1831700D01*
X6519199D01*
X6646702D02*
Y1933300D01*
X6748302D01*
Y1831700D01*
X6646702D01*
X6384101Y2553900D02*
Y2655500D01*
X6485701D01*
Y2553900D01*
X6384101D01*
Y2621400D02*
Y2723000D01*
X6485701D01*
Y2621400D01*
X6384101D01*
Y2486400D02*
Y2588000D01*
X6485701D01*
Y2486400D01*
X6384101D01*
X5532998Y2123292D02*
Y2224892D01*
X5634598D01*
Y2123292D01*
X5532998D01*
X2608551Y3009200D02*
Y3110800D01*
X2710151D01*
Y3009200D01*
X2608551D01*
X2529609Y3201702D02*
Y3303302D01*
X2631209D01*
Y3201702D01*
X2529609D01*
X5451904Y3822119D02*
Y3923719D01*
X5553504D01*
Y3822119D01*
X5451904D01*
X5448654Y3749366D02*
Y3850966D01*
X5550254D01*
Y3749366D01*
X5448654D01*
X4815017Y3988547D02*
Y4090147D01*
X4916617D01*
Y3988547D01*
X4815017D01*
Y3574199D02*
Y3675799D01*
X4916617D01*
Y3574199D01*
X4815017D01*
X4134131Y3303568D02*
Y3405168D01*
X4235731D01*
Y3303568D01*
X4134131D01*
X3796492Y3321095D02*
Y3422695D01*
X3898092D01*
Y3321095D01*
X3796492D01*
X3552385Y3515517D02*
Y3617117D01*
X3653985D01*
Y3515517D01*
X3552385D01*
X3573965Y3321095D02*
Y3422695D01*
X3675565D01*
Y3321095D01*
X3573965D01*
X8320959Y1075982D02*
Y1177582D01*
X8422559D01*
Y1075982D01*
X8320959D01*
Y1005982D02*
Y1107582D01*
X8422559D01*
Y1005982D01*
X8320959D01*
X9804861Y2314833D02*
Y2416433D01*
X9906461D01*
Y2314833D01*
X9804861D01*
Y2384833D02*
Y2486433D01*
X9906461D01*
Y2384833D01*
X9804861D01*
Y2244833D02*
Y2346433D01*
X9906461D01*
Y2244833D01*
X9804861D01*
Y2174833D02*
Y2276433D01*
X9906461D01*
Y2174833D01*
X9804861D01*
Y2104833D02*
Y2206433D01*
X9906461D01*
Y2104833D01*
X9804861D01*
X9804863Y2780336D02*
Y2881936D01*
X9906463D01*
Y2780336D01*
X9804863D01*
Y2850336D02*
Y2951936D01*
X9906463D01*
Y2850336D01*
X9804863D01*
Y2710336D02*
Y2811936D01*
X9906463D01*
Y2710336D01*
X9804863D01*
Y2640336D02*
Y2741936D01*
X9906463D01*
Y2640336D01*
X9804863D01*
Y2570335D02*
Y2671935D01*
X9906463D01*
Y2570335D01*
X9804863D01*
Y3245836D02*
Y3347436D01*
X9906463D01*
Y3245836D01*
X9804863D01*
Y3315836D02*
Y3417436D01*
X9906463D01*
Y3315836D01*
X9804863D01*
Y3175836D02*
Y3277436D01*
X9906463D01*
Y3175836D01*
X9804863D01*
Y3105836D02*
Y3207436D01*
X9906463D01*
Y3105836D01*
X9804863D01*
Y3035835D02*
Y3137435D01*
X9906463D01*
Y3035835D01*
X9804863D01*
Y3711335D02*
Y3812935D01*
X9906463D01*
Y3711335D01*
X9804863D01*
Y3781336D02*
Y3882936D01*
X9906463D01*
Y3781336D01*
X9804863D01*
Y3641336D02*
Y3742936D01*
X9906463D01*
Y3641336D01*
X9804863D01*
Y3571336D02*
Y3672936D01*
X9906463D01*
Y3571336D01*
X9804863D01*
Y3501335D02*
Y3602935D01*
X9906463D01*
Y3501335D01*
X9804863D01*
Y3966835D02*
Y4068435D01*
X9906463D01*
Y3966835D01*
X9804863D01*
Y4036835D02*
Y4138435D01*
X9906463D01*
Y4036835D01*
X9804863D01*
Y4106836D02*
Y4208436D01*
X9906463D01*
Y4106836D01*
X9804863D01*
X4009763Y3790587D02*
Y3892187D01*
X4111363D01*
Y3790587D01*
X4009763D01*
Y3680590D02*
Y3782190D01*
X4111363D01*
Y3680590D01*
X4009763D01*
Y3570588D02*
Y3672188D01*
X4111363D01*
Y3570588D01*
X4009763D01*
X3899761Y3790587D02*
Y3892187D01*
X4001361D01*
Y3790587D01*
X3899761D01*
Y3680590D02*
Y3782190D01*
X4001361D01*
Y3680590D01*
X3899761D01*
Y3570588D02*
Y3672188D01*
X4001361D01*
Y3570588D01*
X3899761D01*
X3789763Y3790587D02*
Y3892187D01*
X3891363D01*
Y3790587D01*
X3789763D01*
Y3680590D02*
Y3782190D01*
X3891363D01*
Y3680590D01*
X3789763D01*
Y3570588D02*
Y3672188D01*
X3891363D01*
Y3570588D01*
X3789763D01*
X9804863Y4246836D02*
Y4348436D01*
X9906463D01*
Y4246836D01*
X9804863D01*
Y4176835D02*
Y4278435D01*
X9906463D01*
Y4176835D01*
X9804863D01*
X5760578Y4884965D02*
Y4986565D01*
X5862178D01*
Y4884965D01*
X5760578D01*
X6424203Y2104198D02*
Y2205798D01*
X6525803D01*
Y2104198D01*
X6424203D01*
X7028799Y-350798D02*
Y-249198D01*
X7130399D01*
Y-350798D01*
X7028799D01*
X4200177Y4010516D02*
Y4112116D01*
X4301777D01*
Y4010516D01*
X4200177D01*
X4267680Y3930516D02*
Y4032116D01*
X4369280D01*
Y3930516D01*
X4267680D01*
X4037383Y4113015D02*
Y4214615D01*
X4138983D01*
Y4113015D01*
X4037383D01*
X3598705Y4101991D02*
Y4203591D01*
X3700305D01*
Y4101991D01*
X3598705D01*
X74996Y899199D02*
Y1000799D01*
X176596D01*
Y899199D01*
X74996D01*
X5417601Y3552339D02*
Y3653939D01*
X5519201D01*
Y3552339D01*
X5417601D01*
X3549881Y3420519D02*
Y3522119D01*
X3651481D01*
Y3420519D01*
X3549881D01*
X3552385Y3758019D02*
Y3859619D01*
X3653985D01*
Y3758019D01*
X3552385D01*
Y3858019D02*
Y3959619D01*
X3653985D01*
Y3858019D01*
X3552385D01*
Y3655515D02*
Y3757115D01*
X3653985D01*
Y3655515D01*
X3552385D01*
X3875178Y4138019D02*
Y4239619D01*
X3976778D01*
Y4138019D01*
X3875178D01*
Y4048016D02*
Y4149616D01*
X3976778D01*
Y4048016D01*
X3875178D01*
X6118428Y3907598D02*
Y4009198D01*
X6220028D01*
Y3907598D01*
X6118428D01*
X5990925D02*
Y4009198D01*
X6092525D01*
Y3907598D01*
X5990925D01*
X5867359D02*
Y4009198D01*
X5968959D01*
Y3907598D01*
X5867359D01*
X6243426D02*
Y4009198D01*
X6345026D01*
Y3907598D01*
X6243426D01*
X5617504D02*
Y4009198D01*
X5719104D01*
Y3907598D01*
X5617504D01*
X5742431D02*
Y4009198D01*
X5844031D01*
Y3907598D01*
X5742431D01*
X6491991D02*
Y4009198D01*
X6593591D01*
Y3907598D01*
X6491991D01*
X6367063D02*
Y4009198D01*
X6468663D01*
Y3907598D01*
X6367063D01*
X6616918D02*
Y4009198D01*
X6718518D01*
Y3907598D01*
X6616918D01*
X6741845D02*
Y4009198D01*
X6843445D01*
Y3907598D01*
X6741845D01*
D108*
X1083300Y1817500D02*
G03*
X1083300Y1817500I-50800J0D01*
G01*
X6766070Y633040D02*
G03*
X6766070Y633040I-50800J0D01*
G01*
X7918570D02*
G03*
X7918570Y633040I-50800J0D01*
G01*
X1940800Y1843040D02*
G03*
X1940800Y1843040I-50800J0D01*
G01*
X5485800Y633040D02*
G03*
X5485800Y633040I-50800J0D01*
G01*
%TF.MD5,691593f0d359e3da4929bfcfd61437e5*%
M02*
