%TF.GenerationSoftware,Altium Limited,Altium Designer,22.0.2 (36)*%
G04 Layer_Color=16711935*
%FSLAX45Y45*%
%MOMM*%
%TF.SameCoordinates,A85A4143-1F01-4578-B965-72C63468A48A*%
%TF.FilePolarity,Negative*%
%TF.FileFunction,Soldermask,Bot*%
%TF.Part,Single*%
G01*
G75*
%TA.AperFunction,ComponentPad*%
%ADD46C,1.90500*%
%ADD48R,1.30000X1.30000*%
%ADD49C,1.30000*%
%ADD55C,1.55000*%
%ADD56R,1.55000X1.55000*%
%ADD57R,1.30000X1.30000*%
%ADD60C,2.20980*%
%ADD61R,2.00320X2.00320*%
%ADD62C,2.00320*%
%ADD63R,2.00320X2.00320*%
%TA.AperFunction,ViaPad*%
%ADD64C,4.20320*%
D46*
X1032500Y1817500D02*
D03*
Y1306960D02*
D03*
X521960D02*
D03*
Y1817500D02*
D03*
X6715270Y633040D02*
D03*
Y122500D02*
D03*
X6204730D02*
D03*
Y633040D02*
D03*
X7867770D02*
D03*
Y122500D02*
D03*
X7357230D02*
D03*
Y633040D02*
D03*
X1890000Y1843040D02*
D03*
Y1332500D02*
D03*
X1379460D02*
D03*
Y1843040D02*
D03*
X5435000Y633040D02*
D03*
Y122500D02*
D03*
X4924460D02*
D03*
Y633040D02*
D03*
X4775271Y4869730D02*
D03*
X4264731D02*
D03*
Y5380270D02*
D03*
X4775271D02*
D03*
D48*
X1737090Y2237503D02*
D03*
X1692498Y1002499D02*
D03*
X450001Y595001D02*
D03*
D49*
X1537091Y2237503D02*
D03*
X1337091D02*
D03*
X950000Y997500D02*
D03*
Y797500D02*
D03*
X750001Y597501D02*
D03*
Y797500D02*
D03*
X1492498Y1002499D02*
D03*
X1292499D02*
D03*
X50002Y595001D02*
D03*
X250002D02*
D03*
D55*
X112501Y3098502D02*
D03*
Y2336502D02*
D03*
X882502Y3098502D02*
D03*
Y2844502D02*
D03*
Y2590502D02*
D03*
X112501Y3666501D02*
D03*
Y4428501D02*
D03*
X882502D02*
D03*
Y4174501D02*
D03*
D56*
Y2336502D02*
D03*
Y3666501D02*
D03*
D57*
X950000Y597501D02*
D03*
X750001Y997500D02*
D03*
D60*
X777230Y1562230D02*
D03*
X6460000Y377770D02*
D03*
X7612500D02*
D03*
X1634730Y1587770D02*
D03*
X5179730Y377770D02*
D03*
X4520001Y5125000D02*
D03*
D61*
X8985873Y4939243D02*
D03*
X7603376D02*
D03*
X8466406Y-234231D02*
D03*
X3685001Y-175000D02*
D03*
X1314998Y-130001D02*
D03*
X1534998Y5075003D02*
D03*
X2930001D02*
D03*
D62*
X8350873Y4939243D02*
D03*
X6968376D02*
D03*
X9588487Y1527703D02*
D03*
X9101406Y-234231D02*
D03*
X4320001Y-175000D02*
D03*
X1949998Y-130001D02*
D03*
X899998Y5075003D02*
D03*
X2295001D02*
D03*
D63*
X9588487Y892703D02*
D03*
D64*
X9900000Y5200000D02*
D03*
Y0D02*
D03*
X0D02*
D03*
Y5200000D02*
D03*
%TF.MD5,1eb0c58246b9efdcf9de716544306c91*%
M02*
