%TF.GenerationSoftware,Altium Limited,Altium Designer,22.0.2 (36)*%
G04 Layer_Physical_Order=2*
G04 Layer_Color=36540*
%FSLAX45Y45*%
%MOMM*%
%TF.SameCoordinates,A85A4143-1F01-4578-B965-72C63468A48A*%
%TF.FilePolarity,Positive*%
%TF.FileFunction,Copper,L2,Inr,Signal*%
%TF.Part,Single*%
G01*
G75*
%TA.AperFunction,ComponentPad*%
%ADD45C,0.65000*%
%ADD46C,1.90500*%
%ADD49C,1.30000*%
%ADD50R,1.80000X1.80000*%
%ADD51C,1.80000*%
%ADD53C,0.70000*%
%TA.AperFunction,ViaPad*%
%ADD54C,4.00000*%
%TA.AperFunction,ComponentPad*%
%ADD55C,1.55000*%
%TA.AperFunction,ViaPad*%
%ADD58C,0.65000*%
G36*
X1852500Y3020000D02*
X2087500Y2785000D01*
X4760000D01*
Y2117500D01*
X2332500D01*
X2142500Y1927500D01*
Y1090000D01*
X1800000Y750000D01*
X1411250D01*
X1008750Y347500D01*
X0D01*
Y352500D01*
X-125000Y477500D01*
Y5028552D01*
X-113799Y5034538D01*
X-95114Y5022053D01*
X-58571Y5006917D01*
X-19777Y4999200D01*
X19777D01*
X58571Y5006917D01*
X95114Y5022053D01*
X128003Y5044029D01*
X155971Y5071997D01*
X177947Y5104886D01*
X193083Y5141429D01*
X200800Y5180223D01*
Y5219777D01*
X193083Y5258571D01*
X177947Y5295114D01*
X155971Y5328003D01*
X128003Y5355972D01*
X95114Y5377947D01*
X58571Y5393083D01*
X19777Y5400800D01*
X-19777D01*
X-58571Y5393083D01*
X-95114Y5377947D01*
X-113799Y5365462D01*
X-125000Y5371448D01*
Y5597500D01*
X1852500D01*
X1852500Y3020000D01*
D02*
G37*
G36*
X3092500Y3150000D02*
X3202500Y3040000D01*
X6277477D01*
Y2687476D01*
X6630000D01*
Y2244185D01*
X6777500Y2100000D01*
Y1755000D01*
X6749999Y1727499D01*
X5482499Y1727500D01*
X5368750Y1841250D01*
X5372500Y2545000D01*
Y2857500D01*
X5302500Y2927500D01*
X2232500Y2927500D01*
X2105000Y3054999D01*
Y5212500D01*
X3092500D01*
Y3150000D01*
D02*
G37*
G36*
X10130000Y5295000D02*
Y-272500D01*
X9962208Y-440292D01*
X9948529Y-443957D01*
X9916270Y-448204D01*
X9900003D01*
X0Y-448206D01*
X-16268D01*
X-48528Y-443959D01*
X-62205Y-440295D01*
X-127500Y-375000D01*
Y65000D01*
X25000Y217500D01*
X1162500D01*
X1545000Y600000D01*
X1857130Y595865D01*
X2307500Y1100181D01*
Y1780000D01*
X2422500Y1895000D01*
X5247500D01*
Y1893408D01*
X5323751Y1817158D01*
X5326431Y1813147D01*
X5331930Y1804820D01*
X5332047Y1804741D01*
X5332125Y1804625D01*
X5445874Y1690875D01*
X5462678Y1679647D01*
X5482499Y1675705D01*
X6749999Y1675704D01*
X6769821Y1679647D01*
X6786624Y1690875D01*
X6814125Y1718375D01*
X6825353Y1735179D01*
X6829295Y1755000D01*
Y2100000D01*
X6829237Y2100294D01*
X6829292Y2100588D01*
X6827268Y2110194D01*
X6825353Y2119821D01*
X6825186Y2120070D01*
X6825124Y2120364D01*
X6819579Y2128461D01*
X6814125Y2136625D01*
X6813875Y2136791D01*
X6813706Y2137038D01*
X6681795Y2265985D01*
Y2687476D01*
X6677853Y2707298D01*
X6666625Y2724101D01*
X6649821Y2735329D01*
X6630000Y2739272D01*
X6485330D01*
X6467053Y2749824D01*
X6445867Y2755500D01*
X6423934D01*
X6402748Y2749824D01*
X6384472Y2739272D01*
X6329272D01*
Y3040000D01*
X6325329Y3059821D01*
X6314101Y3076625D01*
X6297298Y3087853D01*
X6277477Y3091795D01*
X3379442D01*
Y3286663D01*
X3379442Y4841942D01*
X3941250Y5403750D01*
Y5532500D01*
X4056956Y5648206D01*
X9776794D01*
X10130000Y5295000D01*
D02*
G37*
%LPC*%
G36*
X915190Y5190402D02*
X912698D01*
Y5087703D01*
X1015398D01*
Y5090195D01*
X1007533Y5119545D01*
X992340Y5145860D01*
X970855Y5167345D01*
X944540Y5182538D01*
X915190Y5190402D01*
D02*
G37*
G36*
X887298D02*
X884805D01*
X855455Y5182538D01*
X829141Y5167345D01*
X807655Y5145860D01*
X792462Y5119545D01*
X784598Y5090195D01*
Y5087703D01*
X887298D01*
Y5190402D01*
D02*
G37*
G36*
X1015398Y5062303D02*
X912698D01*
Y4959603D01*
X915190D01*
X944540Y4967467D01*
X970855Y4982660D01*
X992340Y5004145D01*
X1007533Y5030460D01*
X1015398Y5059810D01*
Y5062303D01*
D02*
G37*
G36*
X887298D02*
X784598D01*
Y5059810D01*
X792462Y5030460D01*
X807655Y5004145D01*
X829141Y4982660D01*
X855455Y4967467D01*
X884805Y4959603D01*
X887298D01*
Y5062303D01*
D02*
G37*
G36*
X1550243Y5190802D02*
X1519752D01*
X1490301Y5182911D01*
X1463895Y5167666D01*
X1442335Y5146105D01*
X1427089Y5119700D01*
X1419198Y5090248D01*
Y5059757D01*
X1427089Y5030305D01*
X1442335Y5003900D01*
X1463895Y4982340D01*
X1490301Y4967094D01*
X1519752Y4959203D01*
X1550243D01*
X1579695Y4967094D01*
X1606100Y4982340D01*
X1627661Y5003900D01*
X1642906Y5030305D01*
X1650798Y5059757D01*
Y5090248D01*
X1642906Y5119700D01*
X1627661Y5146105D01*
X1606100Y5167666D01*
X1579695Y5182911D01*
X1550243Y5190802D01*
D02*
G37*
G36*
X126048Y4531401D02*
X125201D01*
Y4441201D01*
X215401D01*
Y4442049D01*
X208389Y4468219D01*
X194842Y4491683D01*
X175683Y4510842D01*
X152219Y4524389D01*
X126048Y4531401D01*
D02*
G37*
G36*
X99801D02*
X98954D01*
X72783Y4524389D01*
X49319Y4510842D01*
X30161Y4491683D01*
X16614Y4468219D01*
X9601Y4442049D01*
Y4441201D01*
X99801D01*
Y4531401D01*
D02*
G37*
G36*
X895773Y4529301D02*
X869232D01*
X843595Y4522432D01*
X820610Y4509161D01*
X801842Y4490394D01*
X788572Y4467409D01*
X781702Y4441772D01*
Y4415231D01*
X788572Y4389594D01*
X801842Y4366609D01*
X820610Y4347841D01*
X843595Y4334571D01*
X869232Y4327702D01*
X895773D01*
X921409Y4334571D01*
X944395Y4347841D01*
X963162Y4366609D01*
X976433Y4389594D01*
X983302Y4415231D01*
Y4441772D01*
X976433Y4467409D01*
X963162Y4490394D01*
X944395Y4509161D01*
X921409Y4522432D01*
X895773Y4529301D01*
D02*
G37*
G36*
X215401Y4415801D02*
X125201D01*
Y4325601D01*
X126048D01*
X152219Y4332614D01*
X175683Y4346161D01*
X194842Y4365319D01*
X208389Y4388783D01*
X215401Y4414954D01*
Y4415801D01*
D02*
G37*
G36*
X99801D02*
X9601D01*
Y4414954D01*
X16614Y4388783D01*
X30161Y4365319D01*
X49319Y4346161D01*
X72783Y4332614D01*
X98954Y4325601D01*
X99801D01*
Y4415801D01*
D02*
G37*
G36*
X896049Y4277401D02*
X895202D01*
Y4187201D01*
X985402D01*
Y4188049D01*
X978390Y4214219D01*
X964843Y4237683D01*
X945684Y4256842D01*
X922220Y4270389D01*
X896049Y4277401D01*
D02*
G37*
G36*
X869802D02*
X868955D01*
X842784Y4270389D01*
X819320Y4256842D01*
X800162Y4237683D01*
X786615Y4214219D01*
X779602Y4188049D01*
Y4187201D01*
X869802D01*
Y4277401D01*
D02*
G37*
G36*
X985402Y4161801D02*
X895202D01*
Y4071601D01*
X896049D01*
X922220Y4078614D01*
X945684Y4092161D01*
X964843Y4111319D01*
X978390Y4134783D01*
X985402Y4160954D01*
Y4161801D01*
D02*
G37*
G36*
X869802D02*
X779602D01*
Y4160954D01*
X786615Y4134783D01*
X800162Y4111319D01*
X819320Y4092161D01*
X842784Y4078614D01*
X868955Y4071601D01*
X869802D01*
Y4161801D01*
D02*
G37*
G36*
X126048Y3769401D02*
X125201D01*
Y3679201D01*
X215401D01*
Y3680049D01*
X208389Y3706219D01*
X194842Y3729683D01*
X175683Y3748842D01*
X152219Y3762389D01*
X126048Y3769401D01*
D02*
G37*
G36*
X99801D02*
X98954D01*
X72783Y3762389D01*
X49319Y3748842D01*
X30161Y3729683D01*
X16614Y3706219D01*
X9601Y3680049D01*
Y3679201D01*
X99801D01*
Y3769401D01*
D02*
G37*
G36*
X895773Y3767301D02*
X869232D01*
X843595Y3760432D01*
X820610Y3747161D01*
X801842Y3728394D01*
X788572Y3705409D01*
X781702Y3679772D01*
Y3653231D01*
X788572Y3627594D01*
X801842Y3604609D01*
X820610Y3585841D01*
X843595Y3572571D01*
X869232Y3565702D01*
X895773D01*
X921409Y3572571D01*
X944395Y3585841D01*
X963162Y3604609D01*
X976433Y3627594D01*
X983302Y3653231D01*
Y3679772D01*
X976433Y3705409D01*
X963162Y3728394D01*
X944395Y3747161D01*
X921409Y3760432D01*
X895773Y3767301D01*
D02*
G37*
G36*
X215401Y3653801D02*
X125201D01*
Y3563601D01*
X126048D01*
X152219Y3570614D01*
X175683Y3584161D01*
X194842Y3603319D01*
X208389Y3626783D01*
X215401Y3652954D01*
Y3653801D01*
D02*
G37*
G36*
X99801D02*
X9601D01*
Y3652954D01*
X16614Y3626783D01*
X30161Y3603319D01*
X49319Y3584161D01*
X72783Y3570614D01*
X98954Y3563601D01*
X99801D01*
Y3653801D01*
D02*
G37*
G36*
X126048Y3201402D02*
X125201D01*
Y3111202D01*
X215401D01*
Y3112049D01*
X208389Y3138220D01*
X194842Y3161684D01*
X175683Y3180842D01*
X152219Y3194389D01*
X126048Y3201402D01*
D02*
G37*
G36*
X99801D02*
X98954D01*
X72783Y3194389D01*
X49319Y3180842D01*
X30161Y3161684D01*
X16614Y3138220D01*
X9601Y3112049D01*
Y3111202D01*
X99801D01*
Y3201402D01*
D02*
G37*
G36*
X895773Y3199301D02*
X869232D01*
X843595Y3192432D01*
X820610Y3179162D01*
X801842Y3160394D01*
X788572Y3137409D01*
X781702Y3111772D01*
Y3085231D01*
X788572Y3059594D01*
X801842Y3036609D01*
X820610Y3017842D01*
X843595Y3004571D01*
X869232Y2997702D01*
X895773D01*
X921409Y3004571D01*
X944395Y3017842D01*
X963162Y3036609D01*
X976433Y3059594D01*
X983302Y3085231D01*
Y3111772D01*
X976433Y3137409D01*
X963162Y3160394D01*
X944395Y3179162D01*
X921409Y3192432D01*
X895773Y3199301D01*
D02*
G37*
G36*
X215401Y3085802D02*
X125201D01*
Y2995602D01*
X126048D01*
X152219Y3002614D01*
X175683Y3016161D01*
X194842Y3035320D01*
X208389Y3058784D01*
X215401Y3084954D01*
Y3085802D01*
D02*
G37*
G36*
X99801D02*
X9601D01*
Y3084954D01*
X16614Y3058784D01*
X30161Y3035320D01*
X49319Y3016161D01*
X72783Y3002614D01*
X98954Y2995602D01*
X99801D01*
Y3085802D01*
D02*
G37*
G36*
X895773Y2945301D02*
X869232D01*
X843595Y2938432D01*
X820610Y2925162D01*
X801842Y2906394D01*
X788572Y2883409D01*
X781702Y2857772D01*
Y2831231D01*
X788572Y2805594D01*
X801842Y2782609D01*
X820610Y2763842D01*
X843595Y2750571D01*
X869232Y2743702D01*
X895773D01*
X921409Y2750571D01*
X944395Y2763842D01*
X963162Y2782609D01*
X976433Y2805594D01*
X983302Y2831231D01*
Y2857772D01*
X976433Y2883409D01*
X963162Y2906394D01*
X944395Y2925162D01*
X921409Y2938432D01*
X895773Y2945301D01*
D02*
G37*
G36*
X896049Y2693402D02*
X895202D01*
Y2603202D01*
X985402D01*
Y2604049D01*
X978390Y2630220D01*
X964843Y2653684D01*
X945684Y2672842D01*
X922220Y2686389D01*
X896049Y2693402D01*
D02*
G37*
G36*
X869802D02*
X868955D01*
X842784Y2686389D01*
X819320Y2672842D01*
X800162Y2653684D01*
X786615Y2630220D01*
X779602Y2604049D01*
Y2603202D01*
X869802D01*
Y2693402D01*
D02*
G37*
G36*
X985402Y2577802D02*
X895202D01*
Y2487602D01*
X896049D01*
X922220Y2494614D01*
X945684Y2508161D01*
X964843Y2527320D01*
X978390Y2550784D01*
X985402Y2576954D01*
Y2577802D01*
D02*
G37*
G36*
X869802D02*
X779602D01*
Y2576954D01*
X786615Y2550784D01*
X800162Y2527320D01*
X819320Y2508161D01*
X842784Y2494614D01*
X868955Y2487602D01*
X869802D01*
Y2577802D01*
D02*
G37*
G36*
X126048Y2439402D02*
X125201D01*
Y2349202D01*
X215401D01*
Y2350049D01*
X208389Y2376220D01*
X194842Y2399684D01*
X175683Y2418842D01*
X152219Y2432389D01*
X126048Y2439402D01*
D02*
G37*
G36*
X99801D02*
X98954D01*
X72783Y2432389D01*
X49319Y2418842D01*
X30161Y2399684D01*
X16614Y2376220D01*
X9601Y2350049D01*
Y2349202D01*
X99801D01*
Y2439402D01*
D02*
G37*
G36*
X895773Y2437301D02*
X869232D01*
X843595Y2430432D01*
X820610Y2417162D01*
X801842Y2398394D01*
X788572Y2375409D01*
X781702Y2349772D01*
Y2323231D01*
X788572Y2297594D01*
X801842Y2274609D01*
X820610Y2255842D01*
X843595Y2242571D01*
X869232Y2235702D01*
X895773D01*
X921409Y2242571D01*
X944395Y2255842D01*
X963162Y2274609D01*
X976433Y2297594D01*
X983302Y2323231D01*
Y2349772D01*
X976433Y2375409D01*
X963162Y2398394D01*
X944395Y2417162D01*
X921409Y2430432D01*
X895773Y2437301D01*
D02*
G37*
G36*
X215401Y2323802D02*
X125201D01*
Y2233602D01*
X126048D01*
X152219Y2240614D01*
X175683Y2254161D01*
X194842Y2273320D01*
X208389Y2296784D01*
X215401Y2322954D01*
Y2323802D01*
D02*
G37*
G36*
X99801D02*
X9601D01*
Y2322954D01*
X16614Y2296784D01*
X30161Y2273320D01*
X49319Y2254161D01*
X72783Y2240614D01*
X98954Y2233602D01*
X99801D01*
Y2323802D01*
D02*
G37*
G36*
X1749044Y2328302D02*
X1725136D01*
X1702043Y2322115D01*
X1681338Y2310160D01*
X1664432Y2293255D01*
X1652478Y2272550D01*
X1646290Y2249457D01*
Y2225549D01*
X1652478Y2202455D01*
X1664432Y2181750D01*
X1681338Y2164845D01*
X1702043Y2152890D01*
X1725136Y2146703D01*
X1749044D01*
X1772138Y2152890D01*
X1792843Y2164845D01*
X1809748Y2181750D01*
X1821702Y2202455D01*
X1827890Y2225549D01*
Y2249457D01*
X1821702Y2272550D01*
X1809748Y2293255D01*
X1792843Y2310160D01*
X1772138Y2322115D01*
X1749044Y2328302D01*
D02*
G37*
G36*
X1549045D02*
X1525137D01*
X1502043Y2322115D01*
X1481338Y2310160D01*
X1464433Y2293255D01*
X1452478Y2272550D01*
X1446291Y2249457D01*
Y2225549D01*
X1452478Y2202455D01*
X1464433Y2181750D01*
X1481338Y2164845D01*
X1502043Y2152890D01*
X1525137Y2146703D01*
X1549045D01*
X1572138Y2152890D01*
X1592843Y2164845D01*
X1609749Y2181750D01*
X1621703Y2202455D01*
X1627891Y2225549D01*
Y2249457D01*
X1621703Y2272550D01*
X1609749Y2293255D01*
X1592843Y2310160D01*
X1572138Y2322115D01*
X1549045Y2328302D01*
D02*
G37*
G36*
X1349045D02*
X1325137D01*
X1302044Y2322115D01*
X1281339Y2310160D01*
X1264433Y2293255D01*
X1252479Y2272550D01*
X1246291Y2249457D01*
Y2225549D01*
X1252479Y2202455D01*
X1264433Y2181750D01*
X1281339Y2164845D01*
X1302044Y2152890D01*
X1325137Y2146703D01*
X1349045D01*
X1372138Y2152890D01*
X1392844Y2164845D01*
X1409749Y2181750D01*
X1421703Y2202455D01*
X1427891Y2225549D01*
Y2249457D01*
X1421703Y2272550D01*
X1409749Y2293255D01*
X1392844Y2310160D01*
X1372138Y2322115D01*
X1349045Y2328302D01*
D02*
G37*
G36*
X1905884Y1963690D02*
X1902700D01*
Y1855740D01*
X2010650D01*
Y1858924D01*
X2002428Y1889609D01*
X1986544Y1917121D01*
X1964081Y1939584D01*
X1936569Y1955468D01*
X1905884Y1963690D01*
D02*
G37*
G36*
X1877300D02*
X1874116D01*
X1843431Y1955468D01*
X1815919Y1939584D01*
X1793456Y1917121D01*
X1777572Y1889609D01*
X1769350Y1858924D01*
Y1855740D01*
X1877300D01*
Y1963690D01*
D02*
G37*
G36*
X1395344D02*
X1392160D01*
Y1855740D01*
X1500110D01*
Y1858924D01*
X1491888Y1889609D01*
X1476004Y1917121D01*
X1453541Y1939584D01*
X1426029Y1955468D01*
X1395344Y1963690D01*
D02*
G37*
G36*
X1366760D02*
X1363576D01*
X1332891Y1955468D01*
X1305379Y1939584D01*
X1282916Y1917121D01*
X1267032Y1889609D01*
X1258810Y1858924D01*
Y1855740D01*
X1366760D01*
Y1963690D01*
D02*
G37*
G36*
X1048384Y1938150D02*
X1045200D01*
Y1830200D01*
X1153150D01*
Y1833384D01*
X1144928Y1864069D01*
X1129044Y1891581D01*
X1106581Y1914044D01*
X1079069Y1929928D01*
X1048384Y1938150D01*
D02*
G37*
G36*
X1019800D02*
X1016616D01*
X985931Y1929928D01*
X958419Y1914044D01*
X935956Y1891581D01*
X920072Y1864069D01*
X911850Y1833384D01*
Y1830200D01*
X1019800D01*
Y1938150D01*
D02*
G37*
G36*
X537844D02*
X534660D01*
Y1830200D01*
X642610D01*
Y1833384D01*
X634388Y1864069D01*
X618504Y1891581D01*
X596041Y1914044D01*
X568529Y1929928D01*
X537844Y1938150D01*
D02*
G37*
G36*
X509260D02*
X506076D01*
X475391Y1929928D01*
X447879Y1914044D01*
X425416Y1891581D01*
X409532Y1864069D01*
X401310Y1833384D01*
Y1830200D01*
X509260D01*
Y1938150D01*
D02*
G37*
G36*
X2010650Y1830340D02*
X1902700D01*
Y1722390D01*
X1905884D01*
X1936569Y1730612D01*
X1964081Y1746496D01*
X1986544Y1768959D01*
X2002428Y1796471D01*
X2010650Y1827156D01*
Y1830340D01*
D02*
G37*
G36*
X1877300D02*
X1769350D01*
Y1827156D01*
X1777572Y1796471D01*
X1793456Y1768959D01*
X1815919Y1746496D01*
X1843431Y1730612D01*
X1874116Y1722390D01*
X1877300D01*
Y1830340D01*
D02*
G37*
G36*
X1500110D02*
X1392160D01*
Y1722390D01*
X1395344D01*
X1426029Y1730612D01*
X1453541Y1746496D01*
X1476004Y1768959D01*
X1491888Y1796471D01*
X1500110Y1827156D01*
Y1830340D01*
D02*
G37*
G36*
X1366760D02*
X1258810D01*
Y1827156D01*
X1267032Y1796471D01*
X1282916Y1768959D01*
X1305379Y1746496D01*
X1332891Y1730612D01*
X1363576Y1722390D01*
X1366760D01*
Y1830340D01*
D02*
G37*
G36*
X1153150Y1804800D02*
X1045200D01*
Y1696850D01*
X1048384D01*
X1079069Y1705072D01*
X1106581Y1720956D01*
X1129044Y1743419D01*
X1144928Y1770931D01*
X1153150Y1801616D01*
Y1804800D01*
D02*
G37*
G36*
X1019800D02*
X911850D01*
Y1801616D01*
X920072Y1770931D01*
X935956Y1743419D01*
X958419Y1720956D01*
X985931Y1705072D01*
X1016616Y1696850D01*
X1019800D01*
Y1804800D01*
D02*
G37*
G36*
X642610D02*
X534660D01*
Y1696850D01*
X537844D01*
X568529Y1705072D01*
X596041Y1720956D01*
X618504Y1743419D01*
X634388Y1770931D01*
X642610Y1801616D01*
Y1804800D01*
D02*
G37*
G36*
X509260D02*
X401310D01*
Y1801616D01*
X409532Y1770931D01*
X425416Y1743419D01*
X447879Y1720956D01*
X475391Y1705072D01*
X506076Y1696850D01*
X509260D01*
Y1804800D01*
D02*
G37*
G36*
X1651283Y1713500D02*
X1618177D01*
X1586200Y1704932D01*
X1557530Y1688379D01*
X1534121Y1664970D01*
X1517568Y1636300D01*
X1509000Y1604323D01*
Y1571217D01*
X1517568Y1539240D01*
X1534121Y1510570D01*
X1557530Y1487161D01*
X1586200Y1470608D01*
X1618177Y1462040D01*
X1651283D01*
X1683260Y1470608D01*
X1711930Y1487161D01*
X1735339Y1510570D01*
X1751892Y1539240D01*
X1760460Y1571217D01*
Y1604323D01*
X1751892Y1636300D01*
X1735339Y1664970D01*
X1711930Y1688379D01*
X1683260Y1704932D01*
X1651283Y1713500D01*
D02*
G37*
G36*
X793783Y1687960D02*
X760677D01*
X728700Y1679392D01*
X700030Y1662839D01*
X676621Y1639430D01*
X660069Y1610760D01*
X651500Y1578783D01*
Y1545677D01*
X660069Y1513700D01*
X676621Y1485030D01*
X700030Y1461621D01*
X728700Y1445068D01*
X760677Y1436500D01*
X793783D01*
X825760Y1445068D01*
X854430Y1461621D01*
X877839Y1485030D01*
X894392Y1513700D01*
X902960Y1545677D01*
Y1578783D01*
X894392Y1610760D01*
X877839Y1639430D01*
X854430Y1662839D01*
X825760Y1679392D01*
X793783Y1687960D01*
D02*
G37*
G36*
X1905884Y1453150D02*
X1902700D01*
Y1345200D01*
X2010650D01*
Y1348384D01*
X2002428Y1379069D01*
X1986544Y1406581D01*
X1964081Y1429044D01*
X1936569Y1444928D01*
X1905884Y1453150D01*
D02*
G37*
G36*
X1877300D02*
X1874116D01*
X1843431Y1444928D01*
X1815919Y1429044D01*
X1793456Y1406581D01*
X1777572Y1379069D01*
X1769350Y1348384D01*
Y1345200D01*
X1877300D01*
Y1453150D01*
D02*
G37*
G36*
X1395344D02*
X1392160D01*
Y1345200D01*
X1500110D01*
Y1348384D01*
X1491888Y1379069D01*
X1476004Y1406581D01*
X1453541Y1429044D01*
X1426029Y1444928D01*
X1395344Y1453150D01*
D02*
G37*
G36*
X1366760D02*
X1363576D01*
X1332891Y1444928D01*
X1305379Y1429044D01*
X1282916Y1406581D01*
X1267032Y1379069D01*
X1258810Y1348384D01*
Y1345200D01*
X1366760D01*
Y1453150D01*
D02*
G37*
G36*
X1048384Y1427610D02*
X1045200D01*
Y1319660D01*
X1153150D01*
Y1322844D01*
X1144928Y1353529D01*
X1129044Y1381041D01*
X1106581Y1403504D01*
X1079069Y1419388D01*
X1048384Y1427610D01*
D02*
G37*
G36*
X1019800D02*
X1016616D01*
X985931Y1419388D01*
X958419Y1403504D01*
X935956Y1381041D01*
X920072Y1353529D01*
X911850Y1322844D01*
Y1319660D01*
X1019800D01*
Y1427610D01*
D02*
G37*
G36*
X537844D02*
X534660D01*
Y1319660D01*
X642610D01*
Y1322844D01*
X634388Y1353529D01*
X618504Y1381041D01*
X596041Y1403504D01*
X568529Y1419388D01*
X537844Y1427610D01*
D02*
G37*
G36*
X509260D02*
X506076D01*
X475391Y1419388D01*
X447879Y1403504D01*
X425416Y1381041D01*
X409532Y1353529D01*
X401310Y1322844D01*
Y1319660D01*
X509260D01*
Y1427610D01*
D02*
G37*
G36*
X2010650Y1319800D02*
X1902700D01*
Y1211850D01*
X1905884D01*
X1936569Y1220072D01*
X1964081Y1235956D01*
X1986544Y1258419D01*
X2002428Y1285931D01*
X2010650Y1316616D01*
Y1319800D01*
D02*
G37*
G36*
X1877300D02*
X1769350D01*
Y1316616D01*
X1777572Y1285931D01*
X1793456Y1258419D01*
X1815919Y1235956D01*
X1843431Y1220072D01*
X1874116Y1211850D01*
X1877300D01*
Y1319800D01*
D02*
G37*
G36*
X1500110D02*
X1392160D01*
Y1211850D01*
X1395344D01*
X1426029Y1220072D01*
X1453541Y1235956D01*
X1476004Y1258419D01*
X1491888Y1285931D01*
X1500110Y1316616D01*
Y1319800D01*
D02*
G37*
G36*
X1366760D02*
X1258810D01*
Y1316616D01*
X1267032Y1285931D01*
X1282916Y1258419D01*
X1305379Y1235956D01*
X1332891Y1220072D01*
X1363576Y1211850D01*
X1366760D01*
Y1319800D01*
D02*
G37*
G36*
X1153150Y1294260D02*
X1045200D01*
Y1186310D01*
X1048384D01*
X1079069Y1194532D01*
X1106581Y1210416D01*
X1129044Y1232879D01*
X1144928Y1260391D01*
X1153150Y1291076D01*
Y1294260D01*
D02*
G37*
G36*
X1019800D02*
X911850D01*
Y1291076D01*
X920072Y1260391D01*
X935956Y1232879D01*
X958419Y1210416D01*
X985931Y1194532D01*
X1016616Y1186310D01*
X1019800D01*
Y1294260D01*
D02*
G37*
G36*
X642610D02*
X534660D01*
Y1186310D01*
X537844D01*
X568529Y1194532D01*
X596041Y1210416D01*
X618504Y1232879D01*
X634388Y1260391D01*
X642610Y1291076D01*
Y1294260D01*
D02*
G37*
G36*
X509260D02*
X401310D01*
Y1291076D01*
X409532Y1260391D01*
X425416Y1232879D01*
X447879Y1210416D01*
X475391Y1194532D01*
X506076Y1186310D01*
X509260D01*
Y1294260D01*
D02*
G37*
G36*
X1505198Y1092685D02*
Y1015199D01*
X1582684D01*
X1576738Y1037392D01*
X1564836Y1058006D01*
X1548005Y1074837D01*
X1527391Y1086738D01*
X1505198Y1092685D01*
D02*
G37*
G36*
X1305199D02*
Y1015199D01*
X1382685D01*
X1376738Y1037392D01*
X1364837Y1058006D01*
X1348006Y1074837D01*
X1327392Y1086738D01*
X1305199Y1092685D01*
D02*
G37*
G36*
X1279799D02*
X1257606Y1086738D01*
X1236992Y1074837D01*
X1220161Y1058006D01*
X1208259Y1037392D01*
X1202313Y1015199D01*
X1279799D01*
Y1092685D01*
D02*
G37*
G36*
X1479798D02*
X1457605Y1086738D01*
X1436992Y1074837D01*
X1420160Y1058006D01*
X1408259Y1037392D01*
X1402312Y1015199D01*
X1479798D01*
Y1092685D01*
D02*
G37*
G36*
X1582684Y989799D02*
X1505198D01*
Y912313D01*
X1527391Y918259D01*
X1548005Y930161D01*
X1564836Y946992D01*
X1576738Y967606D01*
X1582684Y989799D01*
D02*
G37*
G36*
X1382685D02*
X1305199D01*
Y912313D01*
X1327392Y918259D01*
X1348006Y930161D01*
X1364837Y946992D01*
X1376738Y967606D01*
X1382685Y989799D01*
D02*
G37*
G36*
X1479798D02*
X1402312D01*
X1408259Y967606D01*
X1420160Y946992D01*
X1436992Y930161D01*
X1457605Y918259D01*
X1479798Y912313D01*
Y989799D01*
D02*
G37*
G36*
X1279799D02*
X1202313D01*
X1208259Y967606D01*
X1220161Y946992D01*
X1236992Y930161D01*
X1257606Y918259D01*
X1279799Y912313D01*
Y989799D01*
D02*
G37*
G36*
X1704452Y1093299D02*
X1680544D01*
X1657451Y1087111D01*
X1636746Y1075157D01*
X1619840Y1058251D01*
X1607886Y1037546D01*
X1601698Y1014453D01*
Y990545D01*
X1607886Y967451D01*
X1619840Y946746D01*
X1636746Y929841D01*
X1657451Y917886D01*
X1680544Y911699D01*
X1704452D01*
X1727545Y917886D01*
X1748251Y929841D01*
X1765156Y946746D01*
X1777110Y967451D01*
X1783298Y990545D01*
Y1014453D01*
X1777110Y1037546D01*
X1765156Y1058251D01*
X1748251Y1075157D01*
X1727545Y1087111D01*
X1704452Y1093299D01*
D02*
G37*
G36*
X961954Y1088300D02*
X938046D01*
X914953Y1082112D01*
X894248Y1070158D01*
X877342Y1053252D01*
X865388Y1032547D01*
X859200Y1009454D01*
Y985546D01*
X865388Y962452D01*
X877342Y941747D01*
X894248Y924842D01*
X914953Y912888D01*
X938046Y906700D01*
X961954D01*
X985048Y912888D01*
X1005753Y924842D01*
X1022658Y941747D01*
X1034612Y962452D01*
X1040800Y985546D01*
Y1009454D01*
X1034612Y1032547D01*
X1022658Y1053252D01*
X1005753Y1070158D01*
X985048Y1082112D01*
X961954Y1088300D01*
D02*
G37*
G36*
X761955D02*
X738047D01*
X714953Y1082112D01*
X694248Y1070158D01*
X677343Y1053252D01*
X665388Y1032547D01*
X659201Y1009454D01*
Y985546D01*
X665388Y962452D01*
X677343Y941747D01*
X694248Y924842D01*
X714953Y912888D01*
X738047Y906700D01*
X761955D01*
X785048Y912888D01*
X805753Y924842D01*
X822659Y941747D01*
X834613Y962452D01*
X840800Y985546D01*
Y1009454D01*
X834613Y1032547D01*
X822659Y1053252D01*
X805753Y1070158D01*
X785048Y1082112D01*
X761955Y1088300D01*
D02*
G37*
G36*
X762701Y887686D02*
Y810200D01*
X840187D01*
X834240Y832393D01*
X822338Y853007D01*
X805507Y869838D01*
X784894Y881740D01*
X762701Y887686D01*
D02*
G37*
G36*
X737301D02*
X715108Y881740D01*
X694494Y869838D01*
X677663Y853007D01*
X665761Y832393D01*
X659815Y810200D01*
X737301D01*
Y887686D01*
D02*
G37*
G36*
X840187Y784800D02*
X762701D01*
Y707314D01*
X784894Y713261D01*
X805507Y725162D01*
X822338Y741993D01*
X834240Y762607D01*
X840187Y784800D01*
D02*
G37*
G36*
X737301D02*
X659815D01*
X665761Y762607D01*
X677663Y741993D01*
X694494Y725162D01*
X715108Y713261D01*
X737301Y707314D01*
Y784800D01*
D02*
G37*
G36*
X961954Y888300D02*
X938046D01*
X914953Y882113D01*
X894248Y870158D01*
X877342Y853253D01*
X865388Y832548D01*
X859200Y809454D01*
Y785546D01*
X865388Y762453D01*
X877342Y741748D01*
X894248Y724842D01*
X914953Y712888D01*
X938046Y706700D01*
X961954D01*
X985048Y712888D01*
X1005753Y724842D01*
X1022658Y741748D01*
X1034612Y762453D01*
X1040800Y785546D01*
Y809454D01*
X1034612Y832548D01*
X1022658Y853253D01*
X1005753Y870158D01*
X985048Y882113D01*
X961954Y888300D01*
D02*
G37*
G36*
X262702Y685187D02*
Y607701D01*
X340188D01*
X334241Y629894D01*
X322339Y650508D01*
X305508Y667339D01*
X284895Y679241D01*
X262702Y685187D01*
D02*
G37*
G36*
X62702D02*
Y607701D01*
X140188D01*
X134241Y629894D01*
X122340Y650508D01*
X105509Y667339D01*
X84895Y679241D01*
X62702Y685187D01*
D02*
G37*
G36*
X237302D02*
X215109Y679241D01*
X194495Y667339D01*
X177664Y650508D01*
X165762Y629894D01*
X159816Y607701D01*
X237302D01*
Y685187D01*
D02*
G37*
G36*
X37302D02*
X15109Y679241D01*
X-5505Y667339D01*
X-22336Y650508D01*
X-34237Y629894D01*
X-40184Y607701D01*
X37302D01*
Y685187D01*
D02*
G37*
G36*
X250002Y595001D02*
D01*
D01*
D01*
D02*
G37*
G36*
X961954Y688301D02*
X938046D01*
X914953Y682113D01*
X894248Y670159D01*
X877342Y653253D01*
X865388Y632548D01*
X859200Y609455D01*
Y585547D01*
X865388Y562453D01*
X877342Y541748D01*
X894248Y524843D01*
X914953Y512888D01*
X938046Y506701D01*
X961954D01*
X985048Y512888D01*
X1005753Y524843D01*
X1022658Y541748D01*
X1034612Y562453D01*
X1040800Y585547D01*
Y609455D01*
X1034612Y632548D01*
X1022658Y653253D01*
X1005753Y670159D01*
X985048Y682113D01*
X961954Y688301D01*
D02*
G37*
G36*
X761955D02*
X738047D01*
X714953Y682113D01*
X694248Y670159D01*
X677343Y653253D01*
X665388Y632548D01*
X659201Y609455D01*
Y585547D01*
X665388Y562453D01*
X677343Y541748D01*
X694248Y524843D01*
X714953Y512888D01*
X738047Y506701D01*
X761955D01*
X785048Y512888D01*
X805753Y524843D01*
X822659Y541748D01*
X834613Y562453D01*
X840800Y585547D01*
Y609455D01*
X834613Y632548D01*
X822659Y653253D01*
X805753Y670159D01*
X785048Y682113D01*
X761955Y688301D01*
D02*
G37*
G36*
X340188Y582301D02*
X262702D01*
Y504815D01*
X284895Y510762D01*
X305508Y522663D01*
X322339Y539494D01*
X334241Y560108D01*
X340188Y582301D01*
D02*
G37*
G36*
X140188D02*
X62702D01*
Y504815D01*
X84895Y510762D01*
X105509Y522663D01*
X122340Y539494D01*
X134241Y560108D01*
X140188Y582301D01*
D02*
G37*
G36*
X237302D02*
X159816D01*
X165762Y560108D01*
X177664Y539494D01*
X194495Y522663D01*
X215109Y510762D01*
X237302Y504815D01*
Y582301D01*
D02*
G37*
G36*
X37302D02*
X-40184D01*
X-34237Y560108D01*
X-22336Y539494D01*
X-5505Y522663D01*
X15109Y510762D01*
X37302Y504815D01*
Y582301D01*
D02*
G37*
G36*
X461955Y685801D02*
X438047D01*
X414954Y679614D01*
X394249Y667659D01*
X377343Y650754D01*
X365389Y630049D01*
X359201Y606955D01*
Y583047D01*
X365389Y559954D01*
X377343Y539249D01*
X394249Y522343D01*
X414954Y510389D01*
X438047Y504201D01*
X461955D01*
X485049Y510389D01*
X505754Y522343D01*
X522659Y539249D01*
X534613Y559954D01*
X540801Y583047D01*
Y606955D01*
X534613Y630049D01*
X522659Y650754D01*
X505754Y667659D01*
X485049Y679614D01*
X461955Y685801D01*
D02*
G37*
G36*
X2310194Y5190402D02*
X2307701D01*
Y5087703D01*
X2410401D01*
Y5090195D01*
X2402537Y5119545D01*
X2387344Y5145860D01*
X2365858Y5167345D01*
X2339544Y5182538D01*
X2310194Y5190402D01*
D02*
G37*
G36*
X2282301D02*
X2279808D01*
X2250459Y5182538D01*
X2224144Y5167345D01*
X2202659Y5145860D01*
X2187466Y5119545D01*
X2179601Y5090195D01*
Y5087703D01*
X2282301D01*
Y5190402D01*
D02*
G37*
G36*
X2410401Y5062303D02*
X2307701D01*
Y4959603D01*
X2310194D01*
X2339544Y4967467D01*
X2365858Y4982660D01*
X2387344Y5004145D01*
X2402537Y5030460D01*
X2410401Y5059810D01*
Y5062303D01*
D02*
G37*
G36*
X2282301D02*
X2179601D01*
Y5059810D01*
X2187466Y5030460D01*
X2202659Y5004145D01*
X2224144Y4982660D01*
X2250459Y4967467D01*
X2279808Y4959603D01*
X2282301D01*
Y5062303D01*
D02*
G37*
G36*
X2945247Y5190802D02*
X2914756D01*
X2885304Y5182911D01*
X2858899Y5167666D01*
X2837338Y5146105D01*
X2822093Y5119700D01*
X2814201Y5090248D01*
Y5059757D01*
X2822093Y5030305D01*
X2837338Y5003900D01*
X2858899Y4982340D01*
X2885304Y4967094D01*
X2914756Y4959203D01*
X2945247D01*
X2974698Y4967094D01*
X3001104Y4982340D01*
X3022664Y5003900D01*
X3037910Y5030305D01*
X3045801Y5059757D01*
Y5090248D01*
X3037910Y5119700D01*
X3022664Y5146105D01*
X3001104Y5167666D01*
X2974698Y5182911D01*
X2945247Y5190802D01*
D02*
G37*
G36*
X4277430Y5475477D02*
Y5392969D01*
X4359938D01*
X4353489Y5417035D01*
X4340950Y5438755D01*
X4323215Y5456489D01*
X4301496Y5469029D01*
X4277430Y5475477D01*
D02*
G37*
G36*
X4791155Y5500920D02*
X4787970D01*
Y5392969D01*
X4895921D01*
Y5396154D01*
X4887699Y5426839D01*
X4871815Y5454351D01*
X4849351Y5476814D01*
X4821840Y5492698D01*
X4791155Y5500920D01*
D02*
G37*
G36*
X4252030Y5475477D02*
X4227965Y5469029D01*
X4206246Y5456489D01*
X4188512Y5438755D01*
X4175972Y5417035D01*
X4169523Y5392969D01*
X4252030D01*
Y5475477D01*
D02*
G37*
G36*
X4762570Y5500920D02*
X4759387D01*
X4728701Y5492698D01*
X4701190Y5476814D01*
X4678726Y5454351D01*
X4662843Y5426839D01*
X4654621Y5396154D01*
Y5392969D01*
X4762570D01*
Y5500920D01*
D02*
G37*
G36*
X4252030Y5367569D02*
X4169524D01*
X4175972Y5343505D01*
X4188512Y5321785D01*
X4206246Y5304051D01*
X4227965Y5291511D01*
X4252030Y5285063D01*
Y5367569D01*
D02*
G37*
G36*
X4359937D02*
X4277430D01*
Y5285063D01*
X4301496Y5291511D01*
X4323215Y5304051D01*
X4340950Y5321785D01*
X4353489Y5343505D01*
X4359937Y5367569D01*
D02*
G37*
G36*
X4895921D02*
X4787970D01*
Y5259620D01*
X4791155D01*
X4821840Y5267842D01*
X4849351Y5283726D01*
X4871815Y5306189D01*
X4887699Y5333701D01*
X4895921Y5364386D01*
Y5367569D01*
D02*
G37*
G36*
X4762570D02*
X4654621D01*
Y5364386D01*
X4662843Y5333701D01*
X4678726Y5306189D01*
X4701190Y5283726D01*
X4728701Y5267842D01*
X4759387Y5259620D01*
X4762570D01*
Y5367569D01*
D02*
G37*
G36*
X4536553Y5250730D02*
X4503448D01*
X4471471Y5242161D01*
X4442801Y5225609D01*
X4419392Y5202200D01*
X4402839Y5173530D01*
X4394271Y5141553D01*
Y5108447D01*
X4402839Y5076470D01*
X4419392Y5047800D01*
X4442801Y5024391D01*
X4471471Y5007838D01*
X4503448Y4999270D01*
X4536553D01*
X4568531Y5007838D01*
X4597201Y5024391D01*
X4620610Y5047800D01*
X4637162Y5076470D01*
X4645731Y5108447D01*
Y5141553D01*
X4637162Y5173530D01*
X4620610Y5202200D01*
X4597201Y5225609D01*
X4568531Y5242161D01*
X4536553Y5250730D01*
D02*
G37*
G36*
X4787970Y4964937D02*
Y4882429D01*
X4870478D01*
X4864029Y4906495D01*
X4851490Y4928215D01*
X4833755Y4945949D01*
X4812036Y4958489D01*
X4787970Y4964937D01*
D02*
G37*
G36*
X4277430D02*
Y4882429D01*
X4359938D01*
X4353489Y4906495D01*
X4340950Y4928215D01*
X4323215Y4945949D01*
X4301496Y4958489D01*
X4277430Y4964937D01*
D02*
G37*
G36*
X4762570Y4964937D02*
X4738505Y4958489D01*
X4716786Y4945949D01*
X4699052Y4928215D01*
X4686512Y4906495D01*
X4680063Y4882429D01*
X4762570D01*
Y4964937D01*
D02*
G37*
G36*
X4252030D02*
X4227965Y4958489D01*
X4206246Y4945949D01*
X4188512Y4928215D01*
X4175972Y4906495D01*
X4169523Y4882429D01*
X4252030D01*
Y4964937D01*
D02*
G37*
G36*
X9001118Y5055043D02*
X8970628D01*
X8941176Y5047152D01*
X8914770Y5031906D01*
X8893210Y5010346D01*
X8877965Y4983941D01*
X8870073Y4954489D01*
Y4923998D01*
X8877965Y4894546D01*
X8893210Y4868141D01*
X8914770Y4846580D01*
X8941176Y4831335D01*
X8970628Y4823443D01*
X9001118D01*
X9030570Y4831335D01*
X9056976Y4846580D01*
X9078536Y4868141D01*
X9093781Y4894546D01*
X9101673Y4923998D01*
Y4954489D01*
X9093781Y4983941D01*
X9078536Y5010346D01*
X9056976Y5031906D01*
X9030570Y5047152D01*
X9001118Y5055043D01*
D02*
G37*
G36*
X8366118D02*
X8335628D01*
X8306176Y5047152D01*
X8279770Y5031906D01*
X8258210Y5010346D01*
X8242965Y4983941D01*
X8235073Y4954489D01*
Y4923998D01*
X8242965Y4894546D01*
X8258210Y4868141D01*
X8279770Y4846580D01*
X8306176Y4831335D01*
X8335628Y4823443D01*
X8366118D01*
X8395570Y4831335D01*
X8421976Y4846580D01*
X8443536Y4868141D01*
X8458781Y4894546D01*
X8466673Y4923998D01*
Y4954489D01*
X8458781Y4983941D01*
X8443536Y5010346D01*
X8421976Y5031906D01*
X8395570Y5047152D01*
X8366118Y5055043D01*
D02*
G37*
G36*
X7618622D02*
X7588131D01*
X7558679Y5047152D01*
X7532274Y5031906D01*
X7510713Y5010346D01*
X7495468Y4983941D01*
X7487577Y4954489D01*
Y4923998D01*
X7495468Y4894546D01*
X7510713Y4868141D01*
X7532274Y4846580D01*
X7558679Y4831335D01*
X7588131Y4823443D01*
X7618622D01*
X7648074Y4831335D01*
X7674479Y4846580D01*
X7696039Y4868141D01*
X7711285Y4894546D01*
X7719176Y4923998D01*
Y4954489D01*
X7711285Y4983941D01*
X7696039Y5010346D01*
X7674479Y5031906D01*
X7648074Y5047152D01*
X7618622Y5055043D01*
D02*
G37*
G36*
X6983622D02*
X6953131D01*
X6923679Y5047152D01*
X6897274Y5031906D01*
X6875713Y5010346D01*
X6860468Y4983941D01*
X6852577Y4954489D01*
Y4923998D01*
X6860468Y4894546D01*
X6875713Y4868141D01*
X6897274Y4846580D01*
X6923679Y4831335D01*
X6953131Y4823443D01*
X6983622D01*
X7013074Y4831335D01*
X7039479Y4846580D01*
X7061039Y4868141D01*
X7076285Y4894546D01*
X7084176Y4923998D01*
Y4954489D01*
X7076285Y4983941D01*
X7061039Y5010346D01*
X7039479Y5031906D01*
X7013074Y5047152D01*
X6983622Y5055043D01*
D02*
G37*
G36*
X4762570Y4857029D02*
X4680064D01*
X4686512Y4832965D01*
X4699052Y4811245D01*
X4716786Y4793511D01*
X4738505Y4780971D01*
X4762570Y4774523D01*
Y4857029D01*
D02*
G37*
G36*
X4252030D02*
X4169524D01*
X4175972Y4832965D01*
X4188512Y4811245D01*
X4206246Y4793511D01*
X4227965Y4780971D01*
X4252030Y4774523D01*
Y4857029D01*
D02*
G37*
G36*
X4870477D02*
X4787970D01*
Y4774523D01*
X4812036Y4780971D01*
X4833755Y4793511D01*
X4851490Y4811245D01*
X4864029Y4832965D01*
X4870477Y4857029D01*
D02*
G37*
G36*
X4359937D02*
X4277430D01*
Y4774523D01*
X4301496Y4780971D01*
X4323215Y4793511D01*
X4340950Y4811245D01*
X4353489Y4832965D01*
X4359937Y4857029D01*
D02*
G37*
G36*
X4097175Y4232115D02*
X4079191D01*
X4061820Y4227460D01*
X4046246Y4218468D01*
X4033529Y4205752D01*
X4024538Y4190178D01*
X4019883Y4172807D01*
Y4154823D01*
X4024538Y4137452D01*
X4033529Y4121878D01*
X4046246Y4109161D01*
X4061820Y4100170D01*
X4079191Y4095515D01*
X4097175D01*
X4114545Y4100170D01*
X4130120Y4109161D01*
X4142836Y4121878D01*
X4151828Y4137452D01*
X4156483Y4154823D01*
Y4172807D01*
X4151828Y4190178D01*
X4142836Y4205752D01*
X4130120Y4218468D01*
X4114545Y4227460D01*
X4097175Y4232115D01*
D02*
G37*
G36*
X3658496Y4221091D02*
X3640513D01*
X3623142Y4216437D01*
X3607568Y4207445D01*
X3594851Y4194728D01*
X3585859Y4179154D01*
X3581205Y4161783D01*
Y4143799D01*
X3585859Y4126429D01*
X3594851Y4110854D01*
X3607568Y4098138D01*
X3623142Y4089146D01*
X3640513Y4084491D01*
X3658496D01*
X3675867Y4089146D01*
X3691441Y4098138D01*
X3704158Y4110854D01*
X3713150Y4126429D01*
X3717804Y4143799D01*
Y4161783D01*
X3713150Y4179154D01*
X3704158Y4194728D01*
X3691441Y4207445D01*
X3675867Y4216437D01*
X3658496Y4221091D01*
D02*
G37*
G36*
X5396451Y4075000D02*
X5232500Y4075000D01*
X5200000Y4042500D01*
Y3960020D01*
X5227528Y3932492D01*
X5406426D01*
X5437892Y3963958D01*
Y4033566D01*
X5396451Y4075000D01*
D02*
G37*
G36*
X5087176Y3969173D02*
X5069192D01*
X5051821Y3964519D01*
X5036247Y3955527D01*
X5023530Y3942810D01*
X5014539Y3927236D01*
X5009884Y3909865D01*
Y3891881D01*
X5014539Y3874511D01*
X5023530Y3858936D01*
X5036247Y3846220D01*
X5042143Y3842816D01*
Y3828151D01*
X5036247Y3824747D01*
X5023530Y3812031D01*
X5014539Y3796456D01*
X5009884Y3779086D01*
Y3761102D01*
X5014539Y3743731D01*
X5023530Y3728157D01*
X5036247Y3715440D01*
X5051821Y3706449D01*
X5069192Y3701794D01*
X5087176D01*
X5104547Y3706449D01*
X5120121Y3715440D01*
X5132837Y3728157D01*
X5141829Y3743731D01*
X5146484Y3761102D01*
Y3779086D01*
X5141829Y3796456D01*
X5132837Y3812031D01*
X5120121Y3824747D01*
X5114225Y3828151D01*
Y3842816D01*
X5120121Y3846220D01*
X5132837Y3858936D01*
X5141829Y3874511D01*
X5146484Y3891881D01*
Y3909865D01*
X5141829Y3927236D01*
X5132837Y3942810D01*
X5120121Y3955527D01*
X5104547Y3964519D01*
X5087176Y3969173D01*
D02*
G37*
G36*
X5406426Y3743842D02*
X5227528D01*
X5200000Y3716314D01*
Y3633834D01*
X5232500Y3601334D01*
X5396450Y3601334D01*
X5401066Y3590546D01*
X5404756Y3576776D01*
X5413748Y3561202D01*
X5426464Y3548485D01*
X5442038Y3539493D01*
X5459409Y3534839D01*
X5477393D01*
X5494764Y3539493D01*
X5510338Y3548485D01*
X5523054Y3561202D01*
X5532046Y3576776D01*
X5536701Y3594147D01*
Y3612130D01*
X5532046Y3629501D01*
X5523054Y3645076D01*
X5510338Y3657792D01*
X5494764Y3666784D01*
X5477393Y3671438D01*
X5459409D01*
X5450593Y3669076D01*
X5437892Y3678392D01*
Y3712376D01*
X5406426Y3743842D01*
D02*
G37*
G36*
X4352943Y3742359D02*
X4334959D01*
X4317588Y3737704D01*
X4302014Y3728712D01*
X4289297Y3715996D01*
X4280306Y3700421D01*
X4275651Y3683051D01*
Y3665067D01*
X4280306Y3647696D01*
X4289297Y3632122D01*
X4302014Y3619405D01*
X4305119Y3617613D01*
X4306380Y3611984D01*
X4305899Y3602497D01*
X4295312Y3591911D01*
X4286320Y3576337D01*
X4281666Y3558966D01*
Y3540982D01*
X4286320Y3523611D01*
X4295312Y3508037D01*
X4308028Y3495320D01*
X4323603Y3486329D01*
X4340974Y3481674D01*
X4358957D01*
X4376328Y3486329D01*
X4391902Y3495320D01*
X4404619Y3508037D01*
X4413611Y3523611D01*
X4418265Y3540982D01*
Y3558966D01*
X4413611Y3576337D01*
X4404619Y3591911D01*
X4391902Y3604627D01*
X4388797Y3606420D01*
X4387536Y3612049D01*
X4388018Y3621535D01*
X4398604Y3632122D01*
X4407596Y3647696D01*
X4412251Y3665067D01*
Y3683051D01*
X4407596Y3700421D01*
X4398604Y3715996D01*
X4385888Y3728712D01*
X4370314Y3737704D01*
X4352943Y3742359D01*
D02*
G37*
G36*
X3856284Y3440195D02*
X3838300D01*
X3820929Y3435540D01*
X3805355Y3426549D01*
X3792639Y3413832D01*
X3783647Y3398258D01*
X3778992Y3380887D01*
Y3362903D01*
X3783647Y3345533D01*
X3792639Y3329958D01*
X3805355Y3317242D01*
X3820929Y3308250D01*
X3838300Y3303595D01*
X3856284D01*
X3873655Y3308250D01*
X3879210Y3311457D01*
X3890819Y3314810D01*
X3895765Y3307249D01*
X3900308Y3299380D01*
X3913025Y3286663D01*
X3928599Y3277672D01*
X3945970Y3273017D01*
X3963953D01*
X3981324Y3277672D01*
X3996899Y3286663D01*
X4009615Y3299380D01*
X4018607Y3314954D01*
X4023261Y3332325D01*
Y3350309D01*
X4018607Y3367680D01*
X4009615Y3383254D01*
X3996899Y3395970D01*
X3981324Y3404962D01*
X3963953Y3409617D01*
X3945970D01*
X3928599Y3404962D01*
X3923044Y3401755D01*
X3911435Y3398402D01*
X3906489Y3405963D01*
X3901945Y3413832D01*
X3889229Y3426549D01*
X3873655Y3435540D01*
X3856284Y3440195D01*
D02*
G37*
G36*
X7398701Y1874917D02*
X7380718D01*
X7363347Y1870262D01*
X7347772Y1861270D01*
X7335056Y1848554D01*
X7326064Y1832980D01*
X7321410Y1815609D01*
Y1797625D01*
X7326064Y1780254D01*
X7335056Y1764680D01*
X7347772Y1751963D01*
X7363347Y1742972D01*
X7380718Y1738317D01*
X7398701D01*
X7416072Y1742972D01*
X7431646Y1751963D01*
X7444363Y1764680D01*
X7453355Y1780254D01*
X7458009Y1797625D01*
Y1815609D01*
X7453355Y1832980D01*
X7444363Y1848554D01*
X7431646Y1861270D01*
X7416072Y1870262D01*
X7398701Y1874917D01*
D02*
G37*
G36*
X7150479D02*
X7132496D01*
X7115125Y1870262D01*
X7099550Y1861270D01*
X7086834Y1848554D01*
X7077842Y1832980D01*
X7073188Y1815609D01*
Y1797625D01*
X7077842Y1780254D01*
X7086834Y1764680D01*
X7099550Y1751963D01*
X7115125Y1742972D01*
X7132496Y1738317D01*
X7150479D01*
X7167850Y1742972D01*
X7183424Y1751963D01*
X7196141Y1764680D01*
X7205133Y1780254D01*
X7209787Y1797625D01*
Y1815609D01*
X7205133Y1832980D01*
X7196141Y1848554D01*
X7183424Y1861270D01*
X7167850Y1870262D01*
X7150479Y1874917D01*
D02*
G37*
G36*
X3227867Y1786900D02*
X3205933D01*
X3184748Y1781223D01*
X3165753Y1770257D01*
X3150243Y1754747D01*
X3139277Y1735752D01*
X3133600Y1714567D01*
Y1692633D01*
X3139277Y1671447D01*
X3150243Y1652452D01*
X3165753Y1636943D01*
X3184748Y1625976D01*
X3205933Y1620300D01*
X3227867D01*
X3249053Y1625976D01*
X3268048Y1636943D01*
X3283557Y1652452D01*
X3294524Y1671447D01*
X3300200Y1692633D01*
Y1714567D01*
X3294524Y1735752D01*
X3283557Y1754747D01*
X3268048Y1770257D01*
X3249053Y1781223D01*
X3227867Y1786900D01*
D02*
G37*
G36*
X2884967D02*
X2863033D01*
X2841848Y1781223D01*
X2822853Y1770257D01*
X2807343Y1754747D01*
X2796377Y1735752D01*
X2790700Y1714567D01*
Y1692633D01*
X2796377Y1671447D01*
X2807343Y1652452D01*
X2822853Y1636943D01*
X2841848Y1625976D01*
X2863033Y1620300D01*
X2884967D01*
X2906153Y1625976D01*
X2925148Y1636943D01*
X2940657Y1652452D01*
X2951624Y1671447D01*
X2957300Y1692633D01*
Y1714567D01*
X2951624Y1735752D01*
X2940657Y1754747D01*
X2925148Y1770257D01*
X2906153Y1781223D01*
X2884967Y1786900D01*
D02*
G37*
G36*
X2542067D02*
X2520133D01*
X2498948Y1781223D01*
X2479953Y1770257D01*
X2464443Y1754747D01*
X2453477Y1735752D01*
X2447800Y1714567D01*
Y1692633D01*
X2453477Y1671447D01*
X2464443Y1652452D01*
X2479953Y1636943D01*
X2498948Y1625976D01*
X2520133Y1620300D01*
X2542067D01*
X2563253Y1625976D01*
X2582248Y1636943D01*
X2597757Y1652452D01*
X2608724Y1671447D01*
X2614400Y1692633D01*
Y1714567D01*
X2608724Y1735752D01*
X2597757Y1754747D01*
X2582248Y1770257D01*
X2563253Y1781223D01*
X2542067Y1786900D01*
D02*
G37*
G36*
X5454294Y1637888D02*
X5436310D01*
X5418940Y1633233D01*
X5403365Y1624241D01*
X5390649Y1611525D01*
X5381657Y1595950D01*
X5377002Y1578580D01*
Y1560596D01*
X5381657Y1543225D01*
X5390649Y1527651D01*
X5403365Y1514934D01*
X5418940Y1505942D01*
X5436310Y1501288D01*
X5454294D01*
X5471665Y1505942D01*
X5487239Y1514934D01*
X5499956Y1527651D01*
X5508948Y1543225D01*
X5513602Y1560596D01*
Y1578580D01*
X5508948Y1595950D01*
X5499956Y1611525D01*
X5487239Y1624241D01*
X5471665Y1633233D01*
X5454294Y1637888D01*
D02*
G37*
G36*
X6121491Y1605391D02*
X6103507D01*
X6086137Y1600736D01*
X6070562Y1591744D01*
X6057846Y1579028D01*
X6048854Y1563454D01*
X6044199Y1546083D01*
Y1528099D01*
X6048854Y1510728D01*
X6057846Y1495154D01*
X6070562Y1482437D01*
X6086137Y1473446D01*
X6103507Y1468791D01*
X6121491D01*
X6138862Y1473446D01*
X6154436Y1482437D01*
X6167153Y1495154D01*
X6176145Y1510728D01*
X6180799Y1528099D01*
Y1546083D01*
X6176145Y1563454D01*
X6167153Y1579028D01*
X6154436Y1591744D01*
X6138862Y1600736D01*
X6121491Y1605391D01*
D02*
G37*
G36*
X9603732Y1643503D02*
X9573241D01*
X9543790Y1635611D01*
X9517384Y1620366D01*
X9495824Y1598806D01*
X9480578Y1572400D01*
X9472687Y1542948D01*
Y1512458D01*
X9480578Y1483006D01*
X9495824Y1456600D01*
X9517384Y1435040D01*
X9543790Y1419795D01*
X9573241Y1411903D01*
X9603732D01*
X9633184Y1419795D01*
X9659590Y1435040D01*
X9681150Y1456600D01*
X9696395Y1483006D01*
X9704287Y1512458D01*
Y1542948D01*
X9696395Y1572400D01*
X9681150Y1598806D01*
X9659590Y1620366D01*
X9633184Y1635611D01*
X9603732Y1643503D01*
D02*
G37*
G36*
X4901902Y1593454D02*
X4883918D01*
X4866547Y1588800D01*
X4850973Y1579808D01*
X4838256Y1567091D01*
X4829264Y1551517D01*
X4826321Y1540534D01*
X4818636Y1538474D01*
X4803062Y1529483D01*
X4790345Y1516766D01*
X4781353Y1501192D01*
X4776699Y1483821D01*
Y1465837D01*
X4781353Y1448466D01*
X4790345Y1432892D01*
X4803062Y1420176D01*
X4818636Y1411184D01*
X4836007Y1406529D01*
X4853991D01*
X4871361Y1411184D01*
X4886936Y1420176D01*
X4899652Y1432892D01*
X4908644Y1448466D01*
X4911587Y1459450D01*
X4919272Y1461509D01*
X4934847Y1470501D01*
X4947563Y1483218D01*
X4956555Y1498792D01*
X4961210Y1516163D01*
Y1534146D01*
X4956555Y1551517D01*
X4947563Y1567091D01*
X4934847Y1579808D01*
X4919272Y1588800D01*
X4901902Y1593454D01*
D02*
G37*
G36*
X5454076Y1470390D02*
X5436092D01*
X5418721Y1465735D01*
X5403147Y1456743D01*
X5390430Y1444027D01*
X5381439Y1428453D01*
X5376784Y1411082D01*
Y1393098D01*
X5381439Y1375727D01*
X5390430Y1360153D01*
X5403147Y1347436D01*
X5418721Y1338445D01*
X5436092Y1333790D01*
X5454076D01*
X5471447Y1338445D01*
X5487021Y1347436D01*
X5499737Y1360153D01*
X5508729Y1375727D01*
X5513384Y1393098D01*
Y1411082D01*
X5508729Y1428453D01*
X5499737Y1444027D01*
X5487021Y1456743D01*
X5471447Y1465735D01*
X5454076Y1470390D01*
D02*
G37*
G36*
X6119078Y1437888D02*
X6101094D01*
X6083724Y1433233D01*
X6068149Y1424241D01*
X6055433Y1411525D01*
X6046441Y1395951D01*
X6041786Y1378580D01*
Y1360596D01*
X6046441Y1343225D01*
X6055433Y1327651D01*
X6068149Y1314935D01*
X6083724Y1305943D01*
X6101094Y1301288D01*
X6119078D01*
X6136449Y1305943D01*
X6152023Y1314935D01*
X6164740Y1327651D01*
X6173732Y1343225D01*
X6178386Y1360596D01*
Y1378580D01*
X6173732Y1395951D01*
X6164740Y1411525D01*
X6152023Y1424241D01*
X6136449Y1433233D01*
X6119078Y1437888D01*
D02*
G37*
G36*
X3227867Y1444000D02*
X3205933D01*
X3184748Y1438323D01*
X3165753Y1427357D01*
X3150243Y1411847D01*
X3139277Y1392852D01*
X3133600Y1371667D01*
Y1349733D01*
X3139277Y1328547D01*
X3150243Y1309552D01*
X3165753Y1294043D01*
X3184748Y1283076D01*
X3205933Y1277400D01*
X3227867D01*
X3249053Y1283076D01*
X3268048Y1294043D01*
X3283557Y1309552D01*
X3294524Y1328547D01*
X3300200Y1349733D01*
Y1371667D01*
X3294524Y1392852D01*
X3283557Y1411847D01*
X3268048Y1427357D01*
X3249053Y1438323D01*
X3227867Y1444000D01*
D02*
G37*
G36*
X2884967D02*
X2863033D01*
X2841848Y1438323D01*
X2822853Y1427357D01*
X2807343Y1411847D01*
X2796377Y1392852D01*
X2790700Y1371667D01*
Y1349733D01*
X2796377Y1328547D01*
X2807343Y1309552D01*
X2822853Y1294043D01*
X2841848Y1283076D01*
X2863033Y1277400D01*
X2884967D01*
X2906153Y1283076D01*
X2925148Y1294043D01*
X2940657Y1309552D01*
X2951624Y1328547D01*
X2957300Y1349733D01*
Y1371667D01*
X2951624Y1392852D01*
X2940657Y1411847D01*
X2925148Y1427357D01*
X2906153Y1438323D01*
X2884967Y1444000D01*
D02*
G37*
G36*
X2542067D02*
X2520133D01*
X2498948Y1438323D01*
X2479953Y1427357D01*
X2464443Y1411847D01*
X2453477Y1392852D01*
X2447800Y1371667D01*
Y1349733D01*
X2453477Y1328547D01*
X2464443Y1309552D01*
X2479953Y1294043D01*
X2498948Y1283076D01*
X2520133Y1277400D01*
X2542067D01*
X2563253Y1283076D01*
X2582248Y1294043D01*
X2597757Y1309552D01*
X2608724Y1328547D01*
X2614400Y1349733D01*
Y1371667D01*
X2608724Y1392852D01*
X2597757Y1411847D01*
X2582248Y1427357D01*
X2563253Y1438323D01*
X2542067Y1444000D01*
D02*
G37*
G36*
X7505203Y1270788D02*
X7487220D01*
X7469849Y1266133D01*
X7454275Y1257142D01*
X7441558Y1244425D01*
X7432566Y1228851D01*
X7427912Y1211480D01*
Y1193496D01*
X7432566Y1176125D01*
X7441558Y1160551D01*
X7454275Y1147835D01*
X7469849Y1138843D01*
X7487220Y1134188D01*
X7505203D01*
X7522574Y1138843D01*
X7538148Y1147835D01*
X7550865Y1160551D01*
X7559857Y1176125D01*
X7564511Y1193496D01*
Y1211480D01*
X7559857Y1228851D01*
X7550865Y1244425D01*
X7538148Y1257142D01*
X7522574Y1266133D01*
X7505203Y1270788D01*
D02*
G37*
G36*
X7231581D02*
X7213598D01*
X7196227Y1266133D01*
X7180653Y1257142D01*
X7167936Y1244425D01*
X7158944Y1228851D01*
X7154290Y1211480D01*
Y1193496D01*
X7158944Y1176125D01*
X7167936Y1160551D01*
X7180653Y1147835D01*
X7196227Y1138843D01*
X7213598Y1134188D01*
X7231581D01*
X7248952Y1138843D01*
X7264526Y1147835D01*
X7277243Y1160551D01*
X7286235Y1176125D01*
X7290889Y1193496D01*
Y1211480D01*
X7286235Y1228851D01*
X7277243Y1244425D01*
X7264526Y1257142D01*
X7248952Y1266133D01*
X7231581Y1270788D01*
D02*
G37*
G36*
X5593581Y1221126D02*
X5575597D01*
X5558227Y1216471D01*
X5542652Y1207479D01*
X5529936Y1194763D01*
X5520944Y1179189D01*
X5516289Y1161818D01*
Y1143834D01*
X5520944Y1126463D01*
X5529936Y1110889D01*
X5542652Y1098173D01*
X5558227Y1089181D01*
X5575597Y1084526D01*
X5593581D01*
X5610952Y1089181D01*
X5626526Y1098173D01*
X5639243Y1110889D01*
X5648235Y1126463D01*
X5652889Y1143834D01*
Y1161818D01*
X5648235Y1179189D01*
X5639243Y1194763D01*
X5626526Y1207479D01*
X5610952Y1216471D01*
X5593581Y1221126D01*
D02*
G37*
G36*
X5859405Y1218626D02*
X5841422D01*
X5824051Y1213972D01*
X5808477Y1204980D01*
X5795760Y1192264D01*
X5786768Y1176689D01*
X5782114Y1159318D01*
Y1141335D01*
X5786768Y1123964D01*
X5795760Y1108390D01*
X5808477Y1095673D01*
X5824051Y1086681D01*
X5841422Y1082027D01*
X5859405D01*
X5876776Y1086681D01*
X5892350Y1095673D01*
X5905067Y1108390D01*
X5914059Y1123964D01*
X5918713Y1141335D01*
Y1159318D01*
X5914059Y1176689D01*
X5905067Y1192264D01*
X5892350Y1204980D01*
X5876776Y1213972D01*
X5859405Y1218626D01*
D02*
G37*
G36*
X6581903Y1213384D02*
X6563920D01*
X6546549Y1208729D01*
X6530974Y1199738D01*
X6518258Y1187021D01*
X6509266Y1171447D01*
X6504612Y1154076D01*
Y1136092D01*
X6509266Y1118721D01*
X6518258Y1103147D01*
X6530974Y1090431D01*
X6546549Y1081439D01*
X6563920Y1076784D01*
X6581903D01*
X6599274Y1081439D01*
X6614848Y1090431D01*
X6627565Y1103147D01*
X6636557Y1118721D01*
X6641211Y1136092D01*
Y1154076D01*
X6636557Y1171447D01*
X6627565Y1187021D01*
X6614848Y1199738D01*
X6599274Y1208729D01*
X6581903Y1213384D01*
D02*
G37*
G36*
X6318584D02*
X6300600D01*
X6283229Y1208729D01*
X6267655Y1199738D01*
X6254938Y1187021D01*
X6245946Y1171447D01*
X6241292Y1154076D01*
Y1136092D01*
X6245946Y1118721D01*
X6254938Y1103147D01*
X6267655Y1090431D01*
X6283229Y1081439D01*
X6300600Y1076784D01*
X6318584D01*
X6335954Y1081439D01*
X6351529Y1090431D01*
X6364245Y1103147D01*
X6373237Y1118721D01*
X6377891Y1136092D01*
Y1154076D01*
X6373237Y1171447D01*
X6364245Y1187021D01*
X6351529Y1199738D01*
X6335954Y1208729D01*
X6318584Y1213384D01*
D02*
G37*
G36*
X9603732Y1008503D02*
X9573241D01*
X9543790Y1000611D01*
X9517384Y985366D01*
X9495824Y963806D01*
X9480578Y937400D01*
X9472687Y907948D01*
Y877458D01*
X9480578Y848006D01*
X9495824Y821600D01*
X9517384Y800040D01*
X9543790Y784795D01*
X9573241Y776903D01*
X9603732D01*
X9633184Y784795D01*
X9659590Y800040D01*
X9681150Y821600D01*
X9696395Y848006D01*
X9704287Y877458D01*
Y907948D01*
X9696395Y937400D01*
X9681150Y963806D01*
X9659590Y985366D01*
X9633184Y1000611D01*
X9603732Y1008503D01*
D02*
G37*
G36*
X7883654Y753690D02*
X7880470D01*
Y645740D01*
X7988420D01*
Y648924D01*
X7980198Y679609D01*
X7964314Y707121D01*
X7941851Y729584D01*
X7914339Y745468D01*
X7883654Y753690D01*
D02*
G37*
G36*
X7855070D02*
X7851886D01*
X7821201Y745468D01*
X7793689Y729584D01*
X7771226Y707121D01*
X7755342Y679609D01*
X7747120Y648924D01*
Y645740D01*
X7855070D01*
Y753690D01*
D02*
G37*
G36*
X7373114D02*
X7369930D01*
Y645740D01*
X7477880D01*
Y648924D01*
X7469658Y679609D01*
X7453774Y707121D01*
X7431311Y729584D01*
X7403799Y745468D01*
X7373114Y753690D01*
D02*
G37*
G36*
X7344530D02*
X7341346D01*
X7310661Y745468D01*
X7283149Y729584D01*
X7260686Y707121D01*
X7244802Y679609D01*
X7236580Y648924D01*
Y645740D01*
X7344530D01*
Y753690D01*
D02*
G37*
G36*
X6731154D02*
X6727970D01*
Y645740D01*
X6835920D01*
Y648924D01*
X6827698Y679609D01*
X6811814Y707121D01*
X6789351Y729584D01*
X6761839Y745468D01*
X6731154Y753690D01*
D02*
G37*
G36*
X6702570D02*
X6699386D01*
X6668701Y745468D01*
X6641189Y729584D01*
X6618726Y707121D01*
X6602842Y679609D01*
X6594620Y648924D01*
Y645740D01*
X6702570D01*
Y753690D01*
D02*
G37*
G36*
X6220614D02*
X6217430D01*
Y645740D01*
X6325380D01*
Y648924D01*
X6317158Y679609D01*
X6301274Y707121D01*
X6278811Y729584D01*
X6251299Y745468D01*
X6220614Y753690D01*
D02*
G37*
G36*
X6192030D02*
X6188846D01*
X6158161Y745468D01*
X6130649Y729584D01*
X6108186Y707121D01*
X6092302Y679609D01*
X6084080Y648924D01*
Y645740D01*
X6192030D01*
Y753690D01*
D02*
G37*
G36*
X5450884D02*
X5447700D01*
Y645740D01*
X5555650D01*
Y648924D01*
X5547428Y679609D01*
X5531544Y707121D01*
X5509081Y729584D01*
X5481569Y745468D01*
X5450884Y753690D01*
D02*
G37*
G36*
X5422300D02*
X5419116D01*
X5388431Y745468D01*
X5360919Y729584D01*
X5338456Y707121D01*
X5322572Y679609D01*
X5314350Y648924D01*
Y645740D01*
X5422300D01*
Y753690D01*
D02*
G37*
G36*
X4940344D02*
X4937160D01*
Y645740D01*
X5045110D01*
Y648924D01*
X5036888Y679609D01*
X5021004Y707121D01*
X4998541Y729584D01*
X4971029Y745468D01*
X4940344Y753690D01*
D02*
G37*
G36*
X4911760D02*
X4908576D01*
X4877891Y745468D01*
X4850379Y729584D01*
X4827916Y707121D01*
X4812032Y679609D01*
X4803810Y648924D01*
Y645740D01*
X4911760D01*
Y753690D01*
D02*
G37*
G36*
X7988420Y620340D02*
X7880470D01*
Y512390D01*
X7883654D01*
X7914339Y520612D01*
X7941851Y536496D01*
X7964314Y558959D01*
X7980198Y586471D01*
X7988420Y617156D01*
Y620340D01*
D02*
G37*
G36*
X7855070D02*
X7747120D01*
Y617156D01*
X7755342Y586471D01*
X7771226Y558959D01*
X7793689Y536496D01*
X7821201Y520612D01*
X7851886Y512390D01*
X7855070D01*
Y620340D01*
D02*
G37*
G36*
X7477880D02*
X7369930D01*
Y512390D01*
X7373114D01*
X7403799Y520612D01*
X7431311Y536496D01*
X7453774Y558959D01*
X7469658Y586471D01*
X7477880Y617156D01*
Y620340D01*
D02*
G37*
G36*
X7344530D02*
X7236580D01*
Y617156D01*
X7244802Y586471D01*
X7260686Y558959D01*
X7283149Y536496D01*
X7310661Y520612D01*
X7341346Y512390D01*
X7344530D01*
Y620340D01*
D02*
G37*
G36*
X6835920D02*
X6727970D01*
Y512390D01*
X6731154D01*
X6761839Y520612D01*
X6789351Y536496D01*
X6811814Y558959D01*
X6827698Y586471D01*
X6835920Y617156D01*
Y620340D01*
D02*
G37*
G36*
X6702570D02*
X6594620D01*
Y617156D01*
X6602842Y586471D01*
X6618726Y558959D01*
X6641189Y536496D01*
X6668701Y520612D01*
X6699386Y512390D01*
X6702570D01*
Y620340D01*
D02*
G37*
G36*
X6325380D02*
X6217430D01*
Y512390D01*
X6220614D01*
X6251299Y520612D01*
X6278811Y536496D01*
X6301274Y558959D01*
X6317158Y586471D01*
X6325380Y617156D01*
Y620340D01*
D02*
G37*
G36*
X6192030D02*
X6084080D01*
Y617156D01*
X6092302Y586471D01*
X6108186Y558959D01*
X6130649Y536496D01*
X6158161Y520612D01*
X6188846Y512390D01*
X6192030D01*
Y620340D01*
D02*
G37*
G36*
X5555650D02*
X5447700D01*
Y512390D01*
X5450884D01*
X5481569Y520612D01*
X5509081Y536496D01*
X5531544Y558959D01*
X5547428Y586471D01*
X5555650Y617156D01*
Y620340D01*
D02*
G37*
G36*
X5422300D02*
X5314350D01*
Y617156D01*
X5322572Y586471D01*
X5338456Y558959D01*
X5360919Y536496D01*
X5388431Y520612D01*
X5419116Y512390D01*
X5422300D01*
Y620340D01*
D02*
G37*
G36*
X5045110D02*
X4937160D01*
Y512390D01*
X4940344D01*
X4971029Y520612D01*
X4998541Y536496D01*
X5021004Y558959D01*
X5036888Y586471D01*
X5045110Y617156D01*
Y620340D01*
D02*
G37*
G36*
X4911760D02*
X4803810D01*
Y617156D01*
X4812032Y586471D01*
X4827916Y558959D01*
X4850379Y536496D01*
X4877891Y520612D01*
X4908576Y512390D01*
X4911760D01*
Y620340D01*
D02*
G37*
G36*
X3546903Y556169D02*
X3528919D01*
X3511548Y551515D01*
X3495974Y542523D01*
X3483258Y529806D01*
X3474266Y514232D01*
X3469611Y496861D01*
Y478877D01*
X3474266Y461507D01*
X3483258Y445932D01*
X3495974Y433216D01*
X3511548Y424224D01*
X3528919Y419569D01*
X3546903D01*
X3564274Y424224D01*
X3579848Y433216D01*
X3592565Y445932D01*
X3601556Y461507D01*
X3606211Y478877D01*
Y496861D01*
X3601556Y514232D01*
X3592565Y529806D01*
X3579848Y542523D01*
X3564274Y551515D01*
X3546903Y556169D01*
D02*
G37*
G36*
X7629053Y503500D02*
X7595947D01*
X7563970Y494931D01*
X7535300Y478379D01*
X7511891Y454970D01*
X7495339Y426300D01*
X7486770Y394323D01*
Y361217D01*
X7495339Y329240D01*
X7511891Y300570D01*
X7535300Y277161D01*
X7563970Y260608D01*
X7595947Y252040D01*
X7629053D01*
X7661030Y260608D01*
X7689700Y277161D01*
X7713109Y300570D01*
X7729662Y329240D01*
X7738230Y361217D01*
Y394323D01*
X7729662Y426300D01*
X7713109Y454970D01*
X7689700Y478379D01*
X7661030Y494931D01*
X7629053Y503500D01*
D02*
G37*
G36*
X6476553D02*
X6443447D01*
X6411470Y494931D01*
X6382800Y478379D01*
X6359391Y454970D01*
X6342838Y426300D01*
X6334270Y394323D01*
Y361217D01*
X6342838Y329240D01*
X6359391Y300570D01*
X6382800Y277161D01*
X6411470Y260608D01*
X6443447Y252040D01*
X6476553D01*
X6508530Y260608D01*
X6537200Y277161D01*
X6560609Y300570D01*
X6577162Y329240D01*
X6585730Y361217D01*
Y394323D01*
X6577162Y426300D01*
X6560609Y454970D01*
X6537200Y478379D01*
X6508530Y494931D01*
X6476553Y503500D01*
D02*
G37*
G36*
X5196283D02*
X5163177D01*
X5131200Y494931D01*
X5102530Y478379D01*
X5079121Y454970D01*
X5062568Y426300D01*
X5054000Y394323D01*
Y361217D01*
X5062568Y329240D01*
X5079121Y300570D01*
X5102530Y277161D01*
X5131200Y260608D01*
X5163177Y252040D01*
X5196283D01*
X5228260Y260608D01*
X5256930Y277161D01*
X5280339Y300570D01*
X5296892Y329240D01*
X5305460Y361217D01*
Y394323D01*
X5296892Y426300D01*
X5280339Y454970D01*
X5256930Y478379D01*
X5228260Y494931D01*
X5196283Y503500D01*
D02*
G37*
G36*
X7883654Y243150D02*
X7880470D01*
Y135200D01*
X7988420D01*
Y138384D01*
X7980198Y169069D01*
X7964314Y196581D01*
X7941851Y219044D01*
X7914339Y234928D01*
X7883654Y243150D01*
D02*
G37*
G36*
X7855070D02*
X7851886D01*
X7821201Y234928D01*
X7793689Y219044D01*
X7771226Y196581D01*
X7755342Y169069D01*
X7747120Y138384D01*
Y135200D01*
X7855070D01*
Y243150D01*
D02*
G37*
G36*
X7373114D02*
X7369930D01*
Y135200D01*
X7477880D01*
Y138384D01*
X7469658Y169069D01*
X7453774Y196581D01*
X7431311Y219044D01*
X7403799Y234928D01*
X7373114Y243150D01*
D02*
G37*
G36*
X7344530D02*
X7341346D01*
X7310661Y234928D01*
X7283149Y219044D01*
X7260686Y196581D01*
X7244802Y169069D01*
X7236580Y138384D01*
Y135200D01*
X7344530D01*
Y243150D01*
D02*
G37*
G36*
X6731154D02*
X6727970D01*
Y135200D01*
X6835920D01*
Y138384D01*
X6827698Y169069D01*
X6811814Y196581D01*
X6789351Y219044D01*
X6761839Y234928D01*
X6731154Y243150D01*
D02*
G37*
G36*
X6702570D02*
X6699386D01*
X6668701Y234928D01*
X6641189Y219044D01*
X6618726Y196581D01*
X6602842Y169069D01*
X6594620Y138384D01*
Y135200D01*
X6702570D01*
Y243150D01*
D02*
G37*
G36*
X6220614D02*
X6217430D01*
Y135200D01*
X6325380D01*
Y138384D01*
X6317158Y169069D01*
X6301274Y196581D01*
X6278811Y219044D01*
X6251299Y234928D01*
X6220614Y243150D01*
D02*
G37*
G36*
X6192030D02*
X6188846D01*
X6158161Y234928D01*
X6130649Y219044D01*
X6108186Y196581D01*
X6092302Y169069D01*
X6084080Y138384D01*
Y135200D01*
X6192030D01*
Y243150D01*
D02*
G37*
G36*
X5450884D02*
X5447700D01*
Y135200D01*
X5555650D01*
Y138384D01*
X5547428Y169069D01*
X5531544Y196581D01*
X5509081Y219044D01*
X5481569Y234928D01*
X5450884Y243150D01*
D02*
G37*
G36*
X5422300D02*
X5419116D01*
X5388431Y234928D01*
X5360919Y219044D01*
X5338456Y196581D01*
X5322572Y169069D01*
X5314350Y138384D01*
Y135200D01*
X5422300D01*
Y243150D01*
D02*
G37*
G36*
X4940344D02*
X4937160D01*
Y135200D01*
X5045110D01*
Y138384D01*
X5036888Y169069D01*
X5021004Y196581D01*
X4998541Y219044D01*
X4971029Y234928D01*
X4940344Y243150D01*
D02*
G37*
G36*
X4911760D02*
X4908576D01*
X4877891Y234928D01*
X4850379Y219044D01*
X4827916Y196581D01*
X4812032Y169069D01*
X4803810Y138384D01*
Y135200D01*
X4911760D01*
Y243150D01*
D02*
G37*
G36*
X7988420Y109800D02*
X7880470D01*
Y1850D01*
X7883654D01*
X7914339Y10072D01*
X7941851Y25956D01*
X7964314Y48419D01*
X7980198Y75931D01*
X7988420Y106616D01*
Y109800D01*
D02*
G37*
G36*
X7855070D02*
X7747120D01*
Y106616D01*
X7755342Y75931D01*
X7771226Y48419D01*
X7793689Y25956D01*
X7821201Y10072D01*
X7851886Y1850D01*
X7855070D01*
Y109800D01*
D02*
G37*
G36*
X7477880D02*
X7369930D01*
Y1850D01*
X7373114D01*
X7403799Y10072D01*
X7431311Y25956D01*
X7453774Y48419D01*
X7469658Y75931D01*
X7477880Y106616D01*
Y109800D01*
D02*
G37*
G36*
X7344530D02*
X7236580D01*
Y106616D01*
X7244802Y75931D01*
X7260686Y48419D01*
X7283149Y25956D01*
X7310661Y10072D01*
X7341346Y1850D01*
X7344530D01*
Y109800D01*
D02*
G37*
G36*
X6835920D02*
X6727970D01*
Y1850D01*
X6731154D01*
X6761839Y10072D01*
X6789351Y25956D01*
X6811814Y48419D01*
X6827698Y75931D01*
X6835920Y106616D01*
Y109800D01*
D02*
G37*
G36*
X6702570D02*
X6594620D01*
Y106616D01*
X6602842Y75931D01*
X6618726Y48419D01*
X6641189Y25956D01*
X6668701Y10072D01*
X6699386Y1850D01*
X6702570D01*
Y109800D01*
D02*
G37*
G36*
X6325380D02*
X6217430D01*
Y1850D01*
X6220614D01*
X6251299Y10072D01*
X6278811Y25956D01*
X6301274Y48419D01*
X6317158Y75931D01*
X6325380Y106616D01*
Y109800D01*
D02*
G37*
G36*
X6192030D02*
X6084080D01*
Y106616D01*
X6092302Y75931D01*
X6108186Y48419D01*
X6130649Y25956D01*
X6158161Y10072D01*
X6188846Y1850D01*
X6192030D01*
Y109800D01*
D02*
G37*
G36*
X5555650D02*
X5447700D01*
Y1850D01*
X5450884D01*
X5481569Y10072D01*
X5509081Y25956D01*
X5531544Y48419D01*
X5547428Y75931D01*
X5555650Y106616D01*
Y109800D01*
D02*
G37*
G36*
X5422300D02*
X5314350D01*
Y106616D01*
X5322572Y75931D01*
X5338456Y48419D01*
X5360919Y25956D01*
X5388431Y10072D01*
X5419116Y1850D01*
X5422300D01*
Y109800D01*
D02*
G37*
G36*
X5045110D02*
X4937160D01*
Y1850D01*
X4940344D01*
X4971029Y10072D01*
X4998541Y25956D01*
X5021004Y48419D01*
X5036888Y75931D01*
X5045110Y106616D01*
Y109800D01*
D02*
G37*
G36*
X4911760D02*
X4803810D01*
Y106616D01*
X4812032Y75931D01*
X4827916Y48419D01*
X4850379Y25956D01*
X4877891Y10072D01*
X4908576Y1850D01*
X4911760D01*
Y109800D01*
D02*
G37*
G36*
X1965191Y-14601D02*
X1962698D01*
Y-117301D01*
X2065398D01*
Y-114808D01*
X2057534Y-85458D01*
X2042341Y-59144D01*
X2020855Y-37658D01*
X1994541Y-22466D01*
X1965191Y-14601D01*
D02*
G37*
G36*
X1937298D02*
X1934805D01*
X1905455Y-22466D01*
X1879141Y-37658D01*
X1857655Y-59144D01*
X1842463Y-85458D01*
X1834598Y-114808D01*
Y-117301D01*
X1937298D01*
Y-14601D01*
D02*
G37*
G36*
X3800401Y-59600D02*
X3697701D01*
Y-162300D01*
X3800401D01*
Y-59600D01*
D02*
G37*
G36*
X3672301D02*
X3569601D01*
Y-162300D01*
X3672301D01*
Y-59600D01*
D02*
G37*
G36*
X9116598Y-118832D02*
X9086213D01*
X9056863Y-126696D01*
X9039342Y-136812D01*
X9101406Y-198876D01*
X9163470Y-136812D01*
X9145948Y-126696D01*
X9116598Y-118832D01*
D02*
G37*
G36*
X8546450D02*
X8386361D01*
X8466406Y-198876D01*
X8546450Y-118832D01*
D02*
G37*
G36*
X2065398Y-142701D02*
X1962698D01*
Y-245401D01*
X1965191D01*
X1994541Y-237536D01*
X2020855Y-222344D01*
X2042341Y-200858D01*
X2057534Y-174544D01*
X2065398Y-145194D01*
Y-142701D01*
D02*
G37*
G36*
X1937298D02*
X1834598D01*
Y-145194D01*
X1842463Y-174544D01*
X1857655Y-200858D01*
X1879141Y-222344D01*
X1905455Y-237536D01*
X1934805Y-245401D01*
X1937298D01*
Y-142701D01*
D02*
G37*
G36*
X1330243Y-14201D02*
X1299753D01*
X1270301Y-22093D01*
X1243895Y-37338D01*
X1222335Y-58898D01*
X1207090Y-85304D01*
X1199198Y-114756D01*
Y-145246D01*
X1207090Y-174698D01*
X1222335Y-201104D01*
X1243895Y-222664D01*
X1270301Y-237909D01*
X1299753Y-245801D01*
X1330243D01*
X1359695Y-237909D01*
X1386101Y-222664D01*
X1407661Y-201104D01*
X1422906Y-174698D01*
X1430798Y-145246D01*
Y-114756D01*
X1422906Y-85304D01*
X1407661Y-58898D01*
X1386101Y-37338D01*
X1359695Y-22093D01*
X1330243Y-14201D01*
D02*
G37*
G36*
X3800401Y-187700D02*
X3697701D01*
Y-290399D01*
X3800401D01*
Y-187700D01*
D02*
G37*
G36*
X3672301D02*
X3569601D01*
Y-290399D01*
X3672301D01*
Y-187700D01*
D02*
G37*
G36*
X4335246Y-59200D02*
X4304756D01*
X4275304Y-67091D01*
X4248898Y-82337D01*
X4227338Y-103897D01*
X4212093Y-130303D01*
X4204201Y-159754D01*
Y-190245D01*
X4212093Y-219697D01*
X4227338Y-246102D01*
X4248898Y-267663D01*
X4275304Y-282908D01*
X4304756Y-290800D01*
X4335246D01*
X4364698Y-282908D01*
X4391104Y-267663D01*
X4412664Y-246102D01*
X4427909Y-219697D01*
X4435801Y-190245D01*
Y-159754D01*
X4427909Y-130303D01*
X4412664Y-103897D01*
X4391104Y-82337D01*
X4364698Y-67091D01*
X4335246Y-59200D01*
D02*
G37*
G36*
X9003986Y-172167D02*
X8993870Y-189689D01*
X8986006Y-219039D01*
Y-249424D01*
X8993870Y-278774D01*
X9003986Y-296295D01*
X9066050Y-234231D01*
X9003986Y-172167D01*
D02*
G37*
G36*
X9198825D02*
X9136761Y-234231D01*
X9198825Y-296296D01*
X9208941Y-278774D01*
X9216806Y-249424D01*
Y-219039D01*
X9208941Y-189689D01*
X9198825Y-172167D01*
D02*
G37*
G36*
X8351006Y-154187D02*
Y-314276D01*
X8431050Y-234231D01*
X8351006Y-154187D01*
D02*
G37*
G36*
X8581806Y-154187D02*
X8501761Y-234231D01*
X8581806Y-314276D01*
Y-154187D01*
D02*
G37*
G36*
X9101406Y-269587D02*
X9039342Y-331651D01*
X9056863Y-341767D01*
X9086213Y-349631D01*
X9116598D01*
X9145948Y-341767D01*
X9163470Y-331651D01*
X9101406Y-269587D01*
D02*
G37*
G36*
X8466406D02*
X8386361Y-349631D01*
X8546450D01*
X8466406Y-269587D01*
D02*
G37*
%LPD*%
D45*
X3216900Y1703600D02*
D03*
X2874000D02*
D03*
X2531100D02*
D03*
X3216900Y1360700D02*
D03*
X2874000D02*
D03*
X2531100D02*
D03*
D46*
X1032500Y1817500D02*
D03*
Y1306960D02*
D03*
X521960D02*
D03*
Y1817500D02*
D03*
X6715270Y633040D02*
D03*
Y122500D02*
D03*
X6204730D02*
D03*
Y633040D02*
D03*
X7867770D02*
D03*
Y122500D02*
D03*
X7357230D02*
D03*
Y633040D02*
D03*
X1890000Y1843040D02*
D03*
Y1332500D02*
D03*
X1379460D02*
D03*
Y1843040D02*
D03*
X5435000Y633040D02*
D03*
Y122500D02*
D03*
X4924460D02*
D03*
Y633040D02*
D03*
X4775271Y5380270D02*
D03*
D49*
X750001Y797500D02*
D03*
X1492498Y1002499D02*
D03*
X1292499D02*
D03*
X50002Y595001D02*
D03*
X250002D02*
D03*
D50*
X8466406Y-234231D02*
D03*
X3685001Y-175000D02*
D03*
D51*
X9101406Y-234231D02*
D03*
X1949998Y-130001D02*
D03*
X899998Y5075003D02*
D03*
X2295001D02*
D03*
D53*
X5278200Y3800200D02*
D03*
X5354200Y3876200D02*
D03*
X5278200D02*
D03*
X5354200Y3800200D02*
D03*
D54*
X9900000Y5200000D02*
D03*
Y0D02*
D03*
X0D02*
D03*
D55*
X112501Y3098502D02*
D03*
Y2336502D02*
D03*
X882502Y2590502D02*
D03*
X112501Y3666501D02*
D03*
Y4428501D02*
D03*
X882502Y4174501D02*
D03*
D58*
X4016999Y677000D02*
D03*
X8371759Y1196782D02*
D03*
Y1266782D02*
D03*
Y1336782D02*
D03*
X4849104Y3803871D02*
D03*
X4174043Y3426584D02*
D03*
X4549965Y3547314D02*
D03*
X4548204Y4130344D02*
D03*
X4651175D02*
D03*
X4655896Y3547314D02*
D03*
X4849797Y3868829D02*
D03*
X4097502Y2502092D02*
D03*
X4265000D02*
D03*
X7141487Y1951788D02*
D03*
X7389709D02*
D03*
X3995976Y4657319D02*
D03*
X2400000Y4000000D02*
D03*
X2700000D02*
D03*
X2550000Y4150000D02*
D03*
X2850000D02*
D03*
X2400000Y4350000D02*
D03*
X2700000D02*
D03*
X2850000Y4500000D02*
D03*
X2550000D02*
D03*
X5880411Y2990084D02*
D03*
X5569588D02*
D03*
X5027498Y1126001D02*
D03*
X5814999Y568999D02*
D03*
X6980001Y545001D02*
D03*
X8369842Y1984864D02*
D03*
X8369842Y1914864D02*
D03*
X8369841Y2054864D02*
D03*
Y2124864D02*
D03*
X8369841Y2194864D02*
D03*
X8369794Y1544865D02*
D03*
X8369795Y1474865D02*
D03*
X8369794Y1614865D02*
D03*
Y1684865D02*
D03*
X8369793Y1754865D02*
D03*
X8539794Y3616861D02*
D03*
X8539794Y3546862D02*
D03*
X8539793Y3686861D02*
D03*
Y3756861D02*
D03*
X8539793Y3826862D02*
D03*
X8547292Y4082366D02*
D03*
X8547292Y4012367D02*
D03*
X8547291Y4152366D02*
D03*
Y4222366D02*
D03*
X8547291Y4292367D02*
D03*
X1487909Y2474998D02*
D03*
Y2662500D02*
D03*
Y3210002D02*
D03*
Y4492499D02*
D03*
X1523499Y3537500D02*
D03*
X1487909Y3747502D02*
D03*
Y3922498D02*
D03*
X2322912Y709916D02*
D03*
X2670799Y522500D02*
D03*
X2569199D02*
D03*
X2619999Y697760D02*
D03*
Y347240D02*
D03*
X3537911Y633040D02*
D03*
X4016999Y977000D02*
D03*
X3936999D02*
D03*
X4096999D02*
D03*
Y827000D02*
D03*
X3936999D02*
D03*
Y677000D02*
D03*
X4096999D02*
D03*
X4362091Y507498D02*
D03*
X4892910Y1670326D02*
D03*
X5300131Y1569588D02*
D03*
X5299913Y1402090D02*
D03*
X5967328Y1537091D02*
D03*
X5964915Y1369588D02*
D03*
X5584589Y1007655D02*
D03*
X5850413Y1005155D02*
D03*
X7956301Y1288697D02*
D03*
X7664201Y1288703D02*
D03*
X7496212Y1057317D02*
D03*
X7222590D02*
D03*
X6309592Y999913D02*
D03*
X6572911D02*
D03*
X5592500Y1882500D02*
D03*
X5722503D02*
D03*
X6569999D02*
D03*
X6697502D02*
D03*
X6434901Y2604700D02*
D03*
Y2672200D02*
D03*
Y2537200D02*
D03*
X5583798Y2174092D02*
D03*
X2659351Y3060000D02*
D03*
X2580409Y3252502D02*
D03*
X5502704Y3872919D02*
D03*
X5499454Y3800166D02*
D03*
X4865817Y4039347D02*
D03*
Y3624999D02*
D03*
X4184931Y3354368D02*
D03*
X3603185Y3566317D02*
D03*
X3624765Y3371895D02*
D03*
X8371759Y1126782D02*
D03*
Y1056782D02*
D03*
X9855661Y2365633D02*
D03*
Y2435633D02*
D03*
Y2295633D02*
D03*
Y2225633D02*
D03*
Y2155633D02*
D03*
X9855663Y2831136D02*
D03*
Y2901136D02*
D03*
Y2761136D02*
D03*
Y2691136D02*
D03*
Y2621135D02*
D03*
Y3296636D02*
D03*
Y3366636D02*
D03*
Y3226636D02*
D03*
Y3156636D02*
D03*
Y3086635D02*
D03*
Y3762135D02*
D03*
Y3832136D02*
D03*
Y3692136D02*
D03*
Y3622136D02*
D03*
Y3552135D02*
D03*
Y4017635D02*
D03*
Y4087635D02*
D03*
Y4157636D02*
D03*
X4060563Y3841387D02*
D03*
Y3731390D02*
D03*
Y3621388D02*
D03*
X3950561Y3841387D02*
D03*
Y3731390D02*
D03*
Y3621388D02*
D03*
X3840563Y3841387D02*
D03*
Y3731390D02*
D03*
Y3621388D02*
D03*
X9855663Y4297636D02*
D03*
Y4227635D02*
D03*
X5811378Y4935765D02*
D03*
X6475003Y2154998D02*
D03*
X7079599Y-299998D02*
D03*
X4250977Y4061316D02*
D03*
X4318480Y3981316D02*
D03*
X125796Y949999D02*
D03*
X3600681Y3471319D02*
D03*
X3603185Y3808819D02*
D03*
Y3908819D02*
D03*
Y3706315D02*
D03*
X3925978Y4188819D02*
D03*
Y4098816D02*
D03*
X6169228Y3958398D02*
D03*
X6041725D02*
D03*
X5918159D02*
D03*
X6294226D02*
D03*
X5668304D02*
D03*
X5793231D02*
D03*
X6542791D02*
D03*
X6417863D02*
D03*
X6667718D02*
D03*
X6792645D02*
D03*
%TF.MD5,1eb6b9d7bfb42aa40f9d770ea0a1b085*%
M02*
