%TF.GenerationSoftware,Altium Limited,Altium Designer,22.0.2 (36)*%
G04 Layer_Color=65280*
%FSLAX45Y45*%
%MOMM*%
%TF.SameCoordinates,A85A4143-1F01-4578-B965-72C63468A48A*%
%TF.FilePolarity,Positive*%
%TF.FileFunction,Paste,Top*%
%TF.Part,Single*%
G01*
G75*
%TA.AperFunction,SMDPad,CuDef*%
%ADD10R,1.01600X3.50520*%
%ADD11R,10.49000X8.38000*%
%ADD12R,0.95822X1.00650*%
%ADD13R,1.00650X0.95822*%
%ADD14R,0.57247X0.66535*%
%ADD15R,1.80315X3.60415*%
%ADD16O,0.80000X0.20000*%
%ADD17R,1.60000X3.00000*%
%ADD18R,5.80000X6.20000*%
G04:AMPARAMS|DCode=19|XSize=0.86mm|YSize=0.26mm|CornerRadius=0.0325mm|HoleSize=0mm|Usage=FLASHONLY|Rotation=270.000|XOffset=0mm|YOffset=0mm|HoleType=Round|Shape=RoundedRectangle|*
%AMROUNDEDRECTD19*
21,1,0.86000,0.19500,0,0,270.0*
21,1,0.79500,0.26000,0,0,270.0*
1,1,0.06500,-0.09750,-0.39750*
1,1,0.06500,-0.09750,0.39750*
1,1,0.06500,0.09750,0.39750*
1,1,0.06500,0.09750,-0.39750*
%
%ADD19ROUNDEDRECTD19*%
%ADD20R,0.65000X0.65000*%
G04:AMPARAMS|DCode=21|XSize=0.86mm|YSize=0.26mm|CornerRadius=0.0325mm|HoleSize=0mm|Usage=FLASHONLY|Rotation=0.000|XOffset=0mm|YOffset=0mm|HoleType=Round|Shape=RoundedRectangle|*
%AMROUNDEDRECTD21*
21,1,0.86000,0.19500,0,0,0.0*
21,1,0.79500,0.26000,0,0,0.0*
1,1,0.06500,0.39750,-0.09750*
1,1,0.06500,-0.39750,-0.09750*
1,1,0.06500,-0.39750,0.09750*
1,1,0.06500,0.39750,0.09750*
%
%ADD21ROUNDEDRECTD21*%
%ADD22O,0.20000X0.80000*%
%ADD23R,1.65000X1.35000*%
%ADD24R,3.20000X7.00000*%
G04:AMPARAMS|DCode=25|XSize=1mm|YSize=1.42mm|CornerRadius=0.125mm|HoleSize=0mm|Usage=FLASHONLY|Rotation=90.000|XOffset=0mm|YOffset=0mm|HoleType=Round|Shape=RoundedRectangle|*
%AMROUNDEDRECTD25*
21,1,1.00000,1.17000,0,0,90.0*
21,1,0.75000,1.42000,0,0,90.0*
1,1,0.25000,0.58500,0.37500*
1,1,0.25000,0.58500,-0.37500*
1,1,0.25000,-0.58500,-0.37500*
1,1,0.25000,-0.58500,0.37500*
%
%ADD25ROUNDEDRECTD25*%
%ADD26R,0.65000X0.65000*%
G04:AMPARAMS|DCode=27|XSize=1.21mm|YSize=0.59mm|CornerRadius=0.1475mm|HoleSize=0mm|Usage=FLASHONLY|Rotation=90.000|XOffset=0mm|YOffset=0mm|HoleType=Round|Shape=RoundedRectangle|*
%AMROUNDEDRECTD27*
21,1,1.21000,0.29500,0,0,90.0*
21,1,0.91500,0.59000,0,0,90.0*
1,1,0.29500,0.14750,0.45750*
1,1,0.29500,0.14750,-0.45750*
1,1,0.29500,-0.14750,-0.45750*
1,1,0.29500,-0.14750,0.45750*
%
%ADD27ROUNDEDRECTD27*%
%ADD28R,2.70000X1.00000*%
G04:AMPARAMS|DCode=29|XSize=1mm|YSize=1.42mm|CornerRadius=0.125mm|HoleSize=0mm|Usage=FLASHONLY|Rotation=0.000|XOffset=0mm|YOffset=0mm|HoleType=Round|Shape=RoundedRectangle|*
%AMROUNDEDRECTD29*
21,1,1.00000,1.17000,0,0,0.0*
21,1,0.75000,1.42000,0,0,0.0*
1,1,0.25000,0.37500,-0.58500*
1,1,0.25000,-0.37500,-0.58500*
1,1,0.25000,-0.37500,0.58500*
1,1,0.25000,0.37500,0.58500*
%
%ADD29ROUNDEDRECTD29*%
%ADD30R,3.30000X3.30000*%
%ADD32R,0.66535X0.57247*%
%ADD33C,1.01600*%
%ADD34R,1.95506X0.62213*%
G04:AMPARAMS|DCode=35|XSize=1.95506mm|YSize=0.62213mm|CornerRadius=0.31107mm|HoleSize=0mm|Usage=FLASHONLY|Rotation=0.000|XOffset=0mm|YOffset=0mm|HoleType=Round|Shape=RoundedRectangle|*
%AMROUNDEDRECTD35*
21,1,1.95506,0.00000,0,0,0.0*
21,1,1.33293,0.62213,0,0,0.0*
1,1,0.62213,0.66646,0.00000*
1,1,0.62213,-0.66646,0.00000*
1,1,0.62213,-0.66646,0.00000*
1,1,0.62213,0.66646,0.00000*
%
%ADD35ROUNDEDRECTD35*%
%ADD36R,0.71120X0.39370*%
G36*
X5263204Y3785167D02*
Y3891167D01*
X5369204D01*
Y3785167D01*
X5263204D01*
D02*
G37*
D10*
X3128000Y522500D02*
D03*
X2620000D02*
D03*
D11*
X2874000Y1449600D02*
D03*
D12*
X4265000Y2552417D02*
D03*
Y2697588D02*
D03*
X4097502Y2552417D02*
D03*
Y2697588D02*
D03*
X2275001Y855087D02*
D03*
Y709916D02*
D03*
X4335978Y3391146D02*
D03*
Y3536317D02*
D03*
X5632500Y1152826D02*
D03*
Y1007655D02*
D03*
X5802502Y1150327D02*
D03*
Y1005155D02*
D03*
X7189398Y1951788D02*
D03*
Y1806617D02*
D03*
X7341798Y1951788D02*
D03*
Y1806617D02*
D03*
X7448301Y1057317D02*
D03*
Y1202488D02*
D03*
X7270501Y1057317D02*
D03*
Y1202488D02*
D03*
X6525000Y999913D02*
D03*
Y1145084D02*
D03*
X6357503Y999913D02*
D03*
Y1145084D02*
D03*
X4844999Y1525154D02*
D03*
Y1670326D02*
D03*
X3490000Y487869D02*
D03*
Y633040D02*
D03*
X5832500Y2990084D02*
D03*
Y2844913D02*
D03*
X5617499Y2990084D02*
D03*
Y2844913D02*
D03*
D13*
X4865817Y3916741D02*
D03*
X5010988D02*
D03*
X2709677Y3060000D02*
D03*
X2854848D02*
D03*
X2384912Y3252502D02*
D03*
X2530083D02*
D03*
X6110086Y1417499D02*
D03*
X5964915D02*
D03*
X6112499Y1585002D02*
D03*
X5967328D02*
D03*
X5445302Y1617499D02*
D03*
X5300131D02*
D03*
X5445084Y1450001D02*
D03*
X5299913D02*
D03*
X4412416Y507498D02*
D03*
X4557588D02*
D03*
X1437584Y2474998D02*
D03*
X1292412D02*
D03*
X1437584Y2662500D02*
D03*
X1292412D02*
D03*
Y3210002D02*
D03*
X1437584D02*
D03*
Y3747502D02*
D03*
X1292412D02*
D03*
X1437584Y3922498D02*
D03*
X1292412D02*
D03*
X1437584Y4492499D02*
D03*
X1292412D02*
D03*
X3651796Y3323984D02*
D03*
X3796967D02*
D03*
X4865817Y4087258D02*
D03*
X5010988D02*
D03*
Y3577088D02*
D03*
X4865817D02*
D03*
Y3749590D02*
D03*
X5010988D02*
D03*
D14*
X4545908Y3583348D02*
D03*
Y3664059D02*
D03*
X4657033Y3995438D02*
D03*
Y4076149D02*
D03*
Y3583348D02*
D03*
Y3664059D02*
D03*
X4545908Y3871095D02*
D03*
Y3790379D02*
D03*
X4657033Y3871095D02*
D03*
Y3790379D02*
D03*
X4545908Y4076149D02*
D03*
Y3995438D02*
D03*
D15*
X8459952Y1617501D02*
D03*
X8459999Y2057500D02*
D03*
X8870099D02*
D03*
X9355405Y3689500D02*
D03*
X9765505D02*
D03*
X8870055Y1199418D02*
D03*
X8459952D02*
D03*
X9355404Y2292998D02*
D03*
X9765503D02*
D03*
X9355405Y2758500D02*
D03*
X9765505D02*
D03*
X9355405Y3224000D02*
D03*
X9765505D02*
D03*
X9047552Y3689497D02*
D03*
X8637454D02*
D03*
X9047552Y4155002D02*
D03*
X8637449D02*
D03*
X9355405Y4155000D02*
D03*
X9765505D02*
D03*
X8870050Y1617501D02*
D03*
D16*
X4205561Y3806391D02*
D03*
Y3856389D02*
D03*
X3695560Y3556389D02*
D03*
Y3906391D02*
D03*
Y3856389D02*
D03*
Y3806391D02*
D03*
Y3756389D02*
D03*
Y3706391D02*
D03*
Y3656389D02*
D03*
Y3606392D02*
D03*
X4205561Y3556389D02*
D03*
Y3606392D02*
D03*
Y3656389D02*
D03*
Y3706391D02*
D03*
Y3756389D02*
D03*
Y3906391D02*
D03*
D17*
X2852501Y3537500D02*
D03*
X2396500D02*
D03*
X4473000Y827000D02*
D03*
X4016999D02*
D03*
D18*
X2624500Y4255502D02*
D03*
X4245000Y1545002D02*
D03*
D19*
X5291206Y3694665D02*
D03*
X5391205D02*
D03*
X5341203D02*
D03*
X5241203D02*
D03*
X5291206Y3981670D02*
D03*
X5341203D02*
D03*
X5391205D02*
D03*
X5241203D02*
D03*
D20*
X4975905Y3435168D02*
D03*
X5267106Y3558668D02*
D03*
X5075905Y4230000D02*
D03*
X4975905D02*
D03*
X5482203Y4174999D02*
D03*
X5582203D02*
D03*
X5289707Y4285002D02*
D03*
X5189707D02*
D03*
X5367106Y3558668D02*
D03*
X5075905Y3435168D02*
D03*
X5287208Y3392501D02*
D03*
X5187203D02*
D03*
X5482203Y3499999D02*
D03*
X5582203D02*
D03*
X6100201Y2982398D02*
D03*
X6200200D02*
D03*
X6100201Y1830904D02*
D03*
X6200200D02*
D03*
X5884600Y2260200D02*
D03*
X5784601D02*
D03*
X5884600Y2361800D02*
D03*
X5784601D02*
D03*
X6200200Y2214734D02*
D03*
X6100201D02*
D03*
X6200200Y2342679D02*
D03*
X6100201D02*
D03*
X6200200Y2598569D02*
D03*
X6100201D02*
D03*
X6200200Y2470624D02*
D03*
X6100201D02*
D03*
X6200200Y2854458D02*
D03*
X6100201D02*
D03*
X6200200Y2726513D02*
D03*
X6100201D02*
D03*
X6200200Y2086789D02*
D03*
X6100201D02*
D03*
X6200200Y1958849D02*
D03*
X6100201D02*
D03*
X5884600Y2476100D02*
D03*
X5784601D02*
D03*
X5885398Y2145900D02*
D03*
X5785398D02*
D03*
X5885398Y2590400D02*
D03*
X5785398D02*
D03*
X5366207Y4130168D02*
D03*
X5266207D02*
D03*
D21*
X5172704Y3813166D02*
D03*
X5459704Y3913166D02*
D03*
Y3863169D02*
D03*
Y3813166D02*
D03*
Y3763169D02*
D03*
X5172704D02*
D03*
Y3913166D02*
D03*
Y3863169D02*
D03*
D22*
X3775560Y3476389D02*
D03*
X3825562D02*
D03*
X3875559D02*
D03*
X4125561Y3986391D02*
D03*
X4075559D02*
D03*
X4025562D02*
D03*
X3975559D02*
D03*
X3925562D02*
D03*
X3875559D02*
D03*
X3825562D02*
D03*
X3775560D02*
D03*
X3925562Y3476389D02*
D03*
X3975559D02*
D03*
X4025562D02*
D03*
X4075559D02*
D03*
X4125561D02*
D03*
D23*
X7312400Y3004699D02*
D03*
Y2404701D02*
D03*
X6517401D02*
D03*
Y3004699D02*
D03*
X7312400Y2804700D02*
D03*
Y2604700D02*
D03*
X6517401Y2804700D02*
D03*
Y2604700D02*
D03*
X8650000Y3255001D02*
D03*
Y2655002D02*
D03*
X7855000D02*
D03*
Y3255001D02*
D03*
X8650000Y3055002D02*
D03*
Y2855002D02*
D03*
X7855000Y3055002D02*
D03*
Y2855002D02*
D03*
D24*
X6823903Y2704700D02*
D03*
X8161502Y2955002D02*
D03*
D25*
X5027498Y1076001D02*
D03*
Y889001D02*
D03*
X5302498D02*
D03*
Y1076001D02*
D03*
X5814999Y805999D02*
D03*
Y618999D02*
D03*
X6070000Y1101000D02*
D03*
Y914000D02*
D03*
X6980001Y595001D02*
D03*
Y782001D02*
D03*
Y978999D02*
D03*
Y1165998D02*
D03*
X7619999Y2674002D02*
D03*
Y2861001D02*
D03*
X3995976Y4420319D02*
D03*
Y4607319D02*
D03*
D26*
X6314998Y1850000D02*
D03*
Y1750000D02*
D03*
X6442501Y1850000D02*
D03*
Y1750000D02*
D03*
X6569999D02*
D03*
Y1850000D02*
D03*
X6697502Y1750000D02*
D03*
Y1850000D02*
D03*
X7956301Y2108598D02*
D03*
Y2208602D02*
D03*
Y1867298D02*
D03*
Y1967302D02*
D03*
X7664201Y1867298D02*
D03*
Y1967302D02*
D03*
Y1625998D02*
D03*
Y1726002D02*
D03*
X7956301Y1625998D02*
D03*
Y1726002D02*
D03*
Y1321198D02*
D03*
Y1421202D02*
D03*
X7664201D02*
D03*
Y1321203D02*
D03*
X5982502Y1750000D02*
D03*
Y1850000D02*
D03*
X5852500D02*
D03*
Y1750000D02*
D03*
X5722503D02*
D03*
Y1850000D02*
D03*
X5592500Y1750000D02*
D03*
Y1850000D02*
D03*
X6542130Y3887502D02*
D03*
Y3787502D02*
D03*
X6042426Y3887502D02*
D03*
Y3787502D02*
D03*
X5792576Y3887502D02*
D03*
Y3787502D02*
D03*
X6292281Y3887502D02*
D03*
Y3787502D02*
D03*
X6417208Y3887502D02*
D03*
Y3787502D02*
D03*
X6667058Y3887502D02*
D03*
Y3787502D02*
D03*
X6791985D02*
D03*
Y3887502D02*
D03*
X5667649D02*
D03*
Y3787502D02*
D03*
X6167353D02*
D03*
Y3887502D02*
D03*
X5917498Y3787502D02*
D03*
Y3887502D02*
D03*
X7664201Y2108598D02*
D03*
Y2208602D02*
D03*
D27*
X7264399Y1372699D02*
D03*
X7359401D02*
D03*
X7454402D02*
D03*
Y1623701D02*
D03*
X7264399D02*
D03*
X6262502Y1615502D02*
D03*
X6452499D02*
D03*
Y1364499D02*
D03*
X6357503D02*
D03*
X6262502D02*
D03*
X5627502Y1615502D02*
D03*
X5817499D02*
D03*
Y1364499D02*
D03*
X5722503D02*
D03*
X5627502D02*
D03*
D28*
X1369588Y3044999D02*
D03*
Y2824999D02*
D03*
Y4292500D02*
D03*
Y4072500D02*
D03*
D29*
X1286499Y3537500D02*
D03*
X1473499D02*
D03*
X3547478Y4436316D02*
D03*
X3734478D02*
D03*
D30*
X3950561Y3731390D02*
D03*
D32*
X5406852Y4287501D02*
D03*
X5487563D02*
D03*
X5413639Y3390002D02*
D03*
X5494350D02*
D03*
D33*
X5815000Y5045000D02*
D03*
X6382501Y2157498D02*
D03*
X6357823Y2406651D02*
D03*
X2719999Y-110001D02*
D03*
X3600002Y1552500D02*
D03*
X6214998Y3424998D02*
D03*
X7004598Y-299998D02*
D03*
X50800Y947500D02*
D03*
X3039998Y3160000D02*
D03*
D34*
X4617684Y2586199D02*
D03*
D35*
Y2459199D02*
D03*
Y2332199D02*
D03*
Y2205199D02*
D03*
X5583798D02*
D03*
Y2332199D02*
D03*
Y2459199D02*
D03*
Y2586199D02*
D03*
D36*
X5992500Y2657425D02*
D03*
Y2587575D02*
D03*
%TF.MD5,8f69091c59767a6dc1ad5b7ff3843241*%
M02*
