%TF.GenerationSoftware,Altium Limited,Altium Designer,22.0.2 (36)*%
G04 Layer_Color=128*
%FSLAX45Y45*%
%MOMM*%
%TF.SameCoordinates,A85A4143-1F01-4578-B965-72C63468A48A*%
%TF.FilePolarity,Positive*%
%TF.FileFunction,Drillmap*%
%TF.Part,Single*%
G01*
G75*
%TA.AperFunction,NonConductor*%
%ADD70C,0.12700*%
D70*
X3199400Y1703600D02*
X3234400D01*
X3216900Y1686100D02*
Y1721100D01*
X2856500Y1703600D02*
X2891500D01*
X2874000Y1686100D02*
Y1721100D01*
X2513600Y1703600D02*
X2548600D01*
X2531100Y1686100D02*
Y1721100D01*
X3199400Y1360700D02*
X3234400D01*
X3216900Y1343200D02*
Y1378200D01*
X2856500Y1360700D02*
X2891500D01*
X2874000Y1343200D02*
Y1378200D01*
X2513600Y1360700D02*
X2548600D01*
X2531100Y1343200D02*
Y1378200D01*
X957500Y1817500D02*
X1107500D01*
X1032500Y1742500D02*
Y1892500D01*
X962650Y1306960D02*
X1102350D01*
X1032500Y1237110D02*
Y1376810D01*
X452110Y1306960D02*
X591810D01*
X521960Y1237110D02*
Y1376810D01*
X452110Y1817500D02*
X591810D01*
X521960Y1747650D02*
Y1887350D01*
X702300Y1562230D02*
X852160D01*
X777230Y1487300D02*
Y1637160D01*
X6640270Y633040D02*
X6790270D01*
X6715270Y558040D02*
Y708040D01*
X6645420Y122500D02*
X6785120D01*
X6715270Y52650D02*
Y192350D01*
X6134880Y122500D02*
X6274580D01*
X6204730Y52650D02*
Y192350D01*
X6134880Y633040D02*
X6274580D01*
X6204730Y563190D02*
Y702890D01*
X6385070Y377770D02*
X6534930D01*
X6460000Y302840D02*
Y452700D01*
X7792770Y633040D02*
X7942770D01*
X7867770Y558040D02*
Y708040D01*
X7797920Y122500D02*
X7937620D01*
X7867770Y52650D02*
Y192350D01*
X7287380Y122500D02*
X7427080D01*
X7357230Y52650D02*
Y192350D01*
X7287380Y633040D02*
X7427080D01*
X7357230Y563190D02*
Y702890D01*
X7537570Y377770D02*
X7687430D01*
X7612500Y302840D02*
Y452700D01*
X1815000Y1843040D02*
X1965000D01*
X1890000Y1768040D02*
Y1918040D01*
X1820150Y1332500D02*
X1959850D01*
X1890000Y1262650D02*
Y1402350D01*
X1309610Y1332500D02*
X1449310D01*
X1379460Y1262650D02*
Y1402350D01*
X1309610Y1843040D02*
X1449310D01*
X1379460Y1773190D02*
Y1912890D01*
X1559800Y1587770D02*
X1709660D01*
X1634730Y1512840D02*
Y1662700D01*
X5360000Y633040D02*
X5510000D01*
X5435000Y558040D02*
Y708040D01*
X5365150Y122500D02*
X5504850D01*
X5435000Y52650D02*
Y192350D01*
X4854610Y122500D02*
X4994310D01*
X4924460Y52650D02*
Y192350D01*
X4854610Y633040D02*
X4994310D01*
X4924460Y563190D02*
Y702890D01*
X5104800Y377770D02*
X5254660D01*
X5179730Y302840D02*
Y452700D01*
X1697090Y2237503D02*
X1777090D01*
X1737090Y2197503D02*
Y2277502D01*
X1497091Y2237503D02*
X1577091D01*
X1537091Y2197503D02*
Y2277502D01*
X1297091Y2237503D02*
X1377091D01*
X1337091Y2197503D02*
Y2277502D01*
X8920873Y4939243D02*
X9050873D01*
X8985873Y4874243D02*
Y5004243D01*
X8285873Y4939243D02*
X8415873D01*
X8350873Y4874243D02*
Y5004243D01*
X7538377Y4939243D02*
X7668376D01*
X7603376Y4874243D02*
Y5004243D01*
X6903377Y4939243D02*
X7033376D01*
X6968376Y4874243D02*
Y5004243D01*
X9523487Y892703D02*
X9653487D01*
X9588487Y827703D02*
Y957703D01*
X9523487Y1527703D02*
X9653487D01*
X9588487Y1462703D02*
Y1592703D01*
X9036406Y-234231D02*
X9166406D01*
X9101406Y-299231D02*
Y-169232D01*
X5260700Y3800200D02*
X5295700D01*
X5278200Y3782700D02*
Y3817700D01*
X5336700Y3876200D02*
X5371700D01*
X5354200Y3858700D02*
Y3893700D01*
X8401406Y-234231D02*
X8531406D01*
X8466406Y-299231D02*
Y-169232D01*
X9750000Y5200000D02*
X10050000D01*
X9900000Y5050000D02*
Y5350000D01*
X9750000Y0D02*
X10050000D01*
X9900000Y-150000D02*
Y150000D01*
X-150000Y0D02*
X150000D01*
X0Y-150000D02*
Y150000D01*
X-150000Y5200000D02*
X150000D01*
X0Y5050000D02*
Y5350000D01*
X62501Y3098502D02*
X162501D01*
X112501Y3048502D02*
Y3148501D01*
X62501Y2336502D02*
X162501D01*
X112501Y2286502D02*
Y2386501D01*
X832502Y3098502D02*
X932502D01*
X882502Y3048502D02*
Y3148501D01*
X832502Y2844502D02*
X932502D01*
X882502Y2794502D02*
Y2894501D01*
X832502Y2590502D02*
X932502D01*
X882502Y2540502D02*
Y2640501D01*
X832502Y2336502D02*
X932502D01*
X882502Y2286502D02*
Y2386501D01*
X62501Y3666501D02*
X162501D01*
X112501Y3616502D02*
Y3716501D01*
X62501Y4428501D02*
X162501D01*
X112501Y4378502D02*
Y4478501D01*
X832502Y4428501D02*
X932502D01*
X882502Y4378502D02*
Y4478501D01*
X832502Y4174501D02*
X932502D01*
X882502Y4124502D02*
Y4224501D01*
X832502Y3666501D02*
X932502D01*
X882502Y3616502D02*
Y3716501D01*
X4255001Y-175000D02*
X4385001D01*
X4320001Y-240000D02*
Y-110000D01*
X3620001Y-175000D02*
X3750001D01*
X3685001Y-240000D02*
Y-110000D01*
X1249998Y-130001D02*
X1379998D01*
X1314998Y-195001D02*
Y-65001D01*
X1884998Y-130001D02*
X2014998D01*
X1949998Y-195001D02*
Y-65001D01*
X910000Y997500D02*
X990000D01*
X950000Y957500D02*
Y1037500D01*
X910000Y797500D02*
X990000D01*
X950000Y757500D02*
Y837500D01*
X910000Y597501D02*
X990000D01*
X950000Y557501D02*
Y637501D01*
X710001Y597501D02*
X790000D01*
X750001Y557501D02*
Y637501D01*
X710001Y797500D02*
X790000D01*
X750001Y757500D02*
Y837500D01*
X710001Y997500D02*
X790000D01*
X750001Y957500D02*
Y1037500D01*
X1652498Y1002499D02*
X1732498D01*
X1692498Y962499D02*
Y1042499D01*
X1452498Y1002499D02*
X1532498D01*
X1492498Y962499D02*
Y1042499D01*
X1252499Y1002499D02*
X1332499D01*
X1292499Y962499D02*
Y1042499D01*
X834998Y5075003D02*
X964998D01*
X899998Y5010003D02*
Y5140002D01*
X1469998Y5075003D02*
X1599998D01*
X1534998Y5010003D02*
Y5140002D01*
X2230001Y5075003D02*
X2360001D01*
X2295001Y5010003D02*
Y5140002D01*
X2865001Y5075003D02*
X2995001D01*
X2930001Y5010003D02*
Y5140002D01*
X4705421Y4869730D02*
X4845121D01*
X4775271Y4799880D02*
Y4939580D01*
X4194881Y4869730D02*
X4334581D01*
X4264731Y4799880D02*
Y4939580D01*
X4194881Y5380270D02*
X4334581D01*
X4264731Y5310420D02*
Y5450120D01*
X4705421Y5380270D02*
X4845121D01*
X4775271Y5310420D02*
Y5450120D01*
X4445071Y5125000D02*
X4594931D01*
X4520001Y5050070D02*
Y5199930D01*
X5260700Y3876200D02*
X5295700D01*
X5278200Y3858700D02*
Y3893700D01*
X5336700Y3800200D02*
X5371700D01*
X5354200Y3782700D02*
Y3817700D01*
X10002Y595001D02*
X90002D01*
X50002Y555001D02*
Y635001D01*
X210002Y595001D02*
X290001D01*
X250002Y555001D02*
Y635001D01*
X410001Y595001D02*
X490001D01*
X450001Y555001D02*
Y635001D01*
X3999499Y677000D02*
X4034499D01*
X4016999Y659500D02*
Y694500D01*
X8354260Y1196782D02*
X8389259D01*
X8371759Y1179282D02*
Y1214282D01*
X8354260Y1266782D02*
X8389259D01*
X8371759Y1249282D02*
Y1284282D01*
X8354260Y1336782D02*
X8389259D01*
X8371759Y1319283D02*
Y1354282D01*
X4831605Y3803871D02*
X4866604D01*
X4849104Y3786371D02*
Y3821371D01*
X5060684Y3900873D02*
X5095684D01*
X5078184Y3883373D02*
Y3918373D01*
X5060684Y3770094D02*
X5095684D01*
X5078184Y3752594D02*
Y3787594D01*
X3937462Y3341317D02*
X3972461D01*
X3954962Y3323817D02*
Y3358817D01*
X4156544Y3426584D02*
X4191543D01*
X4174043Y3409084D02*
Y3444084D01*
X4326451Y3674059D02*
X4361451D01*
X4343951Y3656559D02*
Y3691559D01*
X4332466Y3549974D02*
X4367465D01*
X4349965Y3532474D02*
Y3567474D01*
X4532465Y3547314D02*
X4567465D01*
X4549965Y3529815D02*
Y3564814D01*
X4530704Y4130344D02*
X4565704D01*
X4548204Y4112844D02*
Y4147844D01*
X4633676Y4130344D02*
X4668675D01*
X4651175Y4112844D02*
Y4147844D01*
X4638396Y3547314D02*
X4673396D01*
X4655896Y3529815D02*
Y3564814D01*
X4832297Y3868829D02*
X4867297D01*
X4849797Y3851329D02*
Y3886329D01*
X4600184Y2174092D02*
X4635184D01*
X4617684Y2156592D02*
Y2191592D01*
X4080002Y2502092D02*
X4115002D01*
X4097502Y2484592D02*
Y2519591D01*
X4247500Y2502092D02*
X4282500D01*
X4265000Y2484592D02*
Y2519591D01*
X7123988Y1951788D02*
X7158987D01*
X7141487Y1934288D02*
Y1969288D01*
X7372210Y1951788D02*
X7407209D01*
X7389709Y1934288D02*
Y1969288D01*
X7123988Y1806617D02*
X7158987D01*
X7141487Y1789117D02*
Y1824117D01*
X7372210Y1806617D02*
X7407209D01*
X7389709Y1789117D02*
Y1824117D01*
X3978476Y4657319D02*
X4013476D01*
X3995976Y4639820D02*
Y4674819D01*
X2382500Y4000000D02*
X2417500D01*
X2400000Y3982500D02*
Y4017500D01*
X2682500Y4000000D02*
X2717500D01*
X2700000Y3982500D02*
Y4017500D01*
X2532500Y4150000D02*
X2567500D01*
X2550000Y4132500D02*
Y4167500D01*
X2832500Y4150000D02*
X2867500D01*
X2850000Y4132500D02*
Y4167500D01*
X2382500Y4350000D02*
X2417500D01*
X2400000Y4332500D02*
Y4367500D01*
X2682500Y4350000D02*
X2717500D01*
X2700000Y4332500D02*
Y4367500D01*
X2832500Y4500000D02*
X2867500D01*
X2850000Y4482500D02*
Y4517500D01*
X2532500Y4500000D02*
X2567500D01*
X2550000Y4482500D02*
Y4517500D01*
X5862911Y2990084D02*
X5897911D01*
X5880411Y2972584D02*
Y3007584D01*
X5552088Y2990084D02*
X5587088D01*
X5569588Y2972584D02*
Y3007584D01*
X5009998Y1126001D02*
X5044998D01*
X5027498Y1108501D02*
Y1143501D01*
X5797499Y568999D02*
X5832499D01*
X5814999Y551499D02*
Y586499D01*
X6962501Y545001D02*
X6997501D01*
X6980001Y527501D02*
Y562501D01*
X8352342Y1984864D02*
X8387341D01*
X8369842Y1967364D02*
Y2002364D01*
X8352342Y1914864D02*
X8387342D01*
X8369842Y1897365D02*
Y1932364D01*
X8352341Y2054864D02*
X8387341D01*
X8369841Y2037364D02*
Y2072364D01*
X8352341Y2124864D02*
X8387341D01*
X8369841Y2107364D02*
Y2142364D01*
X8352341Y2194864D02*
X8387340D01*
X8369841Y2177364D02*
Y2212364D01*
X8352294Y1544865D02*
X8387294D01*
X8369794Y1527365D02*
Y1562365D01*
X8352295Y1474865D02*
X8387294D01*
X8369795Y1457366D02*
Y1492365D01*
X8352294Y1614865D02*
X8387294D01*
X8369794Y1597365D02*
Y1632365D01*
X8352294Y1684865D02*
X8387294D01*
X8369794Y1667365D02*
Y1702365D01*
X8352293Y1754865D02*
X8387293D01*
X8369793Y1737365D02*
Y1772365D01*
X8522294Y3616861D02*
X8557294D01*
X8539794Y3599361D02*
Y3634361D01*
X8522294Y3546862D02*
X8557294D01*
X8539794Y3529362D02*
Y3564362D01*
X8522293Y3686861D02*
X8557293D01*
X8539793Y3669361D02*
Y3704361D01*
X8522293Y3756861D02*
X8557293D01*
X8539793Y3739362D02*
Y3774361D01*
X8522293Y3826862D02*
X8557293D01*
X8539793Y3809362D02*
Y3844361D01*
X8529792Y4082366D02*
X8564792D01*
X8547292Y4064866D02*
Y4099866D01*
X8529792Y4012367D02*
X8564792D01*
X8547292Y3994867D02*
Y4029867D01*
X8529791Y4152366D02*
X8564791D01*
X8547291Y4134867D02*
Y4169866D01*
X8529791Y4222366D02*
X8564791D01*
X8547291Y4204867D02*
Y4239866D01*
X8529791Y4292367D02*
X8564791D01*
X8547291Y4274867D02*
Y4309866D01*
X1470409Y2474998D02*
X1505409D01*
X1487909Y2457498D02*
Y2492497D01*
X1470409Y2662500D02*
X1505409D01*
X1487909Y2645001D02*
Y2680000D01*
X1470409Y3210002D02*
X1505409D01*
X1487909Y3192503D02*
Y3227502D01*
X1470409Y4492499D02*
X1505409D01*
X1487909Y4474999D02*
Y4509999D01*
X1506000Y3537500D02*
X1540999D01*
X1523499Y3520000D02*
Y3555000D01*
X1470409Y3747502D02*
X1505409D01*
X1487909Y3730002D02*
Y3765002D01*
X1470409Y3922498D02*
X1505409D01*
X1487909Y3904998D02*
Y3939998D01*
X2305412Y709916D02*
X2340412D01*
X2322912Y692416D02*
Y727416D01*
X2653299Y522500D02*
X2688299D01*
X2670799Y505000D02*
Y539999D01*
X2551699Y522500D02*
X2586699D01*
X2569199Y505000D02*
Y539999D01*
X2602499Y697760D02*
X2637499D01*
X2619999Y680260D02*
Y715259D01*
X2602499Y347240D02*
X2637499D01*
X2619999Y329740D02*
Y364739D01*
X3520411Y633040D02*
X3555411D01*
X3537911Y615541D02*
Y650540D01*
X3520411Y487869D02*
X3555411D01*
X3537911Y470369D02*
Y505369D01*
X3999499Y977000D02*
X4034499D01*
X4016999Y959500D02*
Y994500D01*
X3919499Y977000D02*
X3954499D01*
X3936999Y959500D02*
Y994500D01*
X4079500Y977000D02*
X4114499D01*
X4096999Y959500D02*
Y994500D01*
X4079500Y827000D02*
X4114499D01*
X4096999Y809500D02*
Y844500D01*
X3919499Y827000D02*
X3954499D01*
X3936999Y809500D02*
Y844500D01*
X3919499Y677000D02*
X3954499D01*
X3936999Y659500D02*
Y694500D01*
X4079500Y677000D02*
X4114499D01*
X4096999Y659500D02*
Y694500D01*
X4344591Y507498D02*
X4379591D01*
X4362091Y489999D02*
Y524998D01*
X4827499Y1474829D02*
X4862499D01*
X4844999Y1457329D02*
Y1492329D01*
X4875410Y1525154D02*
X4910410D01*
X4892910Y1507655D02*
Y1542654D01*
X4875410Y1670326D02*
X4910410D01*
X4892910Y1652826D02*
Y1687825D01*
X5427802Y1569588D02*
X5462802D01*
X5445302Y1552088D02*
Y1587088D01*
X5282631Y1569588D02*
X5317631D01*
X5300131Y1552088D02*
Y1587088D01*
X5282413Y1402090D02*
X5317413D01*
X5299913Y1384590D02*
Y1419590D01*
X5427584Y1402090D02*
X5462584D01*
X5445084Y1384590D02*
Y1419590D01*
X6094999Y1537091D02*
X6129999D01*
X6112499Y1519591D02*
Y1554591D01*
X5949828Y1537091D02*
X5984828D01*
X5967328Y1519591D02*
Y1554591D01*
X6092586Y1369588D02*
X6127586D01*
X6110086Y1352088D02*
Y1387088D01*
X5947415Y1369588D02*
X5982415D01*
X5964915Y1352088D02*
Y1387088D01*
X5832914Y1150327D02*
X5867913D01*
X5850413Y1132827D02*
Y1167826D01*
X5567089Y1152826D02*
X5602089D01*
X5584589Y1135326D02*
Y1170326D01*
X5567089Y1007655D02*
X5602089D01*
X5584589Y990155D02*
Y1025155D01*
X5832914Y1005155D02*
X5867913D01*
X5850413Y987656D02*
Y1022655D01*
X7938801Y1288697D02*
X7973800D01*
X7956301Y1271198D02*
Y1306197D01*
X7646701Y1288703D02*
X7681700D01*
X7664201Y1271203D02*
Y1306202D01*
X7478712Y1057317D02*
X7513711D01*
X7496212Y1039817D02*
Y1074817D01*
X7478712Y1202488D02*
X7513711D01*
X7496212Y1184988D02*
Y1219988D01*
X7205090Y1202488D02*
X7240089D01*
X7222590Y1184988D02*
Y1219988D01*
X7205090Y1057317D02*
X7240089D01*
X7222590Y1039817D02*
Y1074817D01*
X6292092Y1145084D02*
X6327091D01*
X6309592Y1127584D02*
Y1162584D01*
X6292092Y999913D02*
X6327091D01*
X6309592Y982413D02*
Y1017413D01*
X6555412Y999913D02*
X6590411D01*
X6572911Y982413D02*
Y1017413D01*
X6555412Y1145084D02*
X6590411D01*
X6572911Y1127584D02*
Y1162584D01*
X5575001Y1882500D02*
X5610000D01*
X5592500Y1865000D02*
Y1900000D01*
X5705003Y1882500D02*
X5740002D01*
X5722503Y1865000D02*
Y1900000D01*
X6552499Y1882500D02*
X6587499D01*
X6569999Y1865000D02*
Y1900000D01*
X6680002Y1882500D02*
X6715002D01*
X6697502Y1865000D02*
Y1900000D01*
X6417401Y2604700D02*
X6452401D01*
X6434901Y2587200D02*
Y2622200D01*
X6417401Y2672200D02*
X6452401D01*
X6434901Y2654700D02*
Y2689700D01*
X6417401Y2537200D02*
X6452401D01*
X6434901Y2519700D02*
Y2554700D01*
X5566298Y2174092D02*
X5601298D01*
X5583798Y2156592D02*
Y2191592D01*
X2641851Y3060000D02*
X2676851D01*
X2659351Y3042500D02*
Y3077500D01*
X2562909Y3252502D02*
X2597908D01*
X2580409Y3235002D02*
Y3270002D01*
X5485204Y3872919D02*
X5520204D01*
X5502704Y3855419D02*
Y3890418D01*
X5481954Y3800166D02*
X5516954D01*
X5499454Y3782666D02*
Y3817666D01*
X4848317Y4039347D02*
X4883316D01*
X4865817Y4021847D02*
Y4056846D01*
X4848317Y3624999D02*
X4883316D01*
X4865817Y3607500D02*
Y3642499D01*
X4167431Y3354368D02*
X4202431D01*
X4184931Y3336868D02*
Y3371868D01*
X3829792Y3371895D02*
X3864792D01*
X3847292Y3354395D02*
Y3389395D01*
X3585685Y3566317D02*
X3620685D01*
X3603185Y3548817D02*
Y3583817D01*
X3607265Y3371895D02*
X3642265D01*
X3624765Y3354395D02*
Y3389395D01*
X8354260Y1126782D02*
X8389259D01*
X8371759Y1109283D02*
Y1144282D01*
X8354260Y1056782D02*
X8389259D01*
X8371759Y1039282D02*
Y1074282D01*
X9838161Y2365633D02*
X9873160D01*
X9855661Y2348133D02*
Y2383133D01*
X9838161Y2435633D02*
X9873160D01*
X9855661Y2418134D02*
Y2453133D01*
X9838161Y2295633D02*
X9873160D01*
X9855661Y2278134D02*
Y2313133D01*
X9838161Y2225633D02*
X9873160D01*
X9855661Y2208134D02*
Y2243133D01*
X9838161Y2155633D02*
X9873160D01*
X9855661Y2138133D02*
Y2173133D01*
X9838163Y2831136D02*
X9873162D01*
X9855663Y2813636D02*
Y2848635D01*
X9838163Y2901136D02*
X9873162D01*
X9855663Y2883636D02*
Y2918636D01*
X9838163Y2761136D02*
X9873162D01*
X9855663Y2743636D02*
Y2778636D01*
X9838163Y2691136D02*
X9873162D01*
X9855663Y2673636D02*
Y2708635D01*
X9838163Y2621135D02*
X9873162D01*
X9855663Y2603636D02*
Y2638635D01*
X9838163Y3296636D02*
X9873162D01*
X9855663Y3279136D02*
Y3314135D01*
X9838163Y3366636D02*
X9873162D01*
X9855663Y3349136D02*
Y3384135D01*
X9838163Y3226636D02*
X9873162D01*
X9855663Y3209136D02*
Y3244135D01*
X9838163Y3156636D02*
X9873162D01*
X9855663Y3139136D02*
Y3174135D01*
X9838163Y3086635D02*
X9873162D01*
X9855663Y3069136D02*
Y3104135D01*
X9838163Y3762135D02*
X9873162D01*
X9855663Y3744636D02*
Y3779635D01*
X9838163Y3832136D02*
X9873162D01*
X9855663Y3814636D02*
Y3849635D01*
X9838163Y3692136D02*
X9873162D01*
X9855663Y3674636D02*
Y3709635D01*
X9838163Y3622136D02*
X9873162D01*
X9855663Y3604636D02*
Y3639635D01*
X9838163Y3552135D02*
X9873162D01*
X9855663Y3534636D02*
Y3569635D01*
X9838163Y4017635D02*
X9873162D01*
X9855663Y4000136D02*
Y4035135D01*
X9838163Y4087635D02*
X9873162D01*
X9855663Y4070136D02*
Y4105135D01*
X9838163Y4157636D02*
X9873162D01*
X9855663Y4140136D02*
Y4175135D01*
X4043063Y3841387D02*
X4078063D01*
X4060563Y3823887D02*
Y3858887D01*
X4043063Y3731390D02*
X4078063D01*
X4060563Y3713890D02*
Y3748890D01*
X4043063Y3621388D02*
X4078063D01*
X4060563Y3603888D02*
Y3638888D01*
X3933061Y3841387D02*
X3968060D01*
X3950561Y3823887D02*
Y3858887D01*
X3933061Y3731390D02*
X3968060D01*
X3950561Y3713890D02*
Y3748890D01*
X3933061Y3621388D02*
X3968060D01*
X3950561Y3603888D02*
Y3638888D01*
X3823063Y3841387D02*
X3858063D01*
X3840563Y3823887D02*
Y3858887D01*
X3823063Y3731390D02*
X3858063D01*
X3840563Y3713890D02*
Y3748890D01*
X3823063Y3621388D02*
X3858063D01*
X3840563Y3603888D02*
Y3638888D01*
X9838163Y4297636D02*
X9873162D01*
X9855663Y4280136D02*
Y4315135D01*
X9838163Y4227635D02*
X9873162D01*
X9855663Y4210136D02*
Y4245135D01*
X5793878Y4935765D02*
X5828878D01*
X5811378Y4918265D02*
Y4953265D01*
X6457503Y2154998D02*
X6492503D01*
X6475003Y2137498D02*
Y2172498D01*
X7062099Y-299998D02*
X7097099D01*
X7079599Y-317498D02*
Y-282498D01*
X4233477Y4061316D02*
X4268476D01*
X4250977Y4043816D02*
Y4078816D01*
X4300980Y3981316D02*
X4335979D01*
X4318480Y3963816D02*
Y3998816D01*
X4070683Y4163815D02*
X4105683D01*
X4088183Y4146315D02*
Y4181315D01*
X3632005Y4152791D02*
X3667004D01*
X3649505Y4135291D02*
Y4170291D01*
X108296Y949999D02*
X143296D01*
X125796Y932500D02*
Y967499D01*
X5450901Y3603139D02*
X5485901D01*
X5468401Y3585639D02*
Y3620638D01*
X3583181Y3471319D02*
X3618180D01*
X3600681Y3453820D02*
Y3488819D01*
X3585685Y3808819D02*
X3620685D01*
X3603185Y3791320D02*
Y3826319D01*
X3585685Y3908819D02*
X3620685D01*
X3603185Y3891319D02*
Y3926319D01*
X3585685Y3706315D02*
X3620685D01*
X3603185Y3688815D02*
Y3723815D01*
X3908479Y4188819D02*
X3943478D01*
X3925978Y4171319D02*
Y4206318D01*
X3908479Y4098816D02*
X3943478D01*
X3925978Y4081316D02*
Y4116316D01*
X6151728Y3958398D02*
X6186728D01*
X6169228Y3940898D02*
Y3975898D01*
X6024225Y3958398D02*
X6059225D01*
X6041725Y3940898D02*
Y3975898D01*
X5900659Y3958398D02*
X5935659D01*
X5918159Y3940898D02*
Y3975898D01*
X6276726Y3958398D02*
X6311726D01*
X6294226Y3940898D02*
Y3975898D01*
X5650804Y3958398D02*
X5685804D01*
X5668304Y3940898D02*
Y3975898D01*
X5775732Y3958398D02*
X5810731D01*
X5793231Y3940898D02*
Y3975898D01*
X6525291Y3958398D02*
X6560290D01*
X6542791Y3940898D02*
Y3975898D01*
X6400363Y3958398D02*
X6435363D01*
X6417863Y3940898D02*
Y3975898D01*
X6650218Y3958398D02*
X6685218D01*
X6667718Y3940898D02*
Y3975898D01*
X6775145Y3958398D02*
X6810145D01*
X6792645Y3940898D02*
Y3975898D01*
%TF.MD5,0eb047df39b0302b798dd9ce76ee0b62*%
M02*
