G04*
G04 #@! TF.GenerationSoftware,Altium Limited,Altium Designer,22.0.2 (36)*
G04*
G04 Layer_Color=255*
%FSLAX44Y44*%
%MOMM*%
G71*
G04*
G04 #@! TF.SameCoordinates,A00C5D83-CF48-4284-9485-F4BE2AF80D81*
G04*
G04*
G04 #@! TF.FilePolarity,Positive*
G04*
G01*
G75*
%ADD17R,1.0160X3.5052*%
%ADD18R,10.4900X8.3800*%
%ADD19R,0.9582X1.0065*%
%ADD20R,1.0065X0.9582*%
%ADD21R,0.5725X0.6654*%
%ADD22R,1.8032X3.6042*%
%ADD23O,0.8000X0.2000*%
%ADD24R,1.6000X3.0000*%
%ADD25R,5.8000X6.2000*%
G04:AMPARAMS|DCode=26|XSize=0.86mm|YSize=0.26mm|CornerRadius=0.0325mm|HoleSize=0mm|Usage=FLASHONLY|Rotation=270.000|XOffset=0mm|YOffset=0mm|HoleType=Round|Shape=RoundedRectangle|*
%AMROUNDEDRECTD26*
21,1,0.8600,0.1950,0,0,270.0*
21,1,0.7950,0.2600,0,0,270.0*
1,1,0.0650,-0.0975,-0.3975*
1,1,0.0650,-0.0975,0.3975*
1,1,0.0650,0.0975,0.3975*
1,1,0.0650,0.0975,-0.3975*
%
%ADD26ROUNDEDRECTD26*%
%ADD27R,0.6500X0.6500*%
G04:AMPARAMS|DCode=28|XSize=0.86mm|YSize=0.26mm|CornerRadius=0.0325mm|HoleSize=0mm|Usage=FLASHONLY|Rotation=0.000|XOffset=0mm|YOffset=0mm|HoleType=Round|Shape=RoundedRectangle|*
%AMROUNDEDRECTD28*
21,1,0.8600,0.1950,0,0,0.0*
21,1,0.7950,0.2600,0,0,0.0*
1,1,0.0650,0.3975,-0.0975*
1,1,0.0650,-0.3975,-0.0975*
1,1,0.0650,-0.3975,0.0975*
1,1,0.0650,0.3975,0.0975*
%
%ADD28ROUNDEDRECTD28*%
%ADD29O,0.2000X0.8000*%
%ADD30R,1.6500X1.3500*%
%ADD31R,3.2000X7.0000*%
G04:AMPARAMS|DCode=32|XSize=1mm|YSize=1.42mm|CornerRadius=0.125mm|HoleSize=0mm|Usage=FLASHONLY|Rotation=90.000|XOffset=0mm|YOffset=0mm|HoleType=Round|Shape=RoundedRectangle|*
%AMROUNDEDRECTD32*
21,1,1.0000,1.1700,0,0,90.0*
21,1,0.7500,1.4200,0,0,90.0*
1,1,0.2500,0.5850,0.3750*
1,1,0.2500,0.5850,-0.3750*
1,1,0.2500,-0.5850,-0.3750*
1,1,0.2500,-0.5850,0.3750*
%
%ADD32ROUNDEDRECTD32*%
%ADD33R,0.6500X0.6500*%
G04:AMPARAMS|DCode=34|XSize=1.21mm|YSize=0.59mm|CornerRadius=0.1475mm|HoleSize=0mm|Usage=FLASHONLY|Rotation=90.000|XOffset=0mm|YOffset=0mm|HoleType=Round|Shape=RoundedRectangle|*
%AMROUNDEDRECTD34*
21,1,1.2100,0.2950,0,0,90.0*
21,1,0.9150,0.5900,0,0,90.0*
1,1,0.2950,0.1475,0.4575*
1,1,0.2950,0.1475,-0.4575*
1,1,0.2950,-0.1475,-0.4575*
1,1,0.2950,-0.1475,0.4575*
%
%ADD34ROUNDEDRECTD34*%
%ADD35R,2.7000X1.0000*%
G04:AMPARAMS|DCode=36|XSize=1mm|YSize=1.42mm|CornerRadius=0.125mm|HoleSize=0mm|Usage=FLASHONLY|Rotation=0.000|XOffset=0mm|YOffset=0mm|HoleType=Round|Shape=RoundedRectangle|*
%AMROUNDEDRECTD36*
21,1,1.0000,1.1700,0,0,0.0*
21,1,0.7500,1.4200,0,0,0.0*
1,1,0.2500,0.3750,-0.5850*
1,1,0.2500,-0.3750,-0.5850*
1,1,0.2500,-0.3750,0.5850*
1,1,0.2500,0.3750,0.5850*
%
%ADD36ROUNDEDRECTD36*%
%ADD37R,3.3000X3.3000*%
%ADD38R,0.6654X0.5725*%
%ADD39C,1.0160*%
%ADD40R,1.9551X0.6221*%
G04:AMPARAMS|DCode=41|XSize=1.9551mm|YSize=0.6221mm|CornerRadius=0.3111mm|HoleSize=0mm|Usage=FLASHONLY|Rotation=0.000|XOffset=0mm|YOffset=0mm|HoleType=Round|Shape=RoundedRectangle|*
%AMROUNDEDRECTD41*
21,1,1.9551,0.0000,0,0,0.0*
21,1,1.3329,0.6221,0,0,0.0*
1,1,0.6221,0.6665,0.0000*
1,1,0.6221,-0.6665,0.0000*
1,1,0.6221,-0.6665,0.0000*
1,1,0.6221,0.6665,0.0000*
%
%ADD41ROUNDEDRECTD41*%
%ADD42R,0.7112X0.3937*%
%ADD59C,1.9050*%
%ADD61R,1.3000X1.3000*%
%ADD62C,1.3000*%
%ADD67C,1.5500*%
%ADD68R,1.5500X1.5500*%
%ADD69R,1.3000X1.3000*%
%ADD70R,1.6800X1.6800*%
%ADD78C,0.6500*%
%ADD79C,2.0066*%
%ADD80R,1.8000X1.8000*%
%ADD81C,1.8000*%
%ADD82R,1.8000X1.8000*%
%ADD83C,0.7000*%
%ADD84C,4.0000*%
D17*
X312800Y52250D02*
D03*
X262000D02*
D03*
D18*
X287400Y144960D02*
D03*
D19*
X426500Y255242D02*
D03*
Y269759D02*
D03*
X409750Y255242D02*
D03*
Y269759D02*
D03*
X227500Y85509D02*
D03*
Y70992D02*
D03*
X433598Y339115D02*
D03*
Y353632D02*
D03*
X563250Y115283D02*
D03*
Y100765D02*
D03*
X580250Y115033D02*
D03*
Y100515D02*
D03*
X718940Y195179D02*
D03*
Y180662D02*
D03*
X734180Y195179D02*
D03*
Y180662D02*
D03*
X744830Y105732D02*
D03*
Y120249D02*
D03*
X727050Y105732D02*
D03*
Y120249D02*
D03*
X652500Y99991D02*
D03*
Y114508D02*
D03*
X635750Y99991D02*
D03*
Y114508D02*
D03*
X484500Y152515D02*
D03*
Y167033D02*
D03*
X349000Y48787D02*
D03*
Y63304D02*
D03*
X583250Y299008D02*
D03*
Y284491D02*
D03*
X561750Y299008D02*
D03*
Y284491D02*
D03*
D20*
X486582Y391674D02*
D03*
X501099D02*
D03*
X270968Y306000D02*
D03*
X285485D02*
D03*
X238491Y325250D02*
D03*
X253008D02*
D03*
X611009Y141750D02*
D03*
X596492D02*
D03*
X611250Y158500D02*
D03*
X596733D02*
D03*
X544530Y161750D02*
D03*
X530013D02*
D03*
X544508Y145000D02*
D03*
X529991D02*
D03*
X441242Y50750D02*
D03*
X455759D02*
D03*
X143758Y247500D02*
D03*
X129241D02*
D03*
X143758Y266250D02*
D03*
X129241D02*
D03*
Y321000D02*
D03*
X143758D02*
D03*
Y374750D02*
D03*
X129241D02*
D03*
X143758Y392250D02*
D03*
X129241D02*
D03*
X143758Y449250D02*
D03*
X129241D02*
D03*
X365180Y332398D02*
D03*
X379697D02*
D03*
X486582Y408726D02*
D03*
X501099D02*
D03*
Y357709D02*
D03*
X486582D02*
D03*
Y374959D02*
D03*
X501099D02*
D03*
D21*
X454591Y358335D02*
D03*
Y366406D02*
D03*
X465703Y399544D02*
D03*
Y407615D02*
D03*
Y358335D02*
D03*
Y366406D02*
D03*
X454591Y387109D02*
D03*
Y379038D02*
D03*
X465703Y387109D02*
D03*
Y379038D02*
D03*
X454591Y407615D02*
D03*
Y399544D02*
D03*
D22*
X845995Y161750D02*
D03*
X846000Y205750D02*
D03*
X887010D02*
D03*
X935540Y368950D02*
D03*
X976551D02*
D03*
X887005Y119942D02*
D03*
X845995D02*
D03*
X935540Y229300D02*
D03*
X976550D02*
D03*
X935540Y275850D02*
D03*
X976551D02*
D03*
X935540Y322400D02*
D03*
X976551D02*
D03*
X904755Y368950D02*
D03*
X863745D02*
D03*
X904755Y415500D02*
D03*
X863745D02*
D03*
X935540Y415500D02*
D03*
X976551D02*
D03*
X887005Y161750D02*
D03*
D23*
X420556Y380639D02*
D03*
Y385639D02*
D03*
X369556Y355639D02*
D03*
Y390639D02*
D03*
Y385639D02*
D03*
Y380639D02*
D03*
Y375639D02*
D03*
Y370639D02*
D03*
Y365639D02*
D03*
Y360639D02*
D03*
X420556Y355639D02*
D03*
Y360639D02*
D03*
Y365639D02*
D03*
Y370639D02*
D03*
Y375639D02*
D03*
Y390639D02*
D03*
D24*
X285250Y353750D02*
D03*
X239650D02*
D03*
X447300Y82700D02*
D03*
X401700D02*
D03*
D25*
X262450Y425550D02*
D03*
X424500Y154500D02*
D03*
D26*
X529121Y369467D02*
D03*
X539120D02*
D03*
X534120D02*
D03*
X524120D02*
D03*
X529121Y398167D02*
D03*
X534120D02*
D03*
X539120D02*
D03*
X524120D02*
D03*
D27*
X497590Y343517D02*
D03*
X526711Y355867D02*
D03*
X507590Y423000D02*
D03*
X497590D02*
D03*
X548220Y417500D02*
D03*
X558220D02*
D03*
X528971Y428500D02*
D03*
X518971D02*
D03*
X536711Y355867D02*
D03*
X507590Y343517D02*
D03*
X528721Y339250D02*
D03*
X518720D02*
D03*
X548220Y350000D02*
D03*
X558220D02*
D03*
X610020Y298240D02*
D03*
X620020D02*
D03*
X610020Y183090D02*
D03*
X620020D02*
D03*
X588460Y226020D02*
D03*
X578460D02*
D03*
X588460Y236180D02*
D03*
X578460D02*
D03*
X620020Y221473D02*
D03*
X610020D02*
D03*
X620020Y234268D02*
D03*
X610020D02*
D03*
X620020Y259857D02*
D03*
X610020D02*
D03*
X620020Y247062D02*
D03*
X610020D02*
D03*
X620020Y285446D02*
D03*
X610020D02*
D03*
X620020Y272651D02*
D03*
X610020D02*
D03*
X620020Y208679D02*
D03*
X610020D02*
D03*
X620020Y195885D02*
D03*
X610020D02*
D03*
X588460Y247610D02*
D03*
X578460D02*
D03*
X588540Y214590D02*
D03*
X578540D02*
D03*
X588540Y259040D02*
D03*
X578540D02*
D03*
X536621Y413017D02*
D03*
X526621D02*
D03*
D28*
X517270Y381317D02*
D03*
X545970Y391317D02*
D03*
Y386317D02*
D03*
Y381317D02*
D03*
Y376317D02*
D03*
X517270D02*
D03*
Y391317D02*
D03*
Y386317D02*
D03*
D29*
X377556Y347639D02*
D03*
X382556D02*
D03*
X387556D02*
D03*
X412556Y398639D02*
D03*
X407556D02*
D03*
X402556D02*
D03*
X397556D02*
D03*
X392556D02*
D03*
X387556D02*
D03*
X382556D02*
D03*
X377556D02*
D03*
X392556Y347639D02*
D03*
X397556D02*
D03*
X402556D02*
D03*
X407556D02*
D03*
X412556D02*
D03*
D30*
X731240Y300470D02*
D03*
Y240470D02*
D03*
X651740D02*
D03*
Y300470D02*
D03*
X731240Y280470D02*
D03*
Y260470D02*
D03*
X651740Y280470D02*
D03*
Y260470D02*
D03*
X865000Y325500D02*
D03*
Y265500D02*
D03*
X785500D02*
D03*
Y325500D02*
D03*
X865000Y305500D02*
D03*
Y285500D02*
D03*
X785500Y305500D02*
D03*
Y285500D02*
D03*
D31*
X682390Y270470D02*
D03*
X816150Y295500D02*
D03*
D32*
X502750Y107600D02*
D03*
Y88900D02*
D03*
X530250D02*
D03*
Y107600D02*
D03*
X581500Y80600D02*
D03*
Y61900D02*
D03*
X607000Y110100D02*
D03*
Y91400D02*
D03*
X698000Y59500D02*
D03*
Y78200D02*
D03*
Y97900D02*
D03*
Y116600D02*
D03*
X762000Y267400D02*
D03*
Y286100D02*
D03*
X399598Y442032D02*
D03*
Y460732D02*
D03*
D33*
X631500Y185000D02*
D03*
Y175000D02*
D03*
X644250Y185000D02*
D03*
Y175000D02*
D03*
X657000D02*
D03*
Y185000D02*
D03*
X669750Y175000D02*
D03*
Y185000D02*
D03*
X795630Y210860D02*
D03*
Y220860D02*
D03*
Y186730D02*
D03*
Y196730D02*
D03*
X766420Y186730D02*
D03*
Y196730D02*
D03*
Y162600D02*
D03*
Y172600D02*
D03*
X795630Y162600D02*
D03*
Y172600D02*
D03*
Y132120D02*
D03*
Y142120D02*
D03*
X766420D02*
D03*
Y132120D02*
D03*
X598250Y175000D02*
D03*
Y185000D02*
D03*
X585250D02*
D03*
Y175000D02*
D03*
X572250D02*
D03*
Y185000D02*
D03*
X559250Y175000D02*
D03*
Y185000D02*
D03*
X654213Y388750D02*
D03*
Y378750D02*
D03*
X604243Y388750D02*
D03*
Y378750D02*
D03*
X579258Y388750D02*
D03*
Y378750D02*
D03*
X629228Y388750D02*
D03*
Y378750D02*
D03*
X641721Y388750D02*
D03*
Y378750D02*
D03*
X666706Y388750D02*
D03*
Y378750D02*
D03*
X679199D02*
D03*
Y388750D02*
D03*
X566765D02*
D03*
Y378750D02*
D03*
X616735D02*
D03*
Y388750D02*
D03*
X591750Y378750D02*
D03*
Y388750D02*
D03*
X766420Y210860D02*
D03*
Y220860D02*
D03*
D34*
X726440Y137270D02*
D03*
X735940D02*
D03*
X745440D02*
D03*
Y162370D02*
D03*
X726440D02*
D03*
X626250Y161550D02*
D03*
X645250D02*
D03*
Y136450D02*
D03*
X635750D02*
D03*
X626250D02*
D03*
X562750Y161550D02*
D03*
X581750D02*
D03*
Y136450D02*
D03*
X572250D02*
D03*
X562750D02*
D03*
D35*
X136959Y304500D02*
D03*
Y282500D02*
D03*
Y429250D02*
D03*
Y407250D02*
D03*
D36*
X128650Y353750D02*
D03*
X147350D02*
D03*
X354748Y443632D02*
D03*
X373448D02*
D03*
D37*
X395056Y373139D02*
D03*
D38*
X540685Y428750D02*
D03*
X548756D02*
D03*
X541364Y339000D02*
D03*
X549435D02*
D03*
D39*
X581500Y504500D02*
D03*
X638250Y215750D02*
D03*
X635782Y240665D02*
D03*
X272000Y-11000D02*
D03*
X360000Y155250D02*
D03*
X621500Y342500D02*
D03*
X700460Y-30000D02*
D03*
X5080Y94750D02*
D03*
X304000Y316000D02*
D03*
D40*
X461768Y258620D02*
D03*
D41*
Y245920D02*
D03*
Y233220D02*
D03*
Y220520D02*
D03*
X558380D02*
D03*
Y233220D02*
D03*
Y245920D02*
D03*
Y258620D02*
D03*
D42*
X599250Y265742D02*
D03*
Y258757D02*
D03*
D59*
X103250Y181750D02*
D03*
Y130696D02*
D03*
X52196D02*
D03*
Y181750D02*
D03*
X671527Y63304D02*
D03*
Y12250D02*
D03*
X620473D02*
D03*
Y63304D02*
D03*
X786777D02*
D03*
Y12250D02*
D03*
X735723D02*
D03*
Y63304D02*
D03*
X189000Y184304D02*
D03*
Y133250D02*
D03*
X137946D02*
D03*
Y184304D02*
D03*
X543500Y63304D02*
D03*
Y12250D02*
D03*
X492446D02*
D03*
Y63304D02*
D03*
X477527Y486973D02*
D03*
X426473D02*
D03*
Y538027D02*
D03*
X477527D02*
D03*
D61*
X173709Y223750D02*
D03*
X169250Y100250D02*
D03*
X45000Y59500D02*
D03*
D62*
X153709Y223750D02*
D03*
X133709D02*
D03*
X95000Y99750D02*
D03*
Y79750D02*
D03*
X75000Y59750D02*
D03*
Y79750D02*
D03*
X149250Y100250D02*
D03*
X129250D02*
D03*
X5000Y59500D02*
D03*
X25000D02*
D03*
D67*
X11250Y309850D02*
D03*
Y233650D02*
D03*
X88250Y309850D02*
D03*
Y284450D02*
D03*
Y259050D02*
D03*
X11250Y366650D02*
D03*
Y442850D02*
D03*
X88250D02*
D03*
Y417450D02*
D03*
D68*
Y233650D02*
D03*
Y366650D02*
D03*
D69*
X95000Y59750D02*
D03*
X75000Y99750D02*
D03*
D70*
X531620Y383816D02*
D03*
D78*
X321690Y170360D02*
D03*
X287400D02*
D03*
X253110D02*
D03*
X321690Y136070D02*
D03*
X287400D02*
D03*
X253110D02*
D03*
D79*
X77723Y156223D02*
D03*
X646000Y37777D02*
D03*
X761250D02*
D03*
X163473Y158777D02*
D03*
X517973Y37777D02*
D03*
X452000Y512500D02*
D03*
D80*
X898587Y493924D02*
D03*
X760338D02*
D03*
X846641Y-23423D02*
D03*
X368500Y-17500D02*
D03*
X131500Y-13000D02*
D03*
X153500Y507500D02*
D03*
X293000D02*
D03*
D81*
X835087Y493924D02*
D03*
X696838D02*
D03*
X958849Y152770D02*
D03*
X910141Y-23423D02*
D03*
X432000Y-17500D02*
D03*
X195000Y-13000D02*
D03*
X90000Y507500D02*
D03*
X229500D02*
D03*
D82*
X958849Y89270D02*
D03*
D83*
X527820Y380020D02*
D03*
X535420Y387620D02*
D03*
X527820D02*
D03*
X535420Y380020D02*
D03*
D84*
X990000Y520000D02*
D03*
Y0D02*
D03*
X0D02*
D03*
Y520000D02*
D03*
M02*
