G04*
G04 #@! TF.GenerationSoftware,Altium Limited,Altium Designer,22.0.2 (36)*
G04*
G04 Layer_Physical_Order=3*
G04 Layer_Color=16440176*
%FSLAX44Y44*%
%MOMM*%
G71*
G04*
G04 #@! TF.SameCoordinates,A00C5D83-CF48-4284-9485-F4BE2AF80D81*
G04*
G04*
G04 #@! TF.FilePolarity,Positive*
G04*
G01*
G75*
%ADD13C,0.2540*%
%ADD78C,0.6500*%
G36*
X935330Y560030D02*
X948030Y547330D01*
Y157136D01*
X947269Y154295D01*
Y151246D01*
X948030Y148404D01*
Y93636D01*
X947269Y90795D01*
Y87746D01*
X948030Y84904D01*
Y-16500D01*
X927594Y-35003D01*
X916750Y-44820D01*
X240070Y-44821D01*
X206526Y-11277D01*
X205791Y-8530D01*
X205080Y-7300D01*
Y553680D01*
X208890Y561300D01*
X935330D01*
Y560030D01*
D02*
G37*
%LPC*%
G36*
X479115Y550092D02*
X475939D01*
X472870Y549270D01*
X470119Y547681D01*
X467873Y545435D01*
X466284Y542684D01*
X465462Y539615D01*
Y536439D01*
X466284Y533370D01*
X467873Y530619D01*
X470119Y528373D01*
X472870Y526784D01*
X475939Y525962D01*
X479115D01*
X482184Y526784D01*
X484935Y528373D01*
X487182Y530619D01*
X488770Y533370D01*
X489592Y536439D01*
Y539615D01*
X488770Y542684D01*
X487182Y545435D01*
X484935Y547681D01*
X482184Y549270D01*
X479115Y550092D01*
D02*
G37*
G36*
X428061D02*
X424885D01*
X421816Y549270D01*
X419065Y547681D01*
X416819Y545435D01*
X415230Y542684D01*
X414408Y539615D01*
Y536439D01*
X415230Y533370D01*
X416819Y530619D01*
X419065Y528373D01*
X421816Y526784D01*
X424885Y525962D01*
X428061D01*
X431130Y526784D01*
X433881Y528373D01*
X436128Y530619D01*
X437716Y533370D01*
X438538Y536439D01*
Y539615D01*
X437716Y542684D01*
X436128Y545435D01*
X433881Y547681D01*
X431130Y549270D01*
X428061Y550092D01*
D02*
G37*
G36*
X453655Y525073D02*
X450345D01*
X447147Y524216D01*
X444280Y522561D01*
X441939Y520220D01*
X440284Y517353D01*
X439427Y514155D01*
Y510845D01*
X440284Y507647D01*
X441939Y504780D01*
X444280Y502439D01*
X447147Y500784D01*
X450345Y499927D01*
X453655D01*
X456853Y500784D01*
X459720Y502439D01*
X462061Y504780D01*
X463716Y507647D01*
X464573Y510845D01*
Y514155D01*
X463716Y517353D01*
X462061Y520220D01*
X459720Y522561D01*
X456853Y524216D01*
X453655Y525073D01*
D02*
G37*
G36*
X294525Y519080D02*
X291476D01*
X288530Y518291D01*
X285890Y516767D01*
X283734Y514610D01*
X282209Y511970D01*
X281420Y509025D01*
Y505976D01*
X282209Y503031D01*
X283734Y500390D01*
X285890Y498234D01*
X288530Y496709D01*
X291476Y495920D01*
X294525D01*
X297470Y496709D01*
X300110Y498234D01*
X302266Y500390D01*
X303791Y503031D01*
X304580Y505976D01*
Y509025D01*
X303791Y511970D01*
X302266Y514610D01*
X300110Y516767D01*
X297470Y518291D01*
X294525Y519080D01*
D02*
G37*
G36*
X231025D02*
X227976D01*
X225030Y518291D01*
X222390Y516767D01*
X220234Y514610D01*
X218709Y511970D01*
X217920Y509025D01*
Y505976D01*
X218709Y503031D01*
X220234Y500390D01*
X222390Y498234D01*
X225030Y496709D01*
X227976Y495920D01*
X231025D01*
X233970Y496709D01*
X236610Y498234D01*
X238766Y500390D01*
X240291Y503031D01*
X241080Y505976D01*
Y509025D01*
X240291Y511970D01*
X238766Y514610D01*
X236610Y516767D01*
X233970Y518291D01*
X231025Y519080D01*
D02*
G37*
G36*
X582037Y500406D02*
X580239D01*
X578502Y499941D01*
X576944Y499042D01*
X575672Y497770D01*
X574773Y496213D01*
X574308Y494476D01*
Y492677D01*
X574773Y490940D01*
X575672Y489383D01*
X576944Y488111D01*
X578502Y487212D01*
X580239Y486746D01*
X582037D01*
X583774Y487212D01*
X585331Y488111D01*
X586603Y489383D01*
X587502Y490940D01*
X587968Y492677D01*
Y494476D01*
X587502Y496213D01*
X586603Y497770D01*
X585331Y499042D01*
X583774Y499941D01*
X582037Y500406D01*
D02*
G37*
G36*
X900112Y505504D02*
X897063D01*
X894118Y504715D01*
X891477Y503191D01*
X889321Y501035D01*
X887796Y498394D01*
X887007Y495449D01*
Y492400D01*
X887796Y489455D01*
X889321Y486814D01*
X891477Y484658D01*
X894118Y483134D01*
X897063Y482344D01*
X900112D01*
X903057Y483134D01*
X905698Y484658D01*
X907854Y486814D01*
X909378Y489455D01*
X910167Y492400D01*
Y495449D01*
X909378Y498394D01*
X907854Y501035D01*
X905698Y503191D01*
X903057Y504715D01*
X900112Y505504D01*
D02*
G37*
G36*
X836612D02*
X833563D01*
X830618Y504715D01*
X827977Y503191D01*
X825821Y501035D01*
X824296Y498394D01*
X823507Y495449D01*
Y492400D01*
X824296Y489455D01*
X825821Y486814D01*
X827977Y484658D01*
X830618Y483134D01*
X833563Y482344D01*
X836612D01*
X839557Y483134D01*
X842198Y484658D01*
X844354Y486814D01*
X845878Y489455D01*
X846667Y492400D01*
Y495449D01*
X845878Y498394D01*
X844354Y501035D01*
X842198Y503191D01*
X839557Y504715D01*
X836612Y505504D01*
D02*
G37*
G36*
X761862D02*
X758813D01*
X755868Y504715D01*
X753227Y503191D01*
X751071Y501035D01*
X749547Y498394D01*
X748758Y495449D01*
Y492400D01*
X749547Y489455D01*
X751071Y486814D01*
X753227Y484658D01*
X755868Y483134D01*
X758813Y482344D01*
X761862D01*
X764807Y483134D01*
X767448Y484658D01*
X769604Y486814D01*
X771128Y489455D01*
X771918Y492400D01*
Y495449D01*
X771128Y498394D01*
X769604Y501035D01*
X767448Y503191D01*
X764807Y504715D01*
X761862Y505504D01*
D02*
G37*
G36*
X698362D02*
X695313D01*
X692368Y504715D01*
X689727Y503191D01*
X687571Y501035D01*
X686047Y498394D01*
X685258Y495449D01*
Y492400D01*
X686047Y489455D01*
X687571Y486814D01*
X689727Y484658D01*
X692368Y483134D01*
X695313Y482344D01*
X698362D01*
X701307Y483134D01*
X703948Y484658D01*
X706104Y486814D01*
X707628Y489455D01*
X708418Y492400D01*
Y495449D01*
X707628Y498394D01*
X706104Y501035D01*
X703948Y503191D01*
X701307Y504715D01*
X698362Y505504D01*
D02*
G37*
G36*
X479115Y499038D02*
X475939D01*
X472870Y498216D01*
X470119Y496627D01*
X467873Y494381D01*
X466284Y491630D01*
X465462Y488561D01*
Y485385D01*
X466284Y482316D01*
X467873Y479565D01*
X470119Y477319D01*
X472870Y475730D01*
X475939Y474908D01*
X479115D01*
X482184Y475730D01*
X484935Y477319D01*
X487182Y479565D01*
X488770Y482316D01*
X489592Y485385D01*
Y488561D01*
X488770Y491630D01*
X487182Y494381D01*
X484935Y496627D01*
X482184Y498216D01*
X479115Y499038D01*
D02*
G37*
G36*
X428061D02*
X424885D01*
X421816Y498216D01*
X419065Y496627D01*
X416819Y494381D01*
X415230Y491630D01*
X414408Y488561D01*
Y485385D01*
X415230Y482316D01*
X416819Y479565D01*
X419065Y477319D01*
X421816Y475730D01*
X424885Y474908D01*
X428061D01*
X431130Y475730D01*
X433881Y477319D01*
X436128Y479565D01*
X437716Y482316D01*
X438538Y485385D01*
Y488561D01*
X437716Y491630D01*
X436128Y494381D01*
X433881Y496627D01*
X431130Y498216D01*
X428061Y499038D01*
D02*
G37*
G36*
X400497Y472562D02*
X398698D01*
X396961Y472096D01*
X395404Y471197D01*
X394132Y469926D01*
X393233Y468368D01*
X392768Y466631D01*
Y464833D01*
X393233Y463096D01*
X394132Y461538D01*
X395404Y460267D01*
X396961Y459367D01*
X398698Y458902D01*
X400497D01*
X402234Y459367D01*
X403791Y460267D01*
X405063Y461538D01*
X405962Y463096D01*
X406428Y464833D01*
Y466631D01*
X405962Y468368D01*
X405063Y469926D01*
X403791Y471197D01*
X402234Y472096D01*
X400497Y472562D01*
D02*
G37*
G36*
X285899Y456830D02*
X284101D01*
X282364Y456365D01*
X280806Y455465D01*
X279535Y454194D01*
X278636Y452636D01*
X278170Y450899D01*
Y449101D01*
X278636Y447364D01*
X279535Y445806D01*
X280806Y444535D01*
X282364Y443635D01*
X284101Y443170D01*
X285899D01*
X287636Y443635D01*
X289194Y444535D01*
X290465Y445806D01*
X291364Y447364D01*
X291830Y449101D01*
Y450899D01*
X291364Y452636D01*
X290465Y454194D01*
X289194Y455465D01*
X287636Y456365D01*
X285899Y456830D01*
D02*
G37*
G36*
X255899D02*
X254101D01*
X252364Y456365D01*
X250806Y455465D01*
X249535Y454194D01*
X248636Y452636D01*
X248170Y450899D01*
Y449101D01*
X248636Y447364D01*
X249535Y445806D01*
X250806Y444535D01*
X252364Y443635D01*
X254101Y443170D01*
X255899D01*
X257636Y443635D01*
X259194Y444535D01*
X260465Y445806D01*
X261364Y447364D01*
X261830Y449101D01*
Y450899D01*
X261364Y452636D01*
X260465Y454194D01*
X259194Y455465D01*
X257636Y456365D01*
X255899Y456830D01*
D02*
G37*
G36*
X270899Y441830D02*
X269101D01*
X267364Y441365D01*
X265806Y440465D01*
X264535Y439194D01*
X263636Y437636D01*
X263170Y435899D01*
Y434101D01*
X263636Y432364D01*
X264535Y430806D01*
X265806Y429535D01*
X267364Y428635D01*
X269101Y428170D01*
X270899D01*
X272636Y428635D01*
X274194Y429535D01*
X275465Y430806D01*
X276364Y432364D01*
X276830Y434101D01*
Y435899D01*
X276364Y437636D01*
X275465Y439194D01*
X274194Y440465D01*
X272636Y441365D01*
X270899Y441830D01*
D02*
G37*
G36*
X240899D02*
X239101D01*
X237364Y441365D01*
X235806Y440465D01*
X234535Y439194D01*
X233636Y437636D01*
X233170Y435899D01*
Y434101D01*
X233636Y432364D01*
X234535Y430806D01*
X235806Y429535D01*
X237364Y428635D01*
X239101Y428170D01*
X240899D01*
X242636Y428635D01*
X244194Y429535D01*
X245465Y430806D01*
X246364Y432364D01*
X246830Y434101D01*
Y435899D01*
X246364Y437636D01*
X245465Y439194D01*
X244194Y440465D01*
X242636Y441365D01*
X240899Y441830D01*
D02*
G37*
G36*
X466017Y419864D02*
X464218D01*
X462481Y419399D01*
X460924Y418500D01*
X459969Y417545D01*
X459014Y418500D01*
X457457Y419399D01*
X455720Y419864D01*
X453921D01*
X452184Y419399D01*
X450627Y418500D01*
X449355Y417228D01*
X448456Y415671D01*
X447990Y413934D01*
Y412135D01*
X448456Y410398D01*
X449355Y408841D01*
X450627Y407569D01*
X452184Y406670D01*
X453921Y406204D01*
X455720D01*
X457457Y406670D01*
X459014Y407569D01*
X459969Y408524D01*
X460924Y407569D01*
X462481Y406670D01*
X464218Y406204D01*
X466017D01*
X467754Y406670D01*
X469311Y407569D01*
X470583Y408841D01*
X471482Y410398D01*
X471948Y412135D01*
Y413934D01*
X471482Y415671D01*
X470583Y417228D01*
X469311Y418500D01*
X467754Y419399D01*
X466017Y419864D01*
D02*
G37*
G36*
X409717Y423212D02*
X407919D01*
X406182Y422746D01*
X404625Y421847D01*
X403353Y420575D01*
X402454Y419018D01*
X401988Y417281D01*
Y415482D01*
X402454Y413745D01*
X403353Y412188D01*
X404625Y410916D01*
X406182Y410017D01*
X407919Y409552D01*
X409717D01*
X411455Y410017D01*
X413012Y410916D01*
X414284Y412188D01*
X415183Y413745D01*
X415648Y415482D01*
Y417281D01*
X415183Y419018D01*
X414284Y420575D01*
X413012Y421847D01*
X411455Y422746D01*
X409717Y423212D01*
D02*
G37*
G36*
X285899Y421830D02*
X284101D01*
X282364Y421365D01*
X280806Y420465D01*
X279535Y419194D01*
X278636Y417636D01*
X278170Y415899D01*
Y414101D01*
X278636Y412364D01*
X279535Y410806D01*
X280806Y409535D01*
X282364Y408635D01*
X284101Y408170D01*
X285899D01*
X287636Y408635D01*
X289194Y409535D01*
X290465Y410806D01*
X291364Y412364D01*
X291830Y414101D01*
Y415899D01*
X291364Y417636D01*
X290465Y419194D01*
X289194Y420465D01*
X287636Y421365D01*
X285899Y421830D01*
D02*
G37*
G36*
X255899D02*
X254101D01*
X252364Y421365D01*
X250806Y420465D01*
X249535Y419194D01*
X248636Y417636D01*
X248170Y415899D01*
Y414101D01*
X248636Y412364D01*
X249535Y410806D01*
X250806Y409535D01*
X252364Y408635D01*
X254101Y408170D01*
X255899D01*
X257636Y408635D01*
X259194Y409535D01*
X260465Y410806D01*
X261364Y412364D01*
X261830Y414101D01*
Y415899D01*
X261364Y417636D01*
X260465Y419194D01*
X259194Y420465D01*
X257636Y421365D01*
X255899Y421830D01*
D02*
G37*
G36*
X393497Y425712D02*
X391699D01*
X389962Y425246D01*
X388404Y424347D01*
X387132Y423076D01*
X386233Y421518D01*
X385768Y419781D01*
Y417983D01*
X386233Y416246D01*
X387132Y414688D01*
X387439Y414382D01*
X387132Y414075D01*
X386233Y412518D01*
X385768Y410781D01*
Y408982D01*
X386233Y407245D01*
X387132Y405688D01*
X388404Y404416D01*
X389962Y403517D01*
X391699Y403052D01*
X393497D01*
X395234Y403517D01*
X396791Y404416D01*
X398063Y405688D01*
X398962Y407245D01*
X399428Y408982D01*
Y410781D01*
X398962Y412518D01*
X398063Y414075D01*
X397757Y414382D01*
X398063Y414688D01*
X398962Y416246D01*
X399428Y417983D01*
Y419781D01*
X398962Y421518D01*
X398063Y423076D01*
X396791Y424347D01*
X395234Y425246D01*
X393497Y425712D01*
D02*
G37*
G36*
X680164Y402670D02*
X678365D01*
X676628Y402204D01*
X675071Y401305D01*
X673799Y400033D01*
X673653Y399781D01*
X672383D01*
X672237Y400033D01*
X670965Y401305D01*
X669408Y402204D01*
X667671Y402670D01*
X665873D01*
X664136Y402204D01*
X662578Y401305D01*
X661306Y400033D01*
X661160Y399781D01*
X659890D01*
X659744Y400033D01*
X658473Y401305D01*
X656915Y402204D01*
X655178Y402670D01*
X653380D01*
X651643Y402204D01*
X650085Y401305D01*
X648814Y400033D01*
X648668Y399781D01*
X647398D01*
X647252Y400033D01*
X645980Y401305D01*
X644423Y402204D01*
X642685Y402670D01*
X640887D01*
X639150Y402204D01*
X637593Y401305D01*
X636321Y400033D01*
X636240Y399892D01*
X634969D01*
X634888Y400033D01*
X633616Y401305D01*
X632059Y402204D01*
X630322Y402670D01*
X628523D01*
X626786Y402204D01*
X625229Y401305D01*
X623957Y400033D01*
X623808Y399775D01*
X622538D01*
X622388Y400033D01*
X621116Y401305D01*
X619559Y402204D01*
X617822Y402670D01*
X616024D01*
X614286Y402204D01*
X612729Y401305D01*
X611457Y400033D01*
X611281Y399728D01*
X609814D01*
X609638Y400033D01*
X608366Y401305D01*
X606809Y402204D01*
X605072Y402670D01*
X603273D01*
X601536Y402204D01*
X599979Y401305D01*
X598707Y400033D01*
X598629Y399898D01*
X597359D01*
X597281Y400033D01*
X596010Y401305D01*
X594452Y402204D01*
X592715Y402670D01*
X590917D01*
X589180Y402204D01*
X587622Y401305D01*
X586351Y400033D01*
X586204Y399781D01*
X584935D01*
X584789Y400033D01*
X583517Y401305D01*
X581959Y402204D01*
X580222Y402670D01*
X578424D01*
X576687Y402204D01*
X575130Y401305D01*
X573858Y400033D01*
X573712Y399781D01*
X572442D01*
X572296Y400033D01*
X571024Y401305D01*
X569467Y402204D01*
X567730Y402670D01*
X565931D01*
X564194Y402204D01*
X562637Y401305D01*
X561365Y400033D01*
X560466Y398476D01*
X560000Y396739D01*
Y394941D01*
X560466Y393204D01*
X561365Y391646D01*
X562637Y390374D01*
X564194Y389475D01*
X565931Y389010D01*
X567730D01*
X569467Y389475D01*
X571024Y390374D01*
X572296Y391646D01*
X572442Y391899D01*
X573712D01*
X573858Y391646D01*
X575130Y390374D01*
X576687Y389475D01*
X578424Y389010D01*
X580222D01*
X581959Y389475D01*
X583517Y390374D01*
X584789Y391646D01*
X584935Y391899D01*
X586204D01*
X586351Y391646D01*
X587622Y390374D01*
X589180Y389475D01*
X590917Y389010D01*
X592715D01*
X594452Y389475D01*
X596010Y390374D01*
X597281Y391646D01*
X597359Y391781D01*
X598629D01*
X598707Y391646D01*
X599979Y390374D01*
X601536Y389475D01*
X603273Y389010D01*
X605072D01*
X606809Y389475D01*
X608366Y390374D01*
X609638Y391646D01*
X609814Y391952D01*
X611281D01*
X611457Y391646D01*
X612729Y390374D01*
X614286Y389475D01*
X616024Y389010D01*
X617822D01*
X619559Y389475D01*
X621116Y390374D01*
X622388Y391646D01*
X622538Y391905D01*
X623808D01*
X623957Y391646D01*
X625229Y390374D01*
X626786Y389475D01*
X628523Y389010D01*
X630322D01*
X632059Y389475D01*
X633616Y390374D01*
X634888Y391646D01*
X634969Y391787D01*
X636240D01*
X636321Y391646D01*
X637593Y390374D01*
X639150Y389475D01*
X640887Y389010D01*
X642685D01*
X644423Y389475D01*
X645980Y390374D01*
X647252Y391646D01*
X647398Y391899D01*
X648668D01*
X648814Y391646D01*
X650085Y390374D01*
X651643Y389475D01*
X653380Y389010D01*
X655178D01*
X656915Y389475D01*
X658473Y390374D01*
X659744Y391646D01*
X659890Y391899D01*
X661160D01*
X661306Y391646D01*
X662578Y390374D01*
X664136Y389475D01*
X665873Y389010D01*
X667671D01*
X669408Y389475D01*
X670965Y390374D01*
X672237Y391646D01*
X672383Y391899D01*
X673653D01*
X673799Y391646D01*
X675071Y390374D01*
X676628Y389475D01*
X678365Y389010D01*
X680164D01*
X681901Y389475D01*
X683458Y390374D01*
X684730Y391646D01*
X685629Y393204D01*
X686095Y394941D01*
Y396739D01*
X685629Y398476D01*
X684730Y400033D01*
X683458Y401305D01*
X681901Y402204D01*
X680164Y402670D01*
D02*
G37*
G36*
X487481Y410765D02*
X485682D01*
X483945Y410299D01*
X482388Y409400D01*
X481116Y408128D01*
X480217Y406571D01*
X479752Y404834D01*
Y403036D01*
X480217Y401298D01*
X481116Y399741D01*
X482388Y398469D01*
X483945Y397570D01*
X485682Y397105D01*
X487481D01*
X489218Y397570D01*
X490775Y398469D01*
X492047Y399741D01*
X492946Y401298D01*
X493412Y403036D01*
Y404834D01*
X492946Y406571D01*
X492047Y408128D01*
X490775Y409400D01*
X489218Y410299D01*
X487481Y410765D01*
D02*
G37*
G36*
X855628Y436067D02*
X853830D01*
X852093Y435601D01*
X850535Y434702D01*
X849264Y433430D01*
X848364Y431873D01*
X847899Y430136D01*
Y428338D01*
X848364Y426600D01*
X848863Y425737D01*
X848365Y424873D01*
X847899Y423136D01*
Y421338D01*
X848365Y419600D01*
X848863Y418737D01*
X848365Y417873D01*
X847899Y416136D01*
Y414337D01*
X848365Y412600D01*
X848863Y411737D01*
X848365Y410873D01*
X847899Y409136D01*
Y407337D01*
X848365Y405600D01*
X848863Y404737D01*
X848365Y403873D01*
X847899Y402136D01*
Y400337D01*
X848365Y398600D01*
X849264Y397043D01*
X850536Y395771D01*
X852093Y394872D01*
X853830Y394407D01*
X855628D01*
X857365Y394872D01*
X858923Y395771D01*
X860194Y397043D01*
X861094Y398600D01*
X861559Y400337D01*
Y402136D01*
X861094Y403873D01*
X860595Y404737D01*
X861094Y405600D01*
X861559Y407337D01*
Y409136D01*
X861094Y410873D01*
X860595Y411737D01*
X861094Y412600D01*
X861559Y414337D01*
Y416136D01*
X861094Y417873D01*
X860595Y418737D01*
X861094Y419600D01*
X861559Y421338D01*
Y423136D01*
X861094Y424873D01*
X860595Y425737D01*
X861094Y426600D01*
X861559Y428338D01*
Y430136D01*
X861094Y431873D01*
X860194Y433430D01*
X858923Y434702D01*
X857365Y435601D01*
X855628Y436067D01*
D02*
G37*
G36*
X270899Y406830D02*
X269101D01*
X267364Y406365D01*
X265806Y405465D01*
X264535Y404194D01*
X263636Y402636D01*
X263170Y400899D01*
Y399101D01*
X263636Y397364D01*
X264535Y395806D01*
X265806Y394535D01*
X267364Y393635D01*
X269101Y393170D01*
X270899D01*
X272636Y393635D01*
X274194Y394535D01*
X275465Y395806D01*
X276364Y397364D01*
X276830Y399101D01*
Y400899D01*
X276364Y402636D01*
X275465Y404194D01*
X274194Y405465D01*
X272636Y406365D01*
X270899Y406830D01*
D02*
G37*
G36*
X240899D02*
X239101D01*
X237364Y406365D01*
X235806Y405465D01*
X234535Y404194D01*
X233636Y402636D01*
X233170Y400899D01*
Y399101D01*
X233636Y397364D01*
X234535Y395806D01*
X235806Y394535D01*
X237364Y393635D01*
X239101Y393170D01*
X240899D01*
X242636Y393635D01*
X244194Y394535D01*
X245465Y395806D01*
X246364Y397364D01*
X246830Y399101D01*
Y400899D01*
X246364Y402636D01*
X245465Y404194D01*
X244194Y405465D01*
X242636Y406365D01*
X240899Y406830D01*
D02*
G37*
G36*
X425997Y412962D02*
X424198D01*
X422461Y412496D01*
X420904Y411597D01*
X419632Y410325D01*
X418733Y408768D01*
X418268Y407031D01*
Y405232D01*
X418733Y403495D01*
X419632Y401938D01*
X420904Y400666D01*
X422461Y399767D01*
X423804Y399407D01*
X425018Y399031D01*
Y397232D01*
X425483Y395495D01*
X426383Y393938D01*
X427654Y392666D01*
X429212Y391767D01*
X430949Y391302D01*
X432747D01*
X434484Y391767D01*
X436042Y392666D01*
X437313Y393938D01*
X438213Y395495D01*
X438678Y397232D01*
Y399031D01*
X438213Y400768D01*
X437313Y402325D01*
X436042Y403597D01*
X434484Y404496D01*
X433142Y404856D01*
X431928Y405232D01*
Y407031D01*
X431462Y408768D01*
X430563Y410325D01*
X429291Y411597D01*
X427734Y412496D01*
X425997Y412962D01*
D02*
G37*
G36*
X406955Y390969D02*
X405157D01*
X403420Y390503D01*
X401863Y389604D01*
X401398Y389139D01*
X400556Y388364D01*
X399715Y389139D01*
X399250Y389604D01*
X397692Y390503D01*
X395955Y390969D01*
X394157D01*
X392420Y390503D01*
X390862Y389604D01*
X390398Y389139D01*
X389556Y388364D01*
X388715Y389139D01*
X388250Y389604D01*
X386693Y390503D01*
X384955Y390969D01*
X383157D01*
X381420Y390503D01*
X379863Y389604D01*
X378591Y388332D01*
X377692Y386775D01*
X377226Y385038D01*
Y383240D01*
X377692Y381502D01*
X378591Y379945D01*
X379056Y379480D01*
X379831Y378639D01*
X379056Y377798D01*
X378591Y377333D01*
X377692Y375775D01*
X377226Y374038D01*
Y372240D01*
X377692Y370503D01*
X378591Y368945D01*
X379056Y368480D01*
X379831Y367639D01*
X379056Y366797D01*
X378591Y366333D01*
X377692Y364775D01*
X377226Y363038D01*
Y361240D01*
X377692Y359502D01*
X378591Y357945D01*
X379863Y356673D01*
X381420Y355774D01*
X383157Y355309D01*
X384955D01*
X386693Y355774D01*
X388250Y356673D01*
X388715Y357138D01*
X389556Y357913D01*
X390398Y357138D01*
X390862Y356673D01*
X392420Y355774D01*
X394157Y355309D01*
X395955D01*
X397692Y355774D01*
X399250Y356673D01*
X399715Y357138D01*
X400556Y357913D01*
X401398Y357138D01*
X401863Y356673D01*
X403420Y355774D01*
X405157Y355309D01*
X406955D01*
X408693Y355774D01*
X410250Y356673D01*
X411522Y357945D01*
X412421Y359502D01*
X412886Y361240D01*
Y363038D01*
X412421Y364775D01*
X411522Y366333D01*
X411057Y366797D01*
X410282Y367639D01*
X411057Y368480D01*
X411522Y368945D01*
X412421Y370503D01*
X412886Y372240D01*
Y374038D01*
X412421Y375775D01*
X411522Y377333D01*
X411057Y377798D01*
X410282Y378639D01*
X411057Y379480D01*
X411522Y379945D01*
X412421Y381502D01*
X412886Y383240D01*
Y385038D01*
X412421Y386775D01*
X411522Y388332D01*
X410250Y389604D01*
X408693Y390503D01*
X406955Y390969D01*
D02*
G37*
G36*
X485879Y393713D02*
X484081D01*
X482343Y393247D01*
X480786Y392348D01*
X479514Y391077D01*
X478615Y389519D01*
X478150Y387782D01*
Y385984D01*
X478615Y384247D01*
X478934Y383695D01*
X478546Y383023D01*
X478080Y381286D01*
Y379488D01*
X478546Y377751D01*
X479445Y376193D01*
X480717Y374922D01*
X482274Y374022D01*
X484011Y373557D01*
X485810D01*
X487547Y374022D01*
X489104Y374922D01*
X490376Y376193D01*
X491275Y377751D01*
X491740Y379488D01*
Y381286D01*
X491275Y383023D01*
X490956Y383575D01*
X491344Y384247D01*
X491810Y385984D01*
Y387782D01*
X491344Y389519D01*
X490445Y391077D01*
X489173Y392348D01*
X487616Y393247D01*
X485879Y393713D01*
D02*
G37*
G36*
X539645Y407500D02*
X523250Y407500D01*
X520000Y404250D01*
Y396002D01*
X522481Y393521D01*
X522753Y393249D01*
X522588Y392047D01*
X522355Y391814D01*
X521455Y390256D01*
X520990Y388519D01*
Y386721D01*
X521455Y384984D01*
X522127Y383820D01*
X521455Y382656D01*
X520990Y380919D01*
Y379121D01*
X521455Y377384D01*
X522355Y375826D01*
X522593Y375588D01*
X522753Y374384D01*
X520000Y371631D01*
Y363383D01*
X523250Y360133D01*
X539645Y360133D01*
X543789Y364277D01*
Y371238D01*
X540643Y374384D01*
X540693Y375634D01*
X540885Y375826D01*
X541785Y377384D01*
X542025Y378281D01*
X543340D01*
X543581Y377380D01*
X544480Y375823D01*
X545752Y374551D01*
X547309Y373652D01*
X549046Y373187D01*
X550845D01*
X552582Y373652D01*
X554139Y374551D01*
X555411Y375823D01*
X556310Y377380D01*
X556775Y379117D01*
Y380916D01*
X556310Y382653D01*
X555894Y383373D01*
X556635Y384656D01*
X557100Y386393D01*
Y388191D01*
X556635Y389928D01*
X555736Y391486D01*
X554464Y392757D01*
X552907Y393656D01*
X551170Y394122D01*
X549371D01*
X547634Y393656D01*
X546077Y392757D01*
X544805Y391486D01*
X543906Y389928D01*
X543520Y388488D01*
X542250Y388519D01*
X541785Y390256D01*
X540885Y391814D01*
X540697Y392002D01*
X540643Y393249D01*
X543789Y396396D01*
Y403357D01*
X539645Y407500D01*
D02*
G37*
G36*
X466489Y361561D02*
X464690D01*
X462953Y361096D01*
X461396Y360197D01*
X460293Y359094D01*
X459190Y360197D01*
X457633Y361096D01*
X455896Y361561D01*
X454097D01*
X452360Y361096D01*
X450803Y360197D01*
X449531Y358925D01*
X448632Y357368D01*
X448167Y355631D01*
Y353832D01*
X448632Y352095D01*
X449531Y350538D01*
X450803Y349266D01*
X452360Y348367D01*
X454097Y347901D01*
X455896D01*
X457633Y348367D01*
X459190Y349266D01*
X460293Y350369D01*
X461396Y349266D01*
X462953Y348367D01*
X464690Y347901D01*
X466489D01*
X468226Y348367D01*
X469783Y349266D01*
X471055Y350538D01*
X471954Y352095D01*
X472420Y353832D01*
Y355631D01*
X471954Y357368D01*
X471055Y358925D01*
X469783Y360197D01*
X468226Y361096D01*
X466489Y361561D01*
D02*
G37*
G36*
X487481Y369330D02*
X485682D01*
X483945Y368865D01*
X482388Y367965D01*
X481116Y366694D01*
X480217Y365136D01*
X479752Y363399D01*
Y361601D01*
X480217Y359864D01*
X481116Y358306D01*
X482388Y357035D01*
X483945Y356135D01*
X485682Y355670D01*
X487481D01*
X489218Y356135D01*
X490775Y357035D01*
X492047Y358306D01*
X492946Y359864D01*
X493412Y361601D01*
Y363399D01*
X492946Y365136D01*
X492047Y366694D01*
X490775Y367965D01*
X489218Y368865D01*
X487481Y369330D01*
D02*
G37*
G36*
X435896Y361827D02*
X434097D01*
X432360Y361362D01*
X430803Y360463D01*
X429531Y359191D01*
X428632Y357634D01*
X428167Y355897D01*
Y354098D01*
X428632Y352361D01*
X429531Y350804D01*
X430803Y349532D01*
X432360Y348633D01*
X434097Y348167D01*
X435896D01*
X437633Y348633D01*
X439190Y349532D01*
X440462Y350804D01*
X441361Y352361D01*
X441827Y354098D01*
Y355897D01*
X441361Y357634D01*
X440462Y359191D01*
X439190Y360463D01*
X437633Y361362D01*
X435896Y361827D01*
D02*
G37*
G36*
X854878Y389516D02*
X853080D01*
X851343Y389051D01*
X849786Y388152D01*
X848514Y386880D01*
X847615Y385322D01*
X847149Y383585D01*
Y381787D01*
X847615Y380050D01*
X848113Y379186D01*
X847615Y378322D01*
X847149Y376585D01*
Y374787D01*
X847615Y373050D01*
X848113Y372186D01*
X847615Y371322D01*
X847149Y369585D01*
Y367787D01*
X847615Y366050D01*
X848113Y365186D01*
X847615Y364322D01*
X847149Y362585D01*
Y360787D01*
X847615Y359050D01*
X848113Y358186D01*
X847615Y357323D01*
X847149Y355585D01*
Y353787D01*
X847615Y352050D01*
X848514Y350493D01*
X849786Y349221D01*
X851343Y348322D01*
X853080Y347856D01*
X854879D01*
X856616Y348322D01*
X858173Y349221D01*
X859445Y350493D01*
X860344Y352050D01*
X860809Y353787D01*
Y355585D01*
X860344Y357323D01*
X859845Y358186D01*
X860344Y359050D01*
X860809Y360787D01*
Y362585D01*
X860344Y364322D01*
X859845Y365186D01*
X860344Y366050D01*
X860809Y367787D01*
Y369585D01*
X860344Y371322D01*
X859845Y372186D01*
X860344Y373050D01*
X860809Y374787D01*
Y376585D01*
X860344Y378322D01*
X859845Y379186D01*
X860344Y380050D01*
X860809Y381787D01*
Y383585D01*
X860344Y385322D01*
X859445Y386880D01*
X858173Y388152D01*
X856616Y389051D01*
X854878Y389516D01*
D02*
G37*
G36*
X418303Y349488D02*
X416505D01*
X414768Y349023D01*
X413211Y348124D01*
X411939Y346852D01*
X411040Y345295D01*
X410574Y343558D01*
Y341759D01*
X411040Y340022D01*
X411939Y338465D01*
X412202Y338201D01*
X412129Y338073D01*
X411663Y336336D01*
Y334538D01*
X412129Y332800D01*
X413028Y331243D01*
X414299Y329972D01*
X415857Y329072D01*
X417594Y328607D01*
X419392D01*
X421129Y329072D01*
X422687Y329972D01*
X423958Y331243D01*
X424858Y332800D01*
X425323Y334538D01*
Y336336D01*
X424858Y338073D01*
X423958Y339631D01*
X423695Y339894D01*
X423769Y340022D01*
X424234Y341759D01*
Y343558D01*
X423769Y345295D01*
X422870Y346852D01*
X421598Y348124D01*
X420041Y349023D01*
X418303Y349488D01*
D02*
G37*
G36*
X366047Y423609D02*
X363854D01*
X361735Y423041D01*
X359836Y421945D01*
X358285Y420394D01*
X357188Y418494D01*
X356620Y416376D01*
Y416105D01*
X347960Y407444D01*
X346556Y405344D01*
X346063Y402866D01*
Y339265D01*
X346556Y336788D01*
X347960Y334687D01*
X357095Y325551D01*
X359196Y324148D01*
X361674Y323655D01*
X390422D01*
X392900Y324148D01*
X395000Y325551D01*
X395251Y325802D01*
X396593D01*
X398711Y326369D01*
X400611Y327466D01*
X402162Y329017D01*
X403259Y330916D01*
X403826Y333035D01*
Y335228D01*
X403259Y337347D01*
X402162Y339246D01*
X400611Y340797D01*
X398711Y341894D01*
X396593Y342462D01*
X394399D01*
X392281Y341894D01*
X390381Y340797D01*
X388830Y339246D01*
X387734Y337347D01*
X387535Y336604D01*
X369306D01*
Y338089D01*
X368841Y339826D01*
X367942Y341383D01*
X366670Y342655D01*
X365695Y343218D01*
X366433Y344496D01*
X366898Y346233D01*
Y348031D01*
X366433Y349768D01*
X365533Y351326D01*
X365102Y351757D01*
X365784Y352438D01*
X366683Y353995D01*
X367149Y355732D01*
Y357531D01*
X366683Y359268D01*
X365784Y360825D01*
X364512Y362097D01*
X363007Y362966D01*
X362955Y363205D01*
Y364058D01*
X363007Y364297D01*
X364512Y365166D01*
X365784Y366438D01*
X366683Y367995D01*
X367149Y369732D01*
Y371531D01*
X366683Y373268D01*
X365784Y374825D01*
X364852Y375757D01*
X365784Y376688D01*
X366683Y378246D01*
X367149Y379983D01*
Y381781D01*
X366683Y383518D01*
X365784Y385076D01*
X364978Y385882D01*
X365784Y386688D01*
X366683Y388246D01*
X367149Y389983D01*
Y391781D01*
X366683Y393518D01*
X365784Y395076D01*
X364512Y396347D01*
X362955Y397246D01*
X361218Y397712D01*
X359419D01*
X359012Y398024D01*
Y400185D01*
X365777Y406949D01*
X366047D01*
X368166Y407517D01*
X370065Y408614D01*
X371616Y410164D01*
X372713Y412064D01*
X373280Y414183D01*
Y416376D01*
X372713Y418494D01*
X371616Y420394D01*
X370065Y421945D01*
X368166Y423041D01*
X366047Y423609D01*
D02*
G37*
G36*
X258940Y332080D02*
X257142D01*
X255405Y331615D01*
X253847Y330715D01*
X252575Y329444D01*
X251676Y327886D01*
X251211Y326149D01*
Y324351D01*
X251676Y322614D01*
X252575Y321057D01*
X253847Y319785D01*
X255405Y318886D01*
X257142Y318420D01*
X258940D01*
X260677Y318886D01*
X262235Y319785D01*
X263506Y321057D01*
X264405Y322614D01*
X264871Y324351D01*
Y326149D01*
X264405Y327886D01*
X263506Y329444D01*
X262235Y330715D01*
X260677Y331615D01*
X258940Y332080D01*
D02*
G37*
G36*
X266834Y312830D02*
X265036D01*
X263299Y312365D01*
X261741Y311465D01*
X260470Y310194D01*
X259571Y308636D01*
X259105Y306899D01*
Y305101D01*
X259571Y303364D01*
X260470Y301806D01*
X261741Y300535D01*
X263299Y299636D01*
X265036Y299170D01*
X266834D01*
X268571Y299636D01*
X270129Y300535D01*
X271401Y301806D01*
X272300Y303364D01*
X272765Y305101D01*
Y306899D01*
X272300Y308636D01*
X271401Y310194D01*
X270129Y311465D01*
X268571Y312365D01*
X266834Y312830D01*
D02*
G37*
G36*
X588940Y305838D02*
X587142D01*
X585405Y305373D01*
X583847Y304474D01*
X582576Y303202D01*
X581677Y301645D01*
X581211Y299908D01*
Y298109D01*
X581677Y296372D01*
X582576Y294815D01*
X583847Y293543D01*
X585405Y292644D01*
X587142Y292178D01*
X588940D01*
X590677Y292644D01*
X592235Y293543D01*
X593506Y294815D01*
X594406Y296372D01*
X594871Y298109D01*
Y299908D01*
X594406Y301645D01*
X593506Y303202D01*
X592235Y304474D01*
X590677Y305373D01*
X588940Y305838D01*
D02*
G37*
G36*
X557858D02*
X556060D01*
X554323Y305373D01*
X552765Y304474D01*
X551493Y303202D01*
X550594Y301645D01*
X550129Y299908D01*
Y298109D01*
X550594Y296372D01*
X551493Y294815D01*
X552765Y293543D01*
X554323Y292644D01*
X556060Y292178D01*
X557858D01*
X559595Y292644D01*
X561152Y293543D01*
X562424Y294815D01*
X563323Y296372D01*
X563789Y298109D01*
Y299908D01*
X563323Y301645D01*
X562424Y303202D01*
X561152Y304474D01*
X559595Y305373D01*
X557858Y305838D01*
D02*
G37*
G36*
X644389Y274050D02*
X642591D01*
X640854Y273584D01*
X639296Y272685D01*
X638025Y271414D01*
X637126Y269856D01*
X636660Y268119D01*
Y266321D01*
X637126Y264584D01*
X637552Y263845D01*
X637126Y263106D01*
X636660Y261369D01*
Y259571D01*
X637126Y257834D01*
X637552Y257095D01*
X637126Y256356D01*
X636660Y254619D01*
Y252821D01*
X637126Y251084D01*
X638025Y249526D01*
X639296Y248255D01*
X640854Y247355D01*
X642591Y246890D01*
X644389D01*
X646126Y247355D01*
X647684Y248255D01*
X648955Y249526D01*
X649855Y251084D01*
X650320Y252821D01*
Y254619D01*
X649855Y256356D01*
X649428Y257095D01*
X649855Y257834D01*
X650320Y259571D01*
Y261369D01*
X649855Y263106D01*
X649428Y263845D01*
X649855Y264584D01*
X650320Y266321D01*
Y268119D01*
X649855Y269856D01*
X648955Y271414D01*
X647684Y272685D01*
X646126Y273584D01*
X644389Y274050D01*
D02*
G37*
G36*
X427399Y257039D02*
X425601D01*
X423864Y256574D01*
X422306Y255674D01*
X421035Y254403D01*
X420135Y252845D01*
X419670Y251108D01*
Y249310D01*
X420135Y247573D01*
X421035Y246015D01*
X422306Y244744D01*
X423864Y243845D01*
X425601Y243379D01*
X427399D01*
X429136Y243845D01*
X430694Y244744D01*
X431965Y246015D01*
X432864Y247573D01*
X433330Y249310D01*
Y251108D01*
X432864Y252845D01*
X431965Y254403D01*
X430694Y255674D01*
X429136Y256574D01*
X427399Y257039D01*
D02*
G37*
G36*
X410649D02*
X408851D01*
X407114Y256574D01*
X405556Y255674D01*
X404285Y254403D01*
X403386Y252845D01*
X402920Y251108D01*
Y249310D01*
X403386Y247573D01*
X404285Y246015D01*
X405556Y244744D01*
X407114Y243845D01*
X408851Y243379D01*
X410649D01*
X412387Y243845D01*
X413944Y244744D01*
X415216Y246015D01*
X416115Y247573D01*
X416580Y249310D01*
Y251108D01*
X416115Y252845D01*
X415216Y254403D01*
X413944Y255674D01*
X412387Y256574D01*
X410649Y257039D01*
D02*
G37*
G36*
X559279Y224239D02*
X557481D01*
X555744Y223774D01*
X554186Y222875D01*
X552915Y221603D01*
X552015Y220046D01*
X551550Y218308D01*
Y216510D01*
X552015Y214773D01*
X552915Y213216D01*
X554186Y211944D01*
X555744Y211045D01*
X557481Y210579D01*
X559279D01*
X561016Y211045D01*
X562574Y211944D01*
X563845Y213216D01*
X564744Y214773D01*
X565210Y216510D01*
Y218308D01*
X564744Y220046D01*
X563845Y221603D01*
X562574Y222875D01*
X561016Y223774D01*
X559279Y224239D01*
D02*
G37*
G36*
X462668D02*
X460869D01*
X459132Y223774D01*
X457575Y222875D01*
X456303Y221603D01*
X455404Y220046D01*
X454938Y218308D01*
Y216510D01*
X455404Y214773D01*
X456303Y213216D01*
X457575Y211944D01*
X459132Y211045D01*
X460869Y210579D01*
X462668D01*
X464405Y211045D01*
X465962Y211944D01*
X467234Y213216D01*
X468133Y214773D01*
X468598Y216510D01*
Y218308D01*
X468133Y220046D01*
X467234Y221603D01*
X465962Y222875D01*
X464405Y223774D01*
X462668Y224239D01*
D02*
G37*
G36*
X648400Y222330D02*
X646601D01*
X644864Y221864D01*
X643307Y220965D01*
X642035Y219694D01*
X641136Y218136D01*
X640670Y216399D01*
Y214601D01*
X641136Y212864D01*
X642035Y211306D01*
X643307Y210035D01*
X644864Y209135D01*
X646601Y208670D01*
X648400D01*
X650137Y209135D01*
X651694Y210035D01*
X652966Y211306D01*
X653865Y212864D01*
X654330Y214601D01*
Y216399D01*
X653865Y218136D01*
X652966Y219694D01*
X651694Y220965D01*
X650137Y221864D01*
X648400Y222330D01*
D02*
G37*
G36*
X670649Y195080D02*
X668851D01*
X667114Y194615D01*
X665556Y193715D01*
X664285Y192444D01*
X664108Y192138D01*
X662642D01*
X662465Y192444D01*
X661194Y193715D01*
X659636Y194615D01*
X657899Y195080D01*
X656101D01*
X654364Y194615D01*
X652806Y193715D01*
X651535Y192444D01*
X650635Y190886D01*
X650170Y189149D01*
Y187351D01*
X650635Y185614D01*
X651535Y184056D01*
X652806Y182785D01*
X654364Y181886D01*
X656101Y181420D01*
X657899D01*
X659636Y181886D01*
X661194Y182785D01*
X662465Y184056D01*
X662642Y184362D01*
X664108D01*
X664285Y184056D01*
X665556Y182785D01*
X667114Y181886D01*
X668851Y181420D01*
X670649D01*
X672386Y181886D01*
X673944Y182785D01*
X675216Y184056D01*
X676115Y185614D01*
X676580Y187351D01*
Y189149D01*
X676115Y190886D01*
X675216Y192444D01*
X673944Y193715D01*
X672386Y194615D01*
X670649Y195080D01*
D02*
G37*
G36*
X573149D02*
X571351D01*
X569614Y194615D01*
X568057Y193715D01*
X566785Y192444D01*
X566483Y191922D01*
X565017D01*
X564715Y192444D01*
X563444Y193715D01*
X561886Y194615D01*
X560149Y195080D01*
X558351D01*
X556614Y194615D01*
X555056Y193715D01*
X553785Y192444D01*
X552886Y190886D01*
X552420Y189149D01*
Y187351D01*
X552886Y185614D01*
X553785Y184056D01*
X555056Y182785D01*
X556614Y181886D01*
X558351Y181420D01*
X560149D01*
X561886Y181886D01*
X563444Y182785D01*
X564715Y184056D01*
X565017Y184579D01*
X566483D01*
X566785Y184056D01*
X568057Y182785D01*
X569614Y181886D01*
X571351Y181420D01*
X573149D01*
X574887Y181886D01*
X576444Y182785D01*
X577716Y184056D01*
X578615Y185614D01*
X579080Y187351D01*
Y189149D01*
X578615Y190886D01*
X577716Y192444D01*
X576444Y193715D01*
X574887Y194615D01*
X573149Y195080D01*
D02*
G37*
G36*
X739870Y202009D02*
X738072D01*
X736335Y201543D01*
X734777Y200644D01*
X733506Y199373D01*
X732606Y197815D01*
X732141Y196078D01*
Y194280D01*
X732606Y192542D01*
X733506Y190985D01*
X734777Y189713D01*
X736335Y188814D01*
X738072Y188349D01*
X739870D01*
X741607Y188814D01*
X743165Y189713D01*
X744436Y190985D01*
X745335Y192542D01*
X745801Y194280D01*
Y196078D01*
X745335Y197815D01*
X744436Y199373D01*
X743165Y200644D01*
X741607Y201543D01*
X739870Y202009D01*
D02*
G37*
G36*
X715048D02*
X713250D01*
X711513Y201543D01*
X709955Y200644D01*
X708683Y199373D01*
X707784Y197815D01*
X707319Y196078D01*
Y194280D01*
X707784Y192542D01*
X708683Y190985D01*
X709955Y189713D01*
X711513Y188814D01*
X713250Y188349D01*
X715048D01*
X716785Y188814D01*
X718342Y189713D01*
X719614Y190985D01*
X720513Y192542D01*
X720979Y194280D01*
Y196078D01*
X720513Y197815D01*
X719614Y199373D01*
X718342Y200644D01*
X716785Y201543D01*
X715048Y202009D01*
D02*
G37*
G36*
X837883Y226316D02*
X836085D01*
X834348Y225851D01*
X832790Y224952D01*
X831519Y223680D01*
X830620Y222123D01*
X830154Y220386D01*
Y218587D01*
X830620Y216850D01*
X831118Y215986D01*
X830620Y215123D01*
X830154Y213386D01*
Y211587D01*
X830620Y209850D01*
X831118Y208986D01*
X830620Y208123D01*
X830154Y206386D01*
Y204587D01*
X830620Y202850D01*
X831118Y201986D01*
X830620Y201123D01*
X830154Y199386D01*
Y197587D01*
X830620Y195850D01*
X831118Y194986D01*
X830620Y194123D01*
X830154Y192386D01*
Y190587D01*
X830620Y188850D01*
X831519Y187293D01*
X832791Y186021D01*
X834348Y185122D01*
X836085Y184657D01*
X837883D01*
X839620Y185122D01*
X841178Y186021D01*
X842449Y187293D01*
X843349Y188850D01*
X843814Y190587D01*
Y192386D01*
X843349Y194123D01*
X842850Y194986D01*
X843349Y195850D01*
X843814Y197587D01*
Y199386D01*
X843349Y201123D01*
X842850Y201986D01*
X843349Y202850D01*
X843814Y204587D01*
Y206386D01*
X843349Y208123D01*
X842850Y208986D01*
X843349Y209850D01*
X843814Y211587D01*
Y213386D01*
X843349Y215123D01*
X842850Y215986D01*
X843349Y216850D01*
X843814Y218587D01*
Y220386D01*
X843349Y222123D01*
X842449Y223680D01*
X841178Y224952D01*
X839620Y225851D01*
X837883Y226316D01*
D02*
G37*
G36*
X322787Y178690D02*
X320593D01*
X318475Y178122D01*
X316575Y177026D01*
X315024Y175475D01*
X313928Y173575D01*
X313360Y171457D01*
Y169263D01*
X313928Y167145D01*
X315024Y165245D01*
X316575Y163694D01*
X318475Y162598D01*
X320593Y162030D01*
X322787D01*
X324905Y162598D01*
X326805Y163694D01*
X328356Y165245D01*
X329452Y167145D01*
X330020Y169263D01*
Y171457D01*
X329452Y173575D01*
X328356Y175475D01*
X326805Y177026D01*
X324905Y178122D01*
X322787Y178690D01*
D02*
G37*
G36*
X288497D02*
X286303D01*
X284185Y178122D01*
X282285Y177026D01*
X280734Y175475D01*
X279638Y173575D01*
X279070Y171457D01*
Y169263D01*
X279638Y167145D01*
X280734Y165245D01*
X282285Y163694D01*
X284185Y162598D01*
X286303Y162030D01*
X288497D01*
X290615Y162598D01*
X292515Y163694D01*
X294066Y165245D01*
X295162Y167145D01*
X295730Y169263D01*
Y171457D01*
X295162Y173575D01*
X294066Y175475D01*
X292515Y177026D01*
X290615Y178122D01*
X288497Y178690D01*
D02*
G37*
G36*
X254207D02*
X252013D01*
X249895Y178122D01*
X247995Y177026D01*
X246444Y175475D01*
X245348Y173575D01*
X244780Y171457D01*
Y169263D01*
X245348Y167145D01*
X246444Y165245D01*
X247995Y163694D01*
X249895Y162598D01*
X252013Y162030D01*
X254207D01*
X256325Y162598D01*
X258225Y163694D01*
X259776Y165245D01*
X260872Y167145D01*
X261440Y169263D01*
Y171457D01*
X260872Y173575D01*
X259776Y175475D01*
X258225Y177026D01*
X256325Y178122D01*
X254207Y178690D01*
D02*
G37*
G36*
X490190Y173862D02*
X488392D01*
X486655Y173397D01*
X485097Y172498D01*
X483826Y171226D01*
X482926Y169669D01*
X482461Y167932D01*
Y166133D01*
X482926Y164396D01*
X483826Y162839D01*
X485097Y161567D01*
X486655Y160668D01*
X488392Y160203D01*
X490190D01*
X491927Y160668D01*
X493485Y161567D01*
X494756Y162839D01*
X495656Y164396D01*
X496121Y166133D01*
Y167932D01*
X495656Y169669D01*
X494756Y171226D01*
X493485Y172498D01*
X491927Y173397D01*
X490190Y173862D01*
D02*
G37*
G36*
X530912Y163789D02*
X529114D01*
X527377Y163323D01*
X525819Y162424D01*
X524548Y161152D01*
X523649Y159595D01*
X523183Y157858D01*
Y156060D01*
X523649Y154323D01*
X524548Y152765D01*
X525819Y151493D01*
X527377Y150594D01*
X529114Y150129D01*
X530912D01*
X532649Y150594D01*
X534207Y151493D01*
X535479Y152765D01*
X536378Y154323D01*
X536843Y156060D01*
Y157858D01*
X536378Y159595D01*
X535479Y161152D01*
X534207Y162424D01*
X532649Y163323D01*
X530912Y163789D01*
D02*
G37*
G36*
X597632Y160539D02*
X595834D01*
X594097Y160074D01*
X592539Y159174D01*
X591268Y157903D01*
X590368Y156345D01*
X589903Y154608D01*
Y152810D01*
X590368Y151073D01*
X591268Y149515D01*
X592539Y148244D01*
X594097Y147345D01*
X595834Y146879D01*
X597632D01*
X599369Y147345D01*
X600927Y148244D01*
X602198Y149515D01*
X603097Y151073D01*
X603563Y152810D01*
Y154608D01*
X603097Y156345D01*
X602198Y157903D01*
X600927Y159174D01*
X599369Y160074D01*
X597632Y160539D01*
D02*
G37*
G36*
X530891Y147039D02*
X529092D01*
X527355Y146573D01*
X525798Y145674D01*
X524526Y144403D01*
X523627Y142845D01*
X523161Y141108D01*
Y139310D01*
X523627Y137573D01*
X524526Y136015D01*
X525798Y134744D01*
X527355Y133844D01*
X529092Y133379D01*
X530891D01*
X532627Y133844D01*
X534185Y134744D01*
X535457Y136015D01*
X536356Y137573D01*
X536821Y139310D01*
Y141108D01*
X536356Y142845D01*
X535457Y144403D01*
X534185Y145674D01*
X532627Y146573D01*
X530891Y147039D01*
D02*
G37*
G36*
X597391Y143789D02*
X595592D01*
X593855Y143323D01*
X592298Y142424D01*
X591026Y141152D01*
X590127Y139595D01*
X589661Y137858D01*
Y136060D01*
X590127Y134323D01*
X591026Y132765D01*
X592298Y131494D01*
X593855Y130594D01*
X595592Y130129D01*
X597391D01*
X599128Y130594D01*
X600685Y131494D01*
X601957Y132765D01*
X602856Y134323D01*
X603321Y136060D01*
Y137858D01*
X602856Y139595D01*
X601957Y141152D01*
X600685Y142424D01*
X599128Y143323D01*
X597391Y143789D01*
D02*
G37*
G36*
X322787Y144400D02*
X320593D01*
X318475Y143832D01*
X316575Y142736D01*
X315024Y141185D01*
X313928Y139285D01*
X313360Y137167D01*
Y134973D01*
X313928Y132855D01*
X315024Y130955D01*
X316575Y129404D01*
X318475Y128308D01*
X320593Y127740D01*
X322787D01*
X324905Y128308D01*
X326805Y129404D01*
X328356Y130955D01*
X329452Y132855D01*
X330020Y134973D01*
Y137167D01*
X329452Y139285D01*
X328356Y141185D01*
X326805Y142736D01*
X324905Y143832D01*
X322787Y144400D01*
D02*
G37*
G36*
X288497D02*
X286303D01*
X284185Y143832D01*
X282285Y142736D01*
X280734Y141185D01*
X279638Y139285D01*
X279070Y137167D01*
Y134973D01*
X279638Y132855D01*
X280734Y130955D01*
X282285Y129404D01*
X284185Y128308D01*
X286303Y127740D01*
X288497D01*
X290615Y128308D01*
X292515Y129404D01*
X294066Y130955D01*
X295162Y132855D01*
X295730Y134973D01*
Y137167D01*
X295162Y139285D01*
X294066Y141185D01*
X292515Y142736D01*
X290615Y143832D01*
X288497Y144400D01*
D02*
G37*
G36*
X254207D02*
X252013D01*
X249895Y143832D01*
X247995Y142736D01*
X246444Y141185D01*
X245348Y139285D01*
X244780Y137167D01*
Y134973D01*
X245348Y132855D01*
X246444Y130955D01*
X247995Y129404D01*
X249895Y128308D01*
X252013Y127740D01*
X254207D01*
X256325Y128308D01*
X258225Y129404D01*
X259776Y130955D01*
X260872Y132855D01*
X261440Y134973D01*
Y137167D01*
X260872Y139285D01*
X259776Y141185D01*
X258225Y142736D01*
X256325Y143832D01*
X254207Y144400D01*
D02*
G37*
G36*
X767319Y135700D02*
X765521D01*
X763784Y135235D01*
X762226Y134336D01*
X760955Y133064D01*
X760055Y131507D01*
X759590Y129769D01*
Y127971D01*
X760055Y126234D01*
X760955Y124677D01*
X762226Y123405D01*
X763784Y122506D01*
X765521Y122040D01*
X767319D01*
X769056Y122506D01*
X770614Y123405D01*
X771885Y124677D01*
X772785Y126234D01*
X773250Y127971D01*
Y129769D01*
X772785Y131507D01*
X771885Y133064D01*
X770614Y134336D01*
X769056Y135235D01*
X767319Y135700D01*
D02*
G37*
G36*
X796529Y135700D02*
X794731D01*
X792994Y135234D01*
X791436Y134335D01*
X790165Y133063D01*
X789266Y131506D01*
X788800Y129769D01*
Y127971D01*
X789266Y126234D01*
X790165Y124676D01*
X791436Y123404D01*
X792994Y122505D01*
X794731Y122040D01*
X796529D01*
X798266Y122505D01*
X799824Y123404D01*
X801095Y124676D01*
X801995Y126234D01*
X802460Y127971D01*
Y129769D01*
X801995Y131506D01*
X801095Y133063D01*
X799824Y134335D01*
X798266Y135234D01*
X796529Y135700D01*
D02*
G37*
G36*
X503649Y119430D02*
X501851D01*
X500113Y118965D01*
X498556Y118066D01*
X497284Y116794D01*
X496385Y115236D01*
X495920Y113499D01*
Y111701D01*
X496385Y109964D01*
X497284Y108406D01*
X498556Y107135D01*
X500113Y106236D01*
X501851Y105770D01*
X503649D01*
X505386Y106236D01*
X506944Y107135D01*
X508215Y108406D01*
X509114Y109964D01*
X509580Y111701D01*
Y113499D01*
X509114Y115236D01*
X508215Y116794D01*
X506944Y118066D01*
X505386Y118965D01*
X503649Y119430D01*
D02*
G37*
G36*
X410599Y104530D02*
X408801D01*
X407064Y104065D01*
X405700Y103277D01*
X404336Y104065D01*
X402599Y104530D01*
X400801D01*
X399064Y104065D01*
X397700Y103277D01*
X396336Y104065D01*
X394599Y104530D01*
X392801D01*
X391064Y104065D01*
X389506Y103165D01*
X388235Y101894D01*
X387335Y100336D01*
X386870Y98599D01*
Y96801D01*
X387335Y95064D01*
X388235Y93506D01*
X389506Y92235D01*
X391064Y91335D01*
X392801Y90870D01*
X394599D01*
X396336Y91335D01*
X397700Y92123D01*
X399064Y91335D01*
X400801Y90870D01*
X402599D01*
X404336Y91335D01*
X405700Y92123D01*
X407064Y91335D01*
X408801Y90870D01*
X410599D01*
X412336Y91335D01*
X413894Y92235D01*
X415165Y93506D01*
X416064Y95064D01*
X416530Y96801D01*
Y98599D01*
X416064Y100336D01*
X415165Y101894D01*
X413894Y103165D01*
X412336Y104065D01*
X410599Y104530D01*
D02*
G37*
G36*
X750520Y127079D02*
X748722D01*
X746985Y126613D01*
X745427Y125714D01*
X744156Y124443D01*
X743257Y122885D01*
X742791Y121148D01*
Y119350D01*
X743257Y117612D01*
X744156Y116055D01*
X745427Y114783D01*
X746985Y113884D01*
X747868Y113648D01*
Y112333D01*
X746985Y112096D01*
X745427Y111197D01*
X744156Y109925D01*
X743257Y108368D01*
X742791Y106631D01*
Y104832D01*
X743257Y103095D01*
X744156Y101538D01*
X745427Y100266D01*
X746985Y99367D01*
X748722Y98902D01*
X750520D01*
X752257Y99367D01*
X753815Y100266D01*
X755087Y101538D01*
X755986Y103095D01*
X756451Y104832D01*
Y106631D01*
X755986Y108368D01*
X755087Y109925D01*
X753815Y111197D01*
X752257Y112096D01*
X751374Y112333D01*
Y113648D01*
X752257Y113884D01*
X753815Y114783D01*
X755087Y116055D01*
X755986Y117612D01*
X756451Y119350D01*
Y121148D01*
X755986Y122885D01*
X755087Y124443D01*
X753815Y125714D01*
X752257Y126613D01*
X750520Y127079D01*
D02*
G37*
G36*
X723158D02*
X721360D01*
X719623Y126613D01*
X718065Y125714D01*
X716794Y124443D01*
X715894Y122885D01*
X715429Y121148D01*
Y119350D01*
X715894Y117612D01*
X716794Y116055D01*
X718065Y114783D01*
X719623Y113884D01*
X720506Y113648D01*
Y112333D01*
X719623Y112096D01*
X718065Y111197D01*
X716794Y109925D01*
X715894Y108368D01*
X715429Y106631D01*
Y104832D01*
X715894Y103095D01*
X716794Y101538D01*
X718065Y100266D01*
X719623Y99367D01*
X721360Y98902D01*
X723158D01*
X724895Y99367D01*
X726453Y100266D01*
X727724Y101538D01*
X728624Y103095D01*
X729089Y104832D01*
Y106631D01*
X728624Y108368D01*
X727724Y109925D01*
X726453Y111197D01*
X724895Y112096D01*
X724012Y112333D01*
Y113648D01*
X724895Y113884D01*
X726453Y114783D01*
X727724Y116055D01*
X728624Y117612D01*
X729089Y119350D01*
Y121148D01*
X728624Y122885D01*
X727724Y124443D01*
X726453Y125714D01*
X724895Y126613D01*
X723158Y127079D01*
D02*
G37*
G36*
X837878Y182316D02*
X836080D01*
X834343Y181851D01*
X832786Y180952D01*
X831514Y179680D01*
X830615Y178123D01*
X830149Y176386D01*
Y174587D01*
X830615Y172850D01*
X831114Y171987D01*
X830615Y171123D01*
X830149Y169386D01*
Y167587D01*
X830615Y165850D01*
X831114Y164986D01*
X830615Y164123D01*
X830149Y162386D01*
Y160587D01*
X830615Y158850D01*
X831114Y157986D01*
X830615Y157123D01*
X830149Y155386D01*
Y153587D01*
X830615Y151850D01*
X831114Y150986D01*
X830615Y150123D01*
X830150Y148386D01*
Y146587D01*
X830615Y144850D01*
X831514Y143293D01*
X832786Y142021D01*
X834158Y141229D01*
X834260Y140913D01*
X834288Y140631D01*
X834199Y139846D01*
X832982Y139144D01*
X831711Y137872D01*
X830811Y136314D01*
X830346Y134577D01*
Y132779D01*
X830811Y131042D01*
X831310Y130178D01*
X830811Y129314D01*
X830346Y127577D01*
Y125779D01*
X830811Y124042D01*
X831310Y123178D01*
X830811Y122315D01*
X830346Y120577D01*
Y118779D01*
X830811Y117042D01*
X831310Y116178D01*
X830811Y115315D01*
X830346Y113577D01*
Y111779D01*
X830811Y110042D01*
X831310Y109178D01*
X830811Y108315D01*
X830346Y106577D01*
Y104779D01*
X830811Y103042D01*
X831711Y101484D01*
X832982Y100213D01*
X834540Y99314D01*
X836277Y98848D01*
X838075D01*
X839812Y99314D01*
X841370Y100213D01*
X842641Y101484D01*
X843540Y103042D01*
X844006Y104779D01*
Y106577D01*
X843540Y108315D01*
X843042Y109178D01*
X843540Y110042D01*
X844006Y111779D01*
Y113577D01*
X843540Y115315D01*
X843042Y116178D01*
X843540Y117042D01*
X844006Y118779D01*
Y120577D01*
X843540Y122315D01*
X843042Y123178D01*
X843540Y124042D01*
X844006Y125779D01*
Y127577D01*
X843540Y129314D01*
X843042Y130178D01*
X843540Y131042D01*
X844006Y132779D01*
Y134577D01*
X843540Y136314D01*
X842641Y137872D01*
X841370Y139144D01*
X839997Y139936D01*
X839896Y140252D01*
X839868Y140534D01*
X839957Y141319D01*
X841173Y142021D01*
X842445Y143293D01*
X843344Y144850D01*
X843809Y146587D01*
Y148386D01*
X843344Y150123D01*
X842845Y150986D01*
X843344Y151850D01*
X843809Y153587D01*
Y155386D01*
X843344Y157123D01*
X842845Y157986D01*
X843344Y158850D01*
X843809Y160587D01*
Y162386D01*
X843344Y164123D01*
X842845Y164986D01*
X843344Y165850D01*
X843809Y167587D01*
Y169386D01*
X843344Y171123D01*
X842845Y171987D01*
X843344Y172850D01*
X843809Y174587D01*
Y176386D01*
X843344Y178123D01*
X842445Y179680D01*
X841173Y180952D01*
X839616Y181851D01*
X837878Y182316D01*
D02*
G37*
G36*
X559358Y122113D02*
X557560D01*
X555823Y121647D01*
X554265Y120748D01*
X552994Y119476D01*
X552094Y117919D01*
X551629Y116182D01*
Y114383D01*
X552094Y112646D01*
X552994Y111089D01*
X554265Y109817D01*
X555823Y108918D01*
X556706Y108681D01*
Y107367D01*
X555823Y107130D01*
X554265Y106231D01*
X552994Y104959D01*
X552094Y103402D01*
X551629Y101665D01*
Y99866D01*
X552094Y98129D01*
X552994Y96572D01*
X554265Y95300D01*
X555823Y94401D01*
X557560Y93935D01*
X559358D01*
X561095Y94401D01*
X562653Y95300D01*
X563924Y96572D01*
X564823Y98129D01*
X565289Y99866D01*
Y101665D01*
X564823Y103402D01*
X563924Y104959D01*
X562653Y106231D01*
X561095Y107130D01*
X560212Y107367D01*
Y108681D01*
X561095Y108918D01*
X562653Y109817D01*
X563924Y111089D01*
X564823Y112646D01*
X565289Y114383D01*
Y116182D01*
X564823Y117919D01*
X563924Y119476D01*
X562653Y120748D01*
X561095Y121647D01*
X559358Y122113D01*
D02*
G37*
G36*
X585941Y121863D02*
X584142D01*
X582405Y121397D01*
X580848Y120498D01*
X579576Y119226D01*
X578677Y117669D01*
X578211Y115932D01*
Y114134D01*
X578677Y112396D01*
X579576Y110839D01*
X580848Y109567D01*
X582405Y108668D01*
X583288Y108432D01*
Y107117D01*
X582405Y106880D01*
X580848Y105981D01*
X579576Y104709D01*
X578677Y103152D01*
X578211Y101415D01*
Y99616D01*
X578677Y97879D01*
X579576Y96322D01*
X580848Y95050D01*
X582405Y94151D01*
X584142Y93686D01*
X585941D01*
X587678Y94151D01*
X589235Y95050D01*
X590507Y96322D01*
X591406Y97879D01*
X591871Y99616D01*
Y101415D01*
X591406Y103152D01*
X590507Y104709D01*
X589235Y105981D01*
X587678Y106880D01*
X586795Y107117D01*
Y108432D01*
X587678Y108668D01*
X589235Y109567D01*
X590507Y110839D01*
X591406Y112396D01*
X591871Y114134D01*
Y115932D01*
X591406Y117669D01*
X590507Y119226D01*
X589235Y120498D01*
X587678Y121397D01*
X585941Y121863D01*
D02*
G37*
G36*
X658190Y121338D02*
X656392D01*
X654655Y120873D01*
X653097Y119974D01*
X651826Y118702D01*
X650927Y117145D01*
X650461Y115408D01*
Y113609D01*
X650927Y111872D01*
X651826Y110315D01*
X653097Y109043D01*
X654655Y108144D01*
X655538Y107907D01*
Y106592D01*
X654655Y106356D01*
X653097Y105457D01*
X651826Y104185D01*
X650927Y102628D01*
X650461Y100891D01*
Y99092D01*
X650927Y97355D01*
X651826Y95798D01*
X653097Y94526D01*
X654655Y93627D01*
X656392Y93161D01*
X658190D01*
X659927Y93627D01*
X661485Y94526D01*
X662757Y95798D01*
X663656Y97355D01*
X664121Y99092D01*
Y100891D01*
X663656Y102628D01*
X662757Y104185D01*
X661485Y105457D01*
X659927Y106356D01*
X659044Y106592D01*
Y107907D01*
X659927Y108144D01*
X661485Y109043D01*
X662757Y110315D01*
X663656Y111872D01*
X664121Y113609D01*
Y115408D01*
X663656Y117145D01*
X662757Y118702D01*
X661485Y119974D01*
X659927Y120873D01*
X658190Y121338D01*
D02*
G37*
G36*
X631858D02*
X630060D01*
X628323Y120873D01*
X626766Y119974D01*
X625494Y118702D01*
X624595Y117145D01*
X624129Y115408D01*
Y113609D01*
X624595Y111872D01*
X625494Y110315D01*
X626766Y109043D01*
X628323Y108144D01*
X629206Y107907D01*
Y106592D01*
X628323Y106356D01*
X626766Y105457D01*
X625494Y104185D01*
X624595Y102628D01*
X624129Y100891D01*
Y99092D01*
X624595Y97355D01*
X625494Y95798D01*
X626766Y94526D01*
X628323Y93627D01*
X630060Y93161D01*
X631858D01*
X633595Y93627D01*
X635153Y94526D01*
X636424Y95798D01*
X637324Y97355D01*
X637789Y99092D01*
Y100891D01*
X637324Y102628D01*
X636424Y104185D01*
X635153Y105457D01*
X633595Y106356D01*
X632712Y106592D01*
Y107907D01*
X633595Y108144D01*
X635153Y109043D01*
X636424Y110315D01*
X637324Y111872D01*
X637789Y113609D01*
Y115408D01*
X637324Y117145D01*
X636424Y118702D01*
X635153Y119974D01*
X633595Y120873D01*
X631858Y121338D01*
D02*
G37*
G36*
X410599Y89530D02*
X408801D01*
X407064Y89065D01*
X405506Y88165D01*
X404235Y86894D01*
X403335Y85336D01*
X402870Y83599D01*
Y81801D01*
X403335Y80064D01*
X404235Y78506D01*
X405506Y77235D01*
X407064Y76336D01*
X408801Y75870D01*
X410599D01*
X412336Y76336D01*
X413894Y77235D01*
X415165Y78506D01*
X416064Y80064D01*
X416530Y81801D01*
Y83599D01*
X416064Y85336D01*
X415165Y86894D01*
X413894Y88165D01*
X412336Y89065D01*
X410599Y89530D01*
D02*
G37*
G36*
X394599D02*
X392801D01*
X391064Y89065D01*
X389506Y88165D01*
X388235Y86894D01*
X387335Y85336D01*
X386870Y83599D01*
Y81801D01*
X387335Y80064D01*
X388235Y78506D01*
X389506Y77235D01*
X391064Y76336D01*
X392801Y75870D01*
X394599D01*
X396336Y76336D01*
X397894Y77235D01*
X399165Y78506D01*
X400065Y80064D01*
X400530Y81801D01*
Y83599D01*
X400065Y85336D01*
X399165Y86894D01*
X397894Y88165D01*
X396336Y89065D01*
X394599Y89530D01*
D02*
G37*
G36*
X410599Y74530D02*
X408801D01*
X407064Y74064D01*
X405700Y73277D01*
X404336Y74064D01*
X402599Y74530D01*
X400801D01*
X399064Y74064D01*
X397700Y73277D01*
X396336Y74064D01*
X394599Y74530D01*
X392801D01*
X391064Y74064D01*
X389506Y73165D01*
X388235Y71894D01*
X387335Y70336D01*
X386870Y68599D01*
Y66801D01*
X387335Y65064D01*
X388235Y63506D01*
X389506Y62235D01*
X391064Y61336D01*
X392801Y60870D01*
X394599D01*
X396336Y61336D01*
X397700Y62123D01*
X399064Y61336D01*
X400801Y60870D01*
X402599D01*
X404336Y61336D01*
X405700Y62123D01*
X407064Y61336D01*
X408801Y60870D01*
X410599D01*
X412336Y61336D01*
X413894Y62235D01*
X415165Y63506D01*
X416064Y65064D01*
X416530Y66801D01*
Y68599D01*
X416064Y70336D01*
X415165Y71894D01*
X413894Y73165D01*
X412336Y74064D01*
X410599Y74530D01*
D02*
G37*
G36*
X233190Y77822D02*
X231392D01*
X229655Y77356D01*
X228097Y76457D01*
X226826Y75185D01*
X225927Y73628D01*
X225461Y71891D01*
Y70092D01*
X225927Y68355D01*
X226826Y66798D01*
X228097Y65526D01*
X229655Y64627D01*
X231392Y64162D01*
X233190D01*
X234928Y64627D01*
X236485Y65526D01*
X237757Y66798D01*
X238656Y68355D01*
X239121Y70092D01*
Y71891D01*
X238656Y73628D01*
X237757Y75185D01*
X236485Y76457D01*
X234928Y77356D01*
X233190Y77822D01*
D02*
G37*
G36*
X262899Y76606D02*
X261101D01*
X259364Y76140D01*
X257806Y75241D01*
X256535Y73970D01*
X255635Y72412D01*
X255170Y70675D01*
Y68877D01*
X255635Y67140D01*
X256535Y65582D01*
X257806Y64311D01*
X259364Y63411D01*
X261101Y62946D01*
X262899D01*
X264636Y63411D01*
X266194Y64311D01*
X267465Y65582D01*
X268365Y67140D01*
X268830Y68877D01*
Y70675D01*
X268365Y72412D01*
X267465Y73970D01*
X266194Y75241D01*
X264636Y76140D01*
X262899Y76606D01*
D02*
G37*
G36*
X267979Y59080D02*
X266181D01*
X264444Y58615D01*
X262886Y57715D01*
X262000Y56829D01*
X261114Y57715D01*
X259556Y58615D01*
X257819Y59080D01*
X256021D01*
X254284Y58615D01*
X252726Y57715D01*
X251455Y56444D01*
X250555Y54886D01*
X250090Y53149D01*
Y51351D01*
X250555Y49614D01*
X251455Y48056D01*
X252726Y46785D01*
X254284Y45885D01*
X256021Y45420D01*
X257819D01*
X259556Y45885D01*
X261114Y46785D01*
X262000Y47671D01*
X262886Y46785D01*
X264444Y45885D01*
X266181Y45420D01*
X267979D01*
X269716Y45885D01*
X271274Y46785D01*
X272545Y48056D01*
X273444Y49614D01*
X273910Y51351D01*
Y53149D01*
X273444Y54886D01*
X272545Y56444D01*
X271274Y57715D01*
X269716Y58615D01*
X267979Y59080D01*
D02*
G37*
G36*
X737311Y75369D02*
X734135D01*
X731066Y74547D01*
X728315Y72958D01*
X726069Y70712D01*
X724480Y67961D01*
X723658Y64892D01*
Y61716D01*
X724480Y58647D01*
X726069Y55896D01*
X728315Y53650D01*
X731066Y52061D01*
X734135Y51239D01*
X737311D01*
X740380Y52061D01*
X743131Y53650D01*
X745377Y55896D01*
X746966Y58647D01*
X747788Y61716D01*
Y64892D01*
X746966Y67961D01*
X745377Y70712D01*
X743131Y72958D01*
X740380Y74547D01*
X737311Y75369D01*
D02*
G37*
G36*
X622061D02*
X618885D01*
X615816Y74547D01*
X613065Y72958D01*
X610819Y70712D01*
X609230Y67961D01*
X608408Y64892D01*
Y61716D01*
X609230Y58647D01*
X610819Y55896D01*
X613065Y53650D01*
X615816Y52061D01*
X618885Y51239D01*
X622061D01*
X625130Y52061D01*
X627881Y53650D01*
X630127Y55896D01*
X631716Y58647D01*
X632538Y61716D01*
Y64892D01*
X631716Y67961D01*
X630127Y70712D01*
X627881Y72958D01*
X625130Y74547D01*
X622061Y75369D01*
D02*
G37*
G36*
X494034D02*
X490858D01*
X487789Y74547D01*
X485038Y72958D01*
X482792Y70712D01*
X481203Y67961D01*
X480381Y64892D01*
Y61716D01*
X481203Y58647D01*
X482792Y55896D01*
X485038Y53650D01*
X487789Y52061D01*
X490858Y51239D01*
X494034D01*
X497103Y52061D01*
X499854Y53650D01*
X502100Y55896D01*
X503689Y58647D01*
X504511Y61716D01*
Y64892D01*
X503689Y67961D01*
X502100Y70712D01*
X499854Y72958D01*
X497103Y74547D01*
X494034Y75369D01*
D02*
G37*
G36*
X788433Y75884D02*
X785121D01*
X781921Y75027D01*
X779053Y73370D01*
X776711Y71028D01*
X775054Y68160D01*
X774197Y64960D01*
Y61648D01*
X775054Y58448D01*
X776711Y55580D01*
X779053Y53238D01*
X781921Y51581D01*
X785121Y50724D01*
X788433D01*
X791633Y51581D01*
X794501Y53238D01*
X796843Y55580D01*
X798500Y58448D01*
X799357Y61648D01*
Y64960D01*
X798500Y68160D01*
X796843Y71028D01*
X794501Y73370D01*
X791633Y75027D01*
X788433Y75884D01*
D02*
G37*
G36*
X673183D02*
X669871D01*
X666671Y75027D01*
X663803Y73370D01*
X661460Y71028D01*
X659804Y68160D01*
X658947Y64960D01*
Y61648D01*
X659804Y58448D01*
X661460Y55580D01*
X663803Y53238D01*
X666671Y51581D01*
X669871Y50724D01*
X673183D01*
X676383Y51581D01*
X679251Y53238D01*
X681593Y55580D01*
X683250Y58448D01*
X684107Y61648D01*
Y64960D01*
X683250Y68160D01*
X681593Y71028D01*
X679251Y73370D01*
X676383Y75027D01*
X673183Y75884D01*
D02*
G37*
G36*
X545156D02*
X541844D01*
X538644Y75027D01*
X535776Y73370D01*
X533433Y71028D01*
X531777Y68160D01*
X530920Y64960D01*
Y61648D01*
X531777Y58448D01*
X533433Y55580D01*
X535776Y53238D01*
X538644Y51581D01*
X541844Y50724D01*
X545156D01*
X548356Y51581D01*
X551224Y53238D01*
X553567Y55580D01*
X555223Y58448D01*
X556080Y61648D01*
Y64960D01*
X555223Y68160D01*
X553567Y71028D01*
X551224Y73370D01*
X548356Y75027D01*
X545156Y75884D01*
D02*
G37*
G36*
X582399Y63730D02*
X580601D01*
X578864Y63264D01*
X577306Y62365D01*
X576035Y61094D01*
X575135Y59536D01*
X574670Y57799D01*
Y56001D01*
X575135Y54264D01*
X576035Y52706D01*
X577306Y51435D01*
X578864Y50535D01*
X580601Y50070D01*
X582399D01*
X584136Y50535D01*
X585694Y51435D01*
X586965Y52706D01*
X587864Y54264D01*
X588330Y56001D01*
Y57799D01*
X587864Y59536D01*
X586965Y61094D01*
X585694Y62365D01*
X584136Y63264D01*
X582399Y63730D01*
D02*
G37*
G36*
X698899Y61330D02*
X697101D01*
X695364Y60865D01*
X693806Y59966D01*
X692535Y58694D01*
X691636Y57136D01*
X691170Y55399D01*
Y53601D01*
X691636Y51864D01*
X692535Y50306D01*
X693806Y49035D01*
X695364Y48136D01*
X697101Y47670D01*
X698899D01*
X700636Y48136D01*
X702194Y49035D01*
X703465Y50306D01*
X704365Y51864D01*
X704830Y53601D01*
Y55399D01*
X704365Y57136D01*
X703465Y58694D01*
X702194Y59966D01*
X700636Y60865D01*
X698899Y61330D01*
D02*
G37*
G36*
X437108Y57580D02*
X435310D01*
X433573Y57114D01*
X432015Y56215D01*
X430744Y54943D01*
X429845Y53386D01*
X429379Y51649D01*
Y49851D01*
X429845Y48114D01*
X430744Y46556D01*
X432015Y45285D01*
X433573Y44385D01*
X435310Y43920D01*
X437108D01*
X438845Y44385D01*
X440403Y45285D01*
X441674Y46556D01*
X442574Y48114D01*
X443039Y49851D01*
Y51649D01*
X442574Y53386D01*
X441674Y54943D01*
X440403Y56215D01*
X438845Y57114D01*
X437108Y57580D01*
D02*
G37*
G36*
X354690Y70134D02*
X352892D01*
X351155Y69669D01*
X349597Y68769D01*
X348326Y67498D01*
X347427Y65940D01*
X346961Y64203D01*
Y62405D01*
X347427Y60668D01*
X348326Y59110D01*
X349597Y57839D01*
X351155Y56940D01*
X352038Y56703D01*
Y55388D01*
X351155Y55152D01*
X349597Y54252D01*
X348326Y52981D01*
X347427Y51423D01*
X346961Y49686D01*
Y47888D01*
X347427Y46151D01*
X348326Y44593D01*
X349597Y43322D01*
X351155Y42422D01*
X352892Y41957D01*
X354690D01*
X356427Y42422D01*
X357985Y43322D01*
X359257Y44593D01*
X360156Y46151D01*
X360621Y47888D01*
Y49686D01*
X360156Y51423D01*
X359257Y52981D01*
X357985Y54252D01*
X356427Y55152D01*
X355544Y55388D01*
Y56703D01*
X356427Y56940D01*
X357985Y57839D01*
X359257Y59110D01*
X360156Y60668D01*
X360621Y62405D01*
Y64203D01*
X360156Y65940D01*
X359257Y67498D01*
X357985Y68769D01*
X356427Y69669D01*
X354690Y70134D01*
D02*
G37*
G36*
X262899Y41554D02*
X261101D01*
X259364Y41089D01*
X257806Y40189D01*
X256535Y38918D01*
X255635Y37360D01*
X255170Y35623D01*
Y33825D01*
X255635Y32088D01*
X256535Y30530D01*
X257806Y29259D01*
X259364Y28359D01*
X261101Y27894D01*
X262899D01*
X264636Y28359D01*
X266194Y29259D01*
X267465Y30530D01*
X268365Y32088D01*
X268830Y33825D01*
Y35623D01*
X268365Y37360D01*
X267465Y38918D01*
X266194Y40189D01*
X264636Y41089D01*
X262899Y41554D01*
D02*
G37*
G36*
X762905Y50350D02*
X759595D01*
X756397Y49493D01*
X753530Y47838D01*
X751189Y45497D01*
X749534Y42630D01*
X748677Y39432D01*
Y36122D01*
X749534Y32924D01*
X751189Y30057D01*
X753530Y27716D01*
X756397Y26061D01*
X759595Y25204D01*
X762905D01*
X766103Y26061D01*
X768970Y27716D01*
X771311Y30057D01*
X772966Y32924D01*
X773823Y36122D01*
Y39432D01*
X772966Y42630D01*
X771311Y45497D01*
X768970Y47838D01*
X766103Y49493D01*
X762905Y50350D01*
D02*
G37*
G36*
X647655D02*
X644345D01*
X641147Y49493D01*
X638280Y47838D01*
X635939Y45497D01*
X634284Y42630D01*
X633427Y39432D01*
Y36122D01*
X634284Y32924D01*
X635939Y30057D01*
X638280Y27716D01*
X641147Y26061D01*
X644345Y25204D01*
X647655D01*
X650853Y26061D01*
X653720Y27716D01*
X656061Y30057D01*
X657716Y32924D01*
X658573Y36122D01*
Y39432D01*
X657716Y42630D01*
X656061Y45497D01*
X653720Y47838D01*
X650853Y49493D01*
X647655Y50350D01*
D02*
G37*
G36*
X519628D02*
X516318D01*
X513120Y49493D01*
X510253Y47838D01*
X507912Y45497D01*
X506257Y42630D01*
X505400Y39432D01*
Y36122D01*
X506257Y32924D01*
X507912Y30057D01*
X510253Y27716D01*
X513120Y26061D01*
X516318Y25204D01*
X519628D01*
X522826Y26061D01*
X525693Y27716D01*
X528034Y30057D01*
X529689Y32924D01*
X530546Y36122D01*
Y39432D01*
X529689Y42630D01*
X528034Y45497D01*
X525693Y47838D01*
X522826Y49493D01*
X519628Y50350D01*
D02*
G37*
G36*
X788365Y24315D02*
X785189D01*
X782120Y23493D01*
X779369Y21904D01*
X777123Y19658D01*
X775534Y16907D01*
X774712Y13838D01*
Y10662D01*
X775534Y7593D01*
X777123Y4842D01*
X779369Y2596D01*
X782120Y1007D01*
X785189Y185D01*
X788365D01*
X791434Y1007D01*
X794185Y2596D01*
X796431Y4842D01*
X798020Y7593D01*
X798842Y10662D01*
Y13838D01*
X798020Y16907D01*
X796431Y19658D01*
X794185Y21904D01*
X791434Y23493D01*
X788365Y24315D01*
D02*
G37*
G36*
X737311D02*
X734135D01*
X731066Y23493D01*
X728315Y21904D01*
X726069Y19658D01*
X724480Y16907D01*
X723658Y13838D01*
Y10662D01*
X724480Y7593D01*
X726069Y4842D01*
X728315Y2596D01*
X731066Y1007D01*
X734135Y185D01*
X737311D01*
X740380Y1007D01*
X743131Y2596D01*
X745377Y4842D01*
X746966Y7593D01*
X747788Y10662D01*
Y13838D01*
X746966Y16907D01*
X745377Y19658D01*
X743131Y21904D01*
X740380Y23493D01*
X737311Y24315D01*
D02*
G37*
G36*
X673115D02*
X669939D01*
X666870Y23493D01*
X664119Y21904D01*
X661873Y19658D01*
X660284Y16907D01*
X659462Y13838D01*
Y10662D01*
X660284Y7593D01*
X661873Y4842D01*
X664119Y2596D01*
X666870Y1007D01*
X669939Y185D01*
X673115D01*
X676184Y1007D01*
X678935Y2596D01*
X681181Y4842D01*
X682770Y7593D01*
X683592Y10662D01*
Y13838D01*
X682770Y16907D01*
X681181Y19658D01*
X678935Y21904D01*
X676184Y23493D01*
X673115Y24315D01*
D02*
G37*
G36*
X622061D02*
X618885D01*
X615816Y23493D01*
X613065Y21904D01*
X610819Y19658D01*
X609230Y16907D01*
X608408Y13838D01*
Y10662D01*
X609230Y7593D01*
X610819Y4842D01*
X613065Y2596D01*
X615816Y1007D01*
X618885Y185D01*
X622061D01*
X625130Y1007D01*
X627881Y2596D01*
X630127Y4842D01*
X631716Y7593D01*
X632538Y10662D01*
Y13838D01*
X631716Y16907D01*
X630127Y19658D01*
X627881Y21904D01*
X625130Y23493D01*
X622061Y24315D01*
D02*
G37*
G36*
X545088D02*
X541912D01*
X538843Y23493D01*
X536092Y21904D01*
X533846Y19658D01*
X532257Y16907D01*
X531435Y13838D01*
Y10662D01*
X532257Y7593D01*
X533846Y4842D01*
X536092Y2596D01*
X538843Y1007D01*
X541912Y185D01*
X545088D01*
X548157Y1007D01*
X550908Y2596D01*
X553154Y4842D01*
X554743Y7593D01*
X555565Y10662D01*
Y13838D01*
X554743Y16907D01*
X553154Y19658D01*
X550908Y21904D01*
X548157Y23493D01*
X545088Y24315D01*
D02*
G37*
G36*
X494034D02*
X490858D01*
X487789Y23493D01*
X485038Y21904D01*
X482792Y19658D01*
X481203Y16907D01*
X480381Y13838D01*
Y10662D01*
X481203Y7593D01*
X482792Y4842D01*
X485038Y2596D01*
X487789Y1007D01*
X490858Y185D01*
X494034D01*
X497103Y1007D01*
X499854Y2596D01*
X502100Y4842D01*
X503689Y7593D01*
X504511Y10662D01*
Y13838D01*
X503689Y16907D01*
X502100Y19658D01*
X499854Y21904D01*
X497103Y23493D01*
X494034Y24315D01*
D02*
G37*
G36*
X433525Y-5920D02*
X430476D01*
X427530Y-6709D01*
X424890Y-8234D01*
X422734Y-10390D01*
X421209Y-13030D01*
X420420Y-15975D01*
Y-19024D01*
X421209Y-21970D01*
X422734Y-24610D01*
X424890Y-26766D01*
X427530Y-28291D01*
X430476Y-29080D01*
X433525D01*
X436470Y-28291D01*
X439110Y-26766D01*
X441266Y-24610D01*
X442791Y-21970D01*
X443580Y-19024D01*
Y-15975D01*
X442791Y-13030D01*
X441266Y-10390D01*
X439110Y-8234D01*
X436470Y-6709D01*
X433525Y-5920D01*
D02*
G37*
G36*
X370025D02*
X366976D01*
X364030Y-6709D01*
X361390Y-8234D01*
X359234Y-10390D01*
X357709Y-13030D01*
X356920Y-15975D01*
Y-19024D01*
X357709Y-21970D01*
X359234Y-24610D01*
X361390Y-26766D01*
X364030Y-28291D01*
X366976Y-29080D01*
X370025D01*
X372970Y-28291D01*
X375610Y-26766D01*
X377766Y-24610D01*
X379291Y-21970D01*
X380080Y-19024D01*
Y-15975D01*
X379291Y-13030D01*
X377766Y-10390D01*
X375610Y-8234D01*
X372970Y-6709D01*
X370025Y-5920D01*
D02*
G37*
G36*
X911665Y-11843D02*
X908616D01*
X905671Y-12632D01*
X903030Y-14157D01*
X900874Y-16313D01*
X899350Y-18953D01*
X898561Y-21899D01*
Y-24948D01*
X899350Y-27893D01*
X900874Y-30533D01*
X903030Y-32689D01*
X905671Y-34214D01*
X908616Y-35003D01*
X911665D01*
X914610Y-34214D01*
X917251Y-32689D01*
X919407Y-30533D01*
X920931Y-27893D01*
X921721Y-24948D01*
Y-21899D01*
X920931Y-18953D01*
X919407Y-16313D01*
X917251Y-14157D01*
X914610Y-12632D01*
X911665Y-11843D01*
D02*
G37*
G36*
X848165D02*
X845116D01*
X842171Y-12632D01*
X839530Y-14157D01*
X837374Y-16313D01*
X835850Y-18953D01*
X835061Y-21899D01*
Y-24948D01*
X835850Y-27893D01*
X837374Y-30533D01*
X839530Y-32689D01*
X842171Y-34214D01*
X845116Y-35003D01*
X848165D01*
X851110Y-34214D01*
X853751Y-32689D01*
X855907Y-30533D01*
X857431Y-27893D01*
X858221Y-24948D01*
Y-21899D01*
X857431Y-18953D01*
X855907Y-16313D01*
X853751Y-14157D01*
X851110Y-12632D01*
X848165Y-11843D01*
D02*
G37*
G36*
X708859Y-23170D02*
X707061D01*
X705324Y-23635D01*
X703766Y-24534D01*
X702495Y-25806D01*
X701595Y-27364D01*
X701130Y-29101D01*
Y-30899D01*
X701595Y-32636D01*
X702495Y-34193D01*
X703766Y-35465D01*
X705324Y-36364D01*
X707061Y-36830D01*
X708859D01*
X710596Y-36364D01*
X712154Y-35465D01*
X713425Y-34193D01*
X714324Y-32636D01*
X714790Y-30899D01*
Y-29101D01*
X714324Y-27364D01*
X713425Y-25806D01*
X712154Y-24534D01*
X710596Y-23635D01*
X708859Y-23170D01*
D02*
G37*
%LPD*%
D13*
X390422Y330130D02*
X394425Y334132D01*
X361674Y330130D02*
X390422D01*
X394425Y334132D02*
X395496D01*
X352538Y339265D02*
X361674Y330130D01*
X352538Y402866D02*
X364950Y415279D01*
X352538Y339265D02*
Y402866D01*
D78*
X395496Y334132D02*
D03*
X434395Y367406D02*
D03*
X714149Y180662D02*
D03*
X738971D02*
D03*
X484500Y147483D02*
D03*
X489291Y152515D02*
D03*
X544508Y140209D02*
D03*
X611009Y136959D02*
D03*
X384729Y337189D02*
D03*
X364950Y415279D02*
D03*
X546840Y360314D02*
D03*
M02*
