G04*
G04 #@! TF.GenerationSoftware,Altium Limited,Altium Designer,22.0.2 (36)*
G04*
G04 Layer_Color=8388736*
%FSLAX44Y44*%
%MOMM*%
G71*
G04*
G04 #@! TF.SameCoordinates,A00C5D83-CF48-4284-9485-F4BE2AF80D81*
G04*
G04*
G04 #@! TF.FilePolarity,Negative*
G04*
G01*
G75*
%ADD17R,1.0160X3.5052*%
%ADD18R,10.4900X8.3800*%
%ADD19R,0.9582X1.0065*%
%ADD20R,1.0065X0.9582*%
%ADD21R,0.5725X0.6654*%
%ADD22R,1.8032X3.6042*%
%ADD24R,1.6000X3.0000*%
%ADD25R,5.8000X6.2000*%
%ADD38R,0.6654X0.5725*%
%ADD40R,1.9551X0.6221*%
G04:AMPARAMS|DCode=41|XSize=1.9551mm|YSize=0.6221mm|CornerRadius=0.3111mm|HoleSize=0mm|Usage=FLASHONLY|Rotation=0.000|XOffset=0mm|YOffset=0mm|HoleType=Round|Shape=RoundedRectangle|*
%AMROUNDEDRECTD41*
21,1,1.9551,0.0000,0,0,0.0*
21,1,1.3329,0.6221,0,0,0.0*
1,1,0.6221,0.6665,0.0000*
1,1,0.6221,-0.6665,0.0000*
1,1,0.6221,-0.6665,0.0000*
1,1,0.6221,0.6665,0.0000*
%
%ADD41ROUNDEDRECTD41*%
%ADD42R,0.7112X0.3937*%
%ADD43O,1.0032X0.4032*%
G04:AMPARAMS|DCode=44|XSize=1.0632mm|YSize=0.4632mm|CornerRadius=0.1341mm|HoleSize=0mm|Usage=FLASHONLY|Rotation=270.000|XOffset=0mm|YOffset=0mm|HoleType=Round|Shape=RoundedRectangle|*
%AMROUNDEDRECTD44*
21,1,1.0632,0.1950,0,0,270.0*
21,1,0.7950,0.4632,0,0,270.0*
1,1,0.2682,-0.0975,-0.3975*
1,1,0.2682,-0.0975,0.3975*
1,1,0.2682,0.0975,0.3975*
1,1,0.2682,0.0975,-0.3975*
%
%ADD44ROUNDEDRECTD44*%
%ADD45R,0.8532X0.8532*%
G04:AMPARAMS|DCode=46|XSize=1.0632mm|YSize=0.4632mm|CornerRadius=0.1341mm|HoleSize=0mm|Usage=FLASHONLY|Rotation=0.000|XOffset=0mm|YOffset=0mm|HoleType=Round|Shape=RoundedRectangle|*
%AMROUNDEDRECTD46*
21,1,1.0632,0.1950,0,0,0.0*
21,1,0.7950,0.4632,0,0,0.0*
1,1,0.2682,0.3975,-0.0975*
1,1,0.2682,-0.3975,-0.0975*
1,1,0.2682,-0.3975,0.0975*
1,1,0.2682,0.3975,0.0975*
%
%ADD46ROUNDEDRECTD46*%
%ADD47O,0.4032X1.0032*%
%ADD48R,1.8532X1.5532*%
%ADD49R,3.4032X7.2032*%
G04:AMPARAMS|DCode=50|XSize=1.2032mm|YSize=1.6232mm|CornerRadius=0.2266mm|HoleSize=0mm|Usage=FLASHONLY|Rotation=90.000|XOffset=0mm|YOffset=0mm|HoleType=Round|Shape=RoundedRectangle|*
%AMROUNDEDRECTD50*
21,1,1.2032,1.1700,0,0,90.0*
21,1,0.7500,1.6232,0,0,90.0*
1,1,0.4532,0.5850,0.3750*
1,1,0.4532,0.5850,-0.3750*
1,1,0.4532,-0.5850,-0.3750*
1,1,0.4532,-0.5850,0.3750*
%
%ADD50ROUNDEDRECTD50*%
%ADD51R,0.8532X0.8532*%
G04:AMPARAMS|DCode=52|XSize=1.4132mm|YSize=0.7932mm|CornerRadius=0.2491mm|HoleSize=0mm|Usage=FLASHONLY|Rotation=90.000|XOffset=0mm|YOffset=0mm|HoleType=Round|Shape=RoundedRectangle|*
%AMROUNDEDRECTD52*
21,1,1.4132,0.2950,0,0,90.0*
21,1,0.9150,0.7932,0,0,90.0*
1,1,0.4982,0.1475,0.4575*
1,1,0.4982,0.1475,-0.4575*
1,1,0.4982,-0.1475,-0.4575*
1,1,0.4982,-0.1475,0.4575*
%
%ADD52ROUNDEDRECTD52*%
%ADD53R,2.9032X1.2032*%
G04:AMPARAMS|DCode=54|XSize=1.2032mm|YSize=1.6232mm|CornerRadius=0.2266mm|HoleSize=0mm|Usage=FLASHONLY|Rotation=0.000|XOffset=0mm|YOffset=0mm|HoleType=Round|Shape=RoundedRectangle|*
%AMROUNDEDRECTD54*
21,1,1.2032,1.1700,0,0,0.0*
21,1,0.7500,1.6232,0,0,0.0*
1,1,0.4532,0.3750,-0.5850*
1,1,0.4532,-0.3750,-0.5850*
1,1,0.4532,-0.3750,0.5850*
1,1,0.4532,0.3750,0.5850*
%
%ADD54ROUNDEDRECTD54*%
%ADD55R,3.5032X3.5032*%
%ADD56R,1.8832X1.8832*%
%ADD57C,1.2192*%
%ADD58C,0.8532*%
%ADD59C,1.9050*%
%ADD60C,2.2098*%
%ADD61R,1.3000X1.3000*%
%ADD62C,1.3000*%
%ADD63R,2.0032X2.0032*%
%ADD64C,2.0032*%
%ADD65R,2.0032X2.0032*%
%ADD66C,4.2032*%
%ADD67C,1.5500*%
%ADD68R,1.5500X1.5500*%
%ADD69R,1.3000X1.3000*%
D17*
X312800Y52250D02*
D03*
X262000D02*
D03*
D18*
X287400Y144960D02*
D03*
D19*
X426500Y255242D02*
D03*
Y269759D02*
D03*
X409750Y255242D02*
D03*
Y269759D02*
D03*
X227500Y85509D02*
D03*
Y70992D02*
D03*
X433598Y339115D02*
D03*
Y353632D02*
D03*
X563250Y115283D02*
D03*
Y100765D02*
D03*
X580250Y115033D02*
D03*
Y100515D02*
D03*
X718940Y195179D02*
D03*
Y180662D02*
D03*
X734180Y195179D02*
D03*
Y180662D02*
D03*
X744830Y105732D02*
D03*
Y120249D02*
D03*
X727050Y105732D02*
D03*
Y120249D02*
D03*
X652500Y99991D02*
D03*
Y114508D02*
D03*
X635750Y99991D02*
D03*
Y114508D02*
D03*
X484500Y152515D02*
D03*
Y167033D02*
D03*
X349000Y48787D02*
D03*
Y63304D02*
D03*
X583250Y299008D02*
D03*
Y284491D02*
D03*
X561750Y299008D02*
D03*
Y284491D02*
D03*
D20*
X486582Y391674D02*
D03*
X501099D02*
D03*
X270968Y306000D02*
D03*
X285485D02*
D03*
X238491Y325250D02*
D03*
X253008D02*
D03*
X611009Y141750D02*
D03*
X596492D02*
D03*
X611250Y158500D02*
D03*
X596733D02*
D03*
X544530Y161750D02*
D03*
X530013D02*
D03*
X544508Y145000D02*
D03*
X529991D02*
D03*
X441242Y50750D02*
D03*
X455759D02*
D03*
X143758Y247500D02*
D03*
X129241D02*
D03*
X143758Y266250D02*
D03*
X129241D02*
D03*
Y321000D02*
D03*
X143758D02*
D03*
Y374750D02*
D03*
X129241D02*
D03*
X143758Y392250D02*
D03*
X129241D02*
D03*
X143758Y449250D02*
D03*
X129241D02*
D03*
X365180Y332398D02*
D03*
X379697D02*
D03*
X486582Y408726D02*
D03*
X501099D02*
D03*
Y357709D02*
D03*
X486582D02*
D03*
Y374959D02*
D03*
X501099D02*
D03*
D21*
X454591Y358335D02*
D03*
Y366406D02*
D03*
X465703Y399544D02*
D03*
Y407615D02*
D03*
Y358335D02*
D03*
Y366406D02*
D03*
X454591Y387109D02*
D03*
Y379038D02*
D03*
X465703Y387109D02*
D03*
Y379038D02*
D03*
X454591Y407615D02*
D03*
Y399544D02*
D03*
D22*
X845995Y161750D02*
D03*
X846000Y205750D02*
D03*
X887010D02*
D03*
X935540Y368950D02*
D03*
X976551D02*
D03*
X887005Y119942D02*
D03*
X845995D02*
D03*
X935540Y229300D02*
D03*
X976550D02*
D03*
X935540Y275850D02*
D03*
X976551D02*
D03*
X935540Y322400D02*
D03*
X976551D02*
D03*
X904755Y368950D02*
D03*
X863745D02*
D03*
X904755Y415500D02*
D03*
X863745D02*
D03*
X935540Y415500D02*
D03*
X976551D02*
D03*
X887005Y161750D02*
D03*
D24*
X285250Y353750D02*
D03*
X239650D02*
D03*
X447300Y82700D02*
D03*
X401700D02*
D03*
D25*
X262450Y425550D02*
D03*
X424500Y154500D02*
D03*
D38*
X540685Y428750D02*
D03*
X548756D02*
D03*
X541364Y339000D02*
D03*
X549435D02*
D03*
D40*
X461768Y258620D02*
D03*
D41*
Y245920D02*
D03*
Y233220D02*
D03*
Y220520D02*
D03*
X558380D02*
D03*
Y233220D02*
D03*
Y245920D02*
D03*
Y258620D02*
D03*
D42*
X599250Y265742D02*
D03*
Y258757D02*
D03*
D43*
X420556Y380639D02*
D03*
Y385639D02*
D03*
X369556Y355639D02*
D03*
Y390639D02*
D03*
Y385639D02*
D03*
Y380639D02*
D03*
Y375639D02*
D03*
Y370639D02*
D03*
Y365639D02*
D03*
Y360639D02*
D03*
X420556Y355639D02*
D03*
Y360639D02*
D03*
Y365639D02*
D03*
Y370639D02*
D03*
Y375639D02*
D03*
Y390639D02*
D03*
D44*
X529121Y369467D02*
D03*
X539120D02*
D03*
X534120D02*
D03*
X524120D02*
D03*
X529121Y398167D02*
D03*
X534120D02*
D03*
X539120D02*
D03*
X524120D02*
D03*
D45*
X497590Y343517D02*
D03*
X526711Y355867D02*
D03*
X507590Y423000D02*
D03*
X497590D02*
D03*
X548220Y417500D02*
D03*
X558220D02*
D03*
X528971Y428500D02*
D03*
X518971D02*
D03*
X536711Y355867D02*
D03*
X507590Y343517D02*
D03*
X528721Y339250D02*
D03*
X518720D02*
D03*
X548220Y350000D02*
D03*
X558220D02*
D03*
X610020Y298240D02*
D03*
X620020D02*
D03*
X610020Y183090D02*
D03*
X620020D02*
D03*
X588460Y226020D02*
D03*
X578460D02*
D03*
X588460Y236180D02*
D03*
X578460D02*
D03*
X620020Y221473D02*
D03*
X610020D02*
D03*
X620020Y234268D02*
D03*
X610020D02*
D03*
X620020Y259857D02*
D03*
X610020D02*
D03*
X620020Y247062D02*
D03*
X610020D02*
D03*
X620020Y285446D02*
D03*
X610020D02*
D03*
X620020Y272651D02*
D03*
X610020D02*
D03*
X620020Y208679D02*
D03*
X610020D02*
D03*
X620020Y195885D02*
D03*
X610020D02*
D03*
X588460Y247610D02*
D03*
X578460D02*
D03*
X588540Y214590D02*
D03*
X578540D02*
D03*
X588540Y259040D02*
D03*
X578540D02*
D03*
X536621Y413017D02*
D03*
X526621D02*
D03*
D46*
X517270Y381317D02*
D03*
X545970Y391317D02*
D03*
Y386317D02*
D03*
Y381317D02*
D03*
Y376317D02*
D03*
X517270D02*
D03*
Y391317D02*
D03*
Y386317D02*
D03*
D47*
X377556Y347639D02*
D03*
X382556D02*
D03*
X387556D02*
D03*
X412556Y398639D02*
D03*
X407556D02*
D03*
X402556D02*
D03*
X397556D02*
D03*
X392556D02*
D03*
X387556D02*
D03*
X382556D02*
D03*
X377556D02*
D03*
X392556Y347639D02*
D03*
X397556D02*
D03*
X402556D02*
D03*
X407556D02*
D03*
X412556D02*
D03*
D48*
X731240Y300470D02*
D03*
Y240470D02*
D03*
X651740D02*
D03*
Y300470D02*
D03*
X731240Y280470D02*
D03*
Y260470D02*
D03*
X651740Y280470D02*
D03*
Y260470D02*
D03*
X865000Y325500D02*
D03*
Y265500D02*
D03*
X785500D02*
D03*
Y325500D02*
D03*
X865000Y305500D02*
D03*
Y285500D02*
D03*
X785500Y305500D02*
D03*
Y285500D02*
D03*
D49*
X682390Y270470D02*
D03*
X816150Y295500D02*
D03*
D50*
X502750Y107600D02*
D03*
Y88900D02*
D03*
X530250D02*
D03*
Y107600D02*
D03*
X581500Y80600D02*
D03*
Y61900D02*
D03*
X607000Y110100D02*
D03*
Y91400D02*
D03*
X698000Y59500D02*
D03*
Y78200D02*
D03*
Y97900D02*
D03*
Y116600D02*
D03*
X762000Y267400D02*
D03*
Y286100D02*
D03*
X399598Y442032D02*
D03*
Y460732D02*
D03*
D51*
X631500Y185000D02*
D03*
Y175000D02*
D03*
X644250Y185000D02*
D03*
Y175000D02*
D03*
X657000D02*
D03*
Y185000D02*
D03*
X669750Y175000D02*
D03*
Y185000D02*
D03*
X795630Y210860D02*
D03*
Y220860D02*
D03*
Y186730D02*
D03*
Y196730D02*
D03*
X766420Y186730D02*
D03*
Y196730D02*
D03*
Y162600D02*
D03*
Y172600D02*
D03*
X795630Y162600D02*
D03*
Y172600D02*
D03*
Y132120D02*
D03*
Y142120D02*
D03*
X766420D02*
D03*
Y132120D02*
D03*
X598250Y175000D02*
D03*
Y185000D02*
D03*
X585250D02*
D03*
Y175000D02*
D03*
X572250D02*
D03*
Y185000D02*
D03*
X559250Y175000D02*
D03*
Y185000D02*
D03*
X654213Y388750D02*
D03*
Y378750D02*
D03*
X604243Y388750D02*
D03*
Y378750D02*
D03*
X579258Y388750D02*
D03*
Y378750D02*
D03*
X629228Y388750D02*
D03*
Y378750D02*
D03*
X641721Y388750D02*
D03*
Y378750D02*
D03*
X666706Y388750D02*
D03*
Y378750D02*
D03*
X679199D02*
D03*
Y388750D02*
D03*
X566765D02*
D03*
Y378750D02*
D03*
X616735D02*
D03*
Y388750D02*
D03*
X591750Y378750D02*
D03*
Y388750D02*
D03*
X766420Y210860D02*
D03*
Y220860D02*
D03*
D52*
X726440Y137270D02*
D03*
X735940D02*
D03*
X745440D02*
D03*
Y162370D02*
D03*
X726440D02*
D03*
X626250Y161550D02*
D03*
X645250D02*
D03*
Y136450D02*
D03*
X635750D02*
D03*
X626250D02*
D03*
X562750Y161550D02*
D03*
X581750D02*
D03*
Y136450D02*
D03*
X572250D02*
D03*
X562750D02*
D03*
D53*
X136959Y304500D02*
D03*
Y282500D02*
D03*
Y429250D02*
D03*
Y407250D02*
D03*
D54*
X128650Y353750D02*
D03*
X147350D02*
D03*
X354748Y443632D02*
D03*
X373448D02*
D03*
D55*
X395056Y373139D02*
D03*
D56*
X531620Y383816D02*
D03*
D57*
X581500Y504500D02*
D03*
X638250Y215750D02*
D03*
X635782Y240665D02*
D03*
X272000Y-11000D02*
D03*
X360000Y155250D02*
D03*
X621500Y342500D02*
D03*
X700460Y-30000D02*
D03*
X5080Y94750D02*
D03*
X304000Y316000D02*
D03*
D58*
X321690Y170360D02*
D03*
X287400D02*
D03*
X253110D02*
D03*
X321690Y136070D02*
D03*
X287400D02*
D03*
X253110D02*
D03*
X401700Y67700D02*
D03*
X837176Y119678D02*
D03*
Y126678D02*
D03*
Y133678D02*
D03*
X484910Y380387D02*
D03*
X507818Y390087D02*
D03*
Y377009D02*
D03*
X395496Y334132D02*
D03*
X417404Y342658D02*
D03*
X434395Y367406D02*
D03*
X434996Y354997D02*
D03*
X454996Y354731D02*
D03*
X454820Y413034D02*
D03*
X465117D02*
D03*
X465590Y354731D02*
D03*
X484980Y386883D02*
D03*
X461768Y217409D02*
D03*
X409750Y250209D02*
D03*
X426500D02*
D03*
X714149Y195179D02*
D03*
X738971D02*
D03*
X714149Y180662D02*
D03*
X738971D02*
D03*
X399598Y465732D02*
D03*
X240000Y400000D02*
D03*
X270000D02*
D03*
X255000Y415000D02*
D03*
X285000D02*
D03*
X240000Y435000D02*
D03*
X270000D02*
D03*
X285000Y450000D02*
D03*
X255000D02*
D03*
X588041Y299008D02*
D03*
X556959D02*
D03*
X502750Y112600D02*
D03*
X581500Y56900D02*
D03*
X698000Y54500D02*
D03*
X836984Y198486D02*
D03*
X836984Y191486D02*
D03*
X836984Y205486D02*
D03*
Y212486D02*
D03*
X836984Y219486D02*
D03*
X836979Y154487D02*
D03*
X836980Y147486D02*
D03*
X836979Y161486D02*
D03*
Y168486D02*
D03*
X836979Y175487D02*
D03*
X853979Y361686D02*
D03*
X853979Y354686D02*
D03*
X853979Y368686D02*
D03*
Y375686D02*
D03*
X853979Y382686D02*
D03*
X854729Y408237D02*
D03*
X854729Y401237D02*
D03*
X854729Y415237D02*
D03*
Y422237D02*
D03*
X854729Y429237D02*
D03*
X148791Y247500D02*
D03*
Y266250D02*
D03*
Y321000D02*
D03*
Y449250D02*
D03*
X152350Y353750D02*
D03*
X148791Y374750D02*
D03*
Y392250D02*
D03*
X232291Y70992D02*
D03*
X267080Y52250D02*
D03*
X256920D02*
D03*
X262000Y69776D02*
D03*
Y34724D02*
D03*
X353791Y63304D02*
D03*
Y48787D02*
D03*
X401700Y97700D02*
D03*
X393700D02*
D03*
X409700D02*
D03*
Y82700D02*
D03*
X393700D02*
D03*
Y67700D02*
D03*
X409700D02*
D03*
X436209Y50750D02*
D03*
X484500Y147483D02*
D03*
X489291Y152515D02*
D03*
Y167033D02*
D03*
X544530Y156959D02*
D03*
X530013D02*
D03*
X529991Y140209D02*
D03*
X544508D02*
D03*
X611250Y153709D02*
D03*
X596733D02*
D03*
X611009Y136959D02*
D03*
X596492D02*
D03*
X585041Y115033D02*
D03*
X558459Y115283D02*
D03*
Y100765D02*
D03*
X585041Y100515D02*
D03*
X795630Y128870D02*
D03*
X766420Y128870D02*
D03*
X749621Y105732D02*
D03*
Y120249D02*
D03*
X722259D02*
D03*
Y105732D02*
D03*
X630959Y114508D02*
D03*
Y99991D02*
D03*
X657291D02*
D03*
Y114508D02*
D03*
X559250Y188250D02*
D03*
X572250D02*
D03*
X657000D02*
D03*
X669750D02*
D03*
X643490Y260470D02*
D03*
Y267220D02*
D03*
Y253720D02*
D03*
X558380Y217409D02*
D03*
X265935Y306000D02*
D03*
X258041Y325250D02*
D03*
X550270Y387292D02*
D03*
X549945Y380017D02*
D03*
X486582Y403935D02*
D03*
Y362500D02*
D03*
X418493Y335437D02*
D03*
X384729Y337189D02*
D03*
X360318Y356632D02*
D03*
X362477Y337189D02*
D03*
X837176Y112678D02*
D03*
Y105678D02*
D03*
X985566Y236563D02*
D03*
Y243563D02*
D03*
Y229563D02*
D03*
Y222563D02*
D03*
Y215563D02*
D03*
X985566Y283114D02*
D03*
Y290114D02*
D03*
Y276114D02*
D03*
Y269114D02*
D03*
Y262113D02*
D03*
Y329664D02*
D03*
Y336664D02*
D03*
Y322664D02*
D03*
Y315664D02*
D03*
Y308664D02*
D03*
Y376213D02*
D03*
Y383214D02*
D03*
Y369214D02*
D03*
Y362214D02*
D03*
Y355214D02*
D03*
Y401763D02*
D03*
Y408764D02*
D03*
Y415764D02*
D03*
X406056Y384139D02*
D03*
Y373139D02*
D03*
Y362139D02*
D03*
X395056Y384139D02*
D03*
Y373139D02*
D03*
Y362139D02*
D03*
X384056Y384139D02*
D03*
Y373139D02*
D03*
Y362139D02*
D03*
X985566Y429764D02*
D03*
Y422763D02*
D03*
X581138Y493577D02*
D03*
X647500Y215500D02*
D03*
X707960Y-30000D02*
D03*
X425098Y406132D02*
D03*
X431848Y398132D02*
D03*
X408818Y416381D02*
D03*
X364950Y415279D02*
D03*
X12580Y95000D02*
D03*
X546840Y360314D02*
D03*
X360068Y347132D02*
D03*
X360318Y380882D02*
D03*
Y390882D02*
D03*
Y370631D02*
D03*
X392598Y418882D02*
D03*
Y409882D02*
D03*
X616923Y395840D02*
D03*
X604173D02*
D03*
X591816D02*
D03*
X629423D02*
D03*
X566830D02*
D03*
X579323D02*
D03*
X654279D02*
D03*
X641786D02*
D03*
X666772D02*
D03*
X679265D02*
D03*
D59*
X103250Y181750D02*
D03*
Y130696D02*
D03*
X52196D02*
D03*
Y181750D02*
D03*
X671527Y63304D02*
D03*
Y12250D02*
D03*
X620473D02*
D03*
Y63304D02*
D03*
X786777D02*
D03*
Y12250D02*
D03*
X735723D02*
D03*
Y63304D02*
D03*
X189000Y184304D02*
D03*
Y133250D02*
D03*
X137946D02*
D03*
Y184304D02*
D03*
X543500Y63304D02*
D03*
Y12250D02*
D03*
X492446D02*
D03*
Y63304D02*
D03*
X477527Y486973D02*
D03*
X426473D02*
D03*
Y538027D02*
D03*
X477527D02*
D03*
D60*
X77723Y156223D02*
D03*
X646000Y37777D02*
D03*
X761250D02*
D03*
X163473Y158777D02*
D03*
X517973Y37777D02*
D03*
X452000Y512500D02*
D03*
D61*
X173709Y223750D02*
D03*
X169250Y100250D02*
D03*
X45000Y59500D02*
D03*
D62*
X153709Y223750D02*
D03*
X133709D02*
D03*
X95000Y99750D02*
D03*
Y79750D02*
D03*
X75000Y59750D02*
D03*
Y79750D02*
D03*
X149250Y100250D02*
D03*
X129250D02*
D03*
X5000Y59500D02*
D03*
X25000D02*
D03*
D63*
X898587Y493924D02*
D03*
X760338D02*
D03*
X846641Y-23423D02*
D03*
X368500Y-17500D02*
D03*
X131500Y-13000D02*
D03*
X153500Y507500D02*
D03*
X293000D02*
D03*
D64*
X835087Y493924D02*
D03*
X696838D02*
D03*
X958849Y152770D02*
D03*
X910141Y-23423D02*
D03*
X432000Y-17500D02*
D03*
X195000Y-13000D02*
D03*
X90000Y507500D02*
D03*
X229500D02*
D03*
D65*
X958849Y89270D02*
D03*
D66*
X990000Y520000D02*
D03*
Y0D02*
D03*
X0D02*
D03*
Y520000D02*
D03*
D67*
X11250Y309850D02*
D03*
Y233650D02*
D03*
X88250Y309850D02*
D03*
Y284450D02*
D03*
Y259050D02*
D03*
X11250Y366650D02*
D03*
Y442850D02*
D03*
X88250D02*
D03*
Y417450D02*
D03*
D68*
Y233650D02*
D03*
Y366650D02*
D03*
D69*
X95000Y59750D02*
D03*
X75000Y99750D02*
D03*
M02*
