G04*
G04 #@! TF.GenerationSoftware,Altium Limited,Altium Designer,22.0.2 (36)*
G04*
G04 Layer_Color=16711935*
%FSLAX44Y44*%
%MOMM*%
G71*
G04*
G04 #@! TF.SameCoordinates,A00C5D83-CF48-4284-9485-F4BE2AF80D81*
G04*
G04*
G04 #@! TF.FilePolarity,Negative*
G04*
G01*
G75*
%ADD59C,1.9050*%
%ADD60C,2.2098*%
%ADD61R,1.3000X1.3000*%
%ADD62C,1.3000*%
%ADD63R,2.0032X2.0032*%
%ADD64C,2.0032*%
%ADD65R,2.0032X2.0032*%
%ADD66C,4.2032*%
%ADD67C,1.5500*%
%ADD68R,1.5500X1.5500*%
%ADD69R,1.3000X1.3000*%
D59*
X103250Y181750D02*
D03*
Y130696D02*
D03*
X52196D02*
D03*
Y181750D02*
D03*
X671527Y63304D02*
D03*
Y12250D02*
D03*
X620473D02*
D03*
Y63304D02*
D03*
X786777D02*
D03*
Y12250D02*
D03*
X735723D02*
D03*
Y63304D02*
D03*
X189000Y184304D02*
D03*
Y133250D02*
D03*
X137946D02*
D03*
Y184304D02*
D03*
X543500Y63304D02*
D03*
Y12250D02*
D03*
X492446D02*
D03*
Y63304D02*
D03*
X477527Y486973D02*
D03*
X426473D02*
D03*
Y538027D02*
D03*
X477527D02*
D03*
D60*
X77723Y156223D02*
D03*
X646000Y37777D02*
D03*
X761250D02*
D03*
X163473Y158777D02*
D03*
X517973Y37777D02*
D03*
X452000Y512500D02*
D03*
D61*
X173709Y223750D02*
D03*
X169250Y100250D02*
D03*
X45000Y59500D02*
D03*
D62*
X153709Y223750D02*
D03*
X133709D02*
D03*
X95000Y99750D02*
D03*
Y79750D02*
D03*
X75000Y59750D02*
D03*
Y79750D02*
D03*
X149250Y100250D02*
D03*
X129250D02*
D03*
X5000Y59500D02*
D03*
X25000D02*
D03*
D63*
X898587Y493924D02*
D03*
X760338D02*
D03*
X846641Y-23423D02*
D03*
X368500Y-17500D02*
D03*
X131500Y-13000D02*
D03*
X153500Y507500D02*
D03*
X293000D02*
D03*
D64*
X835087Y493924D02*
D03*
X696838D02*
D03*
X958849Y152770D02*
D03*
X910141Y-23423D02*
D03*
X432000Y-17500D02*
D03*
X195000Y-13000D02*
D03*
X90000Y507500D02*
D03*
X229500D02*
D03*
D65*
X958849Y89270D02*
D03*
D66*
X990000Y520000D02*
D03*
Y0D02*
D03*
X0D02*
D03*
Y520000D02*
D03*
D67*
X11250Y309850D02*
D03*
Y233650D02*
D03*
X88250Y309850D02*
D03*
Y284450D02*
D03*
Y259050D02*
D03*
X11250Y366650D02*
D03*
Y442850D02*
D03*
X88250D02*
D03*
Y417450D02*
D03*
D68*
Y233650D02*
D03*
Y366650D02*
D03*
D69*
X95000Y59750D02*
D03*
X75000Y99750D02*
D03*
M02*
