G04*
G04 #@! TF.GenerationSoftware,Altium Limited,Altium Designer,22.0.2 (36)*
G04*
G04 Layer_Color=65535*
%FSLAX44Y44*%
%MOMM*%
G71*
G04*
G04 #@! TF.SameCoordinates,A00C5D83-CF48-4284-9485-F4BE2AF80D81*
G04*
G04*
G04 #@! TF.FilePolarity,Positive*
G04*
G01*
G75*
%ADD10C,0.5000*%
%ADD11C,0.2500*%
%ADD12C,0.1000*%
%ADD13C,0.2540*%
%ADD14C,0.2000*%
%ADD15C,0.1524*%
%ADD16C,0.1270*%
D10*
X241904Y52697D02*
G03*
X242180Y52250I-224J-447D01*
G01*
X215930Y352910D02*
G03*
X215930Y352910I-500J0D01*
G01*
X377980Y81860D02*
G03*
X377980Y81860I-500J0D01*
G01*
X486544Y261320D02*
G03*
X486544Y261320I-2500J0D01*
G01*
D11*
X190459Y224000D02*
G03*
X190459Y224000I-1250J0D01*
G01*
X937588Y490924D02*
G03*
X937588Y490924I-1250J0D01*
G01*
X760338Y441424D02*
G03*
X760338Y441424I-1250J0D01*
G01*
X974599Y52020D02*
G03*
X974599Y52020I-1250J0D01*
G01*
X809891Y-37173D02*
G03*
X809891Y-37173I-1250J0D01*
G01*
X123500Y233650D02*
G03*
X123500Y233650I-1250J0D01*
G01*
X89500Y327750D02*
G03*
X89500Y327750I-1250J0D01*
G01*
X327500Y-16500D02*
G03*
X327500Y-16500I-1250J0D01*
G01*
X94000Y-18250D02*
G03*
X94000Y-18250I-1250J0D01*
G01*
X96000Y44250D02*
G03*
X96000Y44250I-1250J0D01*
G01*
X76500Y115250D02*
G03*
X76500Y115250I-1250J0D01*
G01*
X186000Y100500D02*
G03*
X186000Y100500I-1250J0D01*
G01*
X157209Y304500D02*
G03*
X157209Y304500I-1250J0D01*
G01*
X192250Y511500D02*
G03*
X192250Y511500I-1250J0D01*
G01*
X331500Y550000D02*
G03*
X331500Y550000I-1250J0D01*
G01*
X413348Y406382D02*
G03*
X413348Y406382I-1250J0D01*
G01*
X61750Y59750D02*
G03*
X61750Y59750I-1250J0D01*
G01*
X448243Y258620D02*
G03*
X448243Y258620I-1250J0D01*
G01*
X157209Y429250D02*
G03*
X157209Y429250I-1250J0D01*
G01*
D12*
X651990Y314470D02*
G03*
X651990Y314470I-500J0D01*
G01*
X785750Y339500D02*
G03*
X785750Y339500I-500J0D01*
G01*
D13*
X600419Y252935D02*
G03*
X600419Y252935I-1000J0D01*
G01*
X627540Y502775D02*
Y487540D01*
X637697D01*
X642775Y495158D02*
X652932D01*
X944833Y487006D02*
Y471771D01*
X954990D01*
X960068Y479388D02*
X970225D01*
X965146Y484466D02*
Y474310D01*
D14*
X726440Y125720D02*
G03*
X726440Y125720I-1000J0D01*
G01*
X626250Y124900D02*
G03*
X626250Y124900I-1000J0D01*
G01*
X562750D02*
G03*
X562750Y124900I-1000J0D01*
G01*
X547800Y403613D02*
G03*
X547800Y403613I-1000J0D01*
G01*
X435291Y250209D02*
Y274791D01*
X417709Y250209D02*
Y274791D01*
X418541Y250209D02*
Y274791D01*
X400959Y250209D02*
Y274791D01*
X122709Y212750D02*
X184709D01*
X122709D02*
Y234750D01*
X184709D01*
Y212750D02*
Y234750D01*
X930337Y447924D02*
Y555924D01*
X803339Y447926D02*
X930336D01*
X803339D02*
Y555924D01*
X930337D01*
X792088Y447924D02*
Y555924D01*
X665089Y447926D02*
X792086D01*
X665089D02*
Y555924D01*
X792088D01*
X912849Y57520D02*
X1010683D01*
X912851Y57522D02*
Y184519D01*
X1010683D01*
Y57520D02*
Y184519D01*
X481549Y382883D02*
X506132D01*
X481549Y400465D02*
X506132D01*
X447729Y355008D02*
Y369733D01*
X461453Y355008D02*
Y369733D01*
X472566Y396217D02*
Y410942D01*
X458841Y396217D02*
Y410942D01*
X472566Y355008D02*
Y369733D01*
X458841Y355008D02*
Y369733D01*
X461453Y375712D02*
Y390436D01*
X447729Y375712D02*
Y390436D01*
X472566Y375712D02*
Y390436D01*
X458841Y375712D02*
Y390436D01*
X447729Y396217D02*
Y410942D01*
X461453Y396217D02*
Y410942D01*
X218709Y65959D02*
Y90541D01*
X236291Y65959D02*
Y90541D01*
X265935Y297209D02*
X290517D01*
X265935Y314791D02*
X290517D01*
X233459Y316459D02*
X258041D01*
X233459Y334041D02*
X258041D01*
X442389Y334082D02*
Y358664D01*
X424807Y334082D02*
Y358664D01*
X651490Y230470D02*
X731490D01*
X651490Y310470D02*
X731490D01*
X858016Y187729D02*
X874994D01*
X858016Y223771D02*
X874994D01*
X814891Y-42000D02*
Y22577D01*
X814892Y22575D02*
X941889D01*
Y-42000D02*
Y22575D01*
X814891Y-42000D02*
X941889D01*
X2250Y322750D02*
X116250D01*
X2250Y200750D02*
X116250D01*
Y322750D01*
X-2750Y455750D02*
X116250D01*
X-2750Y333750D02*
X116250D01*
Y455750D01*
X947556Y386971D02*
X964535D01*
X947556Y350929D02*
X964535D01*
X858011Y137963D02*
X874990D01*
X858011Y101921D02*
X874990D01*
X947556Y211279D02*
X964535D01*
X947556Y247321D02*
X964535D01*
X947556Y293871D02*
X964535D01*
X947556Y257829D02*
X964535D01*
X947556Y340421D02*
X964535D01*
X947556Y304379D02*
X964535D01*
X875761Y386970D02*
X892739D01*
X875761Y350929D02*
X892739D01*
X875761Y433521D02*
X892739D01*
X875761Y397479D02*
X892739D01*
X947556Y433521D02*
X964535D01*
X947556Y397479D02*
X964535D01*
X554459Y95733D02*
Y120315D01*
X572041Y95733D02*
Y120315D01*
X571459Y95483D02*
Y120065D01*
X589041Y95483D02*
Y120065D01*
X710149Y175629D02*
Y200211D01*
X727731Y175629D02*
Y200211D01*
X725389Y175629D02*
Y200211D01*
X742971Y175629D02*
Y200211D01*
X858011Y179771D02*
X874989D01*
X858011Y143729D02*
X874989D01*
X753621Y100699D02*
Y125281D01*
X736039Y100699D02*
Y125281D01*
X735841Y100699D02*
Y125281D01*
X718259Y100699D02*
Y125281D01*
X661291Y94959D02*
Y119541D01*
X643709Y94959D02*
Y119541D01*
X644541Y94959D02*
Y119541D01*
X626959Y94959D02*
Y119541D01*
X591459Y150541D02*
X616041D01*
X591459Y132959D02*
X616041D01*
X591701Y167291D02*
X616283D01*
X591701Y149709D02*
X616283D01*
X524980Y170541D02*
X549562D01*
X524980Y152959D02*
X549562D01*
X524959Y153791D02*
X549541D01*
X524959Y136209D02*
X549541D01*
X493291Y147483D02*
Y172065D01*
X475709Y147483D02*
Y172065D01*
X436209Y41959D02*
X460791D01*
X436209Y59541D02*
X460791D01*
X336750Y-40750D02*
X463748D01*
Y28498D01*
X336752D02*
X463748D01*
X336750Y-40750D02*
Y28500D01*
X357791Y43754D02*
Y68336D01*
X340209Y43754D02*
Y68336D01*
X99750Y-42000D02*
Y33000D01*
X99752Y32998D02*
X226748D01*
Y-42000D02*
Y32998D01*
X99750Y-42000D02*
X226748D01*
X84000Y48750D02*
X106000D01*
X84000D02*
Y110750D01*
X106000D01*
Y48750D02*
Y110750D01*
X64000D02*
X86000D01*
Y48750D02*
Y110750D01*
X64000Y48750D02*
X86000D01*
X64000D02*
Y110750D01*
X118250Y89250D02*
X180250D01*
X118250D02*
Y111250D01*
X180250D01*
Y89250D02*
Y111250D01*
X124209Y256291D02*
X148791D01*
X124209Y238709D02*
X148791D01*
X124209Y275041D02*
X148791D01*
X124209Y257459D02*
X148791D01*
X151959Y291500D02*
Y295500D01*
X121959Y291500D02*
Y295500D01*
Y291500D02*
X151959D01*
X121959Y295500D02*
X151959D01*
X124209Y312209D02*
X148791D01*
X124209Y329791D02*
X148791D01*
X124209Y383541D02*
X148791D01*
X124209Y365959D02*
X148791D01*
X124209Y401041D02*
X148791D01*
X124209Y383459D02*
X148791D01*
X124209Y458041D02*
X148791D01*
X124209Y440459D02*
X148791D01*
X58252Y555250D02*
X185250D01*
X58252Y461502D02*
Y555250D01*
X185250Y461500D02*
Y555250D01*
X58252Y461502D02*
X185248D01*
X197752Y554000D02*
X324750D01*
X197752Y461502D02*
Y554000D01*
Y461502D02*
X324748D01*
X324750Y461500D02*
Y554000D01*
X360147Y323607D02*
X384729D01*
X360147Y341189D02*
X384729D01*
X417556Y399639D02*
X421556D01*
Y395639D02*
Y399639D01*
Y346639D02*
Y350639D01*
X417556Y346639D02*
X421556D01*
X368556D02*
X372556D01*
X368556D02*
Y350639D01*
Y399639D02*
X372556D01*
X368556Y395639D02*
Y399639D01*
X481549Y399934D02*
X506132D01*
X481549Y417517D02*
X506132D01*
X537358Y421888D02*
X552083D01*
X537358Y435612D02*
X552083D01*
X574459Y279459D02*
Y304041D01*
X592041Y279459D02*
Y304041D01*
X552959Y279459D02*
Y304041D01*
X570541Y279459D02*
Y304041D01*
X538037Y332138D02*
X552762D01*
X538037Y345862D02*
X552762D01*
X56000Y48500D02*
Y70500D01*
X-6000D02*
X56000D01*
X-6000Y48500D02*
Y70500D01*
Y48500D02*
X56000D01*
X481549Y366500D02*
X506132D01*
X481549Y348918D02*
X506132D01*
X476544Y268820D02*
X543605D01*
Y210320D02*
Y268820D01*
X476544Y210320D02*
X543605D01*
X476544D02*
Y268820D01*
X785250Y255500D02*
X865250D01*
X785250Y335500D02*
X865250D01*
X151959Y416250D02*
Y420250D01*
X121959Y416250D02*
Y420250D01*
Y416250D02*
X151959D01*
X121959Y420250D02*
X151959D01*
X481549Y366168D02*
X506132D01*
X481549Y383750D02*
X506132D01*
X472000Y-33002D02*
X478665D01*
X475332Y-29669D02*
Y-36334D01*
X488661Y-28003D02*
X481997D01*
Y-33002D01*
X485329Y-31335D01*
X486995D01*
X488661Y-33002D01*
Y-36334D01*
X486995Y-38000D01*
X483663D01*
X481997Y-36334D01*
X491994Y-28003D02*
Y-34668D01*
X495326Y-38000D01*
X498658Y-34668D01*
Y-28003D01*
X149463Y86323D02*
X146131D01*
X144464Y84657D01*
Y77992D01*
X146131Y76326D01*
X149463D01*
X151129Y77992D01*
Y84657D01*
X149463Y86323D01*
X154461Y82991D02*
Y77992D01*
X156127Y76326D01*
X161126D01*
Y82991D01*
X166124Y84657D02*
Y82991D01*
X164458D01*
X167790D01*
X166124D01*
Y77992D01*
X167790Y76326D01*
X34429Y106541D02*
X36095Y108207D01*
X39427D01*
X41093Y106541D01*
Y104875D01*
X39427Y103209D01*
X37761D01*
X39427D01*
X41093Y101543D01*
Y99876D01*
X39427Y98210D01*
X36095D01*
X34429Y99876D01*
X44426Y108207D02*
Y101543D01*
X47758Y98210D01*
X51090Y101543D01*
Y108207D01*
X54422Y106541D02*
X56088Y108207D01*
X59421D01*
X61087Y106541D01*
Y104875D01*
X59421Y103209D01*
X57755D01*
X59421D01*
X61087Y101543D01*
Y99876D01*
X59421Y98210D01*
X56088D01*
X54422Y99876D01*
X41767Y85443D02*
X43433Y87109D01*
X46765D01*
X48432Y85443D01*
Y78778D01*
X46765Y77112D01*
X43433D01*
X41767Y78778D01*
Y85443D01*
X51764Y87109D02*
Y80444D01*
X55096Y77112D01*
X58428Y80444D01*
Y87109D01*
X43111Y43644D02*
X41445Y45310D01*
X38113D01*
X36447Y43644D01*
Y36979D01*
X38113Y35313D01*
X41445D01*
X43111Y36979D01*
X46444Y35313D02*
X49776D01*
X48110D01*
Y45310D01*
X46444D01*
X56440Y41978D02*
X59773D01*
X61439Y40312D01*
Y35313D01*
X56440D01*
X54774Y36979D01*
X56440Y38646D01*
X61439D01*
X64771Y35313D02*
Y41978D01*
X66437D01*
X68103Y40312D01*
Y35313D01*
Y40312D01*
X69769Y41978D01*
X71435Y40312D01*
Y35313D01*
X74768Y31981D02*
Y41978D01*
X79766D01*
X81432Y40312D01*
Y36979D01*
X79766Y35313D01*
X74768D01*
X193988Y250089D02*
X190656D01*
X188990Y248423D01*
Y241758D01*
X190656Y240092D01*
X193988D01*
X195654Y241758D01*
Y248423D01*
X193988Y250089D01*
X198986Y246757D02*
Y241758D01*
X200653Y240092D01*
X205651D01*
Y246757D01*
X210649Y248423D02*
Y246757D01*
X208983D01*
X212315D01*
X210649D01*
Y241758D01*
X212315Y240092D01*
X210906Y173283D02*
X207574D01*
X205908Y171617D01*
Y164953D01*
X207574Y163287D01*
X210906D01*
X212572Y164953D01*
Y171617D01*
X210906Y173283D01*
X215905Y169951D02*
Y164953D01*
X217571Y163287D01*
X222569D01*
Y169951D01*
X227567Y171617D02*
Y169951D01*
X225901D01*
X229233D01*
X227567D01*
Y164953D01*
X229233Y163287D01*
X6192Y178257D02*
Y170639D01*
X5716Y169211D01*
X5240Y168735D01*
X4288Y168259D01*
X3336D01*
X2384Y168735D01*
X1908Y169211D01*
X1432Y170639D01*
Y171592D01*
X8763Y176353D02*
X9715Y176829D01*
X11144Y178257D01*
Y168259D01*
X22284Y174924D02*
X21808Y173496D01*
X20856Y172544D01*
X19428Y172068D01*
X18952D01*
X17523Y172544D01*
X16571Y173496D01*
X16095Y174924D01*
Y175400D01*
X16571Y176829D01*
X17523Y177781D01*
X18952Y178257D01*
X19428D01*
X20856Y177781D01*
X21808Y176829D01*
X22284Y174924D01*
Y172544D01*
X21808Y170163D01*
X20856Y168735D01*
X19428Y168259D01*
X18476D01*
X17047Y168735D01*
X16571Y169687D01*
X4240Y151247D02*
X7572D01*
X5906D01*
Y141250D01*
X4240D01*
X7572D01*
X12570D02*
Y147915D01*
X17569D01*
X19235Y146249D01*
Y141250D01*
X537000Y-19671D02*
Y-26335D01*
X540332Y-29668D01*
X543665Y-26335D01*
Y-19671D01*
X550329Y-33000D02*
X551995D01*
X553661Y-31334D01*
Y-23003D01*
X548663D01*
X546997Y-24669D01*
Y-28002D01*
X548663Y-29668D01*
X553661D01*
X556994D02*
X561992D01*
X563658Y-28002D01*
X561992Y-26335D01*
X558660D01*
X556994Y-24669D01*
X558660Y-23003D01*
X563658D01*
X566990Y-29668D02*
X571989D01*
X573655Y-28002D01*
X571989Y-26335D01*
X568657D01*
X566990Y-24669D01*
X568657Y-23003D01*
X573655D01*
X626890Y-26359D02*
Y-33024D01*
X630222Y-36356D01*
X633554Y-33024D01*
Y-26359D01*
X640219Y-39688D02*
X641885D01*
X643551Y-38022D01*
Y-29691D01*
X638553D01*
X636887Y-31357D01*
Y-34690D01*
X638553Y-36356D01*
X643551D01*
X646883D02*
X651882D01*
X653548Y-34690D01*
X651882Y-33024D01*
X648549D01*
X646883Y-31357D01*
X648549Y-29691D01*
X653548D01*
X736509Y-26094D02*
Y-32759D01*
X739841Y-36091D01*
X743173Y-32759D01*
Y-26094D01*
X753170D02*
Y-36091D01*
X748172D01*
X746506Y-34425D01*
Y-31093D01*
X748172Y-29427D01*
X753170D01*
X756502Y-36091D02*
X761501D01*
X763167Y-34425D01*
X761501Y-32759D01*
X758168D01*
X756502Y-31093D01*
X758168Y-29427D01*
X763167D01*
X495160Y532921D02*
X498492D01*
X496826D01*
Y522924D01*
X495160D01*
X498492D01*
X503491D02*
X508489D01*
X510155Y524591D01*
X508489Y526257D01*
X505157D01*
X503491Y527923D01*
X505157Y529589D01*
X510155D01*
X334030Y522681D02*
X340695D01*
X337363Y526013D02*
Y519349D01*
X350692Y527679D02*
X347360Y526013D01*
X344027Y522681D01*
Y519349D01*
X345693Y517683D01*
X349026D01*
X350692Y519349D01*
Y521015D01*
X349026Y522681D01*
X344027D01*
X354024Y527679D02*
Y521015D01*
X357356Y517683D01*
X360689Y521015D01*
Y527679D01*
X232368Y-35274D02*
X239033D01*
X249030Y-30276D02*
X242365D01*
Y-35274D01*
X245697Y-33608D01*
X247363D01*
X249030Y-35274D01*
Y-38606D01*
X247363Y-40272D01*
X244031D01*
X242365Y-38606D01*
X252362Y-30276D02*
Y-36940D01*
X255694Y-40272D01*
X259026Y-36940D01*
Y-30276D01*
X865529Y81335D02*
Y74670D01*
X868861Y71338D01*
X872194Y74670D01*
Y81335D01*
X875526D02*
Y71338D01*
X880524D01*
X882190Y73004D01*
Y79669D01*
X880524Y81335D01*
X875526D01*
X885523D02*
Y71338D01*
X890521D01*
X892187Y73004D01*
Y79669D01*
X890521Y81335D01*
X885523D01*
X862194Y39669D02*
X860528Y41335D01*
X857195D01*
X855529Y39669D01*
Y33004D01*
X857195Y31338D01*
X860528D01*
X862194Y33004D01*
Y36337D01*
X858861D01*
X865526Y31338D02*
Y41335D01*
X872190Y31338D01*
Y41335D01*
X875523D02*
Y31338D01*
X880521D01*
X882187Y33004D01*
Y39669D01*
X880521Y41335D01*
X875523D01*
X427236Y287706D02*
X426760Y288659D01*
X425808Y289611D01*
X424856Y290087D01*
X422951D01*
X421999Y289611D01*
X421047Y288659D01*
X420571Y287706D01*
X420095Y286278D01*
Y283898D01*
X420571Y282469D01*
X421047Y281517D01*
X421999Y280565D01*
X422951Y280089D01*
X424856D01*
X425808Y280565D01*
X426760Y281517D01*
X427236Y282469D01*
X435758Y288659D02*
X435282Y289611D01*
X433854Y290087D01*
X432901D01*
X431473Y289611D01*
X430521Y288182D01*
X430045Y285802D01*
Y283421D01*
X430521Y281517D01*
X431473Y280565D01*
X432901Y280089D01*
X433378D01*
X434806Y280565D01*
X435758Y281517D01*
X436234Y282945D01*
Y283421D01*
X435758Y284850D01*
X434806Y285802D01*
X433378Y286278D01*
X432901D01*
X431473Y285802D01*
X430521Y284850D01*
X430045Y283421D01*
X407477Y287936D02*
X407001Y288888D01*
X406049Y289840D01*
X405097Y290316D01*
X403193D01*
X402240Y289840D01*
X401288Y288888D01*
X400812Y287936D01*
X400336Y286507D01*
Y284127D01*
X400812Y282699D01*
X401288Y281747D01*
X402240Y280795D01*
X403193Y280318D01*
X405097D01*
X406049Y280795D01*
X407001Y281747D01*
X407477Y282699D01*
X415047Y290316D02*
X410286Y283651D01*
X417428D01*
X415047Y290316D02*
Y280318D01*
X940362Y461673D02*
Y454056D01*
X939886Y452627D01*
X939410Y452151D01*
X938457Y451675D01*
X937505D01*
X936553Y452151D01*
X936077Y452627D01*
X935601Y454056D01*
Y455008D01*
X947694Y461673D02*
X942933Y455008D01*
X950074D01*
X947694Y461673D02*
Y451675D01*
X640934Y463173D02*
Y455556D01*
X640458Y454127D01*
X639982Y453651D01*
X639030Y453175D01*
X638077D01*
X637125Y453651D01*
X636649Y454127D01*
X636173Y455556D01*
Y456508D01*
X643505Y461269D02*
X644457Y461745D01*
X645885Y463173D01*
Y453175D01*
X651789Y463173D02*
X657026D01*
X654169Y459364D01*
X655598D01*
X656550Y458888D01*
X657026Y458412D01*
X657502Y456984D01*
Y456032D01*
X657026Y454604D01*
X656074Y453651D01*
X654645Y453175D01*
X653217D01*
X651789Y453651D01*
X651313Y454127D01*
X650837Y455080D01*
X425091Y320166D02*
X424615Y321118D01*
X423663Y322070D01*
X422710Y322547D01*
X420806D01*
X419854Y322070D01*
X418902Y321118D01*
X418426Y320166D01*
X417949Y318738D01*
Y316357D01*
X418426Y314929D01*
X418902Y313977D01*
X419854Y313025D01*
X420806Y312549D01*
X422710D01*
X423663Y313025D01*
X424615Y313977D01*
X425091Y314929D01*
X428852Y322547D02*
X434089D01*
X431232Y318738D01*
X432661D01*
X433613Y318262D01*
X434089Y317786D01*
X434565Y316357D01*
Y315405D01*
X434089Y313977D01*
X433137Y313025D01*
X431708Y312549D01*
X430280D01*
X428852Y313025D01*
X428376Y313501D01*
X427900Y314453D01*
X439183Y322547D02*
X437755Y322070D01*
X437279Y321118D01*
Y320166D01*
X437755Y319214D01*
X438707Y318738D01*
X440611Y318262D01*
X442040Y317786D01*
X442992Y316833D01*
X443468Y315881D01*
Y314453D01*
X442992Y313501D01*
X442516Y313025D01*
X441087Y312549D01*
X439183D01*
X437755Y313025D01*
X437279Y313501D01*
X436803Y314453D01*
Y315881D01*
X437279Y316833D01*
X438231Y317786D01*
X439659Y318262D01*
X441563Y318738D01*
X442516Y319214D01*
X442992Y320166D01*
Y321118D01*
X442516Y322070D01*
X441087Y322547D01*
X439183D01*
X577253Y524082D02*
X575587Y525748D01*
X572255D01*
X570589Y524082D01*
Y517418D01*
X572255Y515752D01*
X575587D01*
X577253Y517418D01*
Y520750D01*
X573921D01*
X580586Y515752D02*
Y525748D01*
X587250Y515752D01*
Y525748D01*
X590582D02*
Y515752D01*
X595581D01*
X597247Y517418D01*
Y524082D01*
X595581Y525748D01*
X590582D01*
X600579Y515752D02*
X603911D01*
X602245D01*
Y525748D01*
X600579Y524082D01*
X860632Y239618D02*
X860156Y240571D01*
X859204Y241523D01*
X858252Y241999D01*
X856347D01*
X855395Y241523D01*
X854443Y240571D01*
X853967Y239618D01*
X853491Y238190D01*
Y235810D01*
X853967Y234382D01*
X854443Y233429D01*
X855395Y232477D01*
X856347Y232001D01*
X858252D01*
X859204Y232477D01*
X860156Y233429D01*
X860632Y234382D01*
X868202Y241999D02*
X863441Y235334D01*
X870582D01*
X868202Y241999D02*
Y232001D01*
X873296Y241999D02*
X878533D01*
X875677Y238190D01*
X877105D01*
X878057Y237714D01*
X878533Y237238D01*
X879009Y235810D01*
Y234858D01*
X878533Y233429D01*
X877581Y232477D01*
X876153Y232001D01*
X874724D01*
X873296Y232477D01*
X872820Y232953D01*
X872344Y233905D01*
X922382Y442369D02*
X921906Y443321D01*
X920954Y444273D01*
X920002Y444749D01*
X918097D01*
X917145Y444273D01*
X916193Y443321D01*
X915717Y442369D01*
X915241Y440940D01*
Y438560D01*
X915717Y437132D01*
X916193Y436179D01*
X917145Y435227D01*
X918097Y434751D01*
X920002D01*
X920954Y435227D01*
X921906Y436179D01*
X922382Y437132D01*
X930904Y444749D02*
X926143D01*
X925667Y440464D01*
X926143Y440940D01*
X927571Y441416D01*
X929000D01*
X930428Y440940D01*
X931380Y439988D01*
X931856Y438560D01*
Y437608D01*
X931380Y436179D01*
X930428Y435227D01*
X929000Y434751D01*
X927571D01*
X926143Y435227D01*
X925667Y435703D01*
X925191Y436655D01*
X934570Y442369D02*
Y442845D01*
X935046Y443797D01*
X935522Y444273D01*
X936474Y444749D01*
X938379D01*
X939331Y444273D01*
X939807Y443797D01*
X940283Y442845D01*
Y441892D01*
X939807Y440940D01*
X938855Y439512D01*
X934094Y434751D01*
X940759D01*
X922618Y373225D02*
X923571Y373702D01*
X924523Y374654D01*
X924999Y375606D01*
Y377510D01*
X924523Y378462D01*
X923571Y379415D01*
X922618Y379891D01*
X921190Y380367D01*
X918810D01*
X917382Y379891D01*
X916429Y379415D01*
X915477Y378462D01*
X915001Y377510D01*
Y375606D01*
X915477Y374654D01*
X916429Y373702D01*
X917382Y373225D01*
X924999Y364703D02*
Y369464D01*
X920714Y369940D01*
X921190Y369464D01*
X921666Y368036D01*
Y366608D01*
X921190Y365179D01*
X920238Y364227D01*
X918810Y363751D01*
X917858D01*
X916429Y364227D01*
X915477Y365179D01*
X915001Y366608D01*
Y368036D01*
X915477Y369464D01*
X915953Y369940D01*
X916905Y370416D01*
X923095Y361514D02*
X923571Y360561D01*
X924999Y359133D01*
X915001D01*
X905882Y323868D02*
X905406Y324821D01*
X904454Y325773D01*
X903502Y326249D01*
X901597D01*
X900645Y325773D01*
X899693Y324821D01*
X899217Y323868D01*
X898741Y322440D01*
Y320060D01*
X899217Y318631D01*
X899693Y317679D01*
X900645Y316727D01*
X901597Y316251D01*
X903502D01*
X904454Y316727D01*
X905406Y317679D01*
X905882Y318631D01*
X914404Y326249D02*
X909643D01*
X909167Y321964D01*
X909643Y322440D01*
X911071Y322916D01*
X912500D01*
X913928Y322440D01*
X914880Y321488D01*
X915356Y320060D01*
Y319108D01*
X914880Y317679D01*
X913928Y316727D01*
X912500Y316251D01*
X911071D01*
X909643Y316727D01*
X909167Y317203D01*
X908691Y318155D01*
X920451Y326249D02*
X919022Y325773D01*
X918070Y324345D01*
X917594Y321964D01*
Y320536D01*
X918070Y318155D01*
X919022Y316727D01*
X920451Y316251D01*
X921403D01*
X922831Y316727D01*
X923783Y318155D01*
X924259Y320536D01*
Y321964D01*
X923783Y324345D01*
X922831Y325773D01*
X921403Y326249D01*
X920451D01*
X906620Y278619D02*
X906144Y279571D01*
X905192Y280523D01*
X904240Y280999D01*
X902335D01*
X901383Y280523D01*
X900431Y279571D01*
X899955Y278619D01*
X899479Y277190D01*
Y274810D01*
X899955Y273382D01*
X900431Y272429D01*
X901383Y271477D01*
X902335Y271001D01*
X904240D01*
X905192Y271477D01*
X906144Y272429D01*
X906620Y273382D01*
X914190Y280999D02*
X909429Y274334D01*
X916571D01*
X914190Y280999D02*
Y271001D01*
X924521Y277666D02*
X924045Y276238D01*
X923093Y275286D01*
X921665Y274810D01*
X921189D01*
X919760Y275286D01*
X918808Y276238D01*
X918332Y277666D01*
Y278142D01*
X918808Y279571D01*
X919760Y280523D01*
X921189Y280999D01*
X921665D01*
X923093Y280523D01*
X924045Y279571D01*
X924521Y277666D01*
Y275286D01*
X924045Y272905D01*
X923093Y271477D01*
X921665Y271001D01*
X920712D01*
X919284Y271477D01*
X918808Y272429D01*
X828633Y370868D02*
X828156Y371821D01*
X827204Y372773D01*
X826252Y373249D01*
X824348D01*
X823395Y372773D01*
X822443Y371821D01*
X821967Y370868D01*
X821491Y369440D01*
Y367060D01*
X821967Y365631D01*
X822443Y364679D01*
X823395Y363727D01*
X824348Y363251D01*
X826252D01*
X827204Y363727D01*
X828156Y364679D01*
X828633Y365631D01*
X836202Y373249D02*
X831441Y366584D01*
X838583D01*
X836202Y373249D02*
Y363251D01*
X842725Y373249D02*
X841296Y372773D01*
X840820Y371821D01*
Y370868D01*
X841296Y369916D01*
X842249Y369440D01*
X844153Y368964D01*
X845581Y368488D01*
X846533Y367536D01*
X847010Y366584D01*
Y365155D01*
X846533Y364203D01*
X846057Y363727D01*
X844629Y363251D01*
X842725D01*
X841296Y363727D01*
X840820Y364203D01*
X840344Y365155D01*
Y366584D01*
X840820Y367536D01*
X841773Y368488D01*
X843201Y368964D01*
X845105Y369440D01*
X846057Y369916D01*
X846533Y370868D01*
Y371821D01*
X846057Y372773D01*
X844629Y373249D01*
X842725D01*
X906623Y124979D02*
X907575Y125455D01*
X908527Y126407D01*
X909004Y127360D01*
Y129264D01*
X908527Y130216D01*
X907575Y131168D01*
X906623Y131644D01*
X905195Y132121D01*
X902814D01*
X901386Y131644D01*
X900434Y131168D01*
X899482Y130216D01*
X899006Y129264D01*
Y127360D01*
X899482Y126407D01*
X900434Y125455D01*
X901386Y124979D01*
X909004Y117409D02*
X902338Y122170D01*
Y115029D01*
X909004Y117409D02*
X899006D01*
X909004Y106602D02*
X899006Y111363D01*
X909004Y113267D02*
Y106602D01*
X825620Y419118D02*
X825144Y420071D01*
X824192Y421023D01*
X823240Y421499D01*
X821335D01*
X820383Y421023D01*
X819431Y420071D01*
X818955Y419118D01*
X818479Y417690D01*
Y415310D01*
X818955Y413881D01*
X819431Y412929D01*
X820383Y411977D01*
X821335Y411501D01*
X823240D01*
X824192Y411977D01*
X825144Y412929D01*
X825620Y413881D01*
X833190Y421499D02*
X828429Y414834D01*
X835571D01*
X833190Y421499D02*
Y411501D01*
X843045Y420071D02*
X842569Y421023D01*
X841141Y421499D01*
X840189D01*
X838760Y421023D01*
X837808Y419595D01*
X837332Y417214D01*
Y414834D01*
X837808Y412929D01*
X838760Y411977D01*
X840189Y411501D01*
X840665D01*
X842093Y411977D01*
X843045Y412929D01*
X843521Y414358D01*
Y414834D01*
X843045Y416262D01*
X842093Y417214D01*
X840665Y417690D01*
X840189D01*
X838760Y417214D01*
X837808Y416262D01*
X837332Y414834D01*
X919369Y234118D02*
X920321Y234594D01*
X921273Y235546D01*
X921749Y236498D01*
Y238403D01*
X921273Y239355D01*
X920321Y240307D01*
X919369Y240783D01*
X917940Y241259D01*
X915560D01*
X914131Y240783D01*
X913179Y240307D01*
X912227Y239355D01*
X911751Y238403D01*
Y236498D01*
X912227Y235546D01*
X913179Y234594D01*
X914131Y234118D01*
X921749Y226548D02*
X915084Y231309D01*
Y224168D01*
X921749Y226548D02*
X911751D01*
X921749Y216693D02*
Y221454D01*
X917464Y221930D01*
X917940Y221454D01*
X918416Y220026D01*
Y218597D01*
X917940Y217169D01*
X916988Y216217D01*
X915560Y215741D01*
X914608D01*
X913179Y216217D01*
X912227Y217169D01*
X911751Y218597D01*
Y220026D01*
X912227Y221454D01*
X912703Y221930D01*
X913655Y222406D01*
X906623Y166350D02*
X907575Y166826D01*
X908527Y167778D01*
X909004Y168730D01*
Y170635D01*
X908527Y171587D01*
X907575Y172539D01*
X906623Y173015D01*
X905195Y173491D01*
X902814D01*
X901386Y173015D01*
X900434Y172539D01*
X899482Y171587D01*
X899006Y170635D01*
Y168730D01*
X899482Y167778D01*
X900434Y166826D01*
X901386Y166350D01*
X909004Y158780D02*
X902338Y163541D01*
Y156400D01*
X909004Y158780D02*
X899006D01*
X909004Y149877D02*
X902338Y154638D01*
Y147497D01*
X909004Y149877D02*
X899006D01*
X653420Y221571D02*
X652468Y222523D01*
X651040Y222999D01*
X649135D01*
X647707Y222523D01*
X646755Y221571D01*
Y220618D01*
X647231Y219666D01*
X647707Y219190D01*
X648659Y218714D01*
X651516Y217762D01*
X652468Y217286D01*
X652944Y216810D01*
X653420Y215858D01*
Y214429D01*
X652468Y213477D01*
X651040Y213001D01*
X649135D01*
X647707Y213477D01*
X646755Y214429D01*
X660895Y218238D02*
X660419Y219190D01*
X658990Y219666D01*
X657562D01*
X656134Y219190D01*
X655658Y218238D01*
X656134Y217286D01*
X657086Y216810D01*
X659466Y216334D01*
X660419Y215858D01*
X660895Y214905D01*
Y214429D01*
X660419Y213477D01*
X658990Y213001D01*
X657562D01*
X656134Y213477D01*
X655658Y214429D01*
X662990Y216810D02*
X668702D01*
Y217762D01*
X668226Y218714D01*
X667750Y219190D01*
X666798Y219666D01*
X665370D01*
X664418Y219190D01*
X663466Y218238D01*
X662990Y216810D01*
Y215858D01*
X663466Y214429D01*
X664418Y213477D01*
X665370Y213001D01*
X666798D01*
X667750Y213477D01*
X668702Y214429D01*
X670845Y219666D02*
Y213001D01*
Y217762D02*
X672273Y219190D01*
X673225Y219666D01*
X674654D01*
X675606Y219190D01*
X676082Y217762D01*
Y213001D01*
X683937Y218238D02*
X683461Y219190D01*
X682033Y219666D01*
X680605D01*
X679176Y219190D01*
X678700Y218238D01*
X679176Y217286D01*
X680129Y216810D01*
X682509Y216334D01*
X683461Y215858D01*
X683937Y214905D01*
Y214429D01*
X683461Y213477D01*
X682033Y213001D01*
X680605D01*
X679176Y213477D01*
X678700Y214429D01*
X686032Y216810D02*
X691745D01*
Y217762D01*
X691269Y218714D01*
X690793Y219190D01*
X689841Y219666D01*
X688413D01*
X687460Y219190D01*
X686508Y218238D01*
X686032Y216810D01*
Y215858D01*
X686508Y214429D01*
X687460Y213477D01*
X688413Y213001D01*
X689841D01*
X690793Y213477D01*
X691745Y214429D01*
X368302Y428631D02*
Y421489D01*
X368778Y420061D01*
X369730Y419109D01*
X371158Y418633D01*
X372111D01*
X373539Y419109D01*
X374491Y420061D01*
X374967Y421489D01*
Y428631D01*
X380109D02*
X378681Y428154D01*
X378204Y427202D01*
Y426250D01*
X378681Y425298D01*
X379633Y424822D01*
X381537Y424346D01*
X382965Y423870D01*
X383918Y422918D01*
X384394Y421965D01*
Y420537D01*
X383918Y419585D01*
X383442Y419109D01*
X382013Y418633D01*
X380109D01*
X378681Y419109D01*
X378204Y419585D01*
X377728Y420537D01*
Y421965D01*
X378204Y422918D01*
X379157Y423870D01*
X380585Y424346D01*
X382489Y424822D01*
X383442Y425298D01*
X383918Y426250D01*
Y427202D01*
X383442Y428154D01*
X382013Y428631D01*
X380109D01*
X348968Y470460D02*
Y460462D01*
Y470460D02*
X353253D01*
X354681Y469984D01*
X355157Y469508D01*
X355633Y468555D01*
Y467603D01*
X355157Y466651D01*
X354681Y466175D01*
X353253Y465699D01*
X348968D01*
X352301D02*
X355633Y460462D01*
X363584Y470460D02*
X358823D01*
X358347Y466175D01*
X358823Y466651D01*
X360251Y467127D01*
X361680D01*
X363108Y466651D01*
X364060Y465699D01*
X364536Y464271D01*
Y463318D01*
X364060Y461890D01*
X363108Y460938D01*
X361680Y460462D01*
X360251D01*
X358823Y460938D01*
X358347Y461414D01*
X357871Y462366D01*
X372963Y467127D02*
X372487Y465699D01*
X371535Y464747D01*
X370106Y464271D01*
X369630D01*
X368202Y464747D01*
X367250Y465699D01*
X366774Y467127D01*
Y467603D01*
X367250Y469032D01*
X368202Y469984D01*
X369630Y470460D01*
X370106D01*
X371535Y469984D01*
X372487Y469032D01*
X372963Y467127D01*
Y464747D01*
X372487Y462366D01*
X371535Y460938D01*
X370106Y460462D01*
X369154D01*
X367726Y460938D01*
X367250Y461890D01*
X356203Y171999D02*
X351442D01*
X350966Y167714D01*
X351442Y168190D01*
X352870Y168666D01*
X354299D01*
X355727Y168190D01*
X356679Y167238D01*
X357155Y165810D01*
Y164858D01*
X356679Y163429D01*
X355727Y162477D01*
X354299Y162001D01*
X352870D01*
X351442Y162477D01*
X350966Y162953D01*
X350490Y163905D01*
X359393Y171999D02*
X363201Y162001D01*
X367010Y171999D02*
X363201Y162001D01*
X258729Y286D02*
X267299D01*
X275964Y5999D02*
X271203D01*
X270727Y1714D01*
X271203Y2190D01*
X272631Y2666D01*
X274059D01*
X275487Y2190D01*
X276440Y1238D01*
X276916Y-190D01*
Y-1142D01*
X276440Y-2571D01*
X275487Y-3523D01*
X274059Y-3999D01*
X272631D01*
X271203Y-3523D01*
X270727Y-3047D01*
X270250Y-2095D01*
X279153Y5999D02*
X282962Y-3999D01*
X286771Y5999D02*
X282962Y-3999D01*
X305215Y334321D02*
X304739Y335273D01*
X303310Y335749D01*
X302358D01*
X300930Y335273D01*
X299978Y333845D01*
X299502Y331464D01*
Y329084D01*
X299978Y327179D01*
X300930Y326227D01*
X302358Y325751D01*
X302834D01*
X304263Y326227D01*
X305215Y327179D01*
X305691Y328608D01*
Y329084D01*
X305215Y330512D01*
X304263Y331464D01*
X302834Y331940D01*
X302358D01*
X300930Y331464D01*
X299978Y330512D01*
X299502Y329084D01*
X307881Y335749D02*
X311690Y325751D01*
X315498Y335749D02*
X311690Y325751D01*
X605456Y358071D02*
X604503Y359023D01*
X603075Y359499D01*
X601171D01*
X599743Y359023D01*
X598790Y358071D01*
Y357118D01*
X599267Y356166D01*
X599743Y355690D01*
X600695Y355214D01*
X603551Y354262D01*
X604503Y353786D01*
X604980Y353310D01*
X605456Y352358D01*
Y350929D01*
X604503Y349977D01*
X603075Y349501D01*
X601171D01*
X599743Y349977D01*
X598790Y350929D01*
X610074Y356166D02*
X609122Y355690D01*
X608169Y354738D01*
X607693Y353310D01*
Y352358D01*
X608169Y350929D01*
X609122Y349977D01*
X610074Y349501D01*
X611502D01*
X612454Y349977D01*
X613406Y350929D01*
X613882Y352358D01*
Y353310D01*
X613406Y354738D01*
X612454Y355690D01*
X611502Y356166D01*
X610074D01*
X616072D02*
Y351405D01*
X616549Y349977D01*
X617501Y349501D01*
X618929D01*
X619881Y349977D01*
X621309Y351405D01*
Y356166D02*
Y349501D01*
X623928Y356166D02*
Y349501D01*
Y353310D02*
X624404Y354738D01*
X625356Y355690D01*
X626308Y356166D01*
X627737D01*
X634354Y354738D02*
X633402Y355690D01*
X632450Y356166D01*
X631021D01*
X630069Y355690D01*
X629117Y354738D01*
X628641Y353310D01*
Y352358D01*
X629117Y350929D01*
X630069Y349977D01*
X631021Y349501D01*
X632450D01*
X633402Y349977D01*
X634354Y350929D01*
X636497Y353310D02*
X642210D01*
Y354262D01*
X641733Y355214D01*
X641257Y355690D01*
X640305Y356166D01*
X638877D01*
X637925Y355690D01*
X636973Y354738D01*
X636497Y353310D01*
Y352358D01*
X636973Y350929D01*
X637925Y349977D01*
X638877Y349501D01*
X640305D01*
X641257Y349977D01*
X642210Y350929D01*
X634274Y231119D02*
X633798Y232071D01*
X632845Y233023D01*
X631893Y233499D01*
X629989D01*
X629037Y233023D01*
X628085Y232071D01*
X627608Y231119D01*
X627132Y229690D01*
Y227310D01*
X627608Y225882D01*
X628085Y224929D01*
X629037Y223977D01*
X629989Y223501D01*
X631893D01*
X632845Y223977D01*
X633798Y224929D01*
X634274Y225882D01*
Y227310D01*
X631893D02*
X634274D01*
X637987Y233499D02*
Y225405D01*
X638463Y223977D01*
X639416Y223501D01*
X640368D01*
X636559Y230166D02*
X639892D01*
X691141Y-12881D02*
X690665Y-11929D01*
X689713Y-10977D01*
X688760Y-10501D01*
X686856D01*
X685904Y-10977D01*
X684952Y-11929D01*
X684475Y-12881D01*
X683999Y-14310D01*
Y-16690D01*
X684475Y-18118D01*
X684952Y-19071D01*
X685904Y-20023D01*
X686856Y-20499D01*
X688760D01*
X689713Y-20023D01*
X690665Y-19071D01*
X691141Y-18118D01*
Y-16690D01*
X688760D02*
X691141D01*
X693426Y-10501D02*
Y-20499D01*
Y-10501D02*
X700091Y-20499D01*
Y-10501D02*
Y-20499D01*
X702852Y-10501D02*
Y-20499D01*
Y-10501D02*
X706185D01*
X707613Y-10977D01*
X708566Y-11929D01*
X709042Y-12881D01*
X709518Y-14310D01*
Y-16690D01*
X709042Y-18118D01*
X708566Y-19071D01*
X707613Y-20023D01*
X706185Y-20499D01*
X702852D01*
X712232Y-12881D02*
Y-12405D01*
X712708Y-11453D01*
X713184Y-10977D01*
X714136Y-10501D01*
X716040D01*
X716992Y-10977D01*
X717468Y-11453D01*
X717944Y-12405D01*
Y-13358D01*
X717468Y-14310D01*
X716516Y-15738D01*
X711755Y-20499D01*
X718421D01*
X2966Y113071D02*
X2014Y114023D01*
X586Y114499D01*
X-1319D01*
X-2747Y114023D01*
X-3699Y113071D01*
Y112119D01*
X-3223Y111166D01*
X-2747Y110690D01*
X-1795Y110214D01*
X1062Y109262D01*
X2014Y108786D01*
X2490Y108310D01*
X2966Y107358D01*
Y105929D01*
X2014Y104977D01*
X586Y104501D01*
X-1319D01*
X-2747Y104977D01*
X-3699Y105929D01*
X12345Y112119D02*
X11869Y113071D01*
X10917Y114023D01*
X9965Y114499D01*
X8060D01*
X7108Y114023D01*
X6156Y113071D01*
X5680Y112119D01*
X5204Y110690D01*
Y108310D01*
X5680Y106882D01*
X6156Y105929D01*
X7108Y104977D01*
X8060Y104501D01*
X9965D01*
X10917Y104977D01*
X11869Y105929D01*
X12345Y106882D01*
Y108310D01*
X9965D02*
X12345D01*
X14631Y111166D02*
Y104501D01*
Y109262D02*
X16059Y110690D01*
X17011Y111166D01*
X18439D01*
X19391Y110690D01*
X19867Y109262D01*
Y104501D01*
X28199Y114499D02*
Y104501D01*
Y109738D02*
X27247Y110690D01*
X26295Y111166D01*
X24866D01*
X23914Y110690D01*
X22962Y109738D01*
X22486Y108310D01*
Y107358D01*
X22962Y105929D01*
X23914Y104977D01*
X24866Y104501D01*
X26295D01*
X27247Y104977D01*
X28199Y105929D01*
X754098Y310948D02*
Y300950D01*
Y310948D02*
X758383D01*
X759811Y310472D01*
X760287Y309996D01*
X760763Y309044D01*
Y308091D01*
X760287Y307139D01*
X759811Y306663D01*
X758383Y306187D01*
X754098D01*
X757431D02*
X760763Y300950D01*
X768714Y310948D02*
X763953D01*
X763477Y306663D01*
X763953Y307139D01*
X765381Y307615D01*
X766810D01*
X768238Y307139D01*
X769190Y306187D01*
X769666Y304759D01*
Y303806D01*
X769190Y302378D01*
X768238Y301426D01*
X766810Y300950D01*
X765381D01*
X763953Y301426D01*
X763477Y301902D01*
X763001Y302854D01*
X774284Y310948D02*
X772856Y310472D01*
X772380Y309520D01*
Y308567D01*
X772856Y307615D01*
X773808Y307139D01*
X775712Y306663D01*
X777141Y306187D01*
X778093Y305235D01*
X778569Y304283D01*
Y302854D01*
X778093Y301902D01*
X777617Y301426D01*
X776189Y300950D01*
X774284D01*
X772856Y301426D01*
X772380Y301902D01*
X771904Y302854D01*
Y304283D01*
X772380Y305235D01*
X773332Y306187D01*
X774760Y306663D01*
X776665Y307139D01*
X777617Y307615D01*
X778093Y308567D01*
Y309520D01*
X777617Y310472D01*
X776189Y310948D01*
X774284D01*
X530999Y458485D02*
X521001D01*
X530999D02*
Y454201D01*
X530523Y452772D01*
X530047Y452296D01*
X529095Y451820D01*
X528142D01*
X527190Y452296D01*
X526714Y452772D01*
X526238Y454201D01*
Y458485D01*
Y455153D02*
X521001Y451820D01*
X530999Y443870D02*
Y448630D01*
X526714Y449106D01*
X527190Y448630D01*
X527666Y447202D01*
Y445774D01*
X527190Y444346D01*
X526238Y443393D01*
X524810Y442917D01*
X523858D01*
X522429Y443393D01*
X521477Y444346D01*
X521001Y445774D01*
Y447202D01*
X521477Y448630D01*
X521953Y449106D01*
X522906Y449583D01*
X530999Y434015D02*
X521001Y438775D01*
X530999Y440680D02*
Y434015D01*
X508265Y332999D02*
Y323001D01*
Y332999D02*
X512549D01*
X513978Y332523D01*
X514454Y332047D01*
X514930Y331095D01*
Y330142D01*
X514454Y329190D01*
X513978Y328714D01*
X512549Y328238D01*
X508265D01*
X511597D02*
X514930Y323001D01*
X518120Y332999D02*
X523357D01*
X520500Y329190D01*
X521928D01*
X522881Y328714D01*
X523357Y328238D01*
X523833Y326810D01*
Y325858D01*
X523357Y324429D01*
X522404Y323477D01*
X520976Y323001D01*
X519548D01*
X518120Y323477D01*
X517644Y323953D01*
X517167Y324905D01*
X527022Y332999D02*
X532259D01*
X529403Y329190D01*
X530831D01*
X531783Y328714D01*
X532259Y328238D01*
X532735Y326810D01*
Y325858D01*
X532259Y324429D01*
X531307Y323477D01*
X529879Y323001D01*
X528451D01*
X527022Y323477D01*
X526546Y323953D01*
X526070Y324905D01*
X640347Y-4251D02*
Y-11868D01*
X639870Y-13297D01*
X639394Y-13773D01*
X638442Y-14249D01*
X637490D01*
X636538Y-13773D01*
X636062Y-13297D01*
X635586Y-11868D01*
Y-10916D01*
X642917Y-6155D02*
X643870Y-5679D01*
X645298Y-4251D01*
Y-14249D01*
X652630Y-4251D02*
X651201Y-4727D01*
X650725Y-5679D01*
Y-6632D01*
X651201Y-7584D01*
X652153Y-8060D01*
X654058Y-8536D01*
X655486Y-9012D01*
X656438Y-9964D01*
X656914Y-10916D01*
Y-12345D01*
X656438Y-13297D01*
X655962Y-13773D01*
X654534Y-14249D01*
X652630D01*
X651201Y-13773D01*
X650725Y-13297D01*
X650249Y-12345D01*
Y-10916D01*
X650725Y-9964D01*
X651677Y-9012D01*
X653106Y-8536D01*
X655010Y-8060D01*
X655962Y-7584D01*
X656438Y-6632D01*
Y-5679D01*
X655962Y-4727D01*
X654534Y-4251D01*
X652630D01*
X752096Y-4501D02*
Y-12119D01*
X751620Y-13547D01*
X751144Y-14023D01*
X750192Y-14499D01*
X749240D01*
X748288Y-14023D01*
X747812Y-13547D01*
X747336Y-12119D01*
Y-11166D01*
X754667Y-6405D02*
X755620Y-5929D01*
X757048Y-4501D01*
Y-14499D01*
X768664Y-4501D02*
X763904Y-14499D01*
X761999Y-4501D02*
X768664D01*
X188835Y209999D02*
Y202381D01*
X188358Y200953D01*
X187882Y200477D01*
X186930Y200001D01*
X185978D01*
X185026Y200477D01*
X184550Y200953D01*
X184074Y202381D01*
Y203334D01*
X191406Y208095D02*
X192358Y208571D01*
X193786Y209999D01*
Y200001D01*
X204450Y208571D02*
X203974Y209523D01*
X202546Y209999D01*
X201594D01*
X200166Y209523D01*
X199213Y208095D01*
X198737Y205714D01*
Y203334D01*
X199213Y201429D01*
X200166Y200477D01*
X201594Y200001D01*
X202070D01*
X203498Y200477D01*
X204450Y201429D01*
X204926Y202858D01*
Y203334D01*
X204450Y204762D01*
X203498Y205714D01*
X202070Y206190D01*
X201594D01*
X200166Y205714D01*
X199213Y204762D01*
X198737Y203334D01*
X393596Y542999D02*
Y535382D01*
X393120Y533953D01*
X392644Y533477D01*
X391692Y533001D01*
X390740D01*
X389788Y533477D01*
X389312Y533953D01*
X388836Y535382D01*
Y536334D01*
X396167Y541095D02*
X397120Y541571D01*
X398548Y542999D01*
Y533001D01*
X409212Y542999D02*
X404451D01*
X403975Y538714D01*
X404451Y539190D01*
X405880Y539666D01*
X407308D01*
X408736Y539190D01*
X409688Y538238D01*
X410164Y536810D01*
Y535858D01*
X409688Y534429D01*
X408736Y533477D01*
X407308Y533001D01*
X405880D01*
X404451Y533477D01*
X403975Y533953D01*
X403499Y534905D01*
X508858Y-4751D02*
Y-12369D01*
X508382Y-13797D01*
X507906Y-14273D01*
X506954Y-14749D01*
X506002D01*
X505050Y-14273D01*
X504574Y-13797D01*
X504098Y-12369D01*
Y-11416D01*
X511429Y-6655D02*
X512382Y-6179D01*
X513810Y-4751D01*
Y-14749D01*
X523522Y-4751D02*
X518761Y-11416D01*
X525902D01*
X523522Y-4751D02*
Y-14749D01*
X549618Y456368D02*
X550571Y456844D01*
X551523Y457796D01*
X551999Y458748D01*
Y460653D01*
X551523Y461605D01*
X550571Y462557D01*
X549618Y463033D01*
X548190Y463509D01*
X545810D01*
X544381Y463033D01*
X543429Y462557D01*
X542477Y461605D01*
X542001Y460653D01*
Y458748D01*
X542477Y457796D01*
X543429Y456844D01*
X544381Y456368D01*
X551999Y448798D02*
X545334Y453559D01*
Y446418D01*
X551999Y448798D02*
X542001D01*
X549618Y444180D02*
X550095D01*
X551047Y443704D01*
X551523Y443228D01*
X551999Y442276D01*
Y440371D01*
X551523Y439419D01*
X551047Y438943D01*
X550095Y438467D01*
X549142D01*
X548190Y438943D01*
X546762Y439895D01*
X542001Y444656D01*
Y437991D01*
X563275Y339369D02*
X562799Y340321D01*
X561846Y341273D01*
X560894Y341749D01*
X558990D01*
X558038Y341273D01*
X557085Y340321D01*
X556609Y339369D01*
X556133Y337940D01*
Y335560D01*
X556609Y334132D01*
X557085Y333179D01*
X558038Y332227D01*
X558990Y331751D01*
X560894D01*
X561846Y332227D01*
X562799Y333179D01*
X563275Y334132D01*
X570844Y341749D02*
X566083Y335084D01*
X573225D01*
X570844Y341749D02*
Y331751D01*
X574986Y339845D02*
X575938Y340321D01*
X577367Y341749D01*
Y331751D01*
X568503Y353749D02*
Y343751D01*
Y353749D02*
X572787D01*
X574216Y353273D01*
X574692Y352797D01*
X575168Y351845D01*
Y350892D01*
X574692Y349940D01*
X574216Y349464D01*
X572787Y348988D01*
X568503D01*
X571835D02*
X575168Y343751D01*
X582166Y353749D02*
X577405Y347084D01*
X584547D01*
X582166Y353749D02*
Y343751D01*
X592497Y350416D02*
X592021Y348988D01*
X591069Y348036D01*
X589641Y347560D01*
X589165D01*
X587737Y348036D01*
X586784Y348988D01*
X586308Y350416D01*
Y350892D01*
X586784Y352321D01*
X587737Y353273D01*
X589165Y353749D01*
X589641D01*
X591069Y353273D01*
X592021Y352321D01*
X592497Y350416D01*
Y348036D01*
X592021Y345655D01*
X591069Y344227D01*
X589641Y343751D01*
X588689D01*
X587261Y344227D01*
X586784Y345179D01*
X596907Y126249D02*
Y116251D01*
Y126249D02*
X601192D01*
X602620Y125773D01*
X603096Y125297D01*
X603572Y124345D01*
Y123392D01*
X603096Y122440D01*
X602620Y121964D01*
X601192Y121488D01*
X596907D01*
X600240D02*
X603572Y116251D01*
X606762Y126249D02*
X611999D01*
X609142Y122440D01*
X610571D01*
X611523Y121964D01*
X611999Y121488D01*
X612475Y120060D01*
Y119108D01*
X611999Y117679D01*
X611047Y116727D01*
X609618Y116251D01*
X608190D01*
X606762Y116727D01*
X606286Y117203D01*
X605810Y118155D01*
X614713Y124345D02*
X615665Y124821D01*
X617093Y126249D01*
Y116251D01*
X112846Y85249D02*
Y77632D01*
X112370Y76203D01*
X111894Y75727D01*
X110942Y75251D01*
X109990D01*
X109038Y75727D01*
X108562Y76203D01*
X108086Y77632D01*
Y78584D01*
X115417Y83345D02*
X116370Y83821D01*
X117798Y85249D01*
Y75251D01*
X123225Y82868D02*
Y83345D01*
X123701Y84297D01*
X124177Y84773D01*
X125130Y85249D01*
X127034D01*
X127986Y84773D01*
X128462Y84297D01*
X128938Y83345D01*
Y82392D01*
X128462Y81440D01*
X127510Y80012D01*
X122749Y75251D01*
X129414D01*
X199750Y226749D02*
Y219132D01*
X199274Y217703D01*
X198798Y217227D01*
X197846Y216751D01*
X196894D01*
X195942Y217227D01*
X195466Y217703D01*
X194990Y219132D01*
Y220084D01*
X208510Y223416D02*
X208034Y221988D01*
X207082Y221036D01*
X205654Y220560D01*
X205178D01*
X203750Y221036D01*
X202797Y221988D01*
X202321Y223416D01*
Y223892D01*
X202797Y225321D01*
X203750Y226273D01*
X205178Y226749D01*
X205654D01*
X207082Y226273D01*
X208034Y225321D01*
X208510Y223416D01*
Y221036D01*
X208034Y218655D01*
X207082Y217227D01*
X205654Y216751D01*
X204702D01*
X203274Y217227D01*
X202797Y218179D01*
X-1548Y85432D02*
Y77814D01*
X-2024Y76386D01*
X-2500Y75910D01*
X-3452Y75434D01*
X-4404D01*
X-5356Y75910D01*
X-5832Y76386D01*
X-6308Y77814D01*
Y78766D01*
X3404Y85432D02*
X1976Y84956D01*
X1499Y84003D01*
Y83051D01*
X1976Y82099D01*
X2928Y81623D01*
X4832Y81147D01*
X6260Y80671D01*
X7212Y79719D01*
X7689Y78766D01*
Y77338D01*
X7212Y76386D01*
X6737Y75910D01*
X5308Y75434D01*
X3404D01*
X1976Y75910D01*
X1499Y76386D01*
X1023Y77338D01*
Y78766D01*
X1499Y79719D01*
X2452Y80671D01*
X3880Y81147D01*
X5784Y81623D01*
X6737Y82099D01*
X7212Y83051D01*
Y84003D01*
X6737Y84956D01*
X5308Y85432D01*
X3404D01*
X353466Y337262D02*
X354418Y337738D01*
X355371Y338690D01*
X355847Y339642D01*
Y341546D01*
X355371Y342498D01*
X354418Y343451D01*
X353466Y343927D01*
X352038Y344403D01*
X349658D01*
X348229Y343927D01*
X347277Y343451D01*
X346325Y342498D01*
X345849Y341546D01*
Y339642D01*
X346325Y338690D01*
X347277Y337738D01*
X348229Y337262D01*
X355847Y333500D02*
Y328263D01*
X352038Y331120D01*
Y329692D01*
X351562Y328740D01*
X351086Y328263D01*
X349658Y327787D01*
X348705D01*
X347277Y328263D01*
X346325Y329216D01*
X345849Y330644D01*
Y332072D01*
X346325Y333500D01*
X346801Y333976D01*
X347753Y334453D01*
X352514Y319361D02*
X351086Y319837D01*
X350134Y320789D01*
X349658Y322217D01*
Y322693D01*
X350134Y324121D01*
X351086Y325074D01*
X352514Y325550D01*
X352990D01*
X354418Y325074D01*
X355371Y324121D01*
X355847Y322693D01*
Y322217D01*
X355371Y320789D01*
X354418Y319837D01*
X352514Y319361D01*
X350134D01*
X347753Y319837D01*
X346325Y320789D01*
X345849Y322217D01*
Y323169D01*
X346325Y324598D01*
X347277Y325074D01*
X560015Y433999D02*
Y424001D01*
Y433999D02*
X564299D01*
X565728Y433523D01*
X566204Y433047D01*
X566680Y432095D01*
Y431142D01*
X566204Y430190D01*
X565728Y429714D01*
X564299Y429238D01*
X560015D01*
X563347D02*
X566680Y424001D01*
X574631Y433999D02*
X569870D01*
X569394Y429714D01*
X569870Y430190D01*
X571298Y430666D01*
X572726D01*
X574154Y430190D01*
X575107Y429238D01*
X575583Y427810D01*
Y426858D01*
X575107Y425429D01*
X574154Y424477D01*
X572726Y424001D01*
X571298D01*
X569870Y424477D01*
X569394Y424953D01*
X568917Y425905D01*
X583533Y433999D02*
X578772D01*
X578296Y429714D01*
X578772Y430190D01*
X580201Y430666D01*
X581629D01*
X583057Y430190D01*
X584009Y429238D01*
X584486Y427810D01*
Y426858D01*
X584009Y425429D01*
X583057Y424477D01*
X581629Y424001D01*
X580201D01*
X578772Y424477D01*
X578296Y424953D01*
X577820Y425905D01*
X511749Y453474D02*
X501751D01*
X511749D02*
Y449189D01*
X511273Y447760D01*
X510797Y447284D01*
X509845Y446808D01*
X508892D01*
X507940Y447284D01*
X507464Y447760D01*
X506988Y449189D01*
Y453474D01*
Y450141D02*
X501751Y446808D01*
X511749Y438858D02*
Y443619D01*
X507464Y444095D01*
X507940Y443619D01*
X508416Y442190D01*
Y440762D01*
X507940Y439334D01*
X506988Y438382D01*
X505560Y437905D01*
X504608D01*
X503179Y438382D01*
X502227Y439334D01*
X501751Y440762D01*
Y442190D01*
X502227Y443619D01*
X502703Y444095D01*
X503656Y444571D01*
X511749Y430907D02*
X505084Y435668D01*
Y428526D01*
X511749Y430907D02*
X501751D01*
X489999Y113985D02*
X480001D01*
X489999D02*
Y109701D01*
X489523Y108272D01*
X489047Y107796D01*
X488095Y107320D01*
X487142D01*
X486190Y107796D01*
X485714Y108272D01*
X485238Y109701D01*
Y113985D01*
Y110653D02*
X480001Y107320D01*
X489999Y99369D02*
Y104130D01*
X485714Y104607D01*
X486190Y104130D01*
X486666Y102702D01*
Y101274D01*
X486190Y99846D01*
X485238Y98893D01*
X483810Y98417D01*
X482858D01*
X481429Y98893D01*
X480477Y99846D01*
X480001Y101274D01*
Y102702D01*
X480477Y104130D01*
X480953Y104607D01*
X481906Y105083D01*
X489999Y95228D02*
Y89991D01*
X486190Y92847D01*
Y91419D01*
X485714Y90467D01*
X485238Y89991D01*
X483810Y89515D01*
X482858D01*
X481429Y89991D01*
X480477Y90943D01*
X480001Y92371D01*
Y93799D01*
X480477Y95228D01*
X480953Y95704D01*
X481906Y96180D01*
X391640Y485700D02*
Y475702D01*
Y485700D02*
X395925D01*
X397353Y485224D01*
X397829Y484748D01*
X398305Y483796D01*
Y482843D01*
X397829Y481891D01*
X397353Y481415D01*
X395925Y480939D01*
X391640D01*
X394973D02*
X398305Y475702D01*
X406256Y485700D02*
X401495D01*
X401019Y481415D01*
X401495Y481891D01*
X402923Y482367D01*
X404352D01*
X405780Y481891D01*
X406732Y480939D01*
X407208Y479511D01*
Y478559D01*
X406732Y477130D01*
X405780Y476178D01*
X404352Y475702D01*
X402923D01*
X401495Y476178D01*
X401019Y476654D01*
X400543Y477606D01*
X409922Y483319D02*
Y483796D01*
X410398Y484748D01*
X410874Y485224D01*
X411826Y485700D01*
X413731D01*
X414683Y485224D01*
X415159Y484748D01*
X415635Y483796D01*
Y482843D01*
X415159Y481891D01*
X414207Y480463D01*
X409446Y475702D01*
X416111D01*
X479657Y338249D02*
Y328251D01*
Y338249D02*
X483942D01*
X485370Y337773D01*
X485846Y337297D01*
X486322Y336345D01*
Y335392D01*
X485846Y334440D01*
X485370Y333964D01*
X483942Y333488D01*
X479657D01*
X482990D02*
X486322Y328251D01*
X494273Y338249D02*
X489512D01*
X489036Y333964D01*
X489512Y334440D01*
X490940Y334916D01*
X492369D01*
X493797Y334440D01*
X494749Y333488D01*
X495225Y332060D01*
Y331108D01*
X494749Y329679D01*
X493797Y328727D01*
X492369Y328251D01*
X490940D01*
X489512Y328727D01*
X489036Y329203D01*
X488560Y330155D01*
X497463Y336345D02*
X498415Y336821D01*
X499843Y338249D01*
Y328251D01*
X689514Y38499D02*
Y28501D01*
Y38499D02*
X693799D01*
X695228Y38023D01*
X695704Y37547D01*
X696180Y36595D01*
Y35642D01*
X695704Y34690D01*
X695228Y34214D01*
X693799Y33738D01*
X689514D01*
X692847D02*
X696180Y28501D01*
X704130Y38499D02*
X699370D01*
X698894Y34214D01*
X699370Y34690D01*
X700798Y35166D01*
X702226D01*
X703654Y34690D01*
X704606Y33738D01*
X705083Y32310D01*
Y31358D01*
X704606Y29929D01*
X703654Y28977D01*
X702226Y28501D01*
X700798D01*
X699370Y28977D01*
X698894Y29453D01*
X698417Y30405D01*
X710177Y38499D02*
X708748Y38023D01*
X707796Y36595D01*
X707320Y34214D01*
Y32786D01*
X707796Y30405D01*
X708748Y28977D01*
X710177Y28501D01*
X711129D01*
X712557Y28977D01*
X713509Y30405D01*
X713986Y32786D01*
Y34214D01*
X713509Y36595D01*
X712557Y38023D01*
X711129Y38499D01*
X710177D01*
X518265Y124249D02*
Y114251D01*
Y124249D02*
X522549D01*
X523978Y123773D01*
X524454Y123297D01*
X524930Y122345D01*
Y121392D01*
X524454Y120440D01*
X523978Y119964D01*
X522549Y119488D01*
X518265D01*
X521597D02*
X524930Y114251D01*
X531928Y124249D02*
X527167Y117584D01*
X534309D01*
X531928Y124249D02*
Y114251D01*
X538451Y124249D02*
X537022Y123773D01*
X536546Y122821D01*
Y121868D01*
X537022Y120916D01*
X537975Y120440D01*
X539879Y119964D01*
X541307Y119488D01*
X542259Y118536D01*
X542735Y117584D01*
Y116155D01*
X542259Y115203D01*
X541783Y114727D01*
X540355Y114251D01*
X538451D01*
X537022Y114727D01*
X536546Y115203D01*
X536070Y116155D01*
Y117584D01*
X536546Y118536D01*
X537499Y119488D01*
X538927Y119964D01*
X540831Y120440D01*
X541783Y120916D01*
X542259Y121868D01*
Y122821D01*
X541783Y123773D01*
X540355Y124249D01*
X538451D01*
X526003Y199999D02*
Y190001D01*
Y199999D02*
X530287D01*
X531716Y199523D01*
X532192Y199047D01*
X532668Y198095D01*
Y197142D01*
X532192Y196190D01*
X531716Y195714D01*
X530287Y195238D01*
X526003D01*
X529335D02*
X532668Y190001D01*
X539666Y199999D02*
X534906Y193334D01*
X542047D01*
X539666Y199999D02*
Y190001D01*
X549521Y198571D02*
X549045Y199523D01*
X547617Y199999D01*
X546665D01*
X545237Y199523D01*
X544284Y198095D01*
X543808Y195714D01*
Y193334D01*
X544284Y191429D01*
X545237Y190477D01*
X546665Y190001D01*
X547141D01*
X548569Y190477D01*
X549521Y191429D01*
X549997Y192858D01*
Y193334D01*
X549521Y194762D01*
X548569Y195714D01*
X547141Y196190D01*
X546665D01*
X545237Y195714D01*
X544284Y194762D01*
X543808Y193334D01*
X675765Y133999D02*
Y124001D01*
Y133999D02*
X680049D01*
X681478Y133523D01*
X681954Y133047D01*
X682430Y132095D01*
Y131142D01*
X681954Y130190D01*
X681478Y129714D01*
X680049Y129238D01*
X675765D01*
X679097D02*
X682430Y124001D01*
X689428Y133999D02*
X684667Y127334D01*
X691809D01*
X689428Y133999D02*
Y124001D01*
X699283Y133999D02*
X694522D01*
X694046Y129714D01*
X694522Y130190D01*
X695951Y130666D01*
X697379D01*
X698807Y130190D01*
X699759Y129238D01*
X700236Y127810D01*
Y126858D01*
X699759Y125429D01*
X698807Y124477D01*
X697379Y124001D01*
X695951D01*
X694522Y124477D01*
X694046Y124953D01*
X693570Y125905D01*
X812749Y148474D02*
X802751D01*
X812749D02*
Y144189D01*
X812273Y142760D01*
X811797Y142284D01*
X810845Y141808D01*
X809892D01*
X808940Y142284D01*
X808464Y142760D01*
X807988Y144189D01*
Y148474D01*
Y145141D02*
X802751Y141808D01*
X812749Y134810D02*
X806084Y139571D01*
Y132429D01*
X812749Y134810D02*
X802751D01*
X812749Y125907D02*
X806084Y130668D01*
Y123526D01*
X812749Y125907D02*
X802751D01*
X784999Y148736D02*
X775001D01*
X784999D02*
Y144451D01*
X784523Y143022D01*
X784047Y142546D01*
X783095Y142070D01*
X782142D01*
X781190Y142546D01*
X780714Y143022D01*
X780238Y144451D01*
Y148736D01*
Y145403D02*
X775001Y142070D01*
X784999Y135072D02*
X778334Y139833D01*
Y132691D01*
X784999Y135072D02*
X775001D01*
X784999Y129978D02*
Y124741D01*
X781190Y127597D01*
Y126169D01*
X780714Y125217D01*
X780238Y124741D01*
X778810Y124264D01*
X777858D01*
X776429Y124741D01*
X775477Y125693D01*
X775001Y127121D01*
Y128549D01*
X775477Y129978D01*
X775953Y130454D01*
X776906Y130930D01*
X603999Y214985D02*
X594001D01*
X603999D02*
Y210701D01*
X603523Y209272D01*
X603047Y208796D01*
X602095Y208320D01*
X601142D01*
X600190Y208796D01*
X599714Y209272D01*
X599238Y210701D01*
Y214985D01*
Y211653D02*
X594001Y208320D01*
X603999Y201322D02*
X597334Y206083D01*
Y198941D01*
X603999Y201322D02*
X594001D01*
X601618Y196704D02*
X602095D01*
X603047Y196228D01*
X603523Y195751D01*
X603999Y194799D01*
Y192895D01*
X603523Y191943D01*
X603047Y191467D01*
X602095Y190991D01*
X601142D01*
X600190Y191467D01*
X598762Y192419D01*
X594001Y197180D01*
Y190515D01*
X588999Y209843D02*
X579001D01*
X588999D02*
Y205558D01*
X588523Y204130D01*
X588047Y203654D01*
X587095Y203178D01*
X586142D01*
X585190Y203654D01*
X584714Y204130D01*
X584238Y205558D01*
Y209843D01*
Y206510D02*
X579001Y203178D01*
X588999Y196179D02*
X582334Y200940D01*
Y193799D01*
X588999Y196179D02*
X579001D01*
X587095Y192037D02*
X587571Y191085D01*
X588999Y189657D01*
X579001D01*
X236954Y204014D02*
Y196873D01*
X237430Y195444D01*
X238382Y194492D01*
X239811Y194016D01*
X240763D01*
X242191Y194492D01*
X243143Y195444D01*
X243619Y196873D01*
Y204014D01*
X252094D02*
X247333D01*
X246857Y199729D01*
X247333Y200205D01*
X248761Y200681D01*
X250189D01*
X251618Y200205D01*
X252570Y199253D01*
X253046Y197825D01*
Y196873D01*
X252570Y195444D01*
X251618Y194492D01*
X250189Y194016D01*
X248761D01*
X247333Y194492D01*
X246857Y194968D01*
X246381Y195920D01*
X695181Y160249D02*
Y153108D01*
X695657Y151679D01*
X696609Y150727D01*
X698037Y150251D01*
X698989D01*
X700418Y150727D01*
X701370Y151679D01*
X701846Y153108D01*
Y160249D01*
X704607Y158345D02*
X705559Y158821D01*
X706988Y160249D01*
Y150251D01*
X711939Y158345D02*
X712891Y158821D01*
X714319Y160249D01*
Y150251D01*
X555823Y373292D02*
Y366151D01*
X556299Y364722D01*
X557252Y363770D01*
X558680Y363294D01*
X559632D01*
X561060Y363770D01*
X562012Y364722D01*
X562489Y366151D01*
Y373292D01*
X565250Y371388D02*
X566202Y371864D01*
X567630Y373292D01*
Y363294D01*
X575438Y373292D02*
X574010Y372816D01*
X573058Y371388D01*
X572582Y369007D01*
Y367579D01*
X573058Y365199D01*
X574010Y363770D01*
X575438Y363294D01*
X576390D01*
X577818Y363770D01*
X578771Y365199D01*
X579247Y367579D01*
Y369007D01*
X578771Y371388D01*
X577818Y372816D01*
X576390Y373292D01*
X575438D01*
X535942Y185249D02*
Y178108D01*
X536418Y176679D01*
X537370Y175727D01*
X538799Y175251D01*
X539751D01*
X541179Y175727D01*
X542131Y176679D01*
X542607Y178108D01*
Y185249D01*
X551558Y181916D02*
X551082Y180488D01*
X550130Y179536D01*
X548701Y179060D01*
X548225D01*
X546797Y179536D01*
X545845Y180488D01*
X545369Y181916D01*
Y182392D01*
X545845Y183821D01*
X546797Y184773D01*
X548225Y185249D01*
X548701D01*
X550130Y184773D01*
X551082Y183821D01*
X551558Y181916D01*
Y179536D01*
X551082Y177155D01*
X550130Y175727D01*
X548701Y175251D01*
X547749D01*
X546321Y175727D01*
X545845Y176679D01*
X399954Y206249D02*
Y199108D01*
X400430Y197679D01*
X401382Y196727D01*
X402811Y196251D01*
X403763D01*
X405191Y196727D01*
X406143Y197679D01*
X406619Y199108D01*
Y206249D01*
X416046D02*
X411285Y196251D01*
X409381Y206249D02*
X416046D01*
X655192Y149749D02*
Y142608D01*
X655668Y141179D01*
X656620Y140227D01*
X658049Y139751D01*
X659001D01*
X660429Y140227D01*
X661381Y141179D01*
X661857Y142608D01*
Y149749D01*
X670332Y148321D02*
X669856Y149273D01*
X668427Y149749D01*
X667475D01*
X666047Y149273D01*
X665095Y147845D01*
X664619Y145464D01*
Y143084D01*
X665095Y141179D01*
X666047Y140227D01*
X667475Y139751D01*
X667951D01*
X669380Y140227D01*
X670332Y141179D01*
X670808Y142608D01*
Y143084D01*
X670332Y144512D01*
X669380Y145464D01*
X667951Y145940D01*
X667475D01*
X666047Y145464D01*
X665095Y144512D01*
X664619Y143084D01*
X216579Y446104D02*
X209438D01*
X208009Y445628D01*
X207057Y444676D01*
X206581Y443247D01*
Y442295D01*
X207057Y440867D01*
X208009Y439915D01*
X209438Y439439D01*
X216579D01*
Y431917D02*
X209914Y436677D01*
Y429536D01*
X216579Y431917D02*
X206581D01*
X1704Y194249D02*
Y187108D01*
X2180Y185679D01*
X3132Y184727D01*
X4561Y184251D01*
X5513D01*
X6941Y184727D01*
X7893Y185679D01*
X8369Y187108D01*
Y194249D01*
X12083D02*
X17320D01*
X14463Y190440D01*
X15892D01*
X16844Y189964D01*
X17320Y189488D01*
X17796Y188060D01*
Y187108D01*
X17320Y185679D01*
X16368Y184727D01*
X14939Y184251D01*
X13511D01*
X12083Y184727D01*
X11607Y185203D01*
X11131Y186155D01*
X446504Y291898D02*
Y284757D01*
X446980Y283328D01*
X447932Y282376D01*
X449361Y281900D01*
X450313D01*
X451741Y282376D01*
X452693Y283328D01*
X453169Y284757D01*
Y291898D01*
X456407Y289517D02*
Y289993D01*
X456883Y290946D01*
X457359Y291422D01*
X458311Y291898D01*
X460215D01*
X461167Y291422D01*
X461644Y290946D01*
X462120Y289993D01*
Y289041D01*
X461644Y288089D01*
X460691Y286661D01*
X455931Y281900D01*
X462596D01*
X-1654Y478999D02*
Y471858D01*
X-1177Y470429D01*
X-225Y469477D01*
X1203Y469001D01*
X2155D01*
X3584Y469477D01*
X4536Y470429D01*
X5012Y471858D01*
Y478999D01*
X7773Y477095D02*
X8725Y477571D01*
X10153Y478999D01*
Y469001D01*
X813999Y179736D02*
X804001D01*
X813999D02*
Y175451D01*
X813523Y174022D01*
X813047Y173546D01*
X812095Y173070D01*
X811142D01*
X810190Y173546D01*
X809714Y174022D01*
X809238Y175451D01*
Y179736D01*
Y176403D02*
X804001Y173070D01*
X813999Y166072D02*
X807334Y170833D01*
Y163691D01*
X813999Y166072D02*
X804001D01*
X813999Y159073D02*
X813523Y160501D01*
X812095Y161454D01*
X809714Y161930D01*
X808286D01*
X805905Y161454D01*
X804477Y160501D01*
X804001Y159073D01*
Y158121D01*
X804477Y156693D01*
X805905Y155741D01*
X808286Y155265D01*
X809714D01*
X812095Y155741D01*
X813523Y156693D01*
X813999Y158121D01*
Y159073D01*
X785249Y178247D02*
X775251D01*
X785249D02*
Y173963D01*
X784773Y172534D01*
X784297Y172058D01*
X783345Y171582D01*
X782392D01*
X781440Y172058D01*
X780964Y172534D01*
X780488Y173963D01*
Y178247D01*
Y174915D02*
X775251Y171582D01*
X785249Y168392D02*
Y163155D01*
X781440Y166012D01*
Y164584D01*
X780964Y163631D01*
X780488Y163155D01*
X779060Y162679D01*
X778108D01*
X776679Y163155D01*
X775727Y164108D01*
X775251Y165536D01*
Y166964D01*
X775727Y168392D01*
X776203Y168868D01*
X777155Y169345D01*
X781916Y154253D02*
X780488Y154729D01*
X779536Y155681D01*
X779060Y157109D01*
Y157585D01*
X779536Y159013D01*
X780488Y159966D01*
X781916Y160442D01*
X782392D01*
X783821Y159966D01*
X784773Y159013D01*
X785249Y157585D01*
Y157109D01*
X784773Y155681D01*
X783821Y154729D01*
X781916Y154253D01*
X779536D01*
X777155Y154729D01*
X775727Y155681D01*
X775251Y157109D01*
Y158061D01*
X775727Y159489D01*
X776679Y159966D01*
X814249Y208486D02*
X804251D01*
X814249D02*
Y204201D01*
X813773Y202772D01*
X813297Y202296D01*
X812345Y201820D01*
X811392D01*
X810440Y202296D01*
X809964Y202772D01*
X809488Y204201D01*
Y208486D01*
Y205153D02*
X804251Y201820D01*
X814249Y198630D02*
Y193393D01*
X810440Y196250D01*
Y194822D01*
X809964Y193869D01*
X809488Y193393D01*
X808060Y192917D01*
X807108D01*
X805679Y193393D01*
X804727Y194346D01*
X804251Y195774D01*
Y197202D01*
X804727Y198630D01*
X805203Y199107D01*
X806155Y199583D01*
X814249Y188299D02*
X813773Y189728D01*
X812821Y190204D01*
X811869D01*
X810916Y189728D01*
X810440Y188775D01*
X809964Y186871D01*
X809488Y185443D01*
X808536Y184491D01*
X807584Y184014D01*
X806155D01*
X805203Y184491D01*
X804727Y184967D01*
X804251Y186395D01*
Y188299D01*
X804727Y189728D01*
X805203Y190204D01*
X806155Y190680D01*
X807584D01*
X808536Y190204D01*
X809488Y189251D01*
X809964Y187823D01*
X810440Y185919D01*
X810916Y184967D01*
X811869Y184491D01*
X812821D01*
X813773Y184967D01*
X814249Y186395D01*
Y188299D01*
X785499Y209735D02*
X775501D01*
X785499D02*
Y205451D01*
X785023Y204022D01*
X784547Y203546D01*
X783595Y203070D01*
X782642D01*
X781690Y203546D01*
X781214Y204022D01*
X780738Y205451D01*
Y209735D01*
Y206403D02*
X775501Y203070D01*
X785499Y199880D02*
Y194643D01*
X781690Y197500D01*
Y196072D01*
X781214Y195119D01*
X780738Y194643D01*
X779310Y194167D01*
X778358D01*
X776929Y194643D01*
X775977Y195596D01*
X775501Y197024D01*
Y198452D01*
X775977Y199880D01*
X776453Y200357D01*
X777405Y200833D01*
X785499Y185264D02*
X775501Y190025D01*
X785499Y191930D02*
Y185264D01*
X814999Y238235D02*
X805001D01*
X814999D02*
Y233951D01*
X814523Y232522D01*
X814047Y232046D01*
X813095Y231570D01*
X812142D01*
X811190Y232046D01*
X810714Y232522D01*
X810238Y233951D01*
Y238235D01*
Y234903D02*
X805001Y231570D01*
X814999Y228380D02*
Y223144D01*
X811190Y226000D01*
Y224572D01*
X810714Y223619D01*
X810238Y223144D01*
X808810Y222667D01*
X807858D01*
X806429Y223144D01*
X805477Y224096D01*
X805001Y225524D01*
Y226952D01*
X805477Y228380D01*
X805953Y228857D01*
X806905Y229333D01*
X814999Y214717D02*
Y219478D01*
X810714Y219954D01*
X811190Y219478D01*
X811666Y218049D01*
Y216621D01*
X811190Y215193D01*
X810238Y214241D01*
X808810Y213764D01*
X807858D01*
X806429Y214241D01*
X805477Y215193D01*
X805001Y216621D01*
Y218049D01*
X805477Y219478D01*
X805953Y219954D01*
X806905Y220430D01*
X784749Y238974D02*
X774751D01*
X784749D02*
Y234689D01*
X784273Y233260D01*
X783797Y232784D01*
X782845Y232308D01*
X781892D01*
X780940Y232784D01*
X780464Y233260D01*
X779988Y234689D01*
Y238974D01*
Y235641D02*
X774751Y232308D01*
X784749Y229118D02*
Y223881D01*
X780940Y226738D01*
Y225310D01*
X780464Y224358D01*
X779988Y223881D01*
X778560Y223405D01*
X777608D01*
X776179Y223881D01*
X775227Y224834D01*
X774751Y226262D01*
Y227690D01*
X775227Y229118D01*
X775703Y229595D01*
X776655Y230071D01*
X784749Y216407D02*
X778084Y221168D01*
Y214027D01*
X784749Y216407D02*
X774751D01*
X570515Y43749D02*
Y33751D01*
Y43749D02*
X574799D01*
X576228Y43273D01*
X576704Y42797D01*
X577180Y41845D01*
Y40892D01*
X576704Y39940D01*
X576228Y39464D01*
X574799Y38988D01*
X570515D01*
X573847D02*
X577180Y33751D01*
X580370Y43749D02*
X585607D01*
X582750Y39940D01*
X584178D01*
X585131Y39464D01*
X585607Y38988D01*
X586083Y37560D01*
Y36608D01*
X585607Y35179D01*
X584654Y34227D01*
X583226Y33751D01*
X581798D01*
X580370Y34227D01*
X579893Y34703D01*
X579417Y35655D01*
X588796Y41368D02*
Y41845D01*
X589272Y42797D01*
X589748Y43273D01*
X590701Y43749D01*
X592605D01*
X593557Y43273D01*
X594033Y42797D01*
X594509Y41845D01*
Y40892D01*
X594033Y39940D01*
X593081Y38512D01*
X588320Y33751D01*
X594986D01*
X651014Y167749D02*
Y157751D01*
Y167749D02*
X655299D01*
X656728Y167273D01*
X657204Y166797D01*
X657680Y165845D01*
Y164892D01*
X657204Y163940D01*
X656728Y163464D01*
X655299Y162988D01*
X651014D01*
X654347D02*
X657680Y157751D01*
X660870Y167749D02*
X666106D01*
X663250Y163940D01*
X664678D01*
X665630Y163464D01*
X666106Y162988D01*
X666583Y161560D01*
Y160608D01*
X666106Y159179D01*
X665154Y158227D01*
X663726Y157751D01*
X662298D01*
X660870Y158227D01*
X660394Y158703D01*
X659917Y159655D01*
X671677Y167749D02*
X670248Y167273D01*
X669296Y165845D01*
X668820Y163464D01*
Y162036D01*
X669296Y159655D01*
X670248Y158227D01*
X671677Y157751D01*
X672629D01*
X674057Y158227D01*
X675009Y159655D01*
X675486Y162036D01*
Y163464D01*
X675009Y165845D01*
X674057Y167273D01*
X672629Y167749D01*
X671677D01*
X689249Y191997D02*
X679251D01*
X689249D02*
Y187713D01*
X688773Y186284D01*
X688297Y185808D01*
X687345Y185332D01*
X686392D01*
X685440Y185808D01*
X684964Y186284D01*
X684488Y187713D01*
Y191997D01*
Y188665D02*
X679251Y185332D01*
X686869Y182619D02*
X687345D01*
X688297Y182142D01*
X688773Y181666D01*
X689249Y180714D01*
Y178810D01*
X688773Y177858D01*
X688297Y177381D01*
X687345Y176905D01*
X686392D01*
X685440Y177381D01*
X684012Y178334D01*
X679251Y183095D01*
Y176429D01*
X685916Y168003D02*
X684488Y168479D01*
X683536Y169431D01*
X683060Y170859D01*
Y171335D01*
X683536Y172763D01*
X684488Y173716D01*
X685916Y174192D01*
X686392D01*
X687821Y173716D01*
X688773Y172763D01*
X689249Y171335D01*
Y170859D01*
X688773Y169431D01*
X687821Y168479D01*
X685916Y168003D01*
X683536D01*
X681155Y168479D01*
X679727Y169431D01*
X679251Y170859D01*
Y171811D01*
X679727Y173239D01*
X680679Y173716D01*
X625514Y200999D02*
Y191001D01*
Y200999D02*
X629799D01*
X631228Y200523D01*
X631704Y200047D01*
X632180Y199095D01*
Y198142D01*
X631704Y197190D01*
X631228Y196714D01*
X629799Y196238D01*
X625514D01*
X628847D02*
X632180Y191001D01*
X634893Y198619D02*
Y199095D01*
X635370Y200047D01*
X635846Y200523D01*
X636798Y200999D01*
X638702D01*
X639654Y200523D01*
X640130Y200047D01*
X640607Y199095D01*
Y198142D01*
X640130Y197190D01*
X639178Y195762D01*
X634417Y191001D01*
X641083D01*
X645701Y200999D02*
X644272Y200523D01*
X643796Y199571D01*
Y198619D01*
X644272Y197666D01*
X645225Y197190D01*
X647129Y196714D01*
X648557Y196238D01*
X649509Y195286D01*
X649986Y194334D01*
Y192905D01*
X649509Y191953D01*
X649033Y191477D01*
X647605Y191001D01*
X645701D01*
X644272Y191477D01*
X643796Y191953D01*
X643320Y192905D01*
Y194334D01*
X643796Y195286D01*
X644749Y196238D01*
X646177Y196714D01*
X648081Y197190D01*
X649033Y197666D01*
X649509Y198619D01*
Y199571D01*
X649033Y200523D01*
X647605Y200999D01*
X645701D01*
X572503Y415999D02*
Y406001D01*
Y415999D02*
X576787D01*
X578216Y415523D01*
X578692Y415047D01*
X579168Y414095D01*
Y413142D01*
X578692Y412190D01*
X578216Y411714D01*
X576787Y411238D01*
X572503D01*
X575835D02*
X579168Y406001D01*
X581881Y413619D02*
Y414095D01*
X582358Y415047D01*
X582834Y415523D01*
X583786Y415999D01*
X585690D01*
X586642Y415523D01*
X587118Y415047D01*
X587595Y414095D01*
Y413142D01*
X587118Y412190D01*
X586166Y410762D01*
X581405Y406001D01*
X588071D01*
X596021Y414571D02*
X595545Y415523D01*
X594117Y415999D01*
X593165D01*
X591737Y415523D01*
X590784Y414095D01*
X590308Y411714D01*
Y409334D01*
X590784Y407429D01*
X591737Y406477D01*
X593165Y406001D01*
X593641D01*
X595069Y406477D01*
X596021Y407429D01*
X596497Y408858D01*
Y409334D01*
X596021Y410762D01*
X595069Y411714D01*
X593641Y412190D01*
X593165D01*
X591737Y411714D01*
X590784Y410762D01*
X590308Y409334D01*
X677300Y411499D02*
Y401501D01*
Y411499D02*
X681585D01*
X683013Y411023D01*
X683489Y410547D01*
X683965Y409595D01*
Y408642D01*
X683489Y407690D01*
X683013Y407214D01*
X681585Y406738D01*
X677300D01*
X680633D02*
X683965Y401501D01*
X686203Y409595D02*
X687155Y410071D01*
X688583Y411499D01*
Y401501D01*
X700200Y411499D02*
X695439Y401501D01*
X693535Y411499D02*
X700200D01*
X165608Y358749D02*
Y348751D01*
Y358749D02*
X169893D01*
X171321Y358273D01*
X171798Y357797D01*
X172274Y356845D01*
Y355892D01*
X171798Y354940D01*
X171321Y354464D01*
X169893Y353988D01*
X165608D01*
X168941D02*
X172274Y348751D01*
X174511Y356845D02*
X175463Y357321D01*
X176892Y358749D01*
Y348751D01*
X162513Y300249D02*
Y290251D01*
X168226D01*
X169797Y297868D02*
Y298345D01*
X170274Y299297D01*
X170750Y299773D01*
X171702Y300249D01*
X173606D01*
X174558Y299773D01*
X175035Y299297D01*
X175511Y298345D01*
Y297392D01*
X175035Y296440D01*
X174082Y295012D01*
X169321Y290251D01*
X175987D01*
X104366Y433376D02*
Y423378D01*
X110079D01*
X111174Y431471D02*
X112126Y431948D01*
X113554Y433376D01*
Y423378D01*
X812961Y40946D02*
Y33328D01*
X812485Y31900D01*
X812009Y31424D01*
X811057Y30948D01*
X810104D01*
X809152Y31424D01*
X808676Y31900D01*
X808200Y33328D01*
Y34281D01*
X822197Y40946D02*
X817436Y30948D01*
X815532Y40946D02*
X822197D01*
X85500Y-29251D02*
Y-36869D01*
X85024Y-38297D01*
X84548Y-38773D01*
X83596Y-39249D01*
X82644D01*
X81692Y-38773D01*
X81216Y-38297D01*
X80740Y-36869D01*
Y-35916D01*
X93784Y-30679D02*
X93308Y-29727D01*
X91880Y-29251D01*
X90928D01*
X89500Y-29727D01*
X88547Y-31155D01*
X88071Y-33536D01*
Y-35916D01*
X88547Y-37821D01*
X89500Y-38773D01*
X90928Y-39249D01*
X91404D01*
X92832Y-38773D01*
X93784Y-37821D01*
X94261Y-36392D01*
Y-35916D01*
X93784Y-34488D01*
X92832Y-33536D01*
X91404Y-33060D01*
X90928D01*
X89500Y-33536D01*
X88547Y-34488D01*
X88071Y-35916D01*
X43762Y554999D02*
Y547382D01*
X43286Y545953D01*
X42810Y545477D01*
X41858Y545001D01*
X40906D01*
X39954Y545477D01*
X39478Y545953D01*
X39002Y547382D01*
Y548334D01*
X52046Y554999D02*
X47285D01*
X46809Y550714D01*
X47285Y551190D01*
X48714Y551666D01*
X50142D01*
X51570Y551190D01*
X52522Y550238D01*
X52998Y548810D01*
Y547858D01*
X52522Y546429D01*
X51570Y545477D01*
X50142Y545001D01*
X48714D01*
X47285Y545477D01*
X46809Y545953D01*
X46333Y546905D01*
X323512Y-23751D02*
Y-31369D01*
X323036Y-32797D01*
X322560Y-33273D01*
X321608Y-33749D01*
X320656D01*
X319704Y-33273D01*
X319228Y-32797D01*
X318752Y-31369D01*
Y-30416D01*
X327035Y-23751D02*
X332272D01*
X329416Y-27560D01*
X330844D01*
X331796Y-28036D01*
X332272Y-28512D01*
X332748Y-29940D01*
Y-30892D01*
X332272Y-32321D01*
X331320Y-33273D01*
X329892Y-33749D01*
X328464D01*
X327035Y-33273D01*
X326559Y-32797D01*
X326083Y-31845D01*
X338012Y549999D02*
Y542382D01*
X337536Y540953D01*
X337060Y540477D01*
X336108Y540001D01*
X335156D01*
X334204Y540477D01*
X333728Y540953D01*
X333251Y542382D01*
Y543334D01*
X341059Y547618D02*
Y548095D01*
X341535Y549047D01*
X342012Y549523D01*
X342964Y549999D01*
X344868D01*
X345820Y549523D01*
X346296Y549047D01*
X346772Y548095D01*
Y547142D01*
X346296Y546190D01*
X345344Y544762D01*
X340583Y540001D01*
X347248D01*
X1003522Y49601D02*
Y41984D01*
X1003046Y40556D01*
X1002570Y40080D01*
X1001618Y39604D01*
X1000666D01*
X999714Y40080D01*
X999237Y40556D01*
X998761Y41984D01*
Y42936D01*
X1006093Y47697D02*
X1007045Y48173D01*
X1008474Y49601D01*
Y39604D01*
X651511Y330157D02*
X651035Y331110D01*
X650083Y332062D01*
X649131Y332538D01*
X647226D01*
X646274Y332062D01*
X645322Y331110D01*
X644846Y330157D01*
X644370Y328729D01*
Y326349D01*
X644846Y324920D01*
X645322Y323968D01*
X646274Y323016D01*
X647226Y322540D01*
X649131D01*
X650083Y323016D01*
X651035Y323968D01*
X651511Y324920D01*
Y326349D01*
X649131D02*
X651511D01*
X654273Y330157D02*
Y330634D01*
X654749Y331586D01*
X655225Y332062D01*
X656177Y332538D01*
X658081D01*
X659034Y332062D01*
X659510Y331586D01*
X659986Y330634D01*
Y329681D01*
X659510Y328729D01*
X658558Y327301D01*
X653797Y322540D01*
X660462D01*
X785369Y355303D02*
X784893Y356256D01*
X783941Y357208D01*
X782989Y357684D01*
X781085D01*
X780132Y357208D01*
X779180Y356256D01*
X778704Y355303D01*
X778228Y353875D01*
Y351495D01*
X778704Y350066D01*
X779180Y349114D01*
X780132Y348162D01*
X781085Y347686D01*
X782989D01*
X783941Y348162D01*
X784893Y349114D01*
X785369Y350066D01*
Y351495D01*
X782989D02*
X785369D01*
X787655Y355779D02*
X788607Y356256D01*
X790035Y357684D01*
Y347686D01*
X578608Y275249D02*
Y265251D01*
Y275249D02*
X581941D01*
X583369Y274773D01*
X584321Y273821D01*
X584798Y272868D01*
X585274Y271440D01*
Y269060D01*
X584798Y267631D01*
X584321Y266679D01*
X583369Y265727D01*
X581941Y265251D01*
X578608D01*
X587511Y273345D02*
X588463Y273821D01*
X589892Y275249D01*
Y265251D01*
X552382Y87619D02*
X551906Y88571D01*
X550954Y89523D01*
X550002Y89999D01*
X548097D01*
X547145Y89523D01*
X546193Y88571D01*
X545717Y87619D01*
X545241Y86190D01*
Y83810D01*
X545717Y82381D01*
X546193Y81429D01*
X547145Y80477D01*
X548097Y80001D01*
X550002D01*
X550954Y80477D01*
X551906Y81429D01*
X552382Y82381D01*
X556143Y89999D02*
X561380D01*
X558524Y86190D01*
X559952D01*
X560904Y85714D01*
X561380Y85238D01*
X561856Y83810D01*
Y82858D01*
X561380Y81429D01*
X560428Y80477D01*
X559000Y80001D01*
X557571D01*
X556143Y80477D01*
X555667Y80953D01*
X555191Y81905D01*
X570759Y89999D02*
X565998Y80001D01*
X564094Y89999D02*
X570759D01*
X471965Y430694D02*
X471488Y431646D01*
X470536Y432598D01*
X469584Y433074D01*
X467680D01*
X466728Y432598D01*
X465775Y431646D01*
X465299Y430694D01*
X464823Y429265D01*
Y426885D01*
X465299Y425457D01*
X465775Y424504D01*
X466728Y423552D01*
X467680Y423076D01*
X469584D01*
X470536Y423552D01*
X471488Y424504D01*
X471965Y425457D01*
X475726Y433074D02*
X480963D01*
X478106Y429265D01*
X479534D01*
X480487Y428789D01*
X480963Y428313D01*
X481439Y426885D01*
Y425933D01*
X480963Y424504D01*
X480010Y423552D01*
X478582Y423076D01*
X477154D01*
X475726Y423552D01*
X475250Y424028D01*
X474773Y424981D01*
X489389Y433074D02*
X484628D01*
X484152Y428789D01*
X484628Y429265D01*
X486057Y429741D01*
X487485D01*
X488913Y429265D01*
X489865Y428313D01*
X490342Y426885D01*
Y425933D01*
X489865Y424504D01*
X488913Y423552D01*
X487485Y423076D01*
X486057D01*
X484628Y423552D01*
X484152Y424028D01*
X483676Y424981D01*
X437820Y430182D02*
X437344Y431135D01*
X436392Y432087D01*
X435440Y432563D01*
X433535D01*
X432583Y432087D01*
X431631Y431135D01*
X431155Y430182D01*
X430679Y428754D01*
Y426374D01*
X431155Y424945D01*
X431631Y423993D01*
X432583Y423041D01*
X433535Y422565D01*
X435440D01*
X436392Y423041D01*
X437344Y423993D01*
X437820Y424945D01*
X441581Y432563D02*
X446818D01*
X443961Y428754D01*
X445390D01*
X446342Y428278D01*
X446818Y427802D01*
X447294Y426374D01*
Y425421D01*
X446818Y423993D01*
X445866Y423041D01*
X444438Y422565D01*
X443009D01*
X441581Y423041D01*
X441105Y423517D01*
X440629Y424469D01*
X454293Y432563D02*
X449532Y425898D01*
X456673D01*
X454293Y432563D02*
Y422565D01*
X717882Y92368D02*
X717406Y93321D01*
X716454Y94273D01*
X715502Y94749D01*
X713597D01*
X712645Y94273D01*
X711693Y93321D01*
X711217Y92368D01*
X710741Y90940D01*
Y88560D01*
X711217Y87132D01*
X711693Y86179D01*
X712645Y85227D01*
X713597Y84751D01*
X715502D01*
X716454Y85227D01*
X717406Y86179D01*
X717882Y87132D01*
X721643Y94749D02*
X726880D01*
X724024Y90940D01*
X725452D01*
X726404Y90464D01*
X726880Y89988D01*
X727356Y88560D01*
Y87608D01*
X726880Y86179D01*
X725928Y85227D01*
X724500Y84751D01*
X723072D01*
X721643Y85227D01*
X721167Y85703D01*
X720691Y86655D01*
X730546Y94749D02*
X735783D01*
X732927Y90940D01*
X734355D01*
X735307Y90464D01*
X735783Y89988D01*
X736259Y88560D01*
Y87608D01*
X735783Y86179D01*
X734831Y85227D01*
X733403Y84751D01*
X731974D01*
X730546Y85227D01*
X730070Y85703D01*
X729594Y86655D01*
X750132Y92619D02*
X749656Y93571D01*
X748704Y94523D01*
X747752Y94999D01*
X745847D01*
X744895Y94523D01*
X743943Y93571D01*
X743467Y92619D01*
X742991Y91190D01*
Y88810D01*
X743467Y87381D01*
X743943Y86429D01*
X744895Y85477D01*
X745847Y85001D01*
X747752D01*
X748704Y85477D01*
X749656Y86429D01*
X750132Y87381D01*
X753893Y94999D02*
X759130D01*
X756274Y91190D01*
X757702D01*
X758654Y90714D01*
X759130Y90238D01*
X759606Y88810D01*
Y87858D01*
X759130Y86429D01*
X758178Y85477D01*
X756750Y85001D01*
X755322D01*
X753893Y85477D01*
X753417Y85953D01*
X752941Y86905D01*
X762320Y92619D02*
Y93095D01*
X762796Y94047D01*
X763272Y94523D01*
X764224Y94999D01*
X766129D01*
X767081Y94523D01*
X767557Y94047D01*
X768033Y93095D01*
Y92142D01*
X767557Y91190D01*
X766605Y89762D01*
X761844Y85001D01*
X768509D01*
X454482Y333889D02*
X455434Y334365D01*
X456386Y335317D01*
X456862Y336270D01*
Y338174D01*
X456386Y339126D01*
X455434Y340078D01*
X454482Y340554D01*
X453053Y341031D01*
X450673D01*
X449244Y340554D01*
X448292Y340078D01*
X447340Y339126D01*
X446864Y338174D01*
Y336270D01*
X447340Y335317D01*
X448292Y334365D01*
X449244Y333889D01*
X454482Y330604D02*
X454958D01*
X455910Y330128D01*
X456386Y329652D01*
X456862Y328700D01*
Y326796D01*
X456386Y325843D01*
X455910Y325367D01*
X454958Y324891D01*
X454005D01*
X453053Y325367D01*
X451625Y326319D01*
X446864Y331080D01*
Y324415D01*
X456862Y319797D02*
X456386Y321225D01*
X455434Y321701D01*
X454482D01*
X453529Y321225D01*
X453053Y320273D01*
X452577Y318369D01*
X452101Y316940D01*
X451149Y315988D01*
X450197Y315512D01*
X448768D01*
X447816Y315988D01*
X447340Y316464D01*
X446864Y317893D01*
Y319797D01*
X447340Y321225D01*
X447816Y321701D01*
X448768Y322177D01*
X450197D01*
X451149Y321701D01*
X452101Y320749D01*
X452577Y319321D01*
X453053Y317416D01*
X453529Y316464D01*
X454482Y315988D01*
X455434D01*
X456386Y316464D01*
X456862Y317893D01*
Y319797D01*
X471731Y333139D02*
X472684Y333615D01*
X473636Y334567D01*
X474112Y335520D01*
Y337424D01*
X473636Y338376D01*
X472684Y339328D01*
X471731Y339804D01*
X470303Y340280D01*
X467923D01*
X466494Y339804D01*
X465542Y339328D01*
X464590Y338376D01*
X464114Y337424D01*
Y335520D01*
X464590Y334567D01*
X465542Y333615D01*
X466494Y333139D01*
X471731Y329854D02*
X472208D01*
X473160Y329378D01*
X473636Y328902D01*
X474112Y327950D01*
Y326045D01*
X473636Y325093D01*
X473160Y324617D01*
X472208Y324141D01*
X471255D01*
X470303Y324617D01*
X468875Y325569D01*
X464114Y330330D01*
Y323665D01*
X474112Y314762D02*
X464114Y319523D01*
X474112Y321427D02*
Y314762D01*
X517118Y186856D02*
X518071Y187332D01*
X519023Y188284D01*
X519499Y189236D01*
Y191141D01*
X519023Y192093D01*
X518071Y193045D01*
X517118Y193521D01*
X515690Y193997D01*
X513310D01*
X511881Y193521D01*
X510929Y193045D01*
X509977Y192093D01*
X509501Y191141D01*
Y189236D01*
X509977Y188284D01*
X510929Y187332D01*
X511881Y186856D01*
X517118Y183571D02*
X517595D01*
X518547Y183095D01*
X519023Y182619D01*
X519499Y181667D01*
Y179762D01*
X519023Y178810D01*
X518547Y178334D01*
X517595Y177858D01*
X516642D01*
X515690Y178334D01*
X514262Y179286D01*
X509501Y184047D01*
Y177382D01*
X519499Y170383D02*
X512834Y175144D01*
Y168003D01*
X519499Y170383D02*
X509501D01*
X515619Y156368D02*
X516571Y156844D01*
X517523Y157796D01*
X517999Y158748D01*
Y160653D01*
X517523Y161605D01*
X516571Y162557D01*
X515619Y163033D01*
X514190Y163509D01*
X511810D01*
X510382Y163033D01*
X509429Y162557D01*
X508477Y161605D01*
X508001Y160653D01*
Y158748D01*
X508477Y157796D01*
X509429Y156844D01*
X510382Y156368D01*
X515619Y153083D02*
X516095D01*
X517047Y152607D01*
X517523Y152131D01*
X517999Y151179D01*
Y149274D01*
X517523Y148322D01*
X517047Y147846D01*
X516095Y147370D01*
X515142D01*
X514190Y147846D01*
X512762Y148798D01*
X508001Y153559D01*
Y146894D01*
X517999Y143704D02*
Y138467D01*
X514190Y141323D01*
Y139895D01*
X513714Y138943D01*
X513238Y138467D01*
X511810Y137991D01*
X510858D01*
X509429Y138467D01*
X508477Y139419D01*
X508001Y140847D01*
Y142276D01*
X508477Y143704D01*
X508953Y144180D01*
X509906Y144656D01*
X738382Y212868D02*
X737906Y213821D01*
X736954Y214773D01*
X736002Y215249D01*
X734097D01*
X733145Y214773D01*
X732193Y213821D01*
X731717Y212868D01*
X731241Y211440D01*
Y209060D01*
X731717Y207631D01*
X732193Y206679D01*
X733145Y205727D01*
X734097Y205251D01*
X736002D01*
X736954Y205727D01*
X737906Y206679D01*
X738382Y207631D01*
X741667Y212868D02*
Y213345D01*
X742143Y214297D01*
X742619Y214773D01*
X743571Y215249D01*
X745476D01*
X746428Y214773D01*
X746904Y214297D01*
X747380Y213345D01*
Y212392D01*
X746904Y211440D01*
X745952Y210012D01*
X741191Y205251D01*
X747856D01*
X750570Y212868D02*
Y213345D01*
X751046Y214297D01*
X751522Y214773D01*
X752474Y215249D01*
X754379D01*
X755331Y214773D01*
X755807Y214297D01*
X756283Y213345D01*
Y212392D01*
X755807Y211440D01*
X754855Y210012D01*
X750094Y205251D01*
X756759D01*
X709525Y213619D02*
X709048Y214571D01*
X708096Y215523D01*
X707144Y215999D01*
X705240D01*
X704288Y215523D01*
X703335Y214571D01*
X702859Y213619D01*
X702383Y212190D01*
Y209810D01*
X702859Y208382D01*
X703335Y207429D01*
X704288Y206477D01*
X705240Y206001D01*
X707144D01*
X708096Y206477D01*
X709048Y207429D01*
X709525Y208382D01*
X712810Y213619D02*
Y214095D01*
X713286Y215047D01*
X713762Y215523D01*
X714714Y215999D01*
X716618D01*
X717570Y215523D01*
X718047Y215047D01*
X718523Y214095D01*
Y213142D01*
X718047Y212190D01*
X717094Y210762D01*
X712334Y206001D01*
X718999D01*
X721236Y214095D02*
X722188Y214571D01*
X723617Y215999D01*
Y206001D01*
X656882Y87368D02*
X656406Y88321D01*
X655454Y89273D01*
X654502Y89749D01*
X652597D01*
X651645Y89273D01*
X650693Y88321D01*
X650217Y87368D01*
X649741Y85940D01*
Y83560D01*
X650217Y82132D01*
X650693Y81179D01*
X651645Y80227D01*
X652597Y79751D01*
X654502D01*
X655454Y80227D01*
X656406Y81179D01*
X656882Y82132D01*
X660167Y87368D02*
Y87845D01*
X660643Y88797D01*
X661119Y89273D01*
X662072Y89749D01*
X663976D01*
X664928Y89273D01*
X665404Y88797D01*
X665880Y87845D01*
Y86892D01*
X665404Y85940D01*
X664452Y84512D01*
X659691Y79751D01*
X666356D01*
X671451Y89749D02*
X670022Y89273D01*
X669070Y87845D01*
X668594Y85464D01*
Y84036D01*
X669070Y81655D01*
X670022Y80227D01*
X671451Y79751D01*
X672403D01*
X673831Y80227D01*
X674783Y81655D01*
X675259Y84036D01*
Y85464D01*
X674783Y87845D01*
X673831Y89273D01*
X672403Y89749D01*
X671451D01*
X627156Y87368D02*
X626680Y88321D01*
X625728Y89273D01*
X624775Y89749D01*
X622871D01*
X621919Y89273D01*
X620967Y88321D01*
X620491Y87368D01*
X620014Y85940D01*
Y83560D01*
X620491Y82132D01*
X620967Y81179D01*
X621919Y80227D01*
X622871Y79751D01*
X624775D01*
X625728Y80227D01*
X626680Y81179D01*
X627156Y82132D01*
X629965Y87845D02*
X630917Y88321D01*
X632345Y89749D01*
Y79751D01*
X643486Y86416D02*
X643009Y84988D01*
X642057Y84036D01*
X640629Y83560D01*
X640153D01*
X638725Y84036D01*
X637773Y84988D01*
X637296Y86416D01*
Y86892D01*
X637773Y88321D01*
X638725Y89273D01*
X640153Y89749D01*
X640629D01*
X642057Y89273D01*
X643009Y88321D01*
X643486Y86416D01*
Y84036D01*
X643009Y81655D01*
X642057Y80227D01*
X640629Y79751D01*
X639677D01*
X638249Y80227D01*
X637773Y81179D01*
X478918Y184869D02*
X478442Y185821D01*
X477490Y186773D01*
X476537Y187249D01*
X474633D01*
X473681Y186773D01*
X472729Y185821D01*
X472253Y184869D01*
X471776Y183440D01*
Y181060D01*
X472253Y179632D01*
X472729Y178679D01*
X473681Y177727D01*
X474633Y177251D01*
X476537D01*
X477490Y177727D01*
X478442Y178679D01*
X478918Y179632D01*
X481727Y185345D02*
X482679Y185821D01*
X484107Y187249D01*
Y177251D01*
X491439Y187249D02*
X490011Y186773D01*
X489534Y185821D01*
Y184869D01*
X490011Y183916D01*
X490963Y183440D01*
X492867Y182964D01*
X494295Y182488D01*
X495247Y181536D01*
X495724Y180584D01*
Y179155D01*
X495247Y178203D01*
X494771Y177727D01*
X493343Y177251D01*
X491439D01*
X490011Y177727D01*
X489534Y178203D01*
X489058Y179155D01*
Y180584D01*
X489534Y181536D01*
X490487Y182488D01*
X491915Y182964D01*
X493819Y183440D01*
X494771Y183916D01*
X495247Y184869D01*
Y185821D01*
X494771Y186773D01*
X493343Y187249D01*
X491439D01*
X472868Y56082D02*
X473821Y56558D01*
X474773Y57510D01*
X475249Y58463D01*
Y60367D01*
X474773Y61319D01*
X473821Y62271D01*
X472868Y62748D01*
X471440Y63224D01*
X469060D01*
X467631Y62748D01*
X466679Y62271D01*
X465727Y61319D01*
X465251Y60367D01*
Y58463D01*
X465727Y57510D01*
X466679Y56558D01*
X467631Y56082D01*
X473345Y53273D02*
X473821Y52321D01*
X475249Y50893D01*
X465251D01*
X475249Y39276D02*
X465251Y44037D01*
X475249Y45942D02*
Y39276D01*
X196906Y79619D02*
X196430Y80571D01*
X195478Y81523D01*
X194525Y81999D01*
X192621D01*
X191669Y81523D01*
X190717Y80571D01*
X190240Y79619D01*
X189764Y78190D01*
Y75810D01*
X190240Y74381D01*
X190717Y73429D01*
X191669Y72477D01*
X192621Y72001D01*
X194525D01*
X195478Y72477D01*
X196430Y73429D01*
X196906Y74381D01*
X199715Y80095D02*
X200667Y80571D01*
X202095Y81999D01*
Y72001D01*
X212759Y80571D02*
X212283Y81523D01*
X210855Y81999D01*
X209903D01*
X208475Y81523D01*
X207523Y80095D01*
X207046Y77714D01*
Y75334D01*
X207523Y73429D01*
X208475Y72477D01*
X209903Y72001D01*
X210379D01*
X211807Y72477D01*
X212759Y73429D01*
X213236Y74858D01*
Y75334D01*
X212759Y76762D01*
X211807Y77714D01*
X210379Y78190D01*
X209903D01*
X208475Y77714D01*
X207523Y76762D01*
X207046Y75334D01*
X348668Y81369D02*
X348192Y82321D01*
X347239Y83273D01*
X346287Y83749D01*
X344383D01*
X343431Y83273D01*
X342479Y82321D01*
X342002Y81369D01*
X341526Y79940D01*
Y77560D01*
X342002Y76132D01*
X342479Y75179D01*
X343431Y74227D01*
X344383Y73751D01*
X346287D01*
X347239Y74227D01*
X348192Y75179D01*
X348668Y76132D01*
X351477Y81845D02*
X352429Y82321D01*
X353857Y83749D01*
Y73751D01*
X364521Y83749D02*
X359761D01*
X359285Y79464D01*
X359761Y79940D01*
X361189Y80416D01*
X362617D01*
X364045Y79940D01*
X364997Y78988D01*
X365474Y77560D01*
Y76608D01*
X364997Y75179D01*
X364045Y74227D01*
X362617Y73751D01*
X361189D01*
X359761Y74227D01*
X359285Y74703D01*
X358808Y75655D01*
X273418Y291618D02*
X272942Y292571D01*
X271989Y293523D01*
X271037Y293999D01*
X269133D01*
X268181Y293523D01*
X267229Y292571D01*
X266752Y291618D01*
X266276Y290190D01*
Y287810D01*
X266752Y286381D01*
X267229Y285429D01*
X268181Y284477D01*
X269133Y284001D01*
X271037D01*
X271989Y284477D01*
X272942Y285429D01*
X273418Y286381D01*
X276227Y292095D02*
X277179Y292571D01*
X278607Y293999D01*
Y284001D01*
X284035Y291618D02*
Y292095D01*
X284511Y293047D01*
X284987Y293523D01*
X285939Y293999D01*
X287843D01*
X288795Y293523D01*
X289272Y293047D01*
X289748Y292095D01*
Y291142D01*
X289272Y290190D01*
X288319Y288762D01*
X283558Y284001D01*
X290224D01*
X232060Y311868D02*
X231584Y312821D01*
X230632Y313773D01*
X229680Y314249D01*
X227775D01*
X226823Y313773D01*
X225871Y312821D01*
X225395Y311868D01*
X224919Y310440D01*
Y308060D01*
X225395Y306632D01*
X225871Y305679D01*
X226823Y304727D01*
X227775Y304251D01*
X229680D01*
X230632Y304727D01*
X231584Y305679D01*
X232060Y306632D01*
X234869Y312345D02*
X235821Y312821D01*
X237250Y314249D01*
Y304251D01*
X242201Y312345D02*
X243153Y312821D01*
X244581Y314249D01*
Y304251D01*
X169418Y269618D02*
X168942Y270571D01*
X167990Y271523D01*
X167037Y271999D01*
X165133D01*
X164181Y271523D01*
X163229Y270571D01*
X162752Y269618D01*
X162276Y268190D01*
Y265810D01*
X162752Y264382D01*
X163229Y263429D01*
X164181Y262477D01*
X165133Y262001D01*
X167037D01*
X167990Y262477D01*
X168942Y263429D01*
X169418Y264382D01*
X172227Y270095D02*
X173179Y270571D01*
X174607Y271999D01*
Y262001D01*
X182415Y271999D02*
X180987Y271523D01*
X180035Y270095D01*
X179558Y267714D01*
Y266286D01*
X180035Y263905D01*
X180987Y262477D01*
X182415Y262001D01*
X183367D01*
X184795Y262477D01*
X185748Y263905D01*
X186224Y266286D01*
Y267714D01*
X185748Y270095D01*
X184795Y271523D01*
X183367Y271999D01*
X182415D01*
X169072Y250368D02*
X168596Y251321D01*
X167643Y252273D01*
X166691Y252749D01*
X164787D01*
X163835Y252273D01*
X162882Y251321D01*
X162406Y250368D01*
X161930Y248940D01*
Y246560D01*
X162406Y245131D01*
X162882Y244179D01*
X163835Y243227D01*
X164787Y242751D01*
X166691D01*
X167643Y243227D01*
X168596Y244179D01*
X169072Y245131D01*
X178070Y249416D02*
X177594Y247988D01*
X176642Y247036D01*
X175213Y246560D01*
X174737D01*
X173309Y247036D01*
X172357Y247988D01*
X171881Y249416D01*
Y249892D01*
X172357Y251321D01*
X173309Y252273D01*
X174737Y252749D01*
X175213D01*
X176642Y252273D01*
X177594Y251321D01*
X178070Y249416D01*
Y247036D01*
X177594Y244655D01*
X176642Y243227D01*
X175213Y242751D01*
X174261D01*
X172833Y243227D01*
X172357Y244179D01*
X169834Y323619D02*
X169357Y324571D01*
X168405Y325523D01*
X167453Y325999D01*
X165549D01*
X164597Y325523D01*
X163645Y324571D01*
X163168Y323619D01*
X162692Y322190D01*
Y319810D01*
X163168Y318382D01*
X163645Y317429D01*
X164597Y316477D01*
X165549Y316001D01*
X167453D01*
X168405Y316477D01*
X169357Y317429D01*
X169834Y318382D01*
X175023Y325999D02*
X173595Y325523D01*
X173119Y324571D01*
Y323619D01*
X173595Y322666D01*
X174547Y322190D01*
X176451Y321714D01*
X177880Y321238D01*
X178832Y320286D01*
X179308Y319334D01*
Y317905D01*
X178832Y316953D01*
X178356Y316477D01*
X176927Y316001D01*
X175023D01*
X173595Y316477D01*
X173119Y316953D01*
X172642Y317905D01*
Y319334D01*
X173119Y320286D01*
X174071Y321238D01*
X175499Y321714D01*
X177403Y322190D01*
X178356Y322666D01*
X178832Y323619D01*
Y324571D01*
X178356Y325523D01*
X176927Y325999D01*
X175023D01*
X561084Y315618D02*
X560607Y316571D01*
X559655Y317523D01*
X558703Y317999D01*
X556799D01*
X555847Y317523D01*
X554894Y316571D01*
X554418Y315618D01*
X553942Y314190D01*
Y311810D01*
X554418Y310382D01*
X554894Y309429D01*
X555847Y308477D01*
X556799Y308001D01*
X558703D01*
X559655Y308477D01*
X560607Y309429D01*
X561084Y310382D01*
X570558Y317999D02*
X565797Y308001D01*
X563893Y317999D02*
X570558D01*
X583834Y315868D02*
X583358Y316821D01*
X582405Y317773D01*
X581453Y318249D01*
X579549D01*
X578597Y317773D01*
X577644Y316821D01*
X577168Y315868D01*
X576692Y314440D01*
Y312060D01*
X577168Y310632D01*
X577644Y309679D01*
X578597Y308727D01*
X579549Y308251D01*
X581453D01*
X582405Y308727D01*
X583358Y309679D01*
X583834Y310632D01*
X592356Y318249D02*
X587595D01*
X587119Y313964D01*
X587595Y314440D01*
X589023Y314916D01*
X590451D01*
X591880Y314440D01*
X592832Y313488D01*
X593308Y312060D01*
Y311108D01*
X592832Y309679D01*
X591880Y308727D01*
X590451Y308251D01*
X589023D01*
X587595Y308727D01*
X587119Y309203D01*
X586642Y310155D01*
X170084Y377369D02*
X169608Y378321D01*
X168655Y379273D01*
X167703Y379749D01*
X165799D01*
X164847Y379273D01*
X163894Y378321D01*
X163418Y377369D01*
X162942Y375940D01*
Y373560D01*
X163418Y372132D01*
X163894Y371179D01*
X164847Y370227D01*
X165799Y369751D01*
X167703D01*
X168655Y370227D01*
X169608Y371179D01*
X170084Y372132D01*
X173845Y379749D02*
X179082D01*
X176225Y375940D01*
X177653D01*
X178606Y375464D01*
X179082Y374988D01*
X179558Y373560D01*
Y372608D01*
X179082Y371179D01*
X178130Y370227D01*
X176701Y369751D01*
X175273D01*
X173845Y370227D01*
X173369Y370703D01*
X172892Y371655D01*
X169334Y395118D02*
X168857Y396071D01*
X167905Y397023D01*
X166953Y397499D01*
X165049D01*
X164097Y397023D01*
X163144Y396071D01*
X162668Y395118D01*
X162192Y393690D01*
Y391310D01*
X162668Y389882D01*
X163144Y388929D01*
X164097Y387977D01*
X165049Y387501D01*
X166953D01*
X167905Y387977D01*
X168857Y388929D01*
X169334Y389882D01*
X172619Y395118D02*
Y395595D01*
X173095Y396547D01*
X173571Y397023D01*
X174523Y397499D01*
X176427D01*
X177379Y397023D01*
X177856Y396547D01*
X178332Y395595D01*
Y394642D01*
X177856Y393690D01*
X176903Y392262D01*
X172143Y387501D01*
X178808D01*
X170726Y452868D02*
X170250Y453821D01*
X169298Y454773D01*
X168346Y455249D01*
X166441D01*
X165489Y454773D01*
X164537Y453821D01*
X164061Y452868D01*
X163585Y451440D01*
Y449060D01*
X164061Y447631D01*
X164537Y446679D01*
X165489Y445727D01*
X166441Y445251D01*
X168346D01*
X169298Y445727D01*
X170250Y446679D01*
X170726Y447631D01*
X173535Y453345D02*
X174487Y453821D01*
X175915Y455249D01*
Y445251D01*
D15*
X317245Y73332D02*
Y86007D01*
X266445Y73332D02*
Y86007D01*
X308355Y73332D02*
Y86007D01*
X257555Y73332D02*
Y86007D01*
X59171Y192545D02*
X96275D01*
X110225Y119901D02*
X114045D01*
Y137671D02*
Y174775D01*
X41401Y119901D02*
Y123721D01*
X59171Y119901D02*
X96275D01*
X41401Y137671D02*
Y174775D01*
Y192545D02*
X45221D01*
X41401Y188725D02*
Y192545D01*
X110225D02*
X114045D01*
Y119901D02*
Y123721D01*
X41401Y119901D02*
X45221D01*
X114045Y188725D02*
Y192545D01*
X627448Y74099D02*
X664552D01*
X678502Y1455D02*
X682322D01*
Y19225D02*
Y56329D01*
X609678Y1455D02*
Y5275D01*
X627448Y1455D02*
X664552D01*
X609678Y19225D02*
Y56329D01*
Y74099D02*
X613498D01*
X609678Y70279D02*
Y74099D01*
X678502D02*
X682322D01*
Y1455D02*
Y5275D01*
X609678Y1455D02*
X613498D01*
X682322Y70279D02*
Y74099D01*
X742698D02*
X779802D01*
X793752Y1455D02*
X797572D01*
Y19225D02*
Y56329D01*
X724928Y1455D02*
Y5275D01*
X742698Y1455D02*
X779802D01*
X724928Y19225D02*
Y56329D01*
Y74099D02*
X728748D01*
X724928Y70279D02*
Y74099D01*
X793752D02*
X797572D01*
Y1455D02*
Y5275D01*
X724928Y1455D02*
X728748D01*
X797572Y70279D02*
Y74099D01*
X144921Y195099D02*
X182025D01*
X195975Y122455D02*
X199795D01*
Y140225D02*
Y177329D01*
X127151Y122455D02*
Y126275D01*
X144921Y122455D02*
X182025D01*
X127151Y140225D02*
Y177329D01*
Y195099D02*
X130971D01*
X127151Y191279D02*
Y195099D01*
X195975D02*
X199795D01*
Y122455D02*
Y126275D01*
X127151Y122455D02*
X130971D01*
X199795Y191279D02*
Y195099D01*
X499421Y74099D02*
X536525D01*
X550475Y1455D02*
X554295D01*
Y19225D02*
Y56329D01*
X481651Y1455D02*
Y5275D01*
X499421Y1455D02*
X536525D01*
X481651Y19225D02*
Y56329D01*
Y74099D02*
X485471D01*
X481651Y70279D02*
Y74099D01*
X550475D02*
X554295D01*
Y1455D02*
Y5275D01*
X481651Y1455D02*
X485471D01*
X554295Y70279D02*
Y74099D01*
X276306Y377277D02*
Y387412D01*
X294086Y377277D02*
Y387412D01*
X230700Y377290D02*
Y387425D01*
X248480Y377290D02*
Y387425D01*
X438356Y106227D02*
Y116362D01*
X456136Y106227D02*
Y116362D01*
X392750Y106240D02*
Y116375D01*
X410530Y106240D02*
Y116375D01*
X488322Y493948D02*
Y531052D01*
X415678Y476178D02*
Y479998D01*
X433448Y476178D02*
X470552D01*
X415678Y548822D02*
X419498D01*
X415678Y493948D02*
Y531052D01*
X433448Y548822D02*
X470552D01*
X488322Y545002D02*
Y548822D01*
X484502D02*
X488322D01*
Y476178D02*
Y479998D01*
X415678Y476178D02*
X419498D01*
X415678Y545002D02*
Y548822D01*
X484502Y476178D02*
X488322D01*
D16*
X511650Y88250D02*
Y108250D01*
X493850Y88250D02*
Y108250D01*
X521350Y88250D02*
Y108250D01*
X539150Y88250D02*
Y108250D01*
X590400Y61250D02*
Y81250D01*
X572600Y61250D02*
Y81250D01*
X615900Y90750D02*
Y110750D01*
X598100Y90750D02*
Y110750D01*
X721440Y146520D02*
Y153120D01*
X732590Y157820D02*
X739290D01*
X750440Y146520D02*
Y153120D01*
X689100Y58850D02*
Y78850D01*
X706900Y58850D02*
Y78850D01*
X689100Y97250D02*
Y117250D01*
X706900Y97250D02*
Y117250D01*
X650250Y145700D02*
Y152300D01*
X632400Y157000D02*
X639100D01*
X621250Y145700D02*
Y152300D01*
X586750Y145700D02*
Y152300D01*
X568900Y157000D02*
X575600D01*
X557750Y145700D02*
Y152300D01*
X128000Y362650D02*
X148000D01*
X128000Y344850D02*
X148000D01*
X543620Y398817D02*
X546621D01*
X516620D02*
X519620D01*
X543620Y368817D02*
X546621D01*
X516620D02*
X519620D01*
X546621Y395817D02*
Y398817D01*
X516620Y395817D02*
Y398817D01*
X546621Y368817D02*
Y371816D01*
X516620Y368817D02*
Y371816D01*
X354098Y452532D02*
X374098D01*
X354098Y434731D02*
X374098D01*
X753100Y266750D02*
Y286750D01*
X770900Y266750D02*
Y286750D01*
X390698Y441382D02*
Y461382D01*
X408498Y441382D02*
Y461382D01*
M02*
