G04*
G04 #@! TF.GenerationSoftware,Altium Limited,Altium Designer,22.0.2 (36)*
G04*
G04 Layer_Color=128*
%FSLAX44Y44*%
%MOMM*%
G71*
G04*
G04 #@! TF.SameCoordinates,A00C5D83-CF48-4284-9485-F4BE2AF80D81*
G04*
G04*
G04 #@! TF.FilePolarity,Positive*
G04*
G01*
G75*
%ADD87C,0.0508*%
D87*
X319940Y170360D02*
X323440D01*
X321690Y168610D02*
Y172110D01*
X285650Y170360D02*
X289150D01*
X287400Y168610D02*
Y172110D01*
X251360Y170360D02*
X254860D01*
X253110Y168610D02*
Y172110D01*
X319940Y136070D02*
X323440D01*
X321690Y134320D02*
Y137820D01*
X285650Y136070D02*
X289150D01*
X287400Y134320D02*
Y137820D01*
X251360Y136070D02*
X254860D01*
X253110Y134320D02*
Y137820D01*
X95750Y181750D02*
X110750D01*
X103250Y174250D02*
Y189250D01*
X96265Y130696D02*
X110235D01*
X103250Y123711D02*
Y137681D01*
X45211Y130696D02*
X59181D01*
X52196Y123711D02*
Y137681D01*
X45211Y181750D02*
X59181D01*
X52196Y174765D02*
Y188735D01*
X70230Y156223D02*
X85216D01*
X77723Y148730D02*
Y163716D01*
X664027Y63304D02*
X679027D01*
X671527Y55804D02*
Y70804D01*
X664542Y12250D02*
X678512D01*
X671527Y5265D02*
Y19235D01*
X613488Y12250D02*
X627458D01*
X620473Y5265D02*
Y19235D01*
X613488Y63304D02*
X627458D01*
X620473Y56319D02*
Y70289D01*
X638507Y37777D02*
X653493D01*
X646000Y30284D02*
Y45270D01*
X779277Y63304D02*
X794277D01*
X786777Y55804D02*
Y70804D01*
X779792Y12250D02*
X793762D01*
X786777Y5265D02*
Y19235D01*
X728738Y12250D02*
X742708D01*
X735723Y5265D02*
Y19235D01*
X728738Y63304D02*
X742708D01*
X735723Y56319D02*
Y70289D01*
X753757Y37777D02*
X768743D01*
X761250Y30284D02*
Y45270D01*
X181500Y184304D02*
X196500D01*
X189000Y176804D02*
Y191804D01*
X182015Y133250D02*
X195985D01*
X189000Y126265D02*
Y140235D01*
X130961Y133250D02*
X144931D01*
X137946Y126265D02*
Y140235D01*
X130961Y184304D02*
X144931D01*
X137946Y177319D02*
Y191289D01*
X155980Y158777D02*
X170966D01*
X163473Y151284D02*
Y166270D01*
X536000Y63304D02*
X551000D01*
X543500Y55804D02*
Y70804D01*
X536515Y12250D02*
X550485D01*
X543500Y5265D02*
Y19235D01*
X485461Y12250D02*
X499431D01*
X492446Y5265D02*
Y19235D01*
X485461Y63304D02*
X499431D01*
X492446Y56319D02*
Y70289D01*
X510480Y37777D02*
X525466D01*
X517973Y30284D02*
Y45270D01*
X169709Y223750D02*
X177709D01*
X173709Y219750D02*
Y227750D01*
X149709Y223750D02*
X157709D01*
X153709Y219750D02*
Y227750D01*
X129709Y223750D02*
X137709D01*
X133709Y219750D02*
Y227750D01*
X892087Y493924D02*
X905087D01*
X898587Y487424D02*
Y500424D01*
X828587Y493924D02*
X841587D01*
X835087Y487424D02*
Y500424D01*
X753838Y493924D02*
X766838D01*
X760338Y487424D02*
Y500424D01*
X690338Y493924D02*
X703338D01*
X696838Y487424D02*
Y500424D01*
X952349Y89270D02*
X965349D01*
X958849Y82770D02*
Y95770D01*
X952349Y152770D02*
X965349D01*
X958849Y146270D02*
Y159270D01*
X903641Y-23423D02*
X916641D01*
X910141Y-29923D02*
Y-16923D01*
X526070Y380020D02*
X529570D01*
X527820Y378270D02*
Y381770D01*
X533670Y387620D02*
X537170D01*
X535420Y385870D02*
Y389370D01*
X840141Y-23423D02*
X853141D01*
X846641Y-29923D02*
Y-16923D01*
X975000Y520000D02*
X1005000D01*
X990000Y505000D02*
Y535000D01*
X975000Y0D02*
X1005000D01*
X990000Y-15000D02*
Y15000D01*
X-15000Y0D02*
X15000D01*
X0Y-15000D02*
Y15000D01*
X-15000Y520000D02*
X15000D01*
X0Y505000D02*
Y535000D01*
X6250Y309850D02*
X16250D01*
X11250Y304850D02*
Y314850D01*
X6250Y233650D02*
X16250D01*
X11250Y228650D02*
Y238650D01*
X83250Y309850D02*
X93250D01*
X88250Y304850D02*
Y314850D01*
X83250Y284450D02*
X93250D01*
X88250Y279450D02*
Y289450D01*
X83250Y259050D02*
X93250D01*
X88250Y254050D02*
Y264050D01*
X83250Y233650D02*
X93250D01*
X88250Y228650D02*
Y238650D01*
X6250Y366650D02*
X16250D01*
X11250Y361650D02*
Y371650D01*
X6250Y442850D02*
X16250D01*
X11250Y437850D02*
Y447850D01*
X83250Y442850D02*
X93250D01*
X88250Y437850D02*
Y447850D01*
X83250Y417450D02*
X93250D01*
X88250Y412450D02*
Y422450D01*
X83250Y366650D02*
X93250D01*
X88250Y361650D02*
Y371650D01*
X425500Y-17500D02*
X438500D01*
X432000Y-24000D02*
Y-11000D01*
X362000Y-17500D02*
X375000D01*
X368500Y-24000D02*
Y-11000D01*
X125000Y-13000D02*
X138000D01*
X131500Y-19500D02*
Y-6500D01*
X188500Y-13000D02*
X201500D01*
X195000Y-19500D02*
Y-6500D01*
X91000Y99750D02*
X99000D01*
X95000Y95750D02*
Y103750D01*
X91000Y79750D02*
X99000D01*
X95000Y75750D02*
Y83750D01*
X91000Y59750D02*
X99000D01*
X95000Y55750D02*
Y63750D01*
X71000Y59750D02*
X79000D01*
X75000Y55750D02*
Y63750D01*
X71000Y79750D02*
X79000D01*
X75000Y75750D02*
Y83750D01*
X71000Y99750D02*
X79000D01*
X75000Y95750D02*
Y103750D01*
X165250Y100250D02*
X173250D01*
X169250Y96250D02*
Y104250D01*
X145250Y100250D02*
X153250D01*
X149250Y96250D02*
Y104250D01*
X125250Y100250D02*
X133250D01*
X129250Y96250D02*
Y104250D01*
X83500Y507500D02*
X96500D01*
X90000Y501000D02*
Y514000D01*
X147000Y507500D02*
X160000D01*
X153500Y501000D02*
Y514000D01*
X223000Y507500D02*
X236000D01*
X229500Y501000D02*
Y514000D01*
X286500Y507500D02*
X299500D01*
X293000Y501000D02*
Y514000D01*
X470542Y486973D02*
X484512D01*
X477527Y479988D02*
Y493958D01*
X419488Y486973D02*
X433458D01*
X426473Y479988D02*
Y493958D01*
X419488Y538027D02*
X433458D01*
X426473Y531042D02*
Y545012D01*
X470542Y538027D02*
X484512D01*
X477527Y531042D02*
Y545012D01*
X444507Y512500D02*
X459493D01*
X452000Y505007D02*
Y519993D01*
X526070Y387620D02*
X529570D01*
X527820Y385870D02*
Y389370D01*
X533670Y380020D02*
X537170D01*
X535420Y378270D02*
Y381770D01*
X1000Y59500D02*
X9000D01*
X5000Y55500D02*
Y63500D01*
X21000Y59500D02*
X29000D01*
X25000Y55500D02*
Y63500D01*
X41000Y59500D02*
X49000D01*
X45000Y55500D02*
Y63500D01*
X399950Y67700D02*
X403450D01*
X401700Y65950D02*
Y69450D01*
X835426Y119678D02*
X838926D01*
X837176Y117928D02*
Y121428D01*
X835426Y126678D02*
X838926D01*
X837176Y124928D02*
Y128428D01*
X835426Y133678D02*
X838926D01*
X837176Y131928D02*
Y135428D01*
X483161Y380387D02*
X486660D01*
X484910Y378637D02*
Y382137D01*
X506068Y390087D02*
X509568D01*
X507818Y388337D02*
Y391837D01*
X506068Y377009D02*
X509568D01*
X507818Y375259D02*
Y378759D01*
X393746Y334132D02*
X397246D01*
X395496Y332382D02*
Y335882D01*
X415654Y342658D02*
X419154D01*
X417404Y340908D02*
Y344408D01*
X432645Y367406D02*
X436145D01*
X434395Y365656D02*
Y369156D01*
X433247Y354997D02*
X436746D01*
X434996Y353247D02*
Y356747D01*
X453246Y354731D02*
X456746D01*
X454996Y352981D02*
Y356481D01*
X453070Y413034D02*
X456570D01*
X454820Y411284D02*
Y414784D01*
X463368Y413034D02*
X466867D01*
X465117Y411284D02*
Y414784D01*
X463840Y354731D02*
X467340D01*
X465590Y352981D02*
Y356481D01*
X483230Y386883D02*
X486730D01*
X484980Y385133D02*
Y388633D01*
X460018Y217409D02*
X463518D01*
X461768Y215659D02*
Y219159D01*
X408000Y250209D02*
X411500D01*
X409750Y248459D02*
Y251959D01*
X424750Y250209D02*
X428250D01*
X426500Y248459D02*
Y251959D01*
X712399Y195179D02*
X715899D01*
X714149Y193429D02*
Y196929D01*
X737221Y195179D02*
X740721D01*
X738971Y193429D02*
Y196929D01*
X712399Y180662D02*
X715899D01*
X714149Y178912D02*
Y182412D01*
X737221Y180662D02*
X740721D01*
X738971Y178912D02*
Y182412D01*
X397848Y465732D02*
X401348D01*
X399598Y463982D02*
Y467482D01*
X238250Y400000D02*
X241750D01*
X240000Y398250D02*
Y401750D01*
X268250Y400000D02*
X271750D01*
X270000Y398250D02*
Y401750D01*
X253250Y415000D02*
X256750D01*
X255000Y413250D02*
Y416750D01*
X283250Y415000D02*
X286750D01*
X285000Y413250D02*
Y416750D01*
X238250Y435000D02*
X241750D01*
X240000Y433250D02*
Y436750D01*
X268250Y435000D02*
X271750D01*
X270000Y433250D02*
Y436750D01*
X283250Y450000D02*
X286750D01*
X285000Y448250D02*
Y451750D01*
X253250Y450000D02*
X256750D01*
X255000Y448250D02*
Y451750D01*
X586291Y299008D02*
X589791D01*
X588041Y297258D02*
Y300758D01*
X555209Y299008D02*
X558709D01*
X556959Y297258D02*
Y300758D01*
X501000Y112600D02*
X504500D01*
X502750Y110850D02*
Y114350D01*
X579750Y56900D02*
X583250D01*
X581500Y55150D02*
Y58650D01*
X696250Y54500D02*
X699750D01*
X698000Y52750D02*
Y56250D01*
X835234Y198486D02*
X838734D01*
X836984Y196736D02*
Y200236D01*
X835234Y191486D02*
X838734D01*
X836984Y189736D02*
Y193236D01*
X835234Y205486D02*
X838734D01*
X836984Y203736D02*
Y207236D01*
X835234Y212486D02*
X838734D01*
X836984Y210736D02*
Y214236D01*
X835234Y219486D02*
X838734D01*
X836984Y217736D02*
Y221236D01*
X835229Y154487D02*
X838729D01*
X836979Y152737D02*
Y156236D01*
X835229Y147486D02*
X838729D01*
X836980Y145737D02*
Y149236D01*
X835229Y161486D02*
X838729D01*
X836979Y159736D02*
Y163237D01*
X835229Y168486D02*
X838729D01*
X836979Y166737D02*
Y170236D01*
X835229Y175487D02*
X838729D01*
X836979Y173736D02*
Y177236D01*
X852229Y361686D02*
X855729D01*
X853979Y359936D02*
Y363436D01*
X852229Y354686D02*
X855729D01*
X853979Y352936D02*
Y356436D01*
X852229Y368686D02*
X855729D01*
X853979Y366936D02*
Y370436D01*
X852229Y375686D02*
X855729D01*
X853979Y373936D02*
Y377436D01*
X852229Y382686D02*
X855729D01*
X853979Y380936D02*
Y384436D01*
X852979Y408237D02*
X856479D01*
X854729Y406487D02*
Y409987D01*
X852979Y401237D02*
X856479D01*
X854729Y399487D02*
Y402987D01*
X852979Y415237D02*
X856479D01*
X854729Y413487D02*
Y416987D01*
X852979Y422237D02*
X856479D01*
X854729Y420487D02*
Y423987D01*
X852979Y429237D02*
X856479D01*
X854729Y427487D02*
Y430987D01*
X147041Y247500D02*
X150541D01*
X148791Y245750D02*
Y249250D01*
X147041Y266250D02*
X150541D01*
X148791Y264500D02*
Y268000D01*
X147041Y321000D02*
X150541D01*
X148791Y319250D02*
Y322750D01*
X147041Y449250D02*
X150541D01*
X148791Y447500D02*
Y451000D01*
X150600Y353750D02*
X154100D01*
X152350Y352000D02*
Y355500D01*
X147041Y374750D02*
X150541D01*
X148791Y373000D02*
Y376500D01*
X147041Y392250D02*
X150541D01*
X148791Y390500D02*
Y394000D01*
X230541Y70992D02*
X234041D01*
X232291Y69242D02*
Y72742D01*
X265330Y52250D02*
X268830D01*
X267080Y50500D02*
Y54000D01*
X255170Y52250D02*
X258670D01*
X256920Y50500D02*
Y54000D01*
X260250Y69776D02*
X263750D01*
X262000Y68026D02*
Y71526D01*
X260250Y34724D02*
X263750D01*
X262000Y32974D02*
Y36474D01*
X352041Y63304D02*
X355541D01*
X353791Y61554D02*
Y65054D01*
X352041Y48787D02*
X355541D01*
X353791Y47037D02*
Y50537D01*
X399950Y97700D02*
X403450D01*
X401700Y95950D02*
Y99450D01*
X391950Y97700D02*
X395450D01*
X393700Y95950D02*
Y99450D01*
X407950Y97700D02*
X411450D01*
X409700Y95950D02*
Y99450D01*
X407950Y82700D02*
X411450D01*
X409700Y80950D02*
Y84450D01*
X391950Y82700D02*
X395450D01*
X393700Y80950D02*
Y84450D01*
X391950Y67700D02*
X395450D01*
X393700Y65950D02*
Y69450D01*
X407950Y67700D02*
X411450D01*
X409700Y65950D02*
Y69450D01*
X434459Y50750D02*
X437959D01*
X436209Y49000D02*
Y52500D01*
X482750Y147483D02*
X486250D01*
X484500Y145733D02*
Y149233D01*
X487541Y152515D02*
X491041D01*
X489291Y150765D02*
Y154265D01*
X487541Y167033D02*
X491041D01*
X489291Y165283D02*
Y168783D01*
X542780Y156959D02*
X546280D01*
X544530Y155209D02*
Y158709D01*
X528263Y156959D02*
X531763D01*
X530013Y155209D02*
Y158709D01*
X528241Y140209D02*
X531741D01*
X529991Y138459D02*
Y141959D01*
X542758Y140209D02*
X546258D01*
X544508Y138459D02*
Y141959D01*
X609500Y153709D02*
X613000D01*
X611250Y151959D02*
Y155459D01*
X594983Y153709D02*
X598483D01*
X596733Y151959D02*
Y155459D01*
X609259Y136959D02*
X612759D01*
X611009Y135209D02*
Y138709D01*
X594742Y136959D02*
X598242D01*
X596492Y135209D02*
Y138709D01*
X583291Y115033D02*
X586791D01*
X585041Y113283D02*
Y116783D01*
X556709Y115283D02*
X560209D01*
X558459Y113533D02*
Y117033D01*
X556709Y100765D02*
X560209D01*
X558459Y99016D02*
Y102515D01*
X583291Y100515D02*
X586791D01*
X585041Y98766D02*
Y102266D01*
X793880Y128870D02*
X797380D01*
X795630Y127120D02*
Y130620D01*
X764670Y128870D02*
X768170D01*
X766420Y127120D02*
Y130620D01*
X747871Y105732D02*
X751371D01*
X749621Y103982D02*
Y107482D01*
X747871Y120249D02*
X751371D01*
X749621Y118499D02*
Y121999D01*
X720509Y120249D02*
X724009D01*
X722259Y118499D02*
Y121999D01*
X720509Y105732D02*
X724009D01*
X722259Y103982D02*
Y107482D01*
X629209Y114508D02*
X632709D01*
X630959Y112758D02*
Y116258D01*
X629209Y99991D02*
X632709D01*
X630959Y98241D02*
Y101741D01*
X655541Y99991D02*
X659041D01*
X657291Y98241D02*
Y101741D01*
X655541Y114508D02*
X659041D01*
X657291Y112758D02*
Y116258D01*
X557500Y188250D02*
X561000D01*
X559250Y186500D02*
Y190000D01*
X570500Y188250D02*
X574000D01*
X572250Y186500D02*
Y190000D01*
X655250Y188250D02*
X658750D01*
X657000Y186500D02*
Y190000D01*
X668000Y188250D02*
X671500D01*
X669750Y186500D02*
Y190000D01*
X641740Y260470D02*
X645240D01*
X643490Y258720D02*
Y262220D01*
X641740Y267220D02*
X645240D01*
X643490Y265470D02*
Y268970D01*
X641740Y253720D02*
X645240D01*
X643490Y251970D02*
Y255470D01*
X556630Y217409D02*
X560130D01*
X558380Y215659D02*
Y219159D01*
X264185Y306000D02*
X267685D01*
X265935Y304250D02*
Y307750D01*
X256291Y325250D02*
X259791D01*
X258041Y323500D02*
Y327000D01*
X548520Y387292D02*
X552020D01*
X550270Y385542D02*
Y389042D01*
X548195Y380017D02*
X551695D01*
X549945Y378267D02*
Y381767D01*
X484832Y403935D02*
X488332D01*
X486582Y402185D02*
Y405685D01*
X484832Y362500D02*
X488332D01*
X486582Y360750D02*
Y364250D01*
X416743Y335437D02*
X420243D01*
X418493Y333687D02*
Y337187D01*
X382979Y337189D02*
X386479D01*
X384729Y335439D02*
Y338940D01*
X358568Y356632D02*
X362068D01*
X360318Y354882D02*
Y358382D01*
X360727Y337189D02*
X364226D01*
X362477Y335439D02*
Y338940D01*
X835426Y112678D02*
X838926D01*
X837176Y110928D02*
Y114428D01*
X835426Y105678D02*
X838926D01*
X837176Y103928D02*
Y107428D01*
X983816Y236563D02*
X987316D01*
X985566Y234813D02*
Y238313D01*
X983816Y243563D02*
X987316D01*
X985566Y241813D02*
Y245313D01*
X983816Y229563D02*
X987316D01*
X985566Y227813D02*
Y231313D01*
X983816Y222563D02*
X987316D01*
X985566Y220813D02*
Y224313D01*
X983816Y215563D02*
X987316D01*
X985566Y213813D02*
Y217313D01*
X983816Y283114D02*
X987316D01*
X985566Y281364D02*
Y284863D01*
X983816Y290114D02*
X987316D01*
X985566Y288364D02*
Y291864D01*
X983816Y276114D02*
X987316D01*
X985566Y274364D02*
Y277864D01*
X983816Y269114D02*
X987316D01*
X985566Y267364D02*
Y270863D01*
X983816Y262113D02*
X987316D01*
X985566Y260364D02*
Y263864D01*
X983816Y329664D02*
X987316D01*
X985566Y327914D02*
Y331413D01*
X983816Y336664D02*
X987316D01*
X985566Y334914D02*
Y338414D01*
X983816Y322664D02*
X987316D01*
X985566Y320914D02*
Y324413D01*
X983816Y315664D02*
X987316D01*
X985566Y313914D02*
Y317414D01*
X983816Y308664D02*
X987316D01*
X985566Y306914D02*
Y310413D01*
X983816Y376213D02*
X987316D01*
X985566Y374464D02*
Y377963D01*
X983816Y383214D02*
X987316D01*
X985566Y381464D02*
Y384963D01*
X983816Y369214D02*
X987316D01*
X985566Y367464D02*
Y370964D01*
X983816Y362214D02*
X987316D01*
X985566Y360464D02*
Y363964D01*
X983816Y355214D02*
X987316D01*
X985566Y353464D02*
Y356964D01*
X983816Y401763D02*
X987316D01*
X985566Y400014D02*
Y403513D01*
X983816Y408764D02*
X987316D01*
X985566Y407014D02*
Y410513D01*
X983816Y415764D02*
X987316D01*
X985566Y414014D02*
Y417514D01*
X404306Y384139D02*
X407806D01*
X406056Y382389D02*
Y385889D01*
X404306Y373139D02*
X407806D01*
X406056Y371389D02*
Y374889D01*
X404306Y362139D02*
X407806D01*
X406056Y360389D02*
Y363889D01*
X393306Y384139D02*
X396806D01*
X395056Y382389D02*
Y385889D01*
X393306Y373139D02*
X396806D01*
X395056Y371389D02*
Y374889D01*
X393306Y362139D02*
X396806D01*
X395056Y360389D02*
Y363889D01*
X382306Y384139D02*
X385806D01*
X384056Y382389D02*
Y385889D01*
X382306Y373139D02*
X385806D01*
X384056Y371389D02*
Y374889D01*
X382306Y362139D02*
X385806D01*
X384056Y360389D02*
Y363889D01*
X983816Y429764D02*
X987316D01*
X985566Y428014D02*
Y431513D01*
X983816Y422763D02*
X987316D01*
X985566Y421014D02*
Y424514D01*
X579388Y493577D02*
X582888D01*
X581138Y491827D02*
Y495326D01*
X645750Y215500D02*
X649250D01*
X647500Y213750D02*
Y217250D01*
X706210Y-30000D02*
X709710D01*
X707960Y-31750D02*
Y-28250D01*
X423348Y406132D02*
X426848D01*
X425098Y404382D02*
Y407882D01*
X430098Y398132D02*
X433598D01*
X431848Y396382D02*
Y399882D01*
X407068Y416381D02*
X410568D01*
X408818Y414632D02*
Y418131D01*
X363200Y415279D02*
X366700D01*
X364950Y413529D02*
Y417029D01*
X10830Y95000D02*
X14330D01*
X12580Y93250D02*
Y96750D01*
X545090Y360314D02*
X548590D01*
X546840Y358564D02*
Y362064D01*
X358318Y347132D02*
X361818D01*
X360068Y345382D02*
Y348882D01*
X358568Y380882D02*
X362068D01*
X360318Y379132D02*
Y382632D01*
X358568Y390882D02*
X362068D01*
X360318Y389132D02*
Y392632D01*
X358568Y370631D02*
X362068D01*
X360318Y368881D02*
Y372382D01*
X390848Y418882D02*
X394348D01*
X392598Y417132D02*
Y420632D01*
X390848Y409882D02*
X394348D01*
X392598Y408132D02*
Y411632D01*
X615173Y395840D02*
X618673D01*
X616923Y394090D02*
Y397590D01*
X602422Y395840D02*
X605923D01*
X604173Y394090D02*
Y397590D01*
X590066Y395840D02*
X593566D01*
X591816Y394090D02*
Y397590D01*
X627673Y395840D02*
X631173D01*
X629423Y394090D02*
Y397590D01*
X565080Y395840D02*
X568580D01*
X566830Y394090D02*
Y397590D01*
X577573Y395840D02*
X581073D01*
X579323Y394090D02*
Y397590D01*
X652529Y395840D02*
X656029D01*
X654279Y394090D02*
Y397590D01*
X640036Y395840D02*
X643536D01*
X641786Y394090D02*
Y397590D01*
X665022Y395840D02*
X668522D01*
X666772Y394090D02*
Y397590D01*
X677514Y395840D02*
X681014D01*
X679265Y394090D02*
Y397590D01*
M02*
