G04*
G04 #@! TF.GenerationSoftware,Altium Limited,Altium Designer,22.0.2 (36)*
G04*
G04 Layer_Color=32896*
%FSLAX44Y44*%
%MOMM*%
G71*
G04*
G04 #@! TF.SameCoordinates,A00C5D83-CF48-4284-9485-F4BE2AF80D81*
G04*
G04*
G04 #@! TF.FilePolarity,Positive*
G04*
G01*
G75*
%ADD13C,0.2540*%
D13*
X907147Y457460D02*
Y447303D01*
Y452382D01*
X922382D01*
Y434607D02*
Y439686D01*
X919843Y442225D01*
X914764D01*
X912225Y439686D01*
Y434607D01*
X914764Y432068D01*
X917303D01*
Y442225D01*
X912225Y424451D02*
Y419372D01*
X914764Y416833D01*
X922382D01*
Y424451D01*
X919843Y426990D01*
X917303Y424451D01*
Y416833D01*
X922382Y411755D02*
X912225D01*
Y409216D01*
X914764Y406676D01*
X922382D01*
X914764D01*
X912225Y404137D01*
X914764Y401598D01*
X922382D01*
Y371128D02*
Y381285D01*
X912225Y371128D01*
X909686D01*
X907147Y373667D01*
Y378745D01*
X909686Y381285D01*
X922382Y355893D02*
Y366050D01*
X912225Y355893D01*
X909686D01*
X907147Y358432D01*
Y363510D01*
X909686Y366050D01*
Y350815D02*
X907147Y348275D01*
Y343197D01*
X909686Y340658D01*
X919843D01*
X922382Y343197D01*
Y348275D01*
X919843Y350815D01*
X909686D01*
X907147Y325423D02*
X909686Y330501D01*
X914764Y335579D01*
X919843D01*
X922382Y333040D01*
Y327962D01*
X919843Y325423D01*
X917303D01*
X914764Y327962D01*
Y335579D01*
Y305109D02*
Y294953D01*
X909686Y264482D02*
X907147Y267022D01*
Y272100D01*
X909686Y274639D01*
X919843D01*
X922382Y272100D01*
Y267022D01*
X919843Y264482D01*
X914764D01*
Y269561D01*
X912225Y256865D02*
Y251786D01*
X914764Y249247D01*
X922382D01*
Y256865D01*
X919843Y259404D01*
X917303Y256865D01*
Y249247D01*
X922382Y244169D02*
X907147D01*
X922382Y234012D01*
X907147D01*
Y206081D02*
Y211160D01*
X909686Y213699D01*
X919843D01*
X922382Y211160D01*
Y206081D01*
X919843Y203542D01*
X909686D01*
X907147Y206081D01*
X927460Y198464D02*
X912225D01*
Y190846D01*
X914764Y188307D01*
X919843D01*
X922382Y190846D01*
Y198464D01*
X909686Y180690D02*
X912225D01*
Y183229D01*
Y178150D01*
Y180690D01*
X919843D01*
X922382Y178150D01*
Y170533D02*
Y165455D01*
Y167994D01*
X912225D01*
Y170533D01*
Y147680D02*
Y155298D01*
X914764Y157837D01*
X919843D01*
X922382Y155298D01*
Y147680D01*
X912225Y140063D02*
Y134984D01*
X914764Y132445D01*
X922382D01*
Y140063D01*
X919843Y142602D01*
X917303Y140063D01*
Y132445D01*
X922382Y127367D02*
Y122288D01*
Y124828D01*
X907147D01*
Y127367D01*
X909686Y89279D02*
X907147Y91818D01*
Y96897D01*
X909686Y99436D01*
X912225D01*
X914764Y96897D01*
Y91818D01*
X917303Y89279D01*
X919843D01*
X922382Y91818D01*
Y96897D01*
X919843Y99436D01*
X912225Y84201D02*
X919843D01*
X922382Y81662D01*
X919843Y79122D01*
X922382Y76583D01*
X919843Y74044D01*
X912225D01*
X909686Y66427D02*
X912225D01*
Y68966D01*
Y63887D01*
Y66427D01*
X919843D01*
X922382Y63887D01*
Y56270D02*
Y51191D01*
Y53731D01*
X912225D01*
Y56270D01*
Y33417D02*
Y41035D01*
X914764Y43574D01*
X919843D01*
X922382Y41035D01*
Y33417D01*
X907147Y28339D02*
X922382D01*
X914764D01*
X912225Y25800D01*
Y20721D01*
X914764Y18182D01*
X922382D01*
M02*
